<svg xmlns="http://www.w3.org/2000/svg" width="1200" height="720" viewBox="0 0 1200 720">
<rect width="1200" height="720" fill="#ffffff"/>
<text x="60" y="52" font-family="Arial, sans-serif" font-size="28" font-weight="700" fill="#202124">Lag-conditioned event transfer</text>
<text x="60" y="82" font-family="Arial, sans-serif" font-size="15" fill="#5f6368">Retrospective Obadiya-Sussman KA diagnostic; held-out errors, no macro fit.</text>
<rect x="55" y="110" width="525" height="430" rx="6" fill="#f8f9fa" stroke="#dadce0"/>
<text x="75" y="145" font-family="Arial, sans-serif" font-size="20" font-weight="700" fill="#202124">T = 0.45 ensemble canary</text>
<text x="75" y="178" font-family="Arial, sans-serif" font-size="16" fill="#202124">MSD</text><rect x="190" y="162" width="300" height="18" fill="#e8eaed"/><rect x="190" y="162" width="144.7" height="18" fill="#2e7d5b"/><line x1="390" y1="158" x2="390" y2="184" stroke="#202124" stroke-width="2"/><text x="505" y="178" font-family="Arial, sans-serif" font-size="14" fill="#4b5563">0.072 / 0.10</text><text x="75" y="240" font-family="Arial, sans-serif" font-size="16" fill="#202124">NGP</text><rect x="190" y="224" width="300" height="18" fill="#e8eaed"/><rect x="190" y="224" width="157.5" height="18" fill="#2e7d5b"/><line x1="390" y1="220" x2="390" y2="246" stroke="#202124" stroke-width="2"/><text x="505" y="240" font-family="Arial, sans-serif" font-size="14" fill="#4b5563">0.236 / 0.30</text><text x="75" y="302" font-family="Arial, sans-serif" font-size="16" fill="#202124">multi-k Fs</text><rect x="190" y="286" width="300" height="18" fill="#e8eaed"/><rect x="190" y="286" width="159.0" height="18" fill="#2e7d5b"/><line x1="390" y1="282" x2="390" y2="308" stroke="#202124" stroke-width="2"/><text x="505" y="302" font-family="Arial, sans-serif" font-size="14" fill="#4b5563">0.024 / 0.03</text>
<text x="75" y="382" font-family="Arial, sans-serif" font-size="15" fill="#202124">replicate transfer: fail</text>
<text x="75" y="412" font-family="Arial, sans-serif" font-size="15" fill="#202124">independent parents: 1</text>
<text x="75" y="442" font-family="Arial, sans-serif" font-size="15" fill="#202124">high-T oracle factorization: fail</text>
<text x="75" y="472" font-family="Arial, sans-serif" font-size="14" fill="#9b3a32">lag-pooled K(n): fail, max Fs error 0.033</text>
<text x="75" y="498" font-family="Arial, sans-serif" font-size="14" fill="#2e7d5b">lag-conditioned Kt(n): pass, max Fs error 0.024</text>
<text x="75" y="524" font-family="Arial, sans-serif" font-size="13" fill="#5f6368">T = 0.58 oracle MSD/NGP/Fs: 0.365 / 0.573 / 0.056</text>
<text x="680" y="135" font-family="Arial, sans-serif" font-size="16" font-weight="700" fill="#202124">Held-out F_s(k=7.25,t), T = 0.45</text>
<rect x="680" y="155" width="450" height="340" fill="#ffffff" stroke="#dadce0"/>
<line x1="680" y1="369.9" x2="1130" y2="369.9" stroke="#9aa0a6" stroke-dasharray="6 5"/>
<polyline points="680.0,247.9 757.5,257.2 816.1,267.7 874.7,282.9 952.2,315.1 1010.8,350.4 1069.4,396.6 1103.7,422.6 1130.0,441.1" fill="none" stroke="#202124" stroke-width="3"/>
<polyline points="680.0,250.4 757.5,261.7 816.1,274.4 874.7,291.7 952.2,322.6 1010.8,353.8 1069.4,390.7 1103.7,414.2 1130.0,431.8" fill="none" stroke="#6f42c1" stroke-width="2.5" stroke-dasharray="7 5"/>
<polyline points="680.0,251.5 757.5,262.5 816.1,274.6 874.7,291.1 952.2,320.7 1010.8,352.2 1069.4,390.8 1103.7,416.2 1130.0,436.4" fill="none" stroke="#d55e00" stroke-width="3"/>
<text x="680" y="530" font-family="Arial, sans-serif" font-size="14" fill="#202124">20</text>
<text x="1088" y="530" font-family="Arial, sans-serif" font-size="14" fill="#202124">4096</text>
<text x="775" y="555" font-family="Arial, sans-serif" font-size="14" fill="#202124">black: held-out observation</text>
<text x="775" y="578" font-family="Arial, sans-serif" font-size="14" fill="#6f42c1">purple dashed: lag-pooled K(n)</text>
<text x="775" y="601" font-family="Arial, sans-serif" font-size="14" fill="#d55e00">orange: lag-conditioned Kt(n)</text>
<rect x="55" y="575" width="525" height="110" rx="6" fill="#fff7e6" stroke="#e6b85c"/>
<text x="75" y="610" font-family="Arial, sans-serif" font-size="15" font-weight="700" fill="#5b3b00">Claim boundary</text>
<text x="75" y="634" font-family="Arial, sans-serif" font-size="13" fill="#5b3b00">Positive ensemble canary; not an independent-parent forecast or finite-memory model.</text>
<text x="75" y="656" font-family="Arial, sans-serif" font-size="13" fill="#5b3b00">No universal cage-event representation, spatial-facilitation theory,</text>
<text x="75" y="678" font-family="Arial, sans-serif" font-size="13" fill="#5b3b00">or thermodynamic theory is claimed.</text>
</svg>