<svg xmlns="http://www.w3.org/2000/svg" width="1220" height="520" viewBox="0 0 1220 520">
<rect width="100%" height="100%" fill="#ffffff" />
<text x="70" y="44" font-family="Arial, sans-serif" font-size="24" font-weight="700">Glass signature claim ladder</text>
<text x="70" y="68" font-family="Arial, sans-serif" font-size="13" fill="#444">The same dynamical audit is converted into safe manuscript claims: derived signatures, conditional barrier-law trends, proxy spatial closures, and thermodynamic scope boundaries.</text>
<text x="70" y="80" font-family="Arial, sans-serif" font-size="12" font-weight="700">signature</text>
<text x="380" y="80" font-family="Arial, sans-serif" font-size="12" font-weight="700">claim class</text>
<text x="610" y="80" font-family="Arial, sans-serif" font-size="12" font-weight="700">allowed public claim</text>
<text x="950" y="80" font-family="Arial, sans-serif" font-size="12" font-weight="700">blocker</text>
<rect x="70" y="96" width="1070" height="25" fill="#f7fafc" />
<rect x="380" y="96" width="185" height="25" rx="3" fill="#2f855a" opacity="0.9" />
<text x="80" y="113" font-family="Arial, sans-serif" font-size="12">diffusion slowdown</text>
<text x="392" y="113" font-family="Arial, sans-serif" font-size="11" fill="#fff">derived</text>
<text x="610" y="113" font-family="Arial, sans-serif" font-size="11">dynamical signature claim</text>
<text x="950" y="113" font-family="Arial, sans-serif" font-size="11">none</text>
<rect x="70" y="130" width="1070" height="25" fill="#f7fafc" />
<rect x="380" y="130" width="185" height="25" rx="3" fill="#2f855a" opacity="0.9" />
<text x="80" y="147" font-family="Arial, sans-serif" font-size="12">alpha slowdown</text>
<text x="392" y="147" font-family="Arial, sans-serif" font-size="11" fill="#fff">derived</text>
<text x="610" y="147" font-family="Arial, sans-serif" font-size="11">dynamical signature claim</text>
<text x="950" y="147" font-family="Arial, sans-serif" font-size="11">none</text>
<rect x="70" y="164" width="1070" height="25" fill="#f7fafc" />
<rect x="380" y="164" width="185" height="25" rx="3" fill="#2f855a" opacity="0.9" />
<text x="80" y="181" font-family="Arial, sans-serif" font-size="12">ngp peak shift</text>
<text x="392" y="181" font-family="Arial, sans-serif" font-size="11" fill="#fff">derived</text>
<text x="610" y="181" font-family="Arial, sans-serif" font-size="11">dynamical signature claim</text>
<text x="950" y="181" font-family="Arial, sans-serif" font-size="11">none</text>
<rect x="70" y="198" width="1070" height="25" fill="#f7fafc" />
<rect x="380" y="198" width="185" height="25" rx="3" fill="#2f855a" opacity="0.9" />
<text x="80" y="215" font-family="Arial, sans-serif" font-size="12">stokes einstein violation</text>
<text x="392" y="215" font-family="Arial, sans-serif" font-size="11" fill="#fff">derived</text>
<text x="610" y="215" font-family="Arial, sans-serif" font-size="11">dynamical signature claim</text>
<text x="950" y="215" font-family="Arial, sans-serif" font-size="11">none</text>
<rect x="70" y="232" width="1070" height="25" fill="#f7fafc" />
<rect x="380" y="232" width="185" height="25" rx="3" fill="#2f855a" opacity="0.9" />
<text x="80" y="249" font-family="Arial, sans-serif" font-size="12">heterogeneity growth</text>
<text x="392" y="249" font-family="Arial, sans-serif" font-size="11" fill="#fff">derived</text>
<text x="610" y="249" font-family="Arial, sans-serif" font-size="11">dynamical signature claim</text>
<text x="950" y="249" font-family="Arial, sans-serif" font-size="11">none</text>
<rect x="70" y="266" width="1070" height="25" fill="#f7fafc" />
<rect x="380" y="266" width="185" height="25" rx="3" fill="#2f855a" opacity="0.9" />
<text x="80" y="283" font-family="Arial, sans-serif" font-size="12">stretched alpha window</text>
<text x="392" y="283" font-family="Arial, sans-serif" font-size="11" fill="#fff">derived</text>
<text x="610" y="283" font-family="Arial, sans-serif" font-size="11">dynamical signature claim</text>
<text x="950" y="283" font-family="Arial, sans-serif" font-size="11">none</text>
<rect x="70" y="300" width="1070" height="25" fill="#f7fafc" />
<rect x="380" y="300" width="185" height="25" rx="3" fill="#2f855a" opacity="0.9" />
<text x="80" y="317" font-family="Arial, sans-serif" font-size="12">gaussian recovery</text>
<text x="392" y="317" font-family="Arial, sans-serif" font-size="11" fill="#fff">derived</text>
<text x="610" y="317" font-family="Arial, sans-serif" font-size="11">dynamical signature claim</text>
<text x="950" y="317" font-family="Arial, sans-serif" font-size="11">none</text>
<rect x="70" y="334" width="1070" height="25" fill="#f7fafc" />
<rect x="380" y="334" width="185" height="25" rx="3" fill="#d69e2e" opacity="0.9" />
<text x="80" y="351" font-family="Arial, sans-serif" font-size="12">fragility growth</text>
<text x="392" y="351" font-family="Arial, sans-serif" font-size="11" fill="#fff">conditional</text>
<text x="610" y="351" font-family="Arial, sans-serif" font-size="11">conditional fragility trend claim</text>
<text x="950" y="351" font-family="Arial, sans-serif" font-size="11">barrier law origin</text>
<rect x="70" y="368" width="1070" height="25" fill="#f7fafc" />
<rect x="380" y="368" width="185" height="25" rx="3" fill="#2b6cb0" opacity="0.9" />
<text x="80" y="385" font-family="Arial, sans-serif" font-size="12">chi4 peak growth</text>
<text x="392" y="385" font-family="Arial, sans-serif" font-size="11" fill="#fff">proxy</text>
<text x="610" y="385" font-family="Arial, sans-serif" font-size="11">chi4 proxy closure claim</text>
<text x="950" y="385" font-family="Arial, sans-serif" font-size="11">spatial correlation closure</text>
<rect x="70" y="402" width="1070" height="25" fill="#f7fafc" />
<rect x="380" y="402" width="185" height="25" rx="3" fill="#805ad5" opacity="0.9" />
<text x="80" y="419" font-family="Arial, sans-serif" font-size="12">thermodynamic transition</text>
<text x="392" y="419" font-family="Arial, sans-serif" font-size="11" fill="#fff">scope boundary</text>
<text x="610" y="419" font-family="Arial, sans-serif" font-size="11">thermodynamic scope boundary only</text>
<text x="950" y="419" font-family="Arial, sans-serif" font-size="11">thermodynamic input law</text>
</svg>
