<svg xmlns="http://www.w3.org/2000/svg" width="1160" height="590" viewBox="0 0 1160 590">
  <rect width="100%" height="100%" fill="#ffffff" />
  <text x="70" y="42" font-family="Arial, sans-serif" font-size="24" font-weight="700">Real benchmark assimilation gate</text>
  <text x="70" y="66" font-family="Arial, sans-serif" font-size="13" fill="#444">Published benchmark claims must pass observable coverage, shared-system, machine-readable, and uncertainty gates before quantitative inversion.</text>
  <text x="70" y="82" font-family="Arial, sans-serif" font-size="12" font-weight="700">benchmark</text>
  <text x="345" y="82" font-family="Arial, sans-serif" font-size="12" font-weight="700">protocol</text>
  <text x="525" y="82" font-family="Arial, sans-serif" font-size="12" font-weight="700">required-observable coverage</text>
  <text x="760" y="82" font-family="Arial, sans-serif" font-size="12" font-weight="700">assimilation stage</text>
  <text x="70" y="120" font-family="Arial, sans-serif" font-size="11">kob andersen published figures</text><text x="345" y="120" font-family="Arial, sans-serif" font-size="11">alpha vanhove transport</text><rect x="525" y="104" width="210.0" height="11" fill="#2f855a" opacity="0.82" /><rect x="525" y="104" width="210" height="11" fill="none" stroke="#333" stroke-width="0.6" /><rect x="760" y="101" width="168" height="22" fill="#d69e2e" opacity="0.92" /><text x="768" y="116" font-family="Arial, sans-serif" font-size="10" fill="#fff">qualitative alignment only</text><text x="950" y="120" font-family="Arial, sans-serif" font-size="11">struct=0; weighted=0</text><text x="345" y="138" font-family="Arial, sans-serif" font-size="9" fill="#555">source: kob1995vanhove;kob1995intermediate</text><text x="760" y="138" font-family="Arial, sans-serif" font-size="9" fill="#555">blocker: machine readable curves</text><text x="70" y="176" font-family="Arial, sans-serif" font-size="11">kob andersen structural digitization can</text><text x="345" y="176" font-family="Arial, sans-serif" font-size="11">alpha vanhove transport</text><rect x="525" y="160" width="210.0" height="11" fill="#2f855a" opacity="0.82" /><rect x="525" y="160" width="210" height="11" fill="none" stroke="#333" stroke-width="0.6" /><rect x="760" y="157" width="168" height="22" fill="#2b6cb0" opacity="0.92" /><text x="768" y="172" font-family="Arial, sans-serif" font-size="10" fill="#fff">structural digitization read</text><text x="950" y="176" font-family="Arial, sans-serif" font-size="11">struct=1; weighted=0</text><text x="345" y="194" font-family="Arial, sans-serif" font-size="9" fill="#555">source: kob1995vanhove;kob1995intermediate</text><text x="760" y="194" font-family="Arial, sans-serif" font-size="9" fill="#555">blocker: uncertainty columns</text><text x="70" y="232" font-family="Arial, sans-serif" font-size="11">hedges persistence exchange published cu</text><text x="345" y="232" font-family="Arial, sans-serif" font-size="11">persistence exchange chi4</text><rect x="525" y="216" width="150.0" height="11" fill="#2f855a" opacity="0.82" /><rect x="525" y="216" width="210" height="11" fill="none" stroke="#333" stroke-width="0.6" /><rect x="760" y="213" width="168" height="22" fill="#d69e2e" opacity="0.92" /><text x="768" y="228" font-family="Arial, sans-serif" font-size="10" fill="#fff">qualitative alignment only</text><text x="950" y="232" font-family="Arial, sans-serif" font-size="11">struct=0; weighted=0</text><text x="345" y="250" font-family="Arial, sans-serif" font-size="9" fill="#555">source: hedges2007persistence</text><text x="760" y="250" font-family="Arial, sans-serif" font-size="9" fill="#555">blocker: late ngp</text><text x="70" y="288" font-family="Arial, sans-serif" font-size="11">lacevic four point shared transport gap</text><text x="345" y="288" font-family="Arial, sans-serif" font-size="11">spatial chi4 front</text><rect x="525" y="272" width="168.0" height="11" fill="#2f855a" opacity="0.82" /><rect x="525" y="272" width="210" height="11" fill="none" stroke="#333" stroke-width="0.6" /><rect x="760" y="269" width="168" height="22" fill="#d69e2e" opacity="0.92" /><text x="768" y="284" font-family="Arial, sans-serif" font-size="10" fill="#fff">qualitative alignment only</text><text x="950" y="288" font-family="Arial, sans-serif" font-size="11">struct=0; weighted=0</text><text x="345" y="306" font-family="Arial, sans-serif" font-size="9" fill="#555">source: lacevic2003fourpoint</text><text x="760" y="306" font-family="Arial, sans-serif" font-size="9" fill="#555">blocker: diffusion</text><text x="70" y="344" font-family="Arial, sans-serif" font-size="11">berthier ml experimental dynamic heterog</text><text x="345" y="344" font-family="Arial, sans-serif" font-size="11">spatial chi4 front</text><rect x="525" y="328" width="168.0" height="11" fill="#2f855a" opacity="0.82" /><rect x="525" y="328" width="210" height="11" fill="none" stroke="#333" stroke-width="0.6" /><rect x="760" y="325" width="168" height="22" fill="#d69e2e" opacity="0.92" /><text x="768" y="340" font-family="Arial, sans-serif" font-size="10" fill="#fff">qualitative alignment only</text><text x="950" y="344" font-family="Arial, sans-serif" font-size="11">struct=0; weighted=0</text><text x="345" y="362" font-family="Arial, sans-serif" font-size="9" fill="#555">source: berthier2024experimental</text><text x="760" y="362" font-family="Arial, sans-serif" font-size="9" fill="#555">blocker: shared system or temperature grid</text><text x="70" y="400" font-family="Arial, sans-serif" font-size="11">guan granick fickian non gaussian publis</text><text x="345" y="400" font-family="Arial, sans-serif" font-size="11">alpha vanhove transport</text><rect x="525" y="384" width="150.0" height="11" fill="#2f855a" opacity="0.82" /><rect x="525" y="384" width="210" height="11" fill="none" stroke="#333" stroke-width="0.6" /><rect x="760" y="381" width="168" height="22" fill="#d69e2e" opacity="0.92" /><text x="768" y="396" font-family="Arial, sans-serif" font-size="10" fill="#fff">qualitative alignment only</text><text x="950" y="400" font-family="Arial, sans-serif" font-size="11">struct=0; weighted=0</text><text x="345" y="418" font-family="Arial, sans-serif" font-size="9" fill="#555">source: guan2014fickian</text><text x="760" y="418" font-family="Arial, sans-serif" font-size="9" fill="#555">blocker: wave numbers</text><text x="70" y="456" font-family="Arial, sans-serif" font-size="11">kauzmann adam gibbs entropy boundary</text><text x="345" y="456" font-family="Arial, sans-serif" font-size="11">thermodynamic entropy closure</text><rect x="525" y="440" width="210.0" height="11" fill="#2f855a" opacity="0.82" /><rect x="525" y="440" width="210" height="11" fill="none" stroke="#333" stroke-width="0.6" /><rect x="760" y="437" width="168" height="22" fill="#805ad5" opacity="0.92" /><text x="768" y="452" font-family="Arial, sans-serif" font-size="10" fill="#fff">scope boundary only</text><text x="950" y="456" font-family="Arial, sans-serif" font-size="11">struct=0; weighted=0</text><text x="345" y="474" font-family="Arial, sans-serif" font-size="9" fill="#555">source: kauzmann1948nature;adam1965temperature</text><text x="760" y="474" font-family="Arial, sans-serif" font-size="9" fill="#555">blocker: renewal dynamics not thermodynamic theory</text>
  <rect x="70" y="535" width="14" height="14" fill="#2f855a" /><text x="92" y="547" font-family="Arial, sans-serif" font-size="12">uncertainty-weighted real inversion</text>
  <rect x="310" y="535" width="14" height="14" fill="#2b6cb0" /><text x="332" y="547" font-family="Arial, sans-serif" font-size="12">structural digitization only</text>
  <rect x="520" y="535" width="14" height="14" fill="#d69e2e" /><text x="542" y="547" font-family="Arial, sans-serif" font-size="12">qualitative alignment only</text>
  <rect x="720" y="535" width="14" height="14" fill="#805ad5" /><text x="742" y="547" font-family="Arial, sans-serif" font-size="12">scope boundary</text>
</svg>
