<svg xmlns="http://www.w3.org/2000/svg" width="1120" height="560" viewBox="0 0 1120 560">
  <rect width="100%" height="100%" fill="#ffffff" />
  <text x="75" y="42" font-family="Arial, sans-serif" font-size="24" font-weight="700">MCT beta-window closure</text>
  <text x="75" y="66" font-family="Arial, sans-serif" font-size="13" fill="#444">An effective beta envelope adds critical decay and von-Schweidler departure around the cage plateau.</text>
  
  <line x1="75" y1="430" x2="520" y2="430" stroke="#222" />
  <line x1="75" y1="430" x2="75" y2="90" stroke="#222" />
  <text x="75" y="66" font-family="Arial, sans-serif" font-size="17" font-weight="700">A. Two-sided beta power laws</text>
  <text x="227.5" y="468" font-family="Arial, sans-serif" font-size="13">log10(t / t_beta)</text>

  <polyline points="75.00,90.00 76.72,90.79 78.44,91.58 80.15,92.36 81.87,93.13 83.59,93.90 85.31,94.67 87.03,95.43 88.75,96.18 90.46,96.93 92.18,97.68 93.90,98.42 95.62,99.16 97.34,99.89 99.05,100.61 100.77,101.34 102.49,102.05 104.21,102.77 105.93,103.47 107.64,104.18 109.36,104.87 111.08,105.57 112.80,106.26 114.52,106.94 116.24,107.62 117.95,108.30 119.67,108.97 121.39,109.64 123.11,110.30 124.83,110.96 126.54,111.61 128.26,112.26 129.98,112.91 131.70,113.55 133.42,114.19 135.14,114.82 136.85,115.45 138.57,116.07 140.29,116.69 142.01,117.31 143.73,117.92 145.44,118.53 147.16,119.14 148.88,119.74 150.60,120.33 152.32,120.93 154.03,121.52 155.75,122.10 157.47,122.68 159.19,123.26 160.91,123.83 162.63,124.40 164.34,124.97 166.06,125.53 167.78,126.09 169.50,126.65 171.22,127.20 172.93,127.75 174.65,128.29 176.37,128.83 178.09,129.37 179.81,129.90 181.53,130.43 183.24,130.96 184.96,131.49 186.68,132.01 188.40,132.52 190.12,133.04 191.83,133.55 193.55,134.05 195.27,134.56 196.99,135.06 198.71,135.55 200.42,136.05 202.14,136.54 203.86,137.02 205.58,137.51 207.30,137.99 209.02,138.47 210.73,138.94 212.45,139.41 214.17,139.88 215.89,140.35 217.61,140.81 219.32,141.27 221.04,141.73 222.76,142.18 224.48,142.63 226.20,143.08 227.92,143.52 229.63,143.96 231.35,144.40 233.07,144.84 234.79,145.27 236.51,145.70 238.22,146.13 239.94,146.55 241.66,146.97 243.38,147.39 245.10,147.81 246.81,148.22 248.53,148.63 250.25,149.04 251.97,149.45 253.69,149.85 255.41,150.25 257.12,150.65 258.84,151.04 260.56,151.44 262.28,151.83 264.00,152.21 265.71,152.60 267.43,152.98 269.15,247.66 270.87,248.11 272.59,248.57 274.31,249.03 276.02,249.50 277.74,249.97 279.46,250.45 281.18,250.93 282.90,251.43 284.61,251.92 286.33,252.43 288.05,252.93 289.77,253.45 291.49,253.97 293.20,254.50 294.92,255.03 296.64,255.58 298.36,256.12 300.08,256.68 301.80,257.24 303.51,257.81 305.23,258.38 306.95,258.97 308.67,259.56 310.39,260.15 312.10,260.76 313.82,261.37 315.54,261.99 317.26,262.62 318.98,263.25 320.69,263.89 322.41,264.54 324.13,265.20 325.85,265.87 327.57,266.54 329.29,267.23 331.00,267.92 332.72,268.62 334.44,269.33 336.16,270.05 337.88,270.77 339.59,271.51 341.31,272.25 343.03,273.01 344.75,273.77 346.47,274.54 348.19,275.33 349.90,276.12 351.62,276.92 353.34,277.73 355.06,278.55 356.78,279.38 358.49,280.23 360.21,281.08 361.93,281.94 363.65,282.81 365.37,283.70 367.08,284.59 368.80,285.50 370.52,286.42 372.24,287.35 373.96,288.29 375.68,289.24 377.39,290.20 379.11,291.18 380.83,292.17 382.55,293.17 384.27,294.18 385.98,295.20 387.70,296.24 389.42,297.29 391.14,298.35 392.86,299.43 394.58,300.52 396.29,301.62 398.01,302.74 399.73,303.87 401.45,305.01 403.17,306.17 404.88,307.34 406.60,308.53 408.32,309.73 410.04,310.95 411.76,312.18 413.47,313.43 415.19,314.69 416.91,315.97 418.63,317.26 420.35,318.57 422.07,319.90 423.78,321.24 425.50,322.60 427.22,323.97 428.94,325.37 430.66,326.78 432.37,328.20 434.09,329.65 435.81,331.11 437.53,332.59 439.25,334.09 440.97,335.61 442.68,337.15 444.40,338.70 446.12,340.28 447.84,341.87 449.56,343.48 451.27,345.12 452.99,346.77 454.71,348.44 456.43,350.14 458.15,351.86 459.86,353.59 461.58,355.35 463.30,357.13 465.02,358.93 466.74,360.76 468.46,362.60 470.17,364.47 471.89,366.37 473.61,368.28 475.33,370.22 477.05,372.19 478.76,374.17 480.48,376.19 482.20,378.22 483.92,380.29 485.64,382.38 487.36,384.49 489.07,386.63 490.79,388.80 492.51,390.99 494.23,393.21 495.95,395.46 497.66,397.73 499.38,400.04 501.10,402.37 502.82,404.73 504.54,407.12 506.25,409.54 507.97,411.99 509.69,414.47 511.41,416.98 513.13,419.52 514.85,422.09 516.56,424.69 518.28,427.33 520.00,430.00" fill="none" stroke="#2b6cb0" stroke-width="2.2" stroke-linejoin="round" stroke-linecap="round" />
<polyline points="75.00,211.21 76.72,211.21 78.44,211.21 80.15,211.21 81.87,211.21 83.59,211.21 85.31,211.21 87.03,211.21 88.75,211.21 90.46,211.21 92.18,211.21 93.90,211.21 95.62,211.21 97.34,211.21 99.05,211.21 100.77,211.21 102.49,211.21 104.21,211.21 105.93,211.21 107.64,211.21 109.36,211.21 111.08,211.21 112.80,211.21 114.52,211.21 116.24,211.21 117.95,211.21 119.67,211.21 121.39,211.21 123.11,211.21 124.83,211.21 126.54,211.21 128.26,211.21 129.98,211.21 131.70,211.21 133.42,211.21 135.14,211.21 136.85,211.21 138.57,211.21 140.29,211.21 142.01,211.21 143.73,211.21 145.44,211.21 147.16,211.21 148.88,211.21 150.60,211.21 152.32,211.21 154.03,211.21 155.75,211.21 157.47,211.21 159.19,211.21 160.91,211.21 162.63,211.21 164.34,211.21 166.06,211.21 167.78,211.21 169.50,211.21 171.22,211.21 172.93,211.21 174.65,211.21 176.37,211.21 178.09,211.21 179.81,211.21 181.53,211.21 183.24,211.21 184.96,211.21 186.68,211.21 188.40,211.21 190.12,211.21 191.83,211.21 193.55,211.21 195.27,211.21 196.99,211.21 198.71,211.21 200.42,211.21 202.14,211.21 203.86,211.21 205.58,211.21 207.30,211.21 209.02,211.21 210.73,211.21 212.45,211.21 214.17,211.21 215.89,211.21 217.61,211.21 219.32,211.21 221.04,211.21 222.76,211.21 224.48,211.21 226.20,211.21 227.92,211.21 229.63,211.21 231.35,211.21 233.07,211.21 234.79,211.21 236.51,211.21 238.22,211.21 239.94,211.21 241.66,211.21 243.38,211.21 245.10,211.21 246.81,211.21 248.53,211.21 250.25,211.21 251.97,211.21 253.69,211.21 255.41,211.21 257.12,211.21 258.84,211.21 260.56,211.21 262.28,211.21 264.00,211.21 265.71,211.21 267.43,211.21 269.15,211.21 270.87,211.21 272.59,211.21 274.31,211.21 276.02,211.21 277.74,211.21 279.46,211.21 281.18,211.21 282.90,211.21 284.61,211.21 286.33,211.21 288.05,211.21 289.77,211.21 291.49,211.21 293.20,211.21 294.92,211.21 296.64,211.21 298.36,211.21 300.08,211.21 301.80,211.21 303.51,211.21 305.23,211.21 306.95,211.21 308.67,211.21 310.39,211.21 312.10,211.21 313.82,211.21 315.54,211.21 317.26,211.21 318.98,211.21 320.69,211.21 322.41,211.21 324.13,211.21 325.85,211.21 327.57,211.21 329.29,211.21 331.00,211.21 332.72,211.21 334.44,211.21 336.16,211.21 337.88,211.21 339.59,211.21 341.31,211.21 343.03,211.21 344.75,211.21 346.47,211.21 348.19,211.21 349.90,211.21 351.62,211.21 353.34,211.21 355.06,211.21 356.78,211.21 358.49,211.21 360.21,211.21 361.93,211.21 363.65,211.21 365.37,211.21 367.08,211.21 368.80,211.21 370.52,211.21 372.24,211.21 373.96,211.21 375.68,211.21 377.39,211.21 379.11,211.21 380.83,211.21 382.55,211.21 384.27,211.21 385.98,211.21 387.70,211.21 389.42,211.21 391.14,211.21 392.86,211.21 394.58,211.21 396.29,211.21 398.01,211.21 399.73,211.21 401.45,211.21 403.17,211.21 404.88,211.21 406.60,211.21 408.32,211.21 410.04,211.21 411.76,211.21 413.47,211.21 415.19,211.21 416.91,211.21 418.63,211.21 420.35,211.21 422.07,211.21 423.78,211.21 425.50,211.21 427.22,211.21 428.94,211.21 430.66,211.21 432.37,211.21 434.09,211.21 435.81,211.21 437.53,211.21 439.25,211.21 440.97,211.21 442.68,211.21 444.40,211.21 446.12,211.21 447.84,211.21 449.56,211.21 451.27,211.21 452.99,211.21 454.71,211.21 456.43,211.21 458.15,211.21 459.86,211.21 461.58,211.21 463.30,211.21 465.02,211.21 466.74,211.21 468.46,211.21 470.17,211.21 471.89,211.21 473.61,211.21 475.33,211.21 477.05,211.21 478.76,211.21 480.48,211.21 482.20,211.21 483.92,211.21 485.64,211.21 487.36,211.21 489.07,211.21 490.79,211.21 492.51,211.21 494.23,211.21 495.95,211.21 497.66,211.21 499.38,211.21 501.10,211.21 502.82,211.21 504.54,211.21 506.25,211.21 507.97,211.21 509.69,211.21 511.41,211.21 513.13,211.21 514.85,211.21 516.56,211.21 518.28,211.21 520.00,211.21" fill="none" stroke="#555555" stroke-width="1.2" stroke-linejoin="round" stroke-linecap="round" />
<line x1="268.39" y1="90" x2="268.39" y2="430" stroke="#888" stroke-dasharray="4 4" />
<text x="93" y="115" font-family="Arial, sans-serif" font-size="12" fill="#2b6cb0">phi_beta(t)</text>
<text x="93" y="133" font-family="Arial, sans-serif" font-size="12" fill="#555555">plateau f_c</text>
  
  <line x1="660" y1="430" x2="1040" y2="430" stroke="#222" />
  <line x1="660" y1="430" x2="660" y2="90" stroke="#222" />
  <text x="660" y="66" font-family="Arial, sans-serif" font-size="17" font-weight="700">B. Cooling separates beta and alpha clocks</text>
  <text x="780.0" y="468" font-family="Arial, sans-serif" font-size="13">inverse-temperature shift</text>

  <polyline points="660.00,430.00 750.37,391.19 853.73,346.80 958.10,301.97 1040.00,266.80" fill="none" stroke="#2b6cb0" stroke-width="2.2" stroke-linejoin="round" stroke-linecap="round" />
<text x="678" y="115" font-family="Arial, sans-serif" font-size="12" fill="#2b6cb0">t_beta / hot</text>
<polyline points="660.00,430.00 750.37,385.76 853.73,335.45 958.10,284.91 1040.00,245.44" fill="none" stroke="#c05621" stroke-width="2.2" stroke-linejoin="round" stroke-linecap="round" />
<text x="678" y="133" font-family="Arial, sans-serif" font-size="12" fill="#c05621">von exit / hot</text>
<polyline points="660.00,430.00 750.37,349.15 853.73,256.67 958.10,163.28 1040.00,90.00" fill="none" stroke="#805ad5" stroke-width="2.2" stroke-linejoin="round" stroke-linecap="round" />
<text x="678" y="151" font-family="Arial, sans-serif" font-size="12" fill="#805ad5">tau alpha / hot</text>
</svg>
