<svg xmlns="http://www.w3.org/2000/svg" width="1160" height="540" viewBox="0 0 1160 540">
  <rect width="100%" height="100%" fill="#ffffff" />
  <text x="70" y="42" font-family="Arial, sans-serif" font-size="24" font-weight="700">Frontier benchmark horizon</text>
  <text x="70" y="66" font-family="Arial, sans-serif" font-size="13" fill="#444">Recent SOTA sources are classified as reanalysis targets, transport/heterogeneity candidates, model-extension gaps, closures, or scope boundaries.</text>
  <text x="70" y="78" font-family="Arial, sans-serif" font-size="12" font-weight="700">benchmark</text>
  <text x="385" y="78" font-family="Arial, sans-serif" font-size="12" font-weight="700">horizon class</text>
  <text x="625" y="78" font-family="Arial, sans-serif" font-size="12" font-weight="700">coverage</text>
  <text x="800" y="78" font-family="Arial, sans-serif" font-size="12" font-weight="700">priority</text>
  <text x="70" y="116" font-family="Arial, sans-serif" font-size="11">glassbench trajectory horizon</text><rect x="385" y="96" width="210" height="22" fill="#2f855a" opacity="0.92" /><text x="393" y="111" font-family="Arial, sans-serif" font-size="10" fill="#fff">trajectory reanalysis candidate</text><rect x="625" y="98" width="150" height="12" fill="#e2e8f0" /><rect x="625" y="98" width="150.0" height="12" fill="#2b6cb0" /><rect x="800" y="98" width="150" height="12" fill="#e2e8f0" /><rect x="800" y="98" width="135.0" height="12" fill="#2f855a" /><text x="975" y="108" font-family="Arial, sans-serif" font-size="10">blocker: uncertainty estimates</text><text x="140" y="134" font-family="Arial, sans-serif" font-size="9" fill="#555">source: jung2025roadmap glassbench</text><text x="625" y="134" font-family="Arial, sans-serif" font-size="9" fill="#555">missing: self intermediate scattering;ngp;diffusion</text><text x="70" y="181" font-family="Arial, sans-serif" font-size="11">gst nn potential transport horizon</text><rect x="385" y="161" width="210" height="22" fill="#2b6cb0" opacity="0.92" /><text x="393" y="176" font-family="Arial, sans-serif" font-size="10" fill="#fff">transport heterogeneity candidat</text><rect x="625" y="163" width="150" height="12" fill="#e2e8f0" /><rect x="625" y="163" width="100.0" height="12" fill="#2b6cb0" /><rect x="800" y="163" width="150" height="12" fill="#e2e8f0" /><rect x="800" y="163" width="112.5" height="12" fill="#2f855a" /><text x="975" y="173" font-family="Arial, sans-serif" font-size="10">blocker: late ngp</text><text x="140" y="199" font-family="Arial, sans-serif" font-size="9" fill="#555">source: marcorini2025gst dynamic heterogeneity</text><text x="625" y="199" font-family="Arial, sans-serif" font-size="9" fill="#555">missing: late ngp;multi k tau alpha</text><text x="70" y="246" font-family="Arial, sans-serif" font-size="11">near tg molecular motion rotational gap</text><rect x="385" y="226" width="210" height="22" fill="#c05621" opacity="0.92" /><text x="393" y="241" font-family="Arial, sans-serif" font-size="10" fill="#fff">model extension required</text><rect x="625" y="228" width="150" height="12" fill="#e2e8f0" /><rect x="625" y="228" width="120.0" height="12" fill="#2b6cb0" /><rect x="800" y="228" width="150" height="12" fill="#e2e8f0" /><rect x="800" y="228" width="99.0" height="12" fill="#2f855a" /><text x="975" y="238" font-family="Arial, sans-serif" font-size="10">blocker: model extension required</text><text x="140" y="264" font-family="Arial, sans-serif" font-size="9" fill="#555">source: simon2026molecular motion</text><text x="625" y="264" font-family="Arial, sans-serif" font-size="9" fill="#555">missing: late ngp</text><text x="70" y="311" font-family="Arial, sans-serif" font-size="11">experimental dynamic heterogeneity closure</text><rect x="385" y="291" width="210" height="22" fill="#805ad5" opacity="0.92" /><text x="393" y="306" font-family="Arial, sans-serif" font-size="10" fill="#fff">closure horizon</text><rect x="625" y="293" width="150" height="12" fill="#e2e8f0" /><rect x="625" y="293" width="90.0" height="12" fill="#2b6cb0" /><rect x="800" y="293" width="150" height="12" fill="#e2e8f0" /><rect x="800" y="293" width="40.5" height="12" fill="#2f855a" /><text x="975" y="303" font-family="Arial, sans-serif" font-size="10">blocker: external closure</text><text x="140" y="329" font-family="Arial, sans-serif" font-size="9" fill="#555">source: berthier2024experimental</text><text x="625" y="329" font-family="Arial, sans-serif" font-size="9" fill="#555">missing: diffusion;chi4 peak</text><text x="70" y="376" font-family="Arial, sans-serif" font-size="11">heat capacity entropy frontier</text><rect x="385" y="356" width="210" height="22" fill="#718096" opacity="0.92" /><text x="393" y="371" font-family="Arial, sans-serif" font-size="10" fill="#fff">scope boundary</text><rect x="625" y="358" width="150" height="12" fill="#e2e8f0" /><rect x="625" y="358" width="150.0" height="12" fill="#2b6cb0" /><rect x="800" y="358" width="150" height="12" fill="#e2e8f0" /><rect x="800" y="358" width="67.5" height="12" fill="#2f855a" /><text x="975" y="368" font-family="Arial, sans-serif" font-size="10">blocker: renewal dynamics not thermod</text><text x="140" y="394" font-family="Arial, sans-serif" font-size="9" fill="#555">source: thermodynamic calorimetry candidate</text><text x="625" y="394" font-family="Arial, sans-serif" font-size="9" fill="#555">missing: none</text>
  <rect x="70" y="490" width="14" height="14" fill="#2f855a" /><text x="92" y="502" font-family="Arial, sans-serif" font-size="12">trajectory reanalysis</text>
  <rect x="245" y="490" width="14" height="14" fill="#2b6cb0" /><text x="267" y="502" font-family="Arial, sans-serif" font-size="12">transport/heterogeneity</text>
  <rect x="455" y="490" width="14" height="14" fill="#c05621" /><text x="477" y="502" font-family="Arial, sans-serif" font-size="12">model extension</text>
  <rect x="620" y="490" width="14" height="14" fill="#805ad5" /><text x="642" y="502" font-family="Arial, sans-serif" font-size="12">closure horizon</text>
  <rect x="780" y="490" width="14" height="14" fill="#718096" /><text x="802" y="502" font-family="Arial, sans-serif" font-size="12">scope boundary</text>
</svg>
