<svg xmlns="http://www.w3.org/2000/svg" width="1180" height="680" viewBox="0 0 1180 680">
<rect x="0" y="0" width="1180" height="680" fill="#f5f5f1"/>
<style>text{font-family:Arial,sans-serif;fill:#202020;font-size:14px;letter-spacing:0}</style>
<text x="590" y="36" text-anchor="middle" font-size="24" font-weight="bold">Segment-splice path-memory gate</text>
<rect x="90.0" y="105.0" width="455.0" height="410.0" fill="#ffffff" stroke="#c9c9c3"/><line x1="90.0" y1="351.0" x2="545.0" y2="351.0" stroke="#333333" stroke-width="1.5" stroke-dasharray="7 5"/><text x="98.0" y="344.0" font-size="12">tolerance = 1</text><line x1="545.0" y1="105.0" x2="545.0" y2="515.0" stroke="#777777" stroke-width="2"/><text x="539.0" y="123.0" text-anchor="end" font-size="11">full-path control</text><text x="317.5" y="82" text-anchor="middle" font-size="20" font-weight="bold">T = 0.45</text><polyline points="90.00,105.00 147.12,105.00 222.63,105.00 279.75,105.00 355.25,105.00 412.37,296.96 487.88,453.43 545.00,423.49" fill="none" stroke="#176b87" stroke-width="2.2"/><circle cx="90.00" cy="105.00" r="3.2" fill="#176b87"/><circle cx="147.12" cy="105.00" r="3.2" fill="#176b87"/><circle cx="222.63" cy="105.00" r="3.2" fill="#176b87"/><circle cx="279.75" cy="105.00" r="3.2" fill="#176b87"/><circle cx="355.25" cy="105.00" r="3.2" fill="#176b87"/><circle cx="412.37" cy="296.96" r="3.2" fill="#176b87"/><circle cx="487.88" cy="453.43" r="3.2" fill="#176b87"/><circle cx="545.00" cy="423.49" r="3.2" fill="#176b87"/><polyline points="90.00,105.00 147.12,105.00 222.63,105.00 279.75,105.00 355.25,105.00 412.37,211.18 487.88,325.31 545.00,498.79" fill="none" stroke="#176b87" stroke-width="2.2" stroke-dasharray="6 4"/><circle cx="90.00" cy="105.00" r="3.2" fill="#176b87"/><circle cx="147.12" cy="105.00" r="3.2" fill="#176b87"/><circle cx="222.63" cy="105.00" r="3.2" fill="#176b87"/><circle cx="279.75" cy="105.00" r="3.2" fill="#176b87"/><circle cx="355.25" cy="105.00" r="3.2" fill="#176b87"/><circle cx="412.37" cy="211.18" r="3.2" fill="#176b87"/><circle cx="487.88" cy="325.31" r="3.2" fill="#176b87"/><circle cx="545.00" cy="498.79" r="3.2" fill="#176b87"/><polyline points="90.00,105.00 147.12,105.00 222.63,105.00 279.75,105.00 355.25,105.00 412.37,105.00 487.88,136.30 545.00,398.68" fill="none" stroke="#176b87" stroke-width="2.2" stroke-dasharray="2 4"/><circle cx="90.00" cy="105.00" r="3.2" fill="#176b87"/><circle cx="147.12" cy="105.00" r="3.2" fill="#176b87"/><circle cx="222.63" cy="105.00" r="3.2" fill="#176b87"/><circle cx="279.75" cy="105.00" r="3.2" fill="#176b87"/><circle cx="355.25" cy="105.00" r="3.2" fill="#176b87"/><circle cx="412.37" cy="105.00" r="3.2" fill="#176b87"/><circle cx="487.88" cy="136.30" r="3.2" fill="#176b87"/><circle cx="545.00" cy="398.68" r="3.2" fill="#176b87"/><polyline points="90.00,105.00 147.12,105.00 222.63,105.00 279.75,105.00 355.25,105.00 412.37,174.98 487.88,449.13 545.00,423.49" fill="none" stroke="#c64b2c" stroke-width="2.2"/><circle cx="90.00" cy="105.00" r="3.2" fill="#c64b2c"/><circle cx="147.12" cy="105.00" r="3.2" fill="#c64b2c"/><circle cx="222.63" cy="105.00" r="3.2" fill="#c64b2c"/><circle cx="279.75" cy="105.00" r="3.2" fill="#c64b2c"/><circle cx="355.25" cy="105.00" r="3.2" fill="#c64b2c"/><circle cx="412.37" cy="174.98" r="3.2" fill="#c64b2c"/><circle cx="487.88" cy="449.13" r="3.2" fill="#c64b2c"/><circle cx="545.00" cy="423.49" r="3.2" fill="#c64b2c"/><polyline points="90.00,105.00 147.12,105.00 222.63,105.00 279.75,105.00 355.25,105.00 412.37,109.73 487.88,307.23 545.00,498.79" fill="none" stroke="#c64b2c" stroke-width="2.2" stroke-dasharray="6 4"/><circle cx="90.00" cy="105.00" r="3.2" fill="#c64b2c"/><circle cx="147.12" cy="105.00" r="3.2" fill="#c64b2c"/><circle cx="222.63" cy="105.00" r="3.2" fill="#c64b2c"/><circle cx="279.75" cy="105.00" r="3.2" fill="#c64b2c"/><circle cx="355.25" cy="105.00" r="3.2" fill="#c64b2c"/><circle cx="412.37" cy="109.73" r="3.2" fill="#c64b2c"/><circle cx="487.88" cy="307.23" r="3.2" fill="#c64b2c"/><circle cx="545.00" cy="498.79" r="3.2" fill="#c64b2c"/><polyline points="90.00,105.00 147.12,105.00 222.63,105.00 279.75,105.00 355.25,105.00 412.37,105.00 487.88,105.00 545.00,398.68" fill="none" stroke="#c64b2c" stroke-width="2.2" stroke-dasharray="2 4"/><circle cx="90.00" cy="105.00" r="3.2" fill="#c64b2c"/><circle cx="147.12" cy="105.00" r="3.2" fill="#c64b2c"/><circle cx="222.63" cy="105.00" r="3.2" fill="#c64b2c"/><circle cx="279.75" cy="105.00" r="3.2" fill="#c64b2c"/><circle cx="355.25" cy="105.00" r="3.2" fill="#c64b2c"/><circle cx="412.37" cy="105.00" r="3.2" fill="#c64b2c"/><circle cx="487.88" cy="105.00" r="3.2" fill="#c64b2c"/><circle cx="545.00" cy="398.68" r="3.2" fill="#c64b2c"/><text x="90.00" y="538.0" text-anchor="middle" font-size="11">20</text><text x="147.12" y="538.0" text-anchor="middle" font-size="11">40</text><text x="222.63" y="538.0" text-anchor="middle" font-size="11">100</text><text x="279.75" y="538.0" text-anchor="middle" font-size="11">200</text><text x="355.25" y="538.0" text-anchor="middle" font-size="11">500</text><text x="412.37" y="538.0" text-anchor="middle" font-size="11">1000</text><text x="487.88" y="538.0" text-anchor="middle" font-size="11">2500</text><text x="545.00" y="538.0" text-anchor="middle" font-size="11">5000</text><text x="317.5" y="567.0" text-anchor="middle">retained horizon tau_L</text><rect x="650.0" y="105.0" width="455.0" height="410.0" fill="#ffffff" stroke="#c9c9c3"/><line x1="650.0" y1="351.0" x2="1105.0" y2="351.0" stroke="#333333" stroke-width="1.5" stroke-dasharray="7 5"/><text x="658.0" y="344.0" font-size="12">tolerance = 1</text><line x1="1105.0" y1="105.0" x2="1105.0" y2="515.0" stroke="#777777" stroke-width="2"/><text x="1099.0" y="123.0" text-anchor="end" font-size="11">full-path control</text><text x="877.5" y="82" text-anchor="middle" font-size="20" font-weight="bold">T = 0.58</text><polyline points="650.00,141.45 737.34,354.09 824.68,442.67 912.02,424.31 999.36,415.64 1086.71,359.13 1105.00,372.03" fill="none" stroke="#176b87" stroke-width="2.2"/><circle cx="650.00" cy="141.45" r="3.2" fill="#176b87"/><circle cx="737.34" cy="354.09" r="3.2" fill="#176b87"/><circle cx="824.68" cy="442.67" r="3.2" fill="#176b87"/><circle cx="912.02" cy="424.31" r="3.2" fill="#176b87"/><circle cx="999.36" cy="415.64" r="3.2" fill="#176b87"/><circle cx="1086.71" cy="359.13" r="3.2" fill="#176b87"/><circle cx="1105.00" cy="372.03" r="3.2" fill="#176b87"/><polyline points="650.00,436.01 737.34,463.84 824.68,489.28 912.02,503.79 999.36,504.68 1086.71,504.20 1105.00,501.00" fill="none" stroke="#176b87" stroke-width="2.2" stroke-dasharray="6 4"/><circle cx="650.00" cy="436.01" r="3.2" fill="#176b87"/><circle cx="737.34" cy="463.84" r="3.2" fill="#176b87"/><circle cx="824.68" cy="489.28" r="3.2" fill="#176b87"/><circle cx="912.02" cy="503.79" r="3.2" fill="#176b87"/><circle cx="999.36" cy="504.68" r="3.2" fill="#176b87"/><circle cx="1086.71" cy="504.20" r="3.2" fill="#176b87"/><circle cx="1105.00" cy="501.00" r="3.2" fill="#176b87"/><polyline points="650.00,105.00 737.34,239.64 824.68,420.45 912.02,444.44 999.36,407.37 1086.71,335.75 1105.00,354.57" fill="none" stroke="#176b87" stroke-width="2.2" stroke-dasharray="2 4"/><circle cx="650.00" cy="105.00" r="3.2" fill="#176b87"/><circle cx="737.34" cy="239.64" r="3.2" fill="#176b87"/><circle cx="824.68" cy="420.45" r="3.2" fill="#176b87"/><circle cx="912.02" cy="444.44" r="3.2" fill="#176b87"/><circle cx="999.36" cy="407.37" r="3.2" fill="#176b87"/><circle cx="1086.71" cy="335.75" r="3.2" fill="#176b87"/><circle cx="1105.00" cy="354.57" r="3.2" fill="#176b87"/><polyline points="650.00,105.00 737.34,268.57 824.68,451.48 912.02,451.48 999.36,424.91 1086.71,355.14 1105.00,372.03" fill="none" stroke="#c64b2c" stroke-width="2.2"/><circle cx="650.00" cy="105.00" r="3.2" fill="#c64b2c"/><circle cx="737.34" cy="268.57" r="3.2" fill="#c64b2c"/><circle cx="824.68" cy="451.48" r="3.2" fill="#c64b2c"/><circle cx="912.02" cy="451.48" r="3.2" fill="#c64b2c"/><circle cx="999.36" cy="424.91" r="3.2" fill="#c64b2c"/><circle cx="1086.71" cy="355.14" r="3.2" fill="#c64b2c"/><circle cx="1105.00" cy="372.03" r="3.2" fill="#c64b2c"/><polyline points="650.00,425.70 737.34,457.40 824.68,485.97 912.02,503.33 999.36,506.29 1086.71,504.28 1105.00,501.00" fill="none" stroke="#c64b2c" stroke-width="2.2" stroke-dasharray="6 4"/><circle cx="650.00" cy="425.70" r="3.2" fill="#c64b2c"/><circle cx="737.34" cy="457.40" r="3.2" fill="#c64b2c"/><circle cx="824.68" cy="485.97" r="3.2" fill="#c64b2c"/><circle cx="912.02" cy="503.33" r="3.2" fill="#c64b2c"/><circle cx="999.36" cy="506.29" r="3.2" fill="#c64b2c"/><circle cx="1086.71" cy="504.28" r="3.2" fill="#c64b2c"/><circle cx="1105.00" cy="501.00" r="3.2" fill="#c64b2c"/><polyline points="650.00,105.00 737.34,196.49 824.68,399.67 912.02,444.44 999.36,419.96 1086.71,330.26 1105.00,354.57" fill="none" stroke="#c64b2c" stroke-width="2.2" stroke-dasharray="2 4"/><circle cx="650.00" cy="105.00" r="3.2" fill="#c64b2c"/><circle cx="737.34" cy="196.49" r="3.2" fill="#c64b2c"/><circle cx="824.68" cy="399.67" r="3.2" fill="#c64b2c"/><circle cx="912.02" cy="444.44" r="3.2" fill="#c64b2c"/><circle cx="999.36" cy="419.96" r="3.2" fill="#c64b2c"/><circle cx="1086.71" cy="330.26" r="3.2" fill="#c64b2c"/><circle cx="1105.00" cy="354.57" r="3.2" fill="#c64b2c"/><text x="650.00" y="538.0" text-anchor="middle" font-size="11">20</text><text x="737.34" y="538.0" text-anchor="middle" font-size="11">40</text><text x="824.68" y="538.0" text-anchor="middle" font-size="11">80</text><text x="912.02" y="538.0" text-anchor="middle" font-size="11">160</text><text x="999.36" y="538.0" text-anchor="middle" font-size="11">320</text><text x="1082.71" y="538.0" text-anchor="end" font-size="11">640</text><text x="1109.00" y="538.0" text-anchor="start" font-size="11">740</text><text x="877.5" y="567.0" text-anchor="middle">retained horizon tau_L</text>
<line x1="90" y1="574" x2="126" y2="574" stroke="#176b87" stroke-width="3"/><text x="136" y="579">within-particle segments</text><line x1="90" y1="598" x2="126" y2="598" stroke="#c64b2c" stroke-width="3"/><text x="136" y="603">cross-particle splice</text><line x1="390" y1="585" x2="426" y2="585" stroke="#333333" stroke-width="2"/><text x="434" y="590">MSD / 0.10</text><line x1="580" y1="585" x2="616" y2="585" stroke="#333333" stroke-width="2" stroke-dasharray="6 4"/><text x="624" y="590">NGP / 0.30</text><line x1="770" y1="585" x2="806" y2="585" stroke="#333333" stroke-width="2" stroke-dasharray="2 4"/><text x="814" y="590">Fs / 0.03</text>
<text x="590" y="640" text-anchor="middle" font-size="15" font-weight="bold">mechanism_unresolved</text>
<text x="590" y="662" text-anchor="middle" font-size="12">Path-hierarchy diagnostic only; no microscopic, spatial-facilitation, or thermodynamic claim.</text>
</svg>