<svg xmlns="http://www.w3.org/2000/svg" width="1120" height="560" viewBox="0 0 1120 560">
  <rect width="100%" height="100%" fill="#ffffff" />
  <text x="75" y="42" font-family="Arial, sans-serif" font-size="24" font-weight="700">Spatial facilitation chi4 closure</text>
  <text x="75" y="66" font-family="Arial, sans-serif" font-size="13" fill="#444">A diffusive facilitation front turns the persistence clock into xi4 and Ncorr.</text>
  
  <line x1="75" y1="430" x2="520" y2="430" stroke="#222" />
  <line x1="75" y1="430" x2="75" y2="90" stroke="#222" />
  <text x="75" y="66" font-family="Arial, sans-serif" font-size="17" font-weight="700">A. Clock-derived dynamic length</text>
  <text x="221.5" y="468" font-family="Arial, sans-serif" font-size="13">inverse-temperature shift</text>

  <polyline points="75.00,430.00 91.60,429.75 108.98,429.46 127.19,429.13 146.29,428.74 166.36,428.30 187.46,427.78 209.68,427.17 233.11,426.46 257.85,425.63 284.02,424.64 311.73,423.46 341.14,422.06 372.40,420.37 405.70,418.32 441.24,415.82 479.25,412.75 520.00,408.94" fill="none" stroke="#2b6cb0" stroke-width="2.2" stroke-linejoin="round" stroke-linecap="round" />
<text x="93" y="115" font-family="Arial, sans-serif" font-size="12" fill="#2b6cb0">xi4 / hot</text>
<polyline points="75.00,430.00 91.60,429.22 108.98,428.29 127.19,427.14 146.29,425.73 166.36,423.98 187.46,421.76 209.68,418.92 233.11,415.24 257.85,410.37 284.02,403.85 311.73,394.92 341.14,382.45 372.40,364.65 405.70,338.62 441.24,299.52 479.25,239.10 520.00,142.76" fill="none" stroke="#2f855a" stroke-width="2.2" stroke-linejoin="round" stroke-linecap="round" />
<text x="93" y="133" font-family="Arial, sans-serif" font-size="12" fill="#2f855a">Ncorr / hot</text>
<polyline points="75.00,430.00 91.60,429.15 108.98,428.13 127.19,426.88 146.29,425.34 166.36,423.40 187.46,420.95 209.68,417.79 233.11,413.68 257.85,408.22 284.02,400.85 311.73,390.69 341.14,376.44 372.40,355.82 405.70,325.24 441.24,278.78 479.25,206.27 520.00,90.00" fill="none" stroke="#c05621" stroke-width="2.2" stroke-linejoin="round" stroke-linecap="round" />
<text x="93" y="151" font-family="Arial, sans-serif" font-size="12" fill="#c05621">chi4 peak / hot</text>
  
  <line x1="660" y1="430" x2="1040" y2="430" stroke="#222" />
  <line x1="660" y1="430" x2="660" y2="90" stroke="#222" />
  <text x="660" y="66" font-family="Arial, sans-serif" font-size="17" font-weight="700">B. Timing of the spatial susceptibility</text>
  <text x="774.0" y="468" font-family="Arial, sans-serif" font-size="13">inverse-temperature shift</text>

  <polyline points="660.00,430.00 674.18,425.87 689.01,421.18 704.56,418.76 720.88,413.06 738.01,406.52 756.03,398.98 775.01,390.24 795.01,380.06 816.14,368.12 838.48,354.03 862.15,337.32 887.27,317.36 913.96,277.57 942.40,244.50 972.74,203.75 1005.20,153.18 1040.00,90.00" fill="none" stroke="#805ad5" stroke-width="2.2" stroke-linejoin="round" stroke-linecap="round" />
<text x="678" y="115" font-family="Arial, sans-serif" font-size="12" fill="#805ad5">chi4 peak time</text>
<polyline points="660.00,430.00 674.18,426.64 689.01,422.84 704.56,418.52 720.88,413.58 738.01,407.90 756.03,401.32 775.01,393.63 795.01,384.60 816.14,373.88 838.48,361.05 862.15,345.55 887.27,326.62 913.96,303.24 942.40,274.00 972.74,236.92 1005.20,189.21 1040.00,126.77" fill="none" stroke="#d69e2e" stroke-width="2.2" stroke-linejoin="round" stroke-linecap="round" />
<text x="678" y="133" font-family="Arial, sans-serif" font-size="12" fill="#d69e2e">tau alpha</text>
</svg>
