<svg xmlns="http://www.w3.org/2000/svg" width="1180" height="560" viewBox="0 0 1180 560">
  <rect width="100%" height="100%" fill="#ffffff" />
  <text x="75" y="42" font-family="Arial, sans-serif" font-size="23" font-weight="700">Temperature-dependent renewal diagnostics</text>
  <line x1="75" y1="460" x2="525" y2="460" stroke="#222" />
  <line x1="75" y1="460" x2="75" y2="85" stroke="#222" />
  <text x="75" y="61" font-family="Arial, sans-serif" font-size="17" font-weight="700">I. Transport and relaxation decouple on cooling</text>
  <text x="222.0" y="498" font-family="Arial, sans-serif" font-size="13">inverse-temperature shift</text>

  <polyline points="75.00,423.53 91.79,425.81 109.36,428.10 127.77,430.37 147.09,432.65 167.38,434.91 188.72,437.17 211.19,439.41 234.89,441.63 259.90,443.83 286.36,446.00 314.39,448.14 344.13,450.24 375.75,452.30 409.42,454.31 445.35,456.27 483.79,458.17 525.00,460.00" fill="none" stroke="#2b6cb0" stroke-width="2.2" stroke-linejoin="round" stroke-linecap="round" />
<text x="93" y="110" font-family="Arial, sans-serif" font-size="12" fill="#2b6cb0">D / D_hot</text>
<polyline points="75.00,423.53 91.79,420.22 109.36,416.47 127.77,412.21 147.09,407.33 167.38,401.73 188.72,395.23 211.19,387.65 234.89,378.73 259.90,368.15 286.36,355.50 314.39,340.20 344.13,321.52 375.75,298.45 409.42,269.60 445.35,233.01 483.79,185.92 525.00,124.31" fill="none" stroke="#c05621" stroke-width="2.2" stroke-linejoin="round" stroke-linecap="round" />
<text x="93" y="128" font-family="Arial, sans-serif" font-size="12" fill="#c05621">tau_alpha / tau_hot</text>
<polyline points="75.00,423.53 91.79,419.92 109.36,415.80 127.77,411.11 147.09,405.72 167.38,399.49 188.72,392.25 211.19,383.77 234.89,373.77 259.90,361.88 286.36,347.61 314.39,330.34 344.13,309.20 375.75,283.05 409.42,250.30 445.35,208.72 483.79,155.15 525.00,85.00" fill="none" stroke="#2f855a" stroke-width="2.2" stroke-linejoin="round" stroke-linecap="round" />
<text x="93" y="146" font-family="Arial, sans-serif" font-size="12" fill="#2f855a">t_NGP / t_NGP,hot</text>
  <line x1="660" y1="460" x2="1110" y2="460" stroke="#222" />
  <line x1="660" y1="460" x2="660" y2="85" stroke="#222" />
  <text x="660" y="61" font-family="Arial, sans-serif" font-size="17" font-weight="700">J. Stokes-Einstein product and delayed-renewal control</text>
  <text x="807.0" y="498" font-family="Arial, sans-serif" font-size="13">inverse-temperature shift</text>

  <polyline points="660.00,431.68 676.79,430.56 694.36,429.31 712.77,427.91 732.09,426.33 752.38,424.55 773.72,422.53 796.19,420.24 819.89,417.62 844.90,414.63 871.36,411.18 899.39,407.20 929.13,402.58 960.75,397.19 994.42,390.87 1030.35,383.40 1068.79,374.52 1110.00,363.86" fill="none" stroke="#2b6cb0" stroke-width="2.2" stroke-linejoin="round" stroke-linecap="round" />
<text x="678" y="110" font-family="Arial, sans-serif" font-size="12" fill="#2b6cb0">D tau_alpha / hot</text>
<polyline points="660.00,431.68 676.79,427.02 694.36,421.80 712.77,415.90 732.09,409.22 752.38,401.61 773.72,392.90 796.19,382.87 819.89,371.24 844.90,357.68 871.36,341.75 899.39,322.89 929.13,300.36 960.75,273.21 994.42,240.17 1030.35,199.51 1068.79,148.88 1110.00,85.00" fill="none" stroke="#c05621" stroke-width="2.2" stroke-linejoin="round" stroke-linecap="round" />
<text x="678" y="128" font-family="Arial, sans-serif" font-size="12" fill="#c05621">lambda tau_d / hot</text>
<polyline points="660.00,431.68 676.79,431.30 694.36,430.90 712.77,430.49 732.09,430.05 752.38,429.58 773.72,429.09 796.19,428.56 819.89,428.01 844.90,427.42 871.36,426.78 899.39,426.11 929.13,425.39 960.75,424.61 994.42,423.77 1030.35,422.87 1068.79,421.89 1110.00,420.82" fill="none" stroke="#2f855a" stroke-width="2.2" stroke-linejoin="round" stroke-linecap="round" />
<text x="678" y="146" font-family="Arial, sans-serif" font-size="12" fill="#2f855a">alpha_peak / hot</text>
<polyline points="660.00,449.70 676.79,450.01 694.36,450.65 712.77,451.31 732.09,451.99 752.38,452.67 773.72,453.36 796.19,454.05 819.89,454.74 844.90,455.43 871.36,456.10 899.39,456.76 929.13,457.40 960.75,458.02 994.42,458.62 1030.35,459.18 1068.79,459.73 1110.00,460.00" fill="none" stroke="#805ad5" stroke-width="2.2" stroke-linejoin="round" stroke-linecap="round" />
<text x="678" y="164" font-family="Arial, sans-serif" font-size="12" fill="#805ad5">xi_SE</text>
</svg>
