<svg xmlns="http://www.w3.org/2000/svg" width="920" height="430" viewBox="0 0 920 430">
<rect width="100%" height="100%" fill="#ffffff"/>
<style>text{font-family:Arial,sans-serif;letter-spacing:0;fill:#202124}.axis{stroke:#202124;stroke-width:1}.grid{stroke:#DADCE0;stroke-width:1}.obs{fill:none;stroke-width:3}.model{fill:none;stroke-width:2;stroke-dasharray:7 5}</style>
<text x="460" y="27" text-anchor="middle" font-size="18" font-weight="700">Cooling broadens the finite exchange spectrum</text>
<line class="grid" x1="70" y1="345.00" x2="425" y2="345.00"/>
<text x="60" y="349.00" text-anchor="end" font-size="11">0.00</text>
<line class="grid" x1="70" y1="272.50" x2="425" y2="272.50"/>
<text x="60" y="276.50" text-anchor="end" font-size="11">0.02</text>
<line class="grid" x1="70" y1="200.00" x2="425" y2="200.00"/>
<text x="60" y="204.00" text-anchor="end" font-size="11">0.04</text>
<line class="grid" x1="70" y1="127.50" x2="425" y2="127.50"/>
<text x="60" y="131.50" text-anchor="end" font-size="11">0.06</text>
<line class="grid" x1="70" y1="55.00" x2="425" y2="55.00"/>
<text x="60" y="59.00" text-anchor="end" font-size="11">0.08</text>
<line class="axis" x1="70" y1="55" x2="70" y2="345"/>
<line class="axis" x1="70" y1="345" x2="425" y2="345"/>
<text x="247.50" y="42" text-anchor="middle" font-size="15" font-weight="700">T = 0.58</text>
<text x="247.50" y="395" text-anchor="middle" font-size="13">lag time (block size = 50)</text>
<text x="70.00" y="365" text-anchor="middle" font-size="11">0</text>
<text x="158.75" y="365" text-anchor="middle" font-size="11">150</text>
<text x="247.50" y="365" text-anchor="middle" font-size="11">300</text>
<text x="336.25" y="365" text-anchor="middle" font-size="11">450</text>
<text x="425.00" y="365" text-anchor="middle" font-size="11">600</text>
<polyline class="obs" stroke="#202124" points="99.58,124.67 129.17,291.19 158.75,311.30 188.33,321.84 217.92,314.28 247.50,302.86 277.08,310.80 306.67,299.11 336.25,337.60 365.83,361.41 395.42,333.33 425.00,356.55"/>
<polyline class="model" stroke="#0072B2" points="99.58,119.35 129.17,309.06 158.75,335.35 188.33,341.66 217.92,343.72 247.50,344.49 277.08,344.80 306.67,344.92 336.25,344.97 365.83,344.99 395.42,344.99 425.00,345.00"/>
<polyline class="model" stroke="#009E73" points="99.58,118.62 129.17,310.09 158.75,329.74 188.33,334.06 217.92,335.89 247.50,337.02 277.08,337.82 306.67,338.40 336.25,338.83 365.83,339.16 395.42,339.40 425.00,339.59"/>
<polyline class="model" stroke="#D55E00" points="99.58,259.07 129.17,259.07 158.75,259.07 188.33,259.07 217.92,259.07 247.50,259.07 277.08,259.07 306.67,259.07 336.25,259.07 365.83,259.07 395.42,259.07 425.00,259.07"/>
<line class="grid" x1="515" y1="345.00" x2="870" y2="345.00"/>
<text x="505" y="349.00" text-anchor="end" font-size="11">0.00</text>
<line class="grid" x1="515" y1="272.50" x2="870" y2="272.50"/>
<text x="505" y="276.50" text-anchor="end" font-size="11">0.09</text>
<line class="grid" x1="515" y1="200.00" x2="870" y2="200.00"/>
<text x="505" y="204.00" text-anchor="end" font-size="11">0.19</text>
<line class="grid" x1="515" y1="127.50" x2="870" y2="127.50"/>
<text x="505" y="131.50" text-anchor="end" font-size="11">0.28</text>
<line class="grid" x1="515" y1="55.00" x2="870" y2="55.00"/>
<text x="505" y="59.00" text-anchor="end" font-size="11">0.37</text>
<line class="axis" x1="515" y1="55" x2="515" y2="345"/>
<line class="axis" x1="515" y1="345" x2="870" y2="345"/>
<text x="692.50" y="42" text-anchor="middle" font-size="15" font-weight="700">T = 0.45</text>
<text x="692.50" y="395" text-anchor="middle" font-size="13">lag time (block size = 50)</text>
<text x="515.00" y="365" text-anchor="middle" font-size="11">0</text>
<text x="603.75" y="365" text-anchor="middle" font-size="11">150</text>
<text x="692.50" y="365" text-anchor="middle" font-size="11">300</text>
<text x="781.25" y="365" text-anchor="middle" font-size="11">450</text>
<text x="870.00" y="365" text-anchor="middle" font-size="11">600</text>
<polyline class="obs" stroke="#202124" points="544.58,76.48 574.17,146.32 603.75,180.03 633.33,204.91 662.92,220.64 692.50,233.43 722.08,243.72 751.67,251.01 781.25,257.47 810.83,263.82 840.42,268.81 870.00,275.70"/>
<polyline class="model" stroke="#0072B2" points="544.58,90.41 574.17,135.51 603.75,172.61 633.33,203.13 662.92,228.24 692.50,248.91 722.08,265.91 751.67,279.90 781.25,291.41 810.83,300.88 840.42,308.68 870.00,315.10"/>
<polyline class="model" stroke="#009E73" points="544.58,76.91 574.17,150.22 603.75,184.24 633.33,205.59 662.92,221.98 692.50,235.79 722.08,247.84 751.67,258.49 781.25,267.94 810.83,276.36 840.42,283.84 870.00,290.51"/>
<polyline class="model" stroke="#D55E00" points="544.58,251.62 574.17,251.62 603.75,251.62 633.33,251.62 662.92,251.62 692.50,251.62 722.08,251.62 751.67,251.62 781.25,251.62 810.83,251.62 840.42,251.62 870.00,251.62"/>
<line x1="170" y1="402" x2="198" y2="402" stroke="#202124" stroke-width="3"/>
<text x="206" y="407" font-size="12">held-out</text>
<line x1="350" y1="402" x2="378" y2="402" stroke="#0072B2" stroke-width="3" stroke-dasharray="7 5"/>
<text x="386" y="407" font-size="12">single mode</text>
<line x1="530" y1="402" x2="558" y2="402" stroke="#009E73" stroke-width="3" stroke-dasharray="7 5"/>
<text x="566" y="407" font-size="12">two finite modes</text>
<line x1="710" y1="402" x2="738" y2="402" stroke="#D55E00" stroke-width="3" stroke-dasharray="7 5"/>
<text x="746" y="407" font-size="12">static disorder</text>
</svg>
