<svg xmlns="http://www.w3.org/2000/svg" width="1180" height="560" viewBox="0 0 1180 560">
  <rect width="100%" height="100%" fill="#ffffff" />
  <text x="75" y="42" font-family="Arial, sans-serif" font-size="23" font-weight="700">Facilitated finite-exchange heterogeneity law</text>
  <line x1="75" y1="460" x2="525" y2="460" stroke="#222" />
  <line x1="75" y1="460" x2="75" y2="85" stroke="#222" />
  <text x="75" y="61" font-family="Arial, sans-serif" font-size="17" font-weight="700">W. Cooling grows exchange heterogeneity</text>
  <text x="222.0" y="498" font-family="Arial, sans-serif" font-size="13">inverse-temperature shift</text>

  <polyline points="75.00,428.27 91.79,425.19 109.36,421.64 127.77,417.53 147.09,412.76 167.38,407.18 188.72,400.61 211.19,392.80 234.89,383.48 259.90,372.23 286.36,358.54 314.39,341.71 344.13,320.82 375.75,294.56 409.42,261.14 445.35,218.03 483.79,161.54 525.00,86.29" fill="none" stroke="#2b6cb0" stroke-width="2.2" stroke-linejoin="round" stroke-linecap="round" />
<text x="93" y="110" font-family="Arial, sans-serif" font-size="12" fill="#2b6cb0">c=R_x/kappa0</text>
<polyline points="75.00,426.98 91.79,423.90 109.36,420.35 127.77,416.24 147.09,411.47 167.38,405.89 188.72,399.32 211.19,391.52 234.89,382.19 259.90,370.94 286.36,357.25 314.39,340.42 344.13,319.53 375.75,293.27 409.42,259.85 445.35,216.74 483.79,160.25 525.00,85.00" fill="none" stroke="#c05621" stroke-width="2.2" stroke-linejoin="round" stroke-linecap="round" />
<text x="93" y="128" font-family="Arial, sans-serif" font-size="12" fill="#c05621">R alpha2 late</text>
<polyline points="75.00,459.22 91.79,459.15 109.36,459.06 127.77,458.97 147.09,458.87 167.38,458.75 188.72,458.61 211.19,458.46 234.89,458.29 259.90,458.09 286.36,457.87 314.39,457.60 344.13,457.29 375.75,456.92 409.42,456.49 445.35,455.96 483.79,455.33 525.00,454.55" fill="none" stroke="#2f855a" stroke-width="2.2" stroke-linejoin="round" stroke-linecap="round" />
<text x="93" y="146" font-family="Arial, sans-serif" font-size="12" fill="#2f855a">R_x/R_x hot</text>
<polyline points="75.00,459.22 91.79,459.27 109.36,459.31 127.77,459.36 147.09,459.40 167.38,459.45 188.72,459.49 211.19,459.54 234.89,459.58 259.90,459.63 286.36,459.68 314.39,459.72 344.13,459.77 375.75,459.82 409.42,459.86 445.35,459.91 483.79,459.95 525.00,460.00" fill="none" stroke="#805ad5" stroke-width="2.2" stroke-linejoin="round" stroke-linecap="round" />
<text x="93" y="164" font-family="Arial, sans-serif" font-size="12" fill="#805ad5">kappa0/kappa hot</text>
  <line x1="660" y1="460" x2="1110" y2="460" stroke="#222" />
  <line x1="660" y1="460" x2="660" y2="85" stroke="#222" />
  <text x="660" y="61" font-family="Arial, sans-serif" font-size="17" font-weight="700">X. Alpha decay per renewal slows</text>
  <text x="807.0" y="498" font-family="Arial, sans-serif" font-size="13">inverse-temperature shift</text>

  <polyline points="660.00,380.01 676.79,385.38 694.36,390.76 712.77,396.15 732.09,401.51 752.38,406.84 773.72,412.11 796.19,417.31 819.89,422.41 844.90,427.38 871.36,432.21 899.39,436.87 929.13,441.34 960.75,445.59 994.42,449.60 1030.35,453.35 1068.79,456.82 1110.00,460.00" fill="none" stroke="#2b6cb0" stroke-width="2.2" stroke-linejoin="round" stroke-linecap="round" />
<text x="678" y="110" font-family="Arial, sans-serif" font-size="12" fill="#2b6cb0">alpha-rate renormalization</text>
<polyline points="660.00,85.00 676.79,106.49 694.36,128.07 712.77,149.66 732.09,171.22 752.38,192.65 773.72,213.89 796.19,234.85 819.89,255.45 844.90,275.58 871.36,295.15 899.39,314.07 929.13,332.23 960.75,349.54 994.42,365.91 1030.35,381.24 1068.79,395.46 1110.00,408.51" fill="none" stroke="#c05621" stroke-width="2.2" stroke-linejoin="round" stroke-linecap="round" />
<text x="678" y="128" font-family="Arial, sans-serif" font-size="12" fill="#c05621">late alpha slope / hot</text>
</svg>
