<svg xmlns="http://www.w3.org/2000/svg" width="1120" height="560" viewBox="0 0 1120 560">
  <rect width="100%" height="100%" fill="#ffffff" />
  <text x="80" y="42" font-family="Arial, sans-serif" font-size="24" font-weight="700">Persistence-exchange spatial covariance closure</text>
  <text x="80" y="68" font-family="Arial, sans-serif" font-size="13" fill="#444">One clock ratio predicts both the four-point amplitude and dynamic length while preserving one-particle marginals.</text>
  <line x1="80" y1="430" x2="515" y2="430" stroke="#222" />
  <line x1="80" y1="430" x2="80" y2="105" stroke="#222" />
  <text x="80" y="83" font-family="Arial, sans-serif" font-size="17" font-weight="700">A. Joint clock-to-spatial prediction</text>
  <polyline points="80.00,430.00 119.55,400.45 198.64,341.36 356.82,223.18 515.00,105.00" fill="none" stroke="#c05621" stroke-width="2.2" stroke-linejoin="round" stroke-linecap="round" />
  <polyline points="80.00,418.18 119.55,410.36 198.64,401.05 356.82,389.98 515.00,382.56" fill="none" stroke="#2b6cb0" stroke-width="2.2" stroke-linejoin="round" stroke-linecap="round" />
  <text x="98" y="129" font-family="Arial, sans-serif" font-size="12" fill="#c05621">chi4 / chiR</text>
  <text x="98" y="148" font-family="Arial, sans-serif" font-size="12" fill="#2b6cb0">xi4</text>
  <text x="72.0" y="455" font-family="Arial, sans-serif" font-size="11">1</text><text x="111.5" y="455" font-family="Arial, sans-serif" font-size="11">2</text><text x="190.6" y="455" font-family="Arial, sans-serif" font-size="11">4</text><text x="348.8" y="455" font-family="Arial, sans-serif" font-size="11">8</text><text x="507.0" y="455" font-family="Arial, sans-serif" font-size="11">12</text>
  <text x="215" y="480" font-family="Arial, sans-serif" font-size="13">persistence / exchange</text>
  <line x1="650" y1="430" x2="1040" y2="430" stroke="#222" />
  <line x1="650" y1="430" x2="650" y2="105" stroke="#222" />
  <text x="650" y="83" font-family="Arial, sans-serif" font-size="17" font-weight="700">B. Four-point wave-number discrimination</text>
  <polyline points="650.00,430.00 685.45,400.45 756.36,341.36 898.18,223.18 1040.00,105.00" fill="none" stroke="#805ad5" stroke-width="2.2" stroke-linejoin="round" stroke-linecap="round" />
  <polyline points="650.00,430.00 685.45,419.69 756.36,407.39 898.18,393.67 1040.00,385.33" fill="none" stroke="#2f855a" stroke-width="2.2" stroke-linejoin="round" stroke-linecap="round" />
  <polyline points="650.00,430.00 685.45,429.44 756.36,429.08 898.18,428.86 1040.00,428.77" fill="none" stroke="#d69e2e" stroke-width="2.2" stroke-linejoin="round" stroke-linecap="round" />
  <text x="668" y="129" font-family="Arial, sans-serif" font-size="12" fill="#805ad5">q=0</text>
  <text x="668" y="148" font-family="Arial, sans-serif" font-size="12" fill="#2f855a">q=0.5</text>
  <text x="668" y="167" font-family="Arial, sans-serif" font-size="12" fill="#d69e2e">q=1.5</text>
  <text x="642.0" y="455" font-family="Arial, sans-serif" font-size="11">1</text><text x="677.5" y="455" font-family="Arial, sans-serif" font-size="11">2</text><text x="748.4" y="455" font-family="Arial, sans-serif" font-size="11">4</text><text x="890.2" y="455" font-family="Arial, sans-serif" font-size="11">8</text><text x="1032.0" y="455" font-family="Arial, sans-serif" font-size="11">12</text>
  <text x="765" y="480" font-family="Arial, sans-serif" font-size="13">persistence / exchange</text>
  <text x="80" y="520" font-family="Arial, sans-serif" font-size="12" fill="#444">Finite q must approach the local renewal variance; thermodynamic-transition claims remain disallowed.</text>
</svg>
