<svg xmlns="http://www.w3.org/2000/svg" width="1120" height="520" viewBox="0 0 1120 520">
  <rect width="100%" height="100%" fill="#ffffff" />
  <text x="75" y="42" font-family="Arial, sans-serif" font-size="24" font-weight="700">Literature inversion readiness</text>
  <text x="75" y="66" font-family="Arial, sans-serif" font-size="13" fill="#444">Coverage checks distinguish qualitative benchmark support from quantitative, uncertainty-weighted inversion readiness.</text>
  <text x="35" y="113.00" font-family="Arial, sans-serif" font-size="11">kob andersen van hove 1995</text><rect x="150" y="100.00" width="360" height="14" fill="#edf2f7" stroke="#cbd5e0" /><rect x="150" y="100.00" width="360.00" height="14" fill="#d69e2e" /><text x="525" y="112.00" font-family="Arial, sans-serif" font-size="11">coverage=1.00; qualitative=1; quantitative=0; uncertainty=0</text><text x="35" y="158.00" font-family="Arial, sans-serif" font-size="11">kob andersen intermediate scattering 1995</text><rect x="150" y="145.00" width="360" height="14" fill="#edf2f7" stroke="#cbd5e0" /><rect x="150" y="145.00" width="360.00" height="14" fill="#d69e2e" /><text x="525" y="157.00" font-family="Arial, sans-serif" font-size="11">coverage=1.00; qualitative=1; quantitative=0; uncertainty=0</text><text x="35" y="203.00" font-family="Arial, sans-serif" font-size="11">hedges persistence exchange 2007</text><rect x="150" y="190.00" width="360" height="14" fill="#edf2f7" stroke="#cbd5e0" /><rect x="150" y="190.00" width="216.00" height="14" fill="#d69e2e" /><text x="525" y="202.00" font-family="Arial, sans-serif" font-size="11">coverage=0.60; qualitative=1; quantitative=0; uncertainty=0</text><text x="35" y="248.00" font-family="Arial, sans-serif" font-size="11">weeks weitz cage 2002</text><rect x="150" y="235.00" width="360" height="14" fill="#edf2f7" stroke="#cbd5e0" /><rect x="150" y="235.00" width="270.00" height="14" fill="#d69e2e" /><text x="525" y="247.00" font-family="Arial, sans-serif" font-size="11">coverage=0.75; qualitative=1; quantitative=0; uncertainty=0</text><text x="35" y="293.00" font-family="Arial, sans-serif" font-size="11">lacevic four point 2003</text><rect x="150" y="280.00" width="360" height="14" fill="#edf2f7" stroke="#cbd5e0" /><rect x="150" y="280.00" width="270.00" height="14" fill="#d69e2e" /><text x="525" y="292.00" font-family="Arial, sans-serif" font-size="11">coverage=0.75; qualitative=1; quantitative=0; uncertainty=0</text><text x="35" y="338.00" font-family="Arial, sans-serif" font-size="11">guan granick fickian ngp 2014</text><rect x="150" y="325.00" width="360" height="14" fill="#edf2f7" stroke="#cbd5e0" /><rect x="150" y="325.00" width="360.00" height="14" fill="#d69e2e" /><text x="525" y="337.00" font-family="Arial, sans-serif" font-size="11">coverage=1.00; qualitative=1; quantitative=0; uncertainty=0</text>
  <text x="150" y="430" font-family="Arial, sans-serif" font-size="12" fill="#444">Orange bars: literature figures support comparison but still need digitization, machine-readable data, or uncertainty estimates.</text>
  <text x="150" y="450" font-family="Arial, sans-serif" font-size="12" fill="#444">Blue bars would indicate a benchmark row ready for direct quantitative inversion.</text>
</svg>
