<svg xmlns="http://www.w3.org/2000/svg" width="1180" height="560" viewBox="0 0 1180 560">
  <rect width="100%" height="100%" fill="#ffffff" />
  <text x="75" y="42" font-family="Arial, sans-serif" font-size="23" font-weight="700">Observable inversion and falsifiability diagnostics</text>
  <line x1="75" y1="460" x2="525" y2="460" stroke="#222" />
  <line x1="75" y1="460" x2="75" y2="85" stroke="#222" />
  <text x="75" y="61" font-family="Arial, sans-serif" font-size="17" font-weight="700">M. Scattering-transport existence margin</text>
  <text x="232.0" y="498" font-family="Arial, sans-serif" font-size="13">D / D_observed</text>

  <polyline points="75.00,415.10 103.12,403.40 112.50,399.51 150.00,383.92 243.75,344.94 337.50,305.97 525.00,228.02" fill="none" stroke="#2b6cb0" stroke-width="2.2" stroke-linejoin="round" stroke-linecap="round" />
<text x="93" y="110" font-family="Arial, sans-serif" font-size="12" fill="#2b6cb0">existence margin</text>
<polyline points="75.00,400.07 103.12,400.07 112.50,400.07 150.00,400.07 243.75,400.07 337.50,400.07 525.00,400.07" fill="none" stroke="#c05621" stroke-width="2.2" stroke-linejoin="round" stroke-linecap="round" />
<text x="93" y="128" font-family="Arial, sans-serif" font-size="12" fill="#c05621">margin=1 threshold</text>
<polyline points="112.50,460.00 150.00,412.43 243.75,314.08 337.50,231.09 525.00,85.00" fill="none" stroke="#2f855a" stroke-width="2.2" stroke-linejoin="round" stroke-linecap="round" />
<text x="93" y="146" font-family="Arial, sans-serif" font-size="12" fill="#2f855a">inferred q/A</text>
  <text x="93" y="408" font-family="Arial, sans-serif" font-size="12" fill="#718096">margin below 1 has no positive-q solution</text>
  <line x1="660" y1="460" x2="1110" y2="460" stroke="#222" />
  <line x1="660" y1="460" x2="660" y2="85" stroke="#222" />
  <text x="660" y="61" font-family="Arial, sans-serif" font-size="17" font-weight="700">N. NGP peak residuals after inversion</text>
  <text x="817.0" y="498" font-family="Arial, sans-serif" font-size="13">D / D_observed</text>

  <polyline points="697.50,218.06 735.00,228.48 828.75,246.06 922.50,257.59 1110.00,272.77" fill="none" stroke="#2b6cb0" stroke-width="2.2" stroke-linejoin="round" stroke-linecap="round" />
<text x="678" y="110" font-family="Arial, sans-serif" font-size="12" fill="#2b6cb0">log t*_pred / t*_obs</text>
<polyline points="697.50,460.00 735.00,228.48 828.75,151.12 922.50,119.64 1110.00,85.00" fill="none" stroke="#c05621" stroke-width="2.2" stroke-linejoin="round" stroke-linecap="round" />
<text x="678" y="128" font-family="Arial, sans-serif" font-size="12" fill="#c05621">log alpha*_pred / alpha*_obs</text>
</svg>
