<svg xmlns="http://www.w3.org/2000/svg" width="1180" height="560" viewBox="0 0 1180 560">
  <rect width="100%" height="100%" fill="#ffffff" />
  <text x="75" y="42" font-family="Arial, sans-serif" font-size="23" font-weight="700">Alpha-shape time-temperature superposition diagnostic</text>
  <line x1="75" y1="460" x2="525" y2="460" stroke="#222" />
  <line x1="75" y1="460" x2="75" y2="85" stroke="#222" />
  <text x="75" y="61" font-family="Arial, sans-serif" font-size="17" font-weight="700">U. Alpha shape after tau_alpha scaling</text>
  <text x="245.0" y="498" font-family="Arial, sans-serif" font-size="13">t / tau_alpha</text>

  <polyline points="75.00,459.07 75.32,459.01 75.66,458.95 75.99,458.88 76.33,458.81 76.68,458.74 77.04,458.67 77.40,458.59 77.77,458.51 78.15,458.43 78.53,458.35 78.92,458.26 79.32,458.16 79.72,458.07 80.13,457.97 80.55,457.86 80.98,457.76 81.42,457.64 81.86,457.53 82.31,457.41 82.77,457.29 83.24,457.16 83.72,457.02 84.20,456.89 84.70,456.74 85.20,456.59 85.71,456.44 86.24,456.28 86.77,456.12 87.31,455.95 87.86,455.77 88.43,455.59 89.00,455.41 89.58,455.21 90.18,455.02 90.78,454.81 91.40,454.60 92.03,454.38 92.67,454.15 93.32,453.92 93.98,453.68 94.66,453.43 95.35,453.18 96.05,452.92 96.76,452.65 97.49,452.37 98.23,452.08 98.99,451.79 99.76,451.49 100.54,451.17 101.34,450.85 102.15,450.53 102.98,450.19 103.82,449.84 104.68,449.49 105.55,449.12 106.44,448.74 107.35,448.36 108.27,447.96 109.21,447.56 110.17,447.14 111.14,446.72 112.14,446.28 113.15,445.84 114.18,445.38 115.23,444.91 116.30,444.43 117.39,443.94 118.50,443.43 119.63,442.92 120.78,442.39 121.95,441.85 123.15,441.30 124.36,440.74 125.60,440.16 126.86,439.58 128.15,438.97 129.45,438.36 130.79,437.73 132.14,437.09 133.53,436.44 134.93,435.77 136.37,435.09 137.83,434.39 139.32,433.68 140.83,432.95 142.37,432.21 143.95,431.46 145.55,430.69 147.18,429.90 148.84,429.10 150.53,428.28 152.25,427.45 154.01,426.60 155.80,425.73 157.62,424.85 159.47,423.95 161.36,423.03 163.28,422.09 165.24,421.14 167.23,420.17 169.27,419.18 171.34,418.17 173.44,417.14 175.59,416.09 177.78,415.02 180.01,413.93 182.27,412.82 184.58,411.69 186.94,410.54 189.33,409.37 191.78,408.18 194.26,406.96 196.79,405.72 199.37,404.46 202.00,403.17 204.68,401.86 207.40,400.53 210.18,399.17 213.00,397.78 215.88,396.37 218.82,394.94 221.80,393.47 224.85,391.98 227.94,390.47 231.10,388.92 234.31,387.35 237.59,385.74 240.92,384.11 244.32,382.44 247.78,380.75 251.30,379.02 254.89,377.26 258.54,375.47 262.27,373.65 266.06,371.79 269.92,369.90 273.85,367.97 277.86,366.01 281.94,364.01 286.09,361.98 290.33,359.90 294.64,357.79 299.03,355.64 303.50,353.45 308.05,351.22 312.69,348.94 317.42,346.63 322.23,344.27 327.13,341.87 332.12,339.42 337.21,336.93 342.39,334.39 347.66,331.81 353.03,329.18 358.50,326.50 364.08,323.76 369.75,320.98 375.54,318.15 381.42,315.27 387.42,312.33 393.53,309.33 399.75,306.29 406.09,303.18 412.54,300.02 419.11,296.80 425.81,293.52 432.63,290.18 439.57,286.77 446.65,283.31 453.85,279.78 461.19,276.18 468.66,272.52 476.27,268.79 484.03,264.99 491.92,261.12 499.97,257.18 508.16,253.17 516.50,249.08 525.00,244.91" fill="none" stroke="#2b6cb0" stroke-width="2.2" stroke-linejoin="round" stroke-linecap="round" />
<text x="93" y="110" font-family="Arial, sans-serif" font-size="12" fill="#2b6cb0">T=1.00</text>
<polyline points="75.00,459.71 75.32,459.68 75.66,459.64 75.99,459.60 76.33,459.56 76.68,459.52 77.04,459.48 77.40,459.43 77.77,459.38 78.15,459.33 78.53,459.28 78.92,459.23 79.32,459.17 79.72,459.11 80.13,459.05 80.55,458.98 80.98,458.91 81.42,458.84 81.86,458.77 82.31,458.69 82.77,458.61 83.24,458.52 83.72,458.43 84.20,458.34 84.70,458.25 85.20,458.14 85.71,458.04 86.24,457.93 86.77,457.82 87.31,457.70 87.86,457.57 88.43,457.45 89.00,457.31 89.58,457.17 90.18,457.03 90.78,456.87 91.40,456.72 92.03,456.55 92.67,456.38 93.32,456.21 93.98,456.02 94.66,455.83 95.35,455.63 96.05,455.42 96.76,455.21 97.49,454.99 98.23,454.75 98.99,454.51 99.76,454.27 100.54,454.01 101.34,453.74 102.15,453.46 102.98,453.17 103.82,452.87 104.68,452.56 105.55,452.24 106.44,451.91 107.35,451.57 108.27,451.21 109.21,450.85 110.17,450.47 111.14,450.07 112.14,449.67 113.15,449.25 114.18,448.81 115.23,448.36 116.30,447.90 117.39,447.42 118.50,446.93 119.63,446.42 120.78,445.90 121.95,445.36 123.15,444.80 124.36,444.22 125.60,443.63 126.86,443.02 128.15,442.39 129.45,441.75 130.79,441.08 132.14,440.40 133.53,439.69 134.93,438.97 136.37,438.22 137.83,437.46 139.32,436.67 140.83,435.86 142.37,435.03 143.95,434.18 145.55,433.31 147.18,432.41 148.84,431.49 150.53,430.55 152.25,429.58 154.01,428.58 155.80,427.57 157.62,426.53 159.47,425.46 161.36,424.36 163.28,423.24 165.24,422.10 167.23,420.92 169.27,419.72 171.34,418.49 173.44,417.24 175.59,415.95 177.78,414.64 180.01,413.29 182.27,411.92 184.58,410.52 186.94,409.08 189.33,407.62 191.78,406.12 194.26,404.59 196.79,403.03 199.37,401.44 202.00,399.81 204.68,398.15 207.40,396.46 210.18,394.73 213.00,392.96 215.88,391.16 218.82,389.33 221.80,387.45 224.85,385.54 227.94,383.60 231.10,381.61 234.31,379.59 237.59,377.52 240.92,375.42 244.32,373.27 247.78,371.08 251.30,368.85 254.89,366.58 258.54,364.27 262.27,361.91 266.06,359.50 269.92,357.05 273.85,354.56 277.86,352.01 281.94,349.42 286.09,346.78 290.33,344.09 294.64,341.35 299.03,338.56 303.50,335.72 308.05,332.82 312.69,329.87 317.42,326.86 322.23,323.80 327.13,320.68 332.12,317.50 337.21,314.27 342.39,310.97 347.66,307.61 353.03,304.19 358.50,300.71 364.08,297.16 369.75,293.55 375.54,289.86 381.42,286.12 387.42,282.30 393.53,278.41 399.75,274.45 406.09,270.41 412.54,266.30 419.11,262.11 425.81,257.85 432.63,253.51 439.57,249.09 446.65,244.58 453.85,239.99 461.19,235.32 468.66,230.56 476.27,225.71 484.03,220.77 491.92,215.75 499.97,210.62 508.16,205.41 516.50,200.09 525.00,194.68" fill="none" stroke="#c05621" stroke-width="2.2" stroke-linejoin="round" stroke-linecap="round" />
<text x="93" y="128" font-family="Arial, sans-serif" font-size="12" fill="#c05621">T=0.78</text>
<polyline points="75.00,460.00 75.32,459.98 75.66,459.96 75.99,459.93 76.33,459.91 76.68,459.88 77.04,459.85 77.40,459.82 77.77,459.79 78.15,459.76 78.53,459.73 78.92,459.69 79.32,459.65 79.72,459.62 80.13,459.57 80.55,459.53 80.98,459.49 81.42,459.44 81.86,459.39 82.31,459.34 82.77,459.28 83.24,459.22 83.72,459.16 84.20,459.10 84.70,459.04 85.20,458.97 85.71,458.89 86.24,458.82 86.77,458.74 87.31,458.65 87.86,458.57 88.43,458.47 89.00,458.38 89.58,458.28 90.18,458.17 90.78,458.06 91.40,457.95 92.03,457.83 92.67,457.70 93.32,457.57 93.98,457.43 94.66,457.28 95.35,457.13 96.05,456.97 96.76,456.81 97.49,456.64 98.23,456.46 98.99,456.27 99.76,456.07 100.54,455.86 101.34,455.65 102.15,455.42 102.98,455.19 103.82,454.95 104.68,454.69 105.55,454.42 106.44,454.15 107.35,453.86 108.27,453.56 109.21,453.24 110.17,452.91 111.14,452.57 112.14,452.22 113.15,451.85 114.18,451.46 115.23,451.06 116.30,450.64 117.39,450.21 118.50,449.75 119.63,449.28 120.78,448.79 121.95,448.29 123.15,447.76 124.36,447.21 125.60,446.64 126.86,446.05 128.15,445.43 129.45,444.79 130.79,444.13 132.14,443.44 133.53,442.73 134.93,441.99 136.37,441.22 137.83,440.43 139.32,439.61 140.83,438.75 142.37,437.87 143.95,436.96 145.55,436.01 147.18,435.03 148.84,434.02 150.53,432.97 152.25,431.89 154.01,430.77 155.80,429.61 157.62,428.42 159.47,427.18 161.36,425.91 163.28,424.59 165.24,423.23 167.23,421.83 169.27,420.39 171.34,418.90 173.44,417.36 175.59,415.78 177.78,414.15 180.01,412.47 182.27,410.74 184.58,408.96 186.94,407.13 189.33,405.24 191.78,403.31 194.26,401.31 196.79,399.26 199.37,397.16 202.00,395.00 204.68,392.77 207.40,390.49 210.18,388.15 213.00,385.74 215.88,383.28 218.82,380.75 221.80,378.15 224.85,375.49 227.94,372.76 231.10,369.96 234.31,367.10 237.59,364.16 240.92,361.16 244.32,358.08 247.78,354.93 251.30,351.70 254.89,348.40 258.54,345.02 262.27,341.57 266.06,338.04 269.92,334.43 273.85,330.73 277.86,326.96 281.94,323.11 286.09,319.17 290.33,315.14 294.64,311.03 299.03,306.83 303.50,302.54 308.05,298.17 312.69,293.70 317.42,289.14 322.23,284.49 327.13,279.74 332.12,274.89 337.21,269.95 342.39,264.91 347.66,259.76 353.03,254.52 358.50,249.17 364.08,243.72 369.75,238.16 375.54,232.49 381.42,226.71 387.42,220.82 393.53,214.81 399.75,208.69 406.09,202.45 412.54,196.10 419.11,189.62 425.81,183.02 432.63,176.29 439.57,169.44 446.65,162.46 453.85,155.34 461.19,148.09 468.66,140.71 476.27,133.18 484.03,125.52 491.92,117.71 499.97,109.76 508.16,101.66 516.50,93.41 525.00,85.00" fill="none" stroke="#2f855a" stroke-width="2.2" stroke-linejoin="round" stroke-linecap="round" />
<text x="93" y="146" font-family="Arial, sans-serif" font-size="12" fill="#2f855a">T=0.62</text>
  <line x1="660" y1="460" x2="1110" y2="460" stroke="#222" />
  <line x1="660" y1="460" x2="660" y2="85" stroke="#222" />
  <text x="660" y="61" font-family="Arial, sans-serif" font-size="17" font-weight="700">V. Collapse residual and control variable</text>
  <text x="830.0" y="498" font-family="Arial, sans-serif" font-size="13">inverse-temperature shift</text>

  <polyline points="660.00,460.00 867.09,441.77 1110.00,424.42" fill="none" stroke="#2b6cb0" stroke-width="2.2" stroke-linejoin="round" stroke-linecap="round" />
<text x="678" y="110" font-family="Arial, sans-serif" font-size="12" fill="#2b6cb0">RMS log-shape residual</text>
<polyline points="660.00,401.76 867.09,322.78 1110.00,85.00" fill="none" stroke="#c05621" stroke-width="2.2" stroke-linejoin="round" stroke-linecap="round" />
<text x="678" y="128" font-family="Arial, sans-serif" font-size="12" fill="#c05621">Gamma lambda tau_d / hot</text>
<polyline points="660.00,401.76 867.09,427.88 1110.00,441.73" fill="none" stroke="#2f855a" stroke-width="2.2" stroke-linejoin="round" stroke-linecap="round" />
<text x="678" y="146" font-family="Arial, sans-serif" font-size="12" fill="#2f855a">tau_alpha/tau_d</text>
</svg>
