<svg xmlns="http://www.w3.org/2000/svg" width="1120" height="560" viewBox="0 0 1120 560">
  <rect width="100%" height="100%" fill="#ffffff" />
  <text x="90" y="42" font-family="Arial, sans-serif" font-size="24" font-weight="700">Uncertainty-weighted data protocol</text>
  <text x="90" y="66" font-family="Arial, sans-serif" font-size="13" fill="#444">Observed alpha times, late NGP, and chi4 peak are scored by log-residual z scores.</text>
  <line x1="90" y1="425" x2="1035" y2="425" stroke="#222" />
  <line x1="90" y1="425" x2="90" y2="95" stroke="#222" />
  <text x="38" y="285" font-family="Arial, sans-serif" font-size="13" transform="rotate(-90 38 285)">absolute z score</text>
  <line x1="90" y1="344.0" x2="1035" y2="344.0" stroke="#718096" stroke-dasharray="5 4" />
  <text x="953" y="336.0" font-family="Arial, sans-serif" font-size="12" fill="#718096">z=2</text>
  <rect x="214.0" y="425.0" width="24" height="0.0" fill="#2b6cb0" /><text x="212.0" y="475" font-family="Arial, sans-serif" font-size="10" fill="#2b6cb0">multi-k alpha</text><rect x="248.0" y="425.0" width="24" height="0.0" fill="#2f855a" /><text x="246.0" y="491" font-family="Arial, sans-serif" font-size="10" fill="#2f855a">late NGP</text><rect x="282.0" y="425.0" width="24" height="0.0" fill="#c05621" /><text x="280.0" y="507" font-family="Arial, sans-serif" font-size="10" fill="#c05621">chi4 peak</text><text x="200.0" y="459" font-family="Arial, sans-serif" font-size="12">consistent</text><rect x="819.0" y="425.0" width="24" height="0.0" fill="#2b6cb0" /><text x="817.0" y="475" font-family="Arial, sans-serif" font-size="10" fill="#2b6cb0">multi-k alpha</text><rect x="853.0" y="425.0" width="24" height="0.0" fill="#2f855a" /><text x="851.0" y="491" font-family="Arial, sans-serif" font-size="10" fill="#2f855a">late NGP</text><rect x="887.0" y="130.4" width="24" height="294.6" fill="#c05621" /><text x="885.0" y="507" font-family="Arial, sans-serif" font-size="10" fill="#c05621">chi4 peak</text><text x="805.0" y="459" font-family="Arial, sans-serif" font-size="12">chi4 peak mismatch</text>
</svg>
