<svg xmlns="http://www.w3.org/2000/svg" width="1080" height="560" viewBox="0 0 1080 560">
  <rect width="100%" height="100%" fill="#ffffff" />
  <text x="60" y="42" font-family="Arial, sans-serif" font-size="23" font-weight="700">Stationary event-clock closure on continuous KA trajectories</text>
  <text x="60" y="68" font-family="Arial, sans-serif" font-size="13" fill="#444">Calibration uses event statistics; diffusion, transient NGP, multi-k Fs, and cooling trends are held out.</text>
  <text x="70" y="112" font-family="Arial, sans-serif" font-size="17" font-weight="700">A. Cold diffusion relative error</text>
  <line x1="90" y1="430" x2="480" y2="430" stroke="#222"/><line x1="90" y1="150" x2="90" y2="430" stroke="#222"/>
  <rect x="155" y="202.1" width="90" height="227.9" fill="#b45309"/>
  <rect x="325" y="421.6" width="90" height="8.4" fill="#047857"/>
  <text x="150" y="455" font-family="Arial, sans-serif" font-size="13">uncorrelated</text><text x="330" y="455" font-family="Arial, sans-serif" font-size="13">Green-Kubo</text>
  <text x="165" y="192.1" font-family="Arial, sans-serif" font-size="13" fill="#7c2d12">28.5%</text>
  <text x="345" y="411.6" font-family="Arial, sans-serif" font-size="13" fill="#065f46">1.05%</text>
  <line x1="90" y1="414" x2="480" y2="414" stroke="#777" stroke-dasharray="5 4"/><text x="420" y="408" font-family="Arial, sans-serif" font-size="11">2% gate</text>
  <text x="580" y="112" font-family="Arial, sans-serif" font-size="17" font-weight="700">B. Hot transient NGP absolute error</text>
  <line x1="600" y1="430" x2="990" y2="430" stroke="#222"/><line x1="600" y1="150" x2="600" y2="430" stroke="#222"/>
  <rect x="665" y="202.3" width="90" height="227.7" fill="#6b7280"/>
  <rect x="835" y="400.3" width="90" height="29.7" fill="#2563eb"/>
  <text x="658" y="455" font-family="Arial, sans-serif" font-size="13">instantaneous</text><text x="842" y="455" font-family="Arial, sans-serif" font-size="13">finite flight</text>
  <text x="690" y="192.3" font-family="Arial, sans-serif" font-size="13">0.759</text>
  <text x="860" y="390.3" font-family="Arial, sans-serif" font-size="13">0.099</text>
  <text x="60" y="515" font-family="Arial, sans-serif" font-size="12" fill="#444">Cooling: D slows 32.66x, tau_alpha grows 58.14x, D tau_alpha grows 1.78x, NGP and overlap-susceptibility peaks grow and shift later.</text>
</svg>
