<svg xmlns="http://www.w3.org/2000/svg" width="1120" height="630" viewBox="0 0 1120 630">
  <rect width="100%" height="100%" fill="#ffffff" />
  <text x="75" y="42" font-family="Arial, sans-serif" font-size="24" font-weight="700">SOTA benchmark consistency</text>
  <text x="75" y="66" font-family="Arial, sans-serif" font-size="13" fill="#444">Benchmark rows convert literature-level conclusions into explicit consistency checks.</text>
  <line x1="90" y1="430" x2="520" y2="430" stroke="#222" />
  <line x1="90" y1="430" x2="90" y2="105" stroke="#222" />
  <text x="90" y="81" font-family="Arial, sans-serif" font-size="17" font-weight="700">A. MCT beta visibility</text>
  <rect x="90" y="430.00" width="54" height="0.00" fill="#718096" /><text x="82" y="454" font-family="Arial, sans-serif" font-size="11">obs critical</text><rect x="182" y="430.00" width="54" height="0.00" fill="#2b6cb0" /><text x="174" y="454" font-family="Arial, sans-serif" font-size="11">model critical</text><rect x="274" y="105.00" width="54" height="325.00" fill="#718096" /><text x="266" y="454" font-family="Arial, sans-serif" font-size="11">obs von</text><rect x="366" y="105.00" width="54" height="325.00" fill="#c05621" /><text x="358" y="454" font-family="Arial, sans-serif" font-size="11">model von</text>
  <text x="90" y="486" font-family="Arial, sans-serif" font-size="12">MCT row consistent = 1</text>
  <text x="90" y="504" font-family="Arial, sans-serif" font-size="12">exponent row consistent = 1; lambda_a = 0.716, lambda_b = 0.725</text>
  <line x1="660" y1="430" x2="1040" y2="430" stroke="#222" />
  <line x1="660" y1="430" x2="660" y2="105" stroke="#222" />
  <text x="660" y="81" font-family="Arial, sans-serif" font-size="17" font-weight="700">B. Gaussian recovery mechanism</text>
  <polyline points="660.00,430.00 850.00,105.00 1040.00,308.27" fill="none" stroke="#222222" stroke-width="1.2" stroke-linejoin="round" stroke-linecap="round" />
  <circle cx="660.00" cy="430.00" r="5" fill="#2f855a" /><text x="672" y="130" font-family="Arial, sans-serif" font-size="12" fill="#2f855a">finite exchange: 0.0048</text><circle cx="850.00" cy="105.00" r="5" fill="#805ad5" /><text x="672" y="148" font-family="Arial, sans-serif" font-size="12" fill="#805ad5">static disorder: 2.5</text><circle cx="1040.00" cy="308.27" r="5" fill="#555555" /><text x="672" y="166" font-family="Arial, sans-serif" font-size="12" fill="#555555">recovery threshold: 0.05</text>
  <text x="660" y="482" font-family="Arial, sans-serif" font-size="11">recovery row consistent = 1</text>
  <text x="660" y="498" font-family="Arial, sans-serif" font-size="11">SE row consistent = 1; D tau growth = 2.03, xi_SE = 0.581</text>
  <text x="660" y="514" font-family="Arial, sans-serif" font-size="11">chi4 row consistent = 1; xi4 growth = 3.09, chi4 growth = 34.7</text>
  <text x="660" y="530" font-family="Arial, sans-serif" font-size="11">front-law row consistent = 1; Df cv = 1.8e-16, xi4 growth = 3.09</text>
  <text x="660" y="546" font-family="Arial, sans-serif" font-size="11">TTS row consistent = 1; residual = 0.611, C growth = 6.44</text>
  <text x="660" y="562" font-family="Arial, sans-serif" font-size="11">KWW row consistent = 1; beta hot/cold = 0.91/0.72, residual = 0.064</text>
  <text x="660" y="578" font-family="Arial, sans-serif" font-size="11">persistence/exchange row consistent = 1; tau_p/tau_x = 9.0, late residual = 0</text>
  <text x="660" y="594" font-family="Arial, sans-serif" font-size="11">van Hove row consistent = 1; peak tail = 2.90, late tail = 0.97</text>
  <text x="660" y="610" font-family="Arial, sans-serif" font-size="11">fragility row consistent = 1; m growth = 2.06, AG slowdown = 1.5e+08</text>
</svg>
