<svg xmlns="http://www.w3.org/2000/svg" width="920" height="490" viewBox="0 0 920 490">
<rect width="100%" height="100%" fill="white"/>
<style>text{font-family:Arial,sans-serif;fill:#202124} .axis{stroke:#202124;stroke-width:1.3} .grid{stroke:#d9d9d9;stroke-width:1} .series{fill:none;stroke-width:2.4} .marker{stroke:white;stroke-width:1}</style>
<text x="92" y="30" font-size="18">Cage-jump event clocks: observation-window identifiability audit</text>
<text x="92" y="48" font-size="12">Candelier-type cage-relative segmentation is threshold-stable, but PE ratios drift strongly with field-of-view track horizon.</text>
<line class="axis" x1="92" y1="412" x2="452" y2="412"/>
<line class="axis" x1="92" y1="60" x2="92" y2="412"/>
<text x="272.00" y="46" text-anchor="middle" font-size="14">phi=0.76, t2_10_29b</text>
<line class="grid" x1="100.57" y1="60" x2="100.57" y2="412"/>
<text x="100.57" y="434" text-anchor="middle" font-size="11">100</text>
<line class="grid" x1="229.14" y1="60" x2="229.14" y2="412"/>
<text x="229.14" y="434" text-anchor="middle" font-size="11">250</text>
<line class="grid" x1="443.43" y1="60" x2="443.43" y2="412"/>
<text x="443.43" y="434" text-anchor="middle" font-size="11">500</text>
<line class="grid" x1="92" y1="389.80" x2="452" y2="389.80"/>
<text x="84" y="393.80" text-anchor="end" font-size="11">1</text>
<line class="grid" x1="92" y1="321.41" x2="452" y2="321.41"/>
<text x="84" y="325.41" text-anchor="end" font-size="11">3</text>
<line class="grid" x1="92" y1="246.47" x2="452" y2="246.47"/>
<text x="84" y="250.47" text-anchor="end" font-size="11">10</text>
<line class="grid" x1="92" y1="178.09" x2="452" y2="178.09"/>
<text x="84" y="182.09" text-anchor="end" font-size="11">30</text>
<line class="grid" x1="92" y1="103.15" x2="452" y2="103.15"/>
<text x="84" y="107.15" text-anchor="end" font-size="11">100</text>
<polyline class="series" stroke="#1f77b4" points="100.57,386.04 229.14,360.05 443.43,324.41"/>
<circle class="marker" fill="#1f77b4" cx="100.57" cy="386.04" r="3.2"/>
<circle class="marker" fill="#1f77b4" cx="229.14" cy="360.05" r="3.2"/>
<circle class="marker" fill="#1f77b4" cx="443.43" cy="324.41" r="3.2"/>
<polyline class="series" stroke="#d62728" points="100.57,268.83 229.14,226.69 443.43,178.55"/>
<circle class="marker" fill="#d62728" cx="100.57" cy="268.83" r="3.2"/>
<circle class="marker" fill="#d62728" cx="229.14" cy="226.69" r="3.2"/>
<circle class="marker" fill="#d62728" cx="443.43" cy="178.55" r="3.2"/>
<text x="272.00" y="468" text-anchor="middle" font-size="13">minimum contiguous track length (frames)</text>
<text x="100" y="400" font-size="11">threshold stable=1; PE inversion=0</text>
<line class="axis" x1="510" y1="412" x2="870" y2="412"/>
<line class="axis" x1="510" y1="60" x2="510" y2="412"/>
<text x="690.00" y="46" text-anchor="middle" font-size="14">phi=0.78, t2_10_30b</text>
<line class="grid" x1="518.57" y1="60" x2="518.57" y2="412"/>
<text x="518.57" y="434" text-anchor="middle" font-size="11">100</text>
<line class="grid" x1="647.14" y1="60" x2="647.14" y2="412"/>
<text x="647.14" y="434" text-anchor="middle" font-size="11">250</text>
<line class="grid" x1="861.43" y1="60" x2="861.43" y2="412"/>
<text x="861.43" y="434" text-anchor="middle" font-size="11">500</text>
<line class="grid" x1="510" y1="389.80" x2="870" y2="389.80"/>
<text x="502" y="393.80" text-anchor="end" font-size="11">1</text>
<line class="grid" x1="510" y1="321.41" x2="870" y2="321.41"/>
<text x="502" y="325.41" text-anchor="end" font-size="11">3</text>
<line class="grid" x1="510" y1="246.47" x2="870" y2="246.47"/>
<text x="502" y="250.47" text-anchor="end" font-size="11">10</text>
<line class="grid" x1="510" y1="178.09" x2="870" y2="178.09"/>
<text x="502" y="182.09" text-anchor="end" font-size="11">30</text>
<line class="grid" x1="510" y1="103.15" x2="870" y2="103.15"/>
<text x="502" y="107.15" text-anchor="end" font-size="11">100</text>
<polyline class="series" stroke="#1f77b4" points="518.57,388.18 647.14,378.29 861.43,362.52"/>
<circle class="marker" fill="#1f77b4" cx="518.57" cy="388.18" r="3.2"/>
<circle class="marker" fill="#1f77b4" cx="647.14" cy="378.29" r="3.2"/>
<circle class="marker" fill="#1f77b4" cx="861.43" cy="362.52" r="3.2"/>
<polyline class="series" stroke="#d62728" points="518.57,272.44 647.14,208.83 861.43,153.26"/>
<circle class="marker" fill="#d62728" cx="518.57" cy="272.44" r="3.2"/>
<circle class="marker" fill="#d62728" cx="647.14" cy="208.83" r="3.2"/>
<circle class="marker" fill="#d62728" cx="861.43" cy="153.26" r="3.2"/>
<text x="690.00" y="468" text-anchor="middle" font-size="13">minimum contiguous track length (frames)</text>
<text x="518" y="400" font-size="11">threshold stable=1; PE inversion=0</text>
<line x1="92" y1="438" x2="112" y2="438" stroke="#1f77b4" stroke-width="2.4"/>
<text x="118" y="442" font-size="12">naive first-event mean / exchange mean</text>
<line x1="350" y1="438" x2="370" y2="438" stroke="#d62728" stroke-width="2.4"/>
<text x="376" y="442" font-size="12">right-censored first-event estimate / exchange mean</text>
<text x="22" y="236.00" transform="rotate(-90 22 236.00)" text-anchor="middle" font-size="13">persistence / exchange ratio (log scale)</text>
</svg>