<svg xmlns="http://www.w3.org/2000/svg" width="1120" height="560" viewBox="0 0 1120 560">
  <rect width="100%" height="100%" fill="#ffffff" />
  <text x="75" y="42" font-family="Arial, sans-serif" font-size="24" font-weight="700">Persistence/exchange renewal diagnostic</text>
  <text x="75" y="66" font-family="Arial, sans-serif" font-size="13" fill="#444">First cage persistence slows alpha relaxation while the exchange clock fixes long-time diffusion.</text>
  
  <line x1="75" y1="430" x2="520" y2="430" stroke="#222" />
  <line x1="75" y1="430" x2="75" y2="90" stroke="#222" />
  <text x="75" y="66" font-family="Arial, sans-serif" font-size="17" font-weight="700">A. SE decoupling at fixed diffusion</text>
  <text x="217.5" y="468" font-family="Arial, sans-serif" font-size="13">persistence / exchange mean</text>

  <polyline points="75.00,430.00 115.45,393.25 196.36,327.96 358.18,207.71 520.00,90.00" fill="none" stroke="#805ad5" stroke-width="2.2" stroke-linejoin="round" stroke-linecap="round" />
  <polyline points="75.00,90.00 115.45,270.73 196.36,365.32 358.18,413.70 520.00,430.00" fill="none" stroke="#a0aec0" stroke-width="2.2" stroke-linejoin="round" stroke-linecap="round" />
  <text x="95" y="118" font-family="Arial, sans-serif" font-size="12" fill="#805ad5">D tau_alpha / Poisson limit</text>
  <text x="95" y="136" font-family="Arial, sans-serif" font-size="12" fill="#a0aec0">late NGP / Poisson limit</text>
  
  <line x1="660" y1="430" x2="1040" y2="430" stroke="#222" />
  <line x1="660" y1="430" x2="660" y2="90" stroke="#222" />
  <text x="660" y="66" font-family="Arial, sans-serif" font-size="17" font-weight="700">B. NGP recovery despite delayed persistence</text>
  <text x="770.0" y="468" font-family="Arial, sans-serif" font-size="13">log10 time</text>

  <polyline points="660.00,90.00 661.47,101.25 662.93,112.07 664.40,122.47 665.87,132.47 667.34,142.09 668.80,151.34 670.27,160.23 671.74,168.78 673.20,176.99 674.67,184.89 676.14,192.48 677.61,199.77 679.07,206.78 680.54,213.51 682.01,219.98 683.47,226.19 684.94,232.16 686.41,237.89 687.88,243.39 689.34,248.67 690.81,253.74 692.28,258.60 693.75,263.27 695.21,267.74 696.68,272.03 698.15,276.14 699.61,280.08 701.08,283.85 702.55,287.47 704.02,290.93 705.48,294.23 706.95,297.39 708.42,300.42 709.88,303.30 711.35,306.05 712.82,308.68 714.29,311.18 715.75,313.56 717.22,315.83 718.69,317.98 720.15,320.02 721.62,321.95 723.09,323.78 724.56,325.51 726.02,327.13 727.49,328.67 728.96,330.10 730.42,331.45 731.89,332.70 733.36,333.87 734.83,334.95 736.29,335.95 737.76,336.86 739.23,337.69 740.69,338.44 742.16,339.12 743.63,339.72 745.10,340.24 746.56,340.69 748.03,341.07 749.50,341.37 750.97,341.61 752.43,341.78 753.90,341.88 755.37,341.92 756.83,341.89 758.30,341.80 759.77,341.65 761.24,341.45 762.70,341.19 764.17,340.87 765.64,340.51 767.10,340.10 768.57,339.64 770.04,339.14 771.51,338.60 772.97,338.03 774.44,337.43 775.91,336.80 777.37,336.16 778.84,335.49 780.31,334.81 781.78,334.13 783.24,333.44 784.71,332.76 786.18,332.09 787.64,331.43 789.11,330.79 790.58,330.18 792.05,329.60 793.51,329.06 794.98,328.56 796.45,328.11 797.92,327.70 799.38,327.35 800.85,327.06 802.32,326.84 803.78,326.67 805.25,326.58 806.72,326.55 808.19,326.59 809.65,326.71 811.12,326.90 812.59,327.16 814.05,327.50 815.52,327.91 816.99,328.39 818.46,328.94 819.92,329.56 821.39,330.25 822.86,331.01 824.32,331.83 825.79,332.71 827.26,333.66 828.73,334.66 830.19,335.71 831.66,336.82 833.13,337.98 834.59,339.18 836.06,340.43 837.53,341.72 839.00,343.05 840.46,344.41 841.93,345.80 843.40,347.22 844.86,348.66 846.33,350.13 847.80,351.62 849.27,353.12 850.73,354.64 852.20,356.17 853.67,357.71 855.14,359.25 856.60,360.79 858.07,362.34 859.54,363.89 861.00,365.43 862.47,366.97 863.94,368.49 865.41,370.01 866.87,371.52 868.34,373.02 869.81,374.50 871.27,375.96 872.74,377.41 874.21,378.84 875.68,380.25 877.14,381.64 878.61,383.01 880.08,384.36 881.54,385.68 883.01,386.98 884.48,388.26 885.95,389.51 887.41,390.73 888.88,391.94 890.35,393.11 891.81,394.26 893.28,395.39 894.75,396.49 896.22,397.56 897.68,398.61 899.15,399.63 900.62,400.62 902.08,401.60 903.55,402.54 905.02,403.46 906.49,404.36 907.95,405.23 909.42,406.08 910.89,406.90 912.36,407.70 913.82,408.48 915.29,409.23 916.76,409.97 918.22,410.68 919.69,411.37 921.16,412.04 922.63,412.68 924.09,413.31 925.56,413.92 927.03,414.51 928.49,415.08 929.96,415.64 931.43,416.17 932.90,416.69 934.36,417.19 935.83,417.67 937.30,418.14 938.76,418.60 940.23,419.04 941.70,419.46 943.17,419.87 944.63,420.26 946.10,420.65 947.57,421.02 949.03,421.37 950.50,421.72 951.97,422.05 953.44,422.37 954.90,422.68 956.37,422.98 957.84,423.27 959.31,423.55 960.77,423.82 962.24,424.08 963.71,424.33 965.17,424.57 966.64,424.80 968.11,425.02 969.58,425.24 971.04,425.45 972.51,425.65 973.98,425.85 975.44,426.03 976.91,426.21 978.38,426.39 979.85,426.55 981.31,426.72 982.78,426.87 984.25,427.02 985.71,427.17 987.18,427.30 988.65,427.44 990.12,427.57 991.58,427.69 993.05,427.81 994.52,427.93 995.98,428.04 997.45,428.15 998.92,428.25 1000.39,428.35 1001.85,428.44 1003.32,428.54 1004.79,428.63 1006.25,428.71 1007.72,428.79 1009.19,428.87 1010.66,428.95 1012.12,429.02 1013.59,429.09 1015.06,429.16 1016.53,429.23 1017.99,429.29 1019.46,429.35 1020.93,429.41 1022.39,429.47 1023.86,429.52 1025.33,429.57 1026.80,429.62 1028.26,429.67 1029.73,429.72 1031.20,429.76 1032.66,429.81 1034.13,429.85 1035.60,429.89 1037.07,429.93 1038.53,429.96 1040.00,430.00" fill="none" stroke="#2b6cb0" stroke-width="2.2" stroke-linejoin="round" stroke-linecap="round" /><text x="680" y="118" font-family="Arial, sans-serif" font-size="12" fill="#2b6cb0">tau_p/tau_x=1</text><polyline points="660.00,400.93 661.47,401.86 662.93,402.74 664.40,403.60 665.87,404.41 667.34,405.20 668.80,405.96 670.27,406.68 671.74,407.38 673.20,408.04 674.67,408.69 676.14,409.30 677.61,409.89 679.07,410.45 680.54,410.99 682.01,411.51 683.47,412.01 684.94,412.48 686.41,412.94 687.88,413.37 689.34,413.79 690.81,414.18 692.28,414.56 693.75,414.92 695.21,415.26 696.68,415.59 698.15,415.90 699.61,416.19 701.08,416.47 702.55,416.74 704.02,416.98 705.48,417.22 706.95,417.44 708.42,417.64 709.88,417.83 711.35,418.01 712.82,418.18 714.29,418.33 715.75,418.47 717.22,418.59 718.69,418.70 720.15,418.80 721.62,418.89 723.09,418.96 724.56,419.02 726.02,419.07 727.49,419.10 728.96,419.12 730.42,419.13 731.89,419.12 733.36,419.09 734.83,419.05 736.29,419.00 737.76,418.93 739.23,418.84 740.69,418.74 742.16,418.61 743.63,418.47 745.10,418.31 746.56,418.13 748.03,417.93 749.50,417.70 750.97,417.45 752.43,417.18 753.90,416.88 755.37,416.55 756.83,416.18 758.30,415.79 759.77,415.37 761.24,414.90 762.70,414.40 764.17,413.86 765.64,413.27 767.10,412.64 768.57,411.96 770.04,411.22 771.51,410.43 772.97,409.57 774.44,408.66 775.91,407.67 777.37,406.61 778.84,405.47 780.31,404.25 781.78,402.94 783.24,401.54 784.71,400.03 786.18,398.43 787.64,396.71 789.11,394.87 790.58,392.90 792.05,390.81 793.51,388.57 794.98,386.19 796.45,383.66 797.92,380.96 799.38,378.10 800.85,375.05 802.32,371.82 803.78,368.40 805.25,364.78 806.72,360.94 808.19,356.89 809.65,352.61 811.12,348.11 812.59,343.36 814.05,338.37 815.52,333.12 816.99,327.63 818.46,321.87 819.92,315.86 821.39,309.58 822.86,303.04 824.32,296.24 825.79,289.19 827.26,281.89 828.73,274.36 830.19,266.60 831.66,258.63 833.13,250.46 834.59,242.13 836.06,233.65 837.53,225.06 839.00,216.37 840.46,207.64 841.93,198.89 843.40,190.16 844.86,181.50 846.33,172.96 847.80,164.58 849.27,156.41 850.73,148.50 852.20,140.91 853.67,133.67 855.14,126.85 856.60,120.48 858.07,114.61 859.54,109.29 861.00,104.56 862.47,100.44 863.94,96.97 865.41,94.18 866.87,92.08 868.34,90.68 869.81,90.00 871.27,90.04 872.74,90.78 874.21,92.24 875.68,94.38 877.14,97.19 878.61,100.64 880.08,104.71 881.54,109.36 883.01,114.55 884.48,120.26 885.95,126.43 887.41,133.03 888.88,140.00 890.35,147.32 891.81,154.94 893.28,162.80 894.75,170.88 896.22,179.12 897.68,187.49 899.15,195.96 900.62,204.47 902.08,213.01 903.55,221.53 905.02,230.02 906.49,238.43 907.95,246.74 909.42,254.94 910.89,263.00 912.36,270.90 913.82,278.62 915.29,286.16 916.76,293.49 918.22,300.62 919.69,307.52 921.16,314.19 922.63,320.63 924.09,326.83 925.56,332.79 927.03,338.50 928.49,343.97 929.96,349.20 931.43,354.19 932.90,358.94 934.36,363.46 935.83,367.74 937.30,371.80 938.76,375.64 940.23,379.27 941.70,382.69 943.17,385.90 944.63,388.93 946.10,391.76 947.57,394.42 949.03,396.91 950.50,399.23 951.97,401.40 953.44,403.43 954.90,405.31 956.37,407.06 957.84,408.70 959.31,410.21 960.77,411.62 962.24,412.92 963.71,414.13 965.17,415.26 966.64,416.30 968.11,417.26 969.58,418.16 971.04,418.99 972.51,419.76 973.98,420.47 975.44,421.13 976.91,421.75 978.38,422.32 979.85,422.85 981.31,423.34 982.78,423.80 984.25,424.23 985.71,424.62 987.18,424.99 988.65,425.34 990.12,425.66 991.58,425.96 993.05,426.24 994.52,426.51 995.98,426.75 997.45,426.98 998.92,427.20 1000.39,427.40 1001.85,427.59 1003.32,427.77 1004.79,427.93 1006.25,428.09 1007.72,428.24 1009.19,428.38 1010.66,428.51 1012.12,428.63 1013.59,428.74 1015.06,428.85 1016.53,428.95 1017.99,429.05 1019.46,429.14 1020.93,429.23 1022.39,429.31 1023.86,429.38 1025.33,429.46 1026.80,429.53 1028.26,429.59 1029.73,429.65 1031.20,429.71 1032.66,429.76 1034.13,429.82 1035.60,429.87 1037.07,429.91 1038.53,429.96 1040.00,430.00" fill="none" stroke="#c05621" stroke-width="2.2" stroke-linejoin="round" stroke-linecap="round" /><text x="680" y="136" font-family="Arial, sans-serif" font-size="12" fill="#c05621">tau_p/tau_x=12</text>
</svg>
