<svg xmlns="http://www.w3.org/2000/svg" width="1180" height="560" viewBox="0 0 1180 560">
  <rect width="100%" height="100%" fill="#ffffff" />
  <text x="75" y="42" font-family="Arial, sans-serif" font-size="23" font-weight="700">Finite-exchange diagnostic map</text>
  <line x1="75" y1="460" x2="525" y2="460" stroke="#222" />
  <line x1="75" y1="460" x2="75" y2="85" stroke="#222" />
  <text x="75" y="61" font-family="Arial, sans-serif" font-size="17" font-weight="700">Q. Late NGP amplitude versus exchange ratio</text>
  <text x="235.0" y="498" font-family="Arial, sans-serif" font-size="13">log10(1+c)</text>

  <polyline points="75.00,450.85 124.13,446.28 158.99,441.71 208.13,432.56 270.03,414.27 341.25,377.68 418.32,304.51 469.81,222.20 525.00,85.00" fill="none" stroke="#2b6cb0" stroke-width="2.2" stroke-linejoin="round" stroke-linecap="round" />
<text x="93" y="110" font-family="Arial, sans-serif" font-size="12" fill="#2b6cb0">R alpha2 -> 1+c</text>
<polyline points="75.00,460.00 124.13,460.00 158.99,460.00 208.13,460.00 270.03,460.00 341.25,460.00 418.32,460.00 469.81,460.00 525.00,460.00" fill="none" stroke="#c05621" stroke-width="2.2" stroke-linejoin="round" stroke-linecap="round" />
<text x="93" y="128" font-family="Arial, sans-serif" font-size="12" fill="#c05621">alpha-rate inferred c error</text>
  <line x1="660" y1="460" x2="1110" y2="460" stroke="#222" />
  <line x1="660" y1="460" x2="660" y2="85" stroke="#222" />
  <text x="660" y="61" font-family="Arial, sans-serif" font-size="17" font-weight="700">R. Alpha slowing and joint observable window</text>
  <text x="820.0" y="498" font-family="Arial, sans-serif" font-size="13">log10(1+c)</text>

  <polyline points="660.00,85.00 709.13,116.94 743.99,142.60 793.13,181.70 855.03,232.74 926.25,288.53 1003.32,339.93 1054.81,367.73 1110.00,391.73" fill="none" stroke="#2b6cb0" stroke-width="2.2" stroke-linejoin="round" stroke-linecap="round" />
<text x="678" y="110" font-family="Arial, sans-serif" font-size="12" fill="#2b6cb0">alpha-rate renormalization</text>
<polyline points="660.00,460.00 709.13,460.00 743.99,460.00 793.13,85.00 855.03,85.00 926.25,85.00 1003.32,85.00 1054.81,85.00 1110.00,85.00" fill="none" stroke="#c05621" stroke-width="2.2" stroke-linejoin="round" stroke-linecap="round" />
<text x="678" y="128" font-family="Arial, sans-serif" font-size="12" fill="#c05621">passes joint criterion</text>
</svg>
