<svg xmlns="http://www.w3.org/2000/svg" width="1180" height="560" viewBox="0 0 1180 560">
  <rect width="100%" height="100%" fill="#ffffff" />
  <text x="75" y="42" font-family="Arial, sans-serif" font-size="23" font-weight="700">Finite-exchange heterogeneity extension</text>
  <line x1="75" y1="460" x2="525" y2="460" stroke="#222" />
  <line x1="75" y1="460" x2="75" y2="85" stroke="#222" />
  <text x="75" y="61" font-family="Arial, sans-serif" font-size="17" font-weight="700">O. Alpha relaxation from renewal heterogeneity</text>
  <text x="255.0" y="498" font-family="Arial, sans-serif" font-size="13">log10 time</text>

  <polyline points="75.00,85.00 75.32,85.00 75.64,85.00 75.96,85.00 76.29,85.00 76.61,85.00 76.93,85.00 77.25,85.00 77.57,85.00 77.89,85.00 78.22,85.00 78.54,85.00 78.86,85.00 79.18,85.00 79.50,85.00 79.82,85.00 80.15,85.00 80.47,85.00 80.79,85.00 81.11,85.00 81.43,85.00 81.75,85.00 82.08,85.00 82.40,85.00 82.72,85.00 83.04,85.00 83.36,85.00 83.68,85.00 84.01,85.00 84.33,85.00 84.65,85.00 84.97,85.00 85.29,85.00 85.61,85.00 85.94,85.00 86.26,85.00 86.58,85.00 86.90,85.00 87.22,85.00 87.54,85.00 87.87,85.00 88.19,85.00 88.51,85.00 88.83,85.00 89.15,85.00 89.47,85.00 89.80,85.00 90.12,85.00 90.44,85.00 90.76,85.00 91.08,85.00 91.40,85.00 91.73,85.00 92.05,85.00 92.37,85.00 92.69,85.00 93.01,85.00 93.33,85.00 93.66,85.00 93.98,85.00 94.30,85.00 94.62,85.00 94.94,85.00 95.26,85.00 95.59,85.00 95.91,85.00 96.23,85.00 96.55,85.00 96.87,85.00 97.19,85.00 97.52,85.00 97.84,85.00 98.16,85.00 98.48,85.00 98.80,85.00 99.12,85.00 99.45,85.00 99.77,85.00 100.09,85.00 100.41,85.00 100.73,85.00 101.05,85.00 101.38,85.00 101.70,85.00 102.02,85.00 102.34,85.00 102.66,85.00 102.98,85.00 103.31,85.00 103.63,85.00 103.95,85.00 104.27,85.00 104.59,85.00 104.91,85.00 105.24,85.00 105.56,85.00 105.88,85.00 106.20,85.00 106.52,85.00 106.84,85.00 107.17,85.00 107.49,85.00 107.81,85.00 108.13,85.00 108.45,85.00 108.77,85.00 109.10,85.00 109.42,85.00 109.74,85.00 110.06,85.00 110.38,85.00 110.70,85.00 111.03,85.00 111.35,85.00 111.67,85.00 111.99,85.00 112.31,85.00 112.63,85.00 112.96,85.00 113.28,85.00 113.60,85.00 113.92,85.00 114.24,85.00 114.56,85.00 114.89,85.00 115.21,85.00 115.53,85.00 115.85,85.00 116.17,85.00 116.49,85.00 116.82,85.00 117.14,85.00 117.46,85.00 117.78,85.00 118.10,85.00 118.42,85.00 118.75,85.00 119.07,85.00 119.39,85.00 119.71,85.00 120.03,85.00 120.35,85.00 120.68,85.00 121.00,85.00 121.32,85.00 121.64,85.00 121.96,85.00 122.28,85.00 122.61,85.00 122.93,85.00 123.25,85.00 123.57,85.00 123.89,85.00 124.21,85.00 124.54,85.00 124.86,85.00 125.18,85.00 125.50,85.00 125.82,85.00 126.14,85.00 126.47,85.00 126.79,85.00 127.11,85.00 127.43,85.00 127.75,85.00 128.07,85.00 128.40,85.00 128.72,85.00 129.04,85.00 129.36,85.00 129.68,85.00 130.00,85.00 130.33,85.00 130.65,85.00 130.97,85.00 131.29,85.00 131.61,85.00 131.93,85.00 132.26,85.00 132.58,85.00 132.90,85.00 133.22,85.00 133.54,85.00 133.86,85.00 134.19,85.00 134.51,85.00 134.83,85.00 135.15,85.00 135.47,85.00 135.79,85.00 136.12,85.00 136.44,85.00 136.76,85.00 137.08,85.00 137.40,85.00 137.72,85.00 138.05,85.00 138.37,85.00 138.69,85.00 139.01,85.00 139.33,85.00 139.65,85.00 139.97,85.00 140.30,85.00 140.62,85.00 140.94,85.00 141.26,85.00 141.58,85.00 141.90,85.00 142.23,85.00 142.55,85.00 142.87,85.00 143.19,85.00 143.51,85.00 143.83,85.01 144.16,85.01 144.48,85.01 144.80,85.01 145.12,85.01 145.44,85.01 145.76,85.01 146.09,85.01 146.41,85.01 146.73,85.01 147.05,85.01 147.37,85.01 147.69,85.01 148.02,85.01 148.34,85.01 148.66,85.01 148.98,85.01 149.30,85.01 149.62,85.01 149.95,85.01 150.27,85.01 150.59,85.01 150.91,85.01 151.23,85.01 151.55,85.01 151.88,85.01 152.20,85.01 152.52,85.01 152.84,85.01 153.16,85.01 153.48,85.01 153.81,85.01 154.13,85.01 154.45,85.01 154.77,85.01 155.09,85.01 155.41,85.01 155.74,85.02 156.06,85.02 156.38,85.02 156.70,85.02 157.02,85.02 157.34,85.02 157.67,85.02 157.99,85.02 158.31,85.02 158.63,85.02 158.95,85.02 159.27,85.02 159.60,85.02 159.92,85.02 160.24,85.02 160.56,85.02 160.88,85.02 161.20,85.03 161.53,85.03 161.85,85.03 162.17,85.03 162.49,85.03 162.81,85.03 163.13,85.03 163.46,85.03 163.78,85.03 164.10,85.03 164.42,85.03 164.74,85.03 165.06,85.04 165.39,85.04 165.71,85.04 166.03,85.04 166.35,85.04 166.67,85.04 166.99,85.04 167.32,85.04 167.64,85.05 167.96,85.05 168.28,85.05 168.60,85.05 168.92,85.05 169.25,85.05 169.57,85.05 169.89,85.06 170.21,85.06 170.53,85.06 170.85,85.06 171.18,85.06 171.50,85.06 171.82,85.07 172.14,85.07 172.46,85.07 172.78,85.07 173.11,85.08 173.43,85.08 173.75,85.08 174.07,85.08 174.39,85.08 174.71,85.09 175.04,85.09 175.36,85.09 175.68,85.10 176.00,85.10 176.32,85.10 176.64,85.10 176.97,85.11 177.29,85.11 177.61,85.11 177.93,85.12 178.25,85.12 178.57,85.12 178.90,85.13 179.22,85.13 179.54,85.14 179.86,85.14 180.18,85.14 180.50,85.15 180.83,85.15 181.15,85.16 181.47,85.16 181.79,85.17 182.11,85.17 182.43,85.18 182.76,85.18 183.08,85.19 183.40,85.19 183.72,85.20 184.04,85.20 184.36,85.21 184.69,85.22 185.01,85.22 185.33,85.23 185.65,85.23 185.97,85.24 186.29,85.25 186.62,85.26 186.94,85.26 187.26,85.27 187.58,85.28 187.90,85.29 188.22,85.30 188.55,85.30 188.87,85.31 189.19,85.32 189.51,85.33 189.83,85.34 190.15,85.35 190.48,85.36 190.80,85.37 191.12,85.38 191.44,85.39 191.76,85.41 192.08,85.42 192.41,85.43 192.73,85.44 193.05,85.45 193.37,85.47 193.69,85.48 194.01,85.49 194.34,85.51 194.66,85.52 194.98,85.54 195.30,85.55 195.62,85.57 195.94,85.59 196.27,85.60 196.59,85.62 196.91,85.64 197.23,85.66 197.55,85.67 197.87,85.69 198.20,85.71 198.52,85.73 198.84,85.76 199.16,85.78 199.48,85.80 199.80,85.82 200.13,85.84 200.45,85.87 200.77,85.89 201.09,85.92 201.41,85.94 201.73,85.97 202.06,86.00 202.38,86.03 202.70,86.06 203.02,86.09 203.34,86.12 203.66,86.15 203.98,86.18 204.31,86.21 204.63,86.25 204.95,86.28 205.27,86.32 205.59,86.35 205.91,86.39 206.24,86.43 206.56,86.47 206.88,86.51 207.20,86.55 207.52,86.60 207.84,86.64 208.17,86.69 208.49,86.73 208.81,86.78 209.13,86.83 209.45,86.88 209.77,86.93 210.10,86.98 210.42,87.04 210.74,87.10 211.06,87.15 211.38,87.21 211.70,87.27 212.03,87.33 212.35,87.40 212.67,87.46 212.99,87.53 213.31,87.60 213.63,87.67 213.96,87.74 214.28,87.81 214.60,87.89 214.92,87.97 215.24,88.05 215.56,88.13 215.89,88.21 216.21,88.30 216.53,88.39 216.85,88.48 217.17,88.57 217.49,88.67 217.82,88.76 218.14,88.86 218.46,88.97 218.78,89.07 219.10,89.18 219.42,89.29 219.75,89.40 220.07,89.52 220.39,89.64 220.71,89.76 221.03,89.88 221.35,90.01 221.68,90.14 222.00,90.28 222.32,90.41 222.64,90.55 222.96,90.70 223.28,90.84 223.61,90.99 223.93,91.15 224.25,91.31 224.57,91.47 224.89,91.63 225.21,91.80 225.54,91.98 225.86,92.15 226.18,92.33 226.50,92.52 226.82,92.71 227.14,92.90 227.47,93.10 227.79,93.31 228.11,93.52 228.43,93.73 228.75,93.95 229.07,94.17 229.40,94.40 229.72,94.63 230.04,94.87 230.36,95.11 230.68,95.36 231.00,95.61 231.33,95.87 231.65,96.14 231.97,96.41 232.29,96.69 232.61,96.97 232.93,97.26 233.26,97.56 233.58,97.86 233.90,98.17 234.22,98.48 234.54,98.80 234.86,99.13 235.19,99.47 235.51,99.81 235.83,100.16 236.15,100.52 236.47,100.88 236.79,101.25 237.12,101.63 237.44,102.02 237.76,102.41 238.08,102.82 238.40,103.23 238.72,103.65 239.05,104.07 239.37,104.51 239.69,104.95 240.01,105.41 240.33,105.87 240.65,106.34 240.98,106.82 241.30,107.31 241.62,107.81 241.94,108.31 242.26,108.83 242.58,109.36 242.91,109.89 243.23,110.44 243.55,111.00 243.87,111.56 244.19,112.14 244.51,112.73 244.84,113.32 245.16,113.93 245.48,114.55 245.80,115.18 246.12,115.82 246.44,116.47 246.77,117.14 247.09,117.81 247.41,118.50 247.73,119.19 248.05,119.90 248.37,120.62 248.70,121.35 249.02,122.10 249.34,122.85 249.66,123.62 249.98,124.40 250.30,125.20 250.63,126.00 250.95,126.82 251.27,127.65 251.59,128.49 251.91,129.35 252.23,130.22 252.56,131.10 252.88,131.99 253.20,132.90 253.52,133.82 253.84,134.75 254.16,135.70 254.49,136.66 254.81,137.63 255.13,138.62 255.45,139.62 255.77,140.63 256.09,141.66 256.42,142.70 256.74,143.76 257.06,144.82 257.38,145.91 257.70,147.00 258.02,148.11 258.35,149.23 258.67,150.37 258.99,151.52 259.31,152.69 259.63,153.86 259.95,155.05 260.28,156.26 260.60,157.48 260.92,158.71 261.24,159.96 261.56,161.22 261.88,162.49 262.21,163.78 262.53,165.08 262.85,166.39 263.17,167.72 263.49,169.06 263.81,170.41 264.14,171.78 264.46,173.16 264.78,174.55 265.10,175.96 265.42,177.38 265.74,178.81 266.07,180.25 266.39,181.71 266.71,183.18 267.03,184.66 267.35,186.16 267.67,187.66 267.99,189.18 268.32,190.71 268.64,192.25 268.96,193.81 269.28,195.37 269.60,196.95 269.92,198.54 270.25,200.14 270.57,201.75 270.89,203.37 271.21,205.00 271.53,206.64 271.85,208.29 272.18,209.95 272.50,211.62 272.82,213.30 273.14,214.99 273.46,216.69 273.78,218.40 274.11,220.12 274.43,221.85 274.75,223.58 275.07,225.32 275.39,227.08 275.71,228.83 276.04,230.60 276.36,232.38 276.68,234.16 277.00,235.94 277.32,237.74 277.64,239.54 277.97,241.35 278.29,243.16 278.61,244.98 278.93,246.81 279.25,248.64 279.57,250.47 279.90,252.31 280.22,254.16 280.54,256.00 280.86,257.86 281.18,259.71 281.50,261.57 281.83,263.44 282.15,265.30 282.47,267.17 282.79,269.05 283.11,270.92 283.43,272.80 283.76,274.67 284.08,276.55 284.40,278.43 284.72,280.32 285.04,282.20 285.36,284.08 285.69,285.96 286.01,287.85 286.33,289.73 286.65,291.61 286.97,293.49 287.29,295.37 287.62,297.25 287.94,299.12 288.26,301.00 288.58,302.87 288.90,304.74 289.22,306.61 289.55,308.47 289.87,310.33 290.19,312.19 290.51,314.04 290.83,315.89 291.15,317.73 291.48,319.57 291.80,321.41 292.12,323.24 292.44,325.06 292.76,326.88 293.08,328.69 293.41,330.50 293.73,332.30 294.05,334.09 294.37,335.88 294.69,337.66 295.01,339.43 295.34,341.19 295.66,342.95 295.98,344.70 296.30,346.44 296.62,348.17 296.94,349.89 297.27,351.60 297.59,353.31 297.91,355.00 298.23,356.68 298.55,358.36 298.87,360.02 299.20,361.67 299.52,363.31 299.84,364.94 300.16,366.56 300.48,368.17 300.80,369.77 301.13,371.35 301.45,372.93 301.77,374.49 302.09,376.04 302.41,377.57 302.73,379.09 303.06,380.60 303.38,382.10 303.70,383.58 304.02,385.05 304.34,386.51 304.66,387.95 304.99,389.38 305.31,390.80 305.63,392.20 305.95,393.58 306.27,394.95 306.59,396.31 306.92,397.65 307.24,398.98 307.56,400.29 307.88,401.58 308.20,402.87 308.52,404.13 308.85,405.38 309.17,406.62 309.49,407.83 309.81,409.04 310.13,410.22 310.45,411.39 310.78,412.55 311.10,413.69 311.42,414.81 311.74,415.92 312.06,417.01 312.38,418.08 312.71,419.14 313.03,420.18 313.35,421.21 313.67,422.22 313.99,423.21 314.31,424.19 314.64,425.15 314.96,426.09 315.28,427.02 315.60,427.93 315.92,428.82 316.24,429.70 316.57,430.56 316.89,431.41 317.21,432.24 317.53,433.05 317.85,433.85 318.17,434.64 318.50,435.40 318.82,436.15 319.14,436.89 319.46,437.61 319.78,438.31 320.10,439.00 320.43,439.68 320.75,440.34 321.07,440.98 321.39,441.61 321.71,442.22 322.03,442.82 322.36,443.41 322.68,443.98 323.00,444.54 323.32,445.08 323.64,445.61 323.96,446.12 324.29,446.63 324.61,447.12 324.93,447.59 325.25,448.05 325.57,448.50 325.89,448.94 326.22,449.37 326.54,449.78 326.86,450.18 327.18,450.57 327.50,450.94 327.82,451.31 328.15,451.66 328.47,452.01 328.79,452.34 329.11,452.66 329.43,452.97 329.75,453.28 330.08,453.57 330.40,453.85 330.72,454.12 331.04,454.38 331.36,454.63 331.68,454.88 332.01,455.11 332.33,455.34 332.65,455.56 332.97,455.77 333.29,455.97 333.61,456.17 333.93,456.35 334.26,456.53 334.58,456.71 334.90,456.87 335.22,457.03 335.54,457.18 335.86,457.33 336.19,457.47 336.51,457.60 336.83,457.73 337.15,457.85 337.47,457.97 337.79,458.08 338.12,458.19 338.44,458.29 338.76,458.38 339.08,458.48 339.40,458.56 339.72,458.65 340.05,458.73 340.37,458.80 340.69,458.88 341.01,458.94 341.33,459.01 341.65,459.07 341.98,459.13 342.30,459.18 342.62,459.23 342.94,459.28 343.26,459.33 343.58,459.37 343.91,459.42 344.23,459.45 344.55,459.49 344.87,459.53 345.19,459.56 345.51,459.59 345.84,459.62 346.16,459.65 346.48,459.67 346.80,459.69 347.12,459.72 347.44,459.74 347.77,459.76 348.09,459.78 348.41,459.79 348.73,459.81 349.05,459.82 349.37,459.84 349.70,459.85 350.02,459.86 350.34,459.87 350.66,459.88 350.98,459.89 351.30,459.90 351.63,459.91 351.95,459.92 352.27,459.92 352.59,459.93 352.91,459.94 353.23,459.94 353.56,459.95 353.88,459.95 354.20,459.96 354.52,459.96 354.84,459.96 355.16,459.97 355.49,459.97 355.81,459.97 356.13,459.98 356.45,459.98 356.77,459.98 357.09,459.98 357.42,459.98 357.74,459.99 358.06,459.99 358.38,459.99 358.70,459.99 359.02,459.99 359.35,459.99 359.67,459.99 359.99,459.99 360.31,459.99 360.63,459.99 360.95,460.00 361.28,460.00 361.60,460.00 361.92,460.00 362.24,460.00 362.56,460.00 362.88,460.00 363.21,460.00 363.53,460.00 363.85,460.00 364.17,460.00 364.49,460.00 364.81,460.00 365.14,460.00 365.46,460.00 365.78,460.00 366.10,460.00 366.42,460.00 366.74,460.00 367.07,460.00 367.39,460.00 367.71,460.00 368.03,460.00 368.35,460.00 368.67,460.00 369.00,460.00 369.32,460.00 369.64,460.00 369.96,460.00 370.28,460.00 370.60,460.00 370.93,460.00 371.25,460.00 371.57,460.00 371.89,460.00 372.21,460.00 372.53,460.00 372.86,460.00 373.18,460.00 373.50,460.00 373.82,460.00 374.14,460.00 374.46,460.00 374.79,460.00 375.11,460.00 375.43,460.00 375.75,460.00 376.07,460.00 376.39,460.00 376.72,460.00 377.04,460.00 377.36,460.00 377.68,460.00 378.00,460.00 378.32,460.00 378.65,460.00 378.97,460.00 379.29,460.00 379.61,460.00 379.93,460.00 380.25,460.00 380.58,460.00 380.90,460.00 381.22,460.00 381.54,460.00 381.86,460.00 382.18,460.00 382.51,460.00 382.83,460.00 383.15,460.00 383.47,460.00 383.79,460.00 384.11,460.00 384.44,460.00 384.76,460.00 385.08,460.00 385.40,460.00 385.72,460.00 386.04,460.00 386.37,460.00 386.69,460.00 387.01,460.00 387.33,460.00 387.65,460.00 387.97,460.00 388.30,460.00 388.62,460.00 388.94,460.00 389.26,460.00 389.58,460.00 389.90,460.00 390.23,460.00 390.55,460.00 390.87,460.00 391.19,460.00 391.51,460.00 391.83,460.00 392.16,460.00 392.48,460.00 392.80,460.00 393.12,460.00 393.44,460.00 393.76,460.00 394.09,460.00 394.41,460.00 394.73,460.00 395.05,460.00 395.37,460.00 395.69,460.00 396.02,460.00 396.34,460.00 396.66,460.00 396.98,460.00 397.30,460.00 397.62,460.00 397.94,460.00 398.27,460.00 398.59,460.00 398.91,460.00 399.23,460.00 399.55,460.00 399.87,460.00 400.20,460.00 400.52,460.00 400.84,460.00 401.16,460.00 401.48,460.00 401.80,460.00 402.13,460.00 402.45,460.00 402.77,460.00 403.09,460.00 403.41,460.00 403.73,460.00 404.06,460.00 404.38,460.00 404.70,460.00 405.02,460.00 405.34,460.00 405.66,460.00 405.99,460.00 406.31,460.00 406.63,460.00 406.95,460.00 407.27,460.00 407.59,460.00 407.92,460.00 408.24,460.00 408.56,460.00 408.88,460.00 409.20,460.00 409.52,460.00 409.85,460.00 410.17,460.00 410.49,460.00 410.81,460.00 411.13,460.00 411.45,460.00 411.78,460.00 412.10,460.00 412.42,460.00 412.74,460.00 413.06,460.00 413.38,460.00 413.71,460.00 414.03,460.00 414.35,460.00 414.67,460.00 414.99,460.00 415.31,460.00 415.64,460.00 415.96,460.00 416.28,460.00 416.60,460.00 416.92,460.00 417.24,460.00 417.57,460.00 417.89,460.00 418.21,460.00 418.53,460.00 418.85,460.00 419.17,460.00 419.50,460.00 419.82,460.00 420.14,460.00 420.46,460.00 420.78,460.00 421.10,460.00 421.43,460.00 421.75,460.00 422.07,460.00 422.39,460.00 422.71,460.00 423.03,460.00 423.36,460.00 423.68,460.00 424.00,460.00 424.32,460.00 424.64,460.00 424.96,460.00 425.29,460.00 425.61,460.00 425.93,460.00 426.25,460.00 426.57,460.00 426.89,460.00 427.22,460.00 427.54,460.00 427.86,460.00 428.18,460.00 428.50,460.00 428.82,460.00 429.15,460.00 429.47,460.00 429.79,460.00 430.11,460.00 430.43,460.00 430.75,460.00 431.08,460.00 431.40,460.00 431.72,460.00 432.04,460.00 432.36,460.00 432.68,460.00 433.01,460.00 433.33,460.00 433.65,460.00 433.97,460.00 434.29,460.00 434.61,460.00 434.94,460.00 435.26,460.00 435.58,460.00 435.90,460.00 436.22,460.00 436.54,460.00 436.87,460.00 437.19,460.00 437.51,460.00 437.83,460.00 438.15,460.00 438.47,460.00 438.80,460.00 439.12,460.00 439.44,460.00 439.76,460.00 440.08,460.00 440.40,460.00 440.73,460.00 441.05,460.00 441.37,460.00 441.69,460.00 442.01,460.00 442.33,460.00 442.66,460.00 442.98,460.00 443.30,460.00 443.62,460.00 443.94,460.00 444.26,460.00 444.59,460.00 444.91,460.00 445.23,460.00 445.55,460.00 445.87,460.00 446.19,460.00 446.52,460.00 446.84,460.00 447.16,460.00 447.48,460.00 447.80,460.00 448.12,460.00 448.45,460.00 448.77,460.00 449.09,460.00 449.41,460.00 449.73,460.00 450.05,460.00 450.38,460.00 450.70,460.00 451.02,460.00 451.34,460.00 451.66,460.00 451.98,460.00 452.31,460.00 452.63,460.00 452.95,460.00 453.27,460.00 453.59,460.00 453.91,460.00 454.24,460.00 454.56,460.00 454.88,460.00 455.20,460.00 455.52,460.00 455.84,460.00 456.17,460.00 456.49,460.00 456.81,460.00 457.13,460.00 457.45,460.00 457.77,460.00 458.10,460.00 458.42,460.00 458.74,460.00 459.06,460.00 459.38,460.00 459.70,460.00 460.03,460.00 460.35,460.00 460.67,460.00 460.99,460.00 461.31,460.00 461.63,460.00 461.95,460.00 462.28,460.00 462.60,460.00 462.92,460.00 463.24,460.00 463.56,460.00 463.88,460.00 464.21,460.00 464.53,460.00 464.85,460.00 465.17,460.00 465.49,460.00 465.81,460.00 466.14,460.00 466.46,460.00 466.78,460.00 467.10,460.00 467.42,460.00 467.74,460.00 468.07,460.00 468.39,460.00 468.71,460.00 469.03,460.00 469.35,460.00 469.67,460.00 470.00,460.00 470.32,460.00 470.64,460.00 470.96,460.00 471.28,460.00 471.60,460.00 471.93,460.00 472.25,460.00 472.57,460.00 472.89,460.00 473.21,460.00 473.53,460.00 473.86,460.00 474.18,460.00 474.50,460.00 474.82,460.00 475.14,460.00 475.46,460.00 475.79,460.00 476.11,460.00 476.43,460.00 476.75,460.00 477.07,460.00 477.39,460.00 477.72,460.00 478.04,460.00 478.36,460.00 478.68,460.00 479.00,460.00 479.32,460.00 479.65,460.00 479.97,460.00 480.29,460.00 480.61,460.00 480.93,460.00 481.25,460.00 481.58,460.00 481.90,460.00 482.22,460.00 482.54,460.00 482.86,460.00 483.18,460.00 483.51,460.00 483.83,460.00 484.15,460.00 484.47,460.00 484.79,460.00 485.11,460.00 485.44,460.00 485.76,460.00 486.08,460.00 486.40,460.00 486.72,460.00 487.04,460.00 487.37,460.00 487.69,460.00 488.01,460.00 488.33,460.00 488.65,460.00 488.97,460.00 489.30,460.00 489.62,460.00 489.94,460.00 490.26,460.00 490.58,460.00 490.90,460.00 491.23,460.00 491.55,460.00 491.87,460.00 492.19,460.00 492.51,460.00 492.83,460.00 493.16,460.00 493.48,460.00 493.80,460.00 494.12,460.00 494.44,460.00 494.76,460.00 495.09,460.00 495.41,460.00 495.73,460.00 496.05,460.00 496.37,460.00 496.69,460.00 497.02,460.00 497.34,460.00 497.66,460.00 497.98,460.00 498.30,460.00 498.62,460.00 498.95,460.00 499.27,460.00 499.59,460.00 499.91,460.00 500.23,460.00 500.55,460.00 500.88,460.00 501.20,460.00 501.52,460.00 501.84,460.00 502.16,460.00 502.48,460.00 502.81,460.00 503.13,460.00 503.45,460.00 503.77,460.00 504.09,460.00 504.41,460.00 504.74,460.00 505.06,460.00 505.38,460.00 505.70,460.00 506.02,460.00 506.34,460.00 506.67,460.00 506.99,460.00 507.31,460.00 507.63,460.00 507.95,460.00 508.27,460.00 508.60,460.00 508.92,460.00 509.24,460.00 509.56,460.00 509.88,460.00 510.20,460.00 510.53,460.00 510.85,460.00 511.17,460.00 511.49,460.00 511.81,460.00 512.13,460.00 512.46,460.00 512.78,460.00 513.10,460.00 513.42,460.00 513.74,460.00 514.06,460.00 514.39,460.00 514.71,460.00 515.03,460.00 515.35,460.00 515.67,460.00 515.99,460.00 516.32,460.00 516.64,460.00 516.96,460.00 517.28,460.00 517.60,460.00 517.92,460.00 518.25,460.00 518.57,460.00 518.89,460.00 519.21,460.00 519.53,460.00 519.85,460.00 520.18,460.00 520.50,460.00 520.82,460.00 521.14,460.00 521.46,460.00 521.78,460.00 522.11,460.00 522.43,460.00 522.75,460.00 523.07,460.00 523.39,460.00 523.71,460.00 524.04,460.00 524.36,460.00 524.68,460.00 525.00,460.00" fill="none" stroke="#2b6cb0" stroke-width="2.2" stroke-linejoin="round" stroke-linecap="round" />
<text x="93" y="110" font-family="Arial, sans-serif" font-size="12" fill="#2b6cb0">Poisson alpha decay</text>
<polyline points="75.00,85.00 75.32,85.00 75.64,85.00 75.96,85.00 76.29,85.00 76.61,85.00 76.93,85.00 77.25,85.00 77.57,85.00 77.89,85.00 78.22,85.00 78.54,85.00 78.86,85.00 79.18,85.00 79.50,85.00 79.82,85.00 80.15,85.00 80.47,85.00 80.79,85.00 81.11,85.00 81.43,85.00 81.75,85.00 82.08,85.00 82.40,85.00 82.72,85.00 83.04,85.00 83.36,85.00 83.68,85.00 84.01,85.00 84.33,85.00 84.65,85.00 84.97,85.00 85.29,85.00 85.61,85.00 85.94,85.00 86.26,85.00 86.58,85.00 86.90,85.00 87.22,85.00 87.54,85.00 87.87,85.00 88.19,85.00 88.51,85.00 88.83,85.00 89.15,85.00 89.47,85.00 89.80,85.00 90.12,85.00 90.44,85.00 90.76,85.00 91.08,85.00 91.40,85.00 91.73,85.00 92.05,85.00 92.37,85.00 92.69,85.00 93.01,85.00 93.33,85.00 93.66,85.00 93.98,85.00 94.30,85.00 94.62,85.00 94.94,85.00 95.26,85.00 95.59,85.00 95.91,85.00 96.23,85.00 96.55,85.00 96.87,85.00 97.19,85.00 97.52,85.00 97.84,85.00 98.16,85.00 98.48,85.00 98.80,85.00 99.12,85.00 99.45,85.00 99.77,85.00 100.09,85.00 100.41,85.00 100.73,85.00 101.05,85.00 101.38,85.00 101.70,85.00 102.02,85.00 102.34,85.00 102.66,85.00 102.98,85.00 103.31,85.00 103.63,85.00 103.95,85.00 104.27,85.00 104.59,85.00 104.91,85.00 105.24,85.00 105.56,85.00 105.88,85.00 106.20,85.00 106.52,85.00 106.84,85.00 107.17,85.00 107.49,85.00 107.81,85.00 108.13,85.00 108.45,85.00 108.77,85.00 109.10,85.00 109.42,85.00 109.74,85.00 110.06,85.00 110.38,85.00 110.70,85.00 111.03,85.00 111.35,85.00 111.67,85.00 111.99,85.00 112.31,85.00 112.63,85.00 112.96,85.00 113.28,85.00 113.60,85.00 113.92,85.00 114.24,85.00 114.56,85.00 114.89,85.00 115.21,85.00 115.53,85.00 115.85,85.00 116.17,85.00 116.49,85.00 116.82,85.00 117.14,85.00 117.46,85.00 117.78,85.00 118.10,85.00 118.42,85.00 118.75,85.00 119.07,85.00 119.39,85.00 119.71,85.00 120.03,85.00 120.35,85.00 120.68,85.00 121.00,85.00 121.32,85.00 121.64,85.00 121.96,85.00 122.28,85.00 122.61,85.00 122.93,85.00 123.25,85.00 123.57,85.00 123.89,85.00 124.21,85.00 124.54,85.00 124.86,85.00 125.18,85.00 125.50,85.00 125.82,85.00 126.14,85.00 126.47,85.00 126.79,85.00 127.11,85.00 127.43,85.00 127.75,85.00 128.07,85.00 128.40,85.00 128.72,85.00 129.04,85.00 129.36,85.00 129.68,85.00 130.00,85.00 130.33,85.00 130.65,85.00 130.97,85.00 131.29,85.00 131.61,85.00 131.93,85.00 132.26,85.00 132.58,85.00 132.90,85.00 133.22,85.00 133.54,85.00 133.86,85.00 134.19,85.00 134.51,85.00 134.83,85.00 135.15,85.00 135.47,85.00 135.79,85.00 136.12,85.00 136.44,85.00 136.76,85.00 137.08,85.00 137.40,85.00 137.72,85.00 138.05,85.00 138.37,85.00 138.69,85.00 139.01,85.00 139.33,85.00 139.65,85.00 139.97,85.00 140.30,85.00 140.62,85.00 140.94,85.00 141.26,85.00 141.58,85.00 141.90,85.00 142.23,85.00 142.55,85.00 142.87,85.00 143.19,85.00 143.51,85.00 143.83,85.01 144.16,85.01 144.48,85.01 144.80,85.01 145.12,85.01 145.44,85.01 145.76,85.01 146.09,85.01 146.41,85.01 146.73,85.01 147.05,85.01 147.37,85.01 147.69,85.01 148.02,85.01 148.34,85.01 148.66,85.01 148.98,85.01 149.30,85.01 149.62,85.01 149.95,85.01 150.27,85.01 150.59,85.01 150.91,85.01 151.23,85.01 151.55,85.01 151.88,85.01 152.20,85.01 152.52,85.01 152.84,85.01 153.16,85.01 153.48,85.01 153.81,85.01 154.13,85.01 154.45,85.01 154.77,85.01 155.09,85.01 155.41,85.01 155.74,85.02 156.06,85.02 156.38,85.02 156.70,85.02 157.02,85.02 157.34,85.02 157.67,85.02 157.99,85.02 158.31,85.02 158.63,85.02 158.95,85.02 159.27,85.02 159.60,85.02 159.92,85.02 160.24,85.02 160.56,85.02 160.88,85.02 161.20,85.03 161.53,85.03 161.85,85.03 162.17,85.03 162.49,85.03 162.81,85.03 163.13,85.03 163.46,85.03 163.78,85.03 164.10,85.03 164.42,85.03 164.74,85.03 165.06,85.04 165.39,85.04 165.71,85.04 166.03,85.04 166.35,85.04 166.67,85.04 166.99,85.04 167.32,85.04 167.64,85.05 167.96,85.05 168.28,85.05 168.60,85.05 168.92,85.05 169.25,85.05 169.57,85.05 169.89,85.06 170.21,85.06 170.53,85.06 170.85,85.06 171.18,85.06 171.50,85.06 171.82,85.07 172.14,85.07 172.46,85.07 172.78,85.07 173.11,85.08 173.43,85.08 173.75,85.08 174.07,85.08 174.39,85.08 174.71,85.09 175.04,85.09 175.36,85.09 175.68,85.10 176.00,85.10 176.32,85.10 176.64,85.10 176.97,85.11 177.29,85.11 177.61,85.11 177.93,85.12 178.25,85.12 178.57,85.12 178.90,85.13 179.22,85.13 179.54,85.14 179.86,85.14 180.18,85.14 180.50,85.15 180.83,85.15 181.15,85.16 181.47,85.16 181.79,85.17 182.11,85.17 182.43,85.18 182.76,85.18 183.08,85.19 183.40,85.19 183.72,85.20 184.04,85.20 184.36,85.21 184.69,85.22 185.01,85.22 185.33,85.23 185.65,85.23 185.97,85.24 186.29,85.25 186.62,85.26 186.94,85.26 187.26,85.27 187.58,85.28 187.90,85.29 188.22,85.30 188.55,85.30 188.87,85.31 189.19,85.32 189.51,85.33 189.83,85.34 190.15,85.35 190.48,85.36 190.80,85.37 191.12,85.38 191.44,85.39 191.76,85.40 192.08,85.42 192.41,85.43 192.73,85.44 193.05,85.45 193.37,85.47 193.69,85.48 194.01,85.49 194.34,85.51 194.66,85.52 194.98,85.54 195.30,85.55 195.62,85.57 195.94,85.58 196.27,85.60 196.59,85.62 196.91,85.64 197.23,85.65 197.55,85.67 197.87,85.69 198.20,85.71 198.52,85.73 198.84,85.75 199.16,85.77 199.48,85.80 199.80,85.82 200.13,85.84 200.45,85.87 200.77,85.89 201.09,85.92 201.41,85.94 201.73,85.97 202.06,86.00 202.38,86.02 202.70,86.05 203.02,86.08 203.34,86.11 203.66,86.14 203.98,86.17 204.31,86.21 204.63,86.24 204.95,86.28 205.27,86.31 205.59,86.35 205.91,86.39 206.24,86.42 206.56,86.46 206.88,86.50 207.20,86.55 207.52,86.59 207.84,86.63 208.17,86.68 208.49,86.72 208.81,86.77 209.13,86.82 209.45,86.87 209.77,86.92 210.10,86.97 210.42,87.03 210.74,87.08 211.06,87.14 211.38,87.20 211.70,87.25 212.03,87.32 212.35,87.38 212.67,87.44 212.99,87.51 213.31,87.58 213.63,87.65 213.96,87.72 214.28,87.79 214.60,87.86 214.92,87.94 215.24,88.02 215.56,88.10 215.89,88.18 216.21,88.26 216.53,88.35 216.85,88.44 217.17,88.53 217.49,88.62 217.82,88.72 218.14,88.82 218.46,88.92 218.78,89.02 219.10,89.12 219.42,89.23 219.75,89.34 220.07,89.45 220.39,89.57 220.71,89.69 221.03,89.81 221.35,89.93 221.68,90.06 222.00,90.18 222.32,90.32 222.64,90.45 222.96,90.59 223.28,90.73 223.61,90.88 223.93,91.03 224.25,91.18 224.57,91.33 224.89,91.49 225.21,91.65 225.54,91.82 225.86,91.99 226.18,92.16 226.50,92.34 226.82,92.52 227.14,92.70 227.47,92.89 227.79,93.09 228.11,93.28 228.43,93.49 228.75,93.69 229.07,93.90 229.40,94.12 229.72,94.33 230.04,94.56 230.36,94.79 230.68,95.02 231.00,95.26 231.33,95.50 231.65,95.75 231.97,96.00 232.29,96.26 232.61,96.52 232.93,96.79 233.26,97.06 233.58,97.34 233.90,97.63 234.22,97.92 234.54,98.21 234.86,98.51 235.19,98.82 235.51,99.13 235.83,99.45 236.15,99.77 236.47,100.10 236.79,100.44 237.12,100.78 237.44,101.13 237.76,101.49 238.08,101.85 238.40,102.21 238.72,102.59 239.05,102.97 239.37,103.36 239.69,103.75 240.01,104.15 240.33,104.56 240.65,104.97 240.98,105.39 241.30,105.82 241.62,106.25 241.94,106.70 242.26,107.14 242.58,107.60 242.91,108.06 243.23,108.53 243.55,109.01 243.87,109.49 244.19,109.99 244.51,110.48 244.84,110.99 245.16,111.50 245.48,112.03 245.80,112.55 246.12,113.09 246.44,113.63 246.77,114.18 247.09,114.74 247.41,115.31 247.73,115.88 248.05,116.46 248.37,117.05 248.70,117.65 249.02,118.25 249.34,118.86 249.66,119.48 249.98,120.10 250.30,120.74 250.63,121.38 250.95,122.03 251.27,122.68 251.59,123.35 251.91,124.02 252.23,124.69 252.56,125.38 252.88,126.07 253.20,126.77 253.52,127.48 253.84,128.19 254.16,128.92 254.49,129.64 254.81,130.38 255.13,131.12 255.45,131.87 255.77,132.63 256.09,133.39 256.42,134.16 256.74,134.94 257.06,135.73 257.38,136.52 257.70,137.31 258.02,138.12 258.35,138.93 258.67,139.75 258.99,140.57 259.31,141.40 259.63,142.23 259.95,143.08 260.28,143.92 260.60,144.78 260.92,145.64 261.24,146.50 261.56,147.37 261.88,148.25 262.21,149.13 262.53,150.02 262.85,150.91 263.17,151.81 263.49,152.71 263.81,153.62 264.14,154.53 264.46,155.45 264.78,156.38 265.10,157.30 265.42,158.24 265.74,159.17 266.07,160.12 266.39,161.06 266.71,162.01 267.03,162.97 267.35,163.93 267.67,164.89 267.99,165.86 268.32,166.83 268.64,167.80 268.96,168.78 269.28,169.76 269.60,170.75 269.92,171.73 270.25,172.73 270.57,173.72 270.89,174.72 271.21,175.72 271.53,176.73 271.85,177.73 272.18,178.74 272.50,179.76 272.82,180.77 273.14,181.79 273.46,182.81 273.78,183.84 274.11,184.86 274.43,185.89 274.75,186.92 275.07,187.95 275.39,188.99 275.71,190.02 276.04,191.06 276.36,192.10 276.68,193.15 277.00,194.19 277.32,195.24 277.64,196.29 277.97,197.34 278.29,198.39 278.61,199.44 278.93,200.50 279.25,201.55 279.57,202.61 279.90,203.67 280.22,204.73 280.54,205.79 280.86,206.85 281.18,207.92 281.50,208.98 281.83,210.05 282.15,211.12 282.47,212.18 282.79,213.25 283.11,214.32 283.43,215.40 283.76,216.47 284.08,217.54 284.40,218.61 284.72,219.69 285.04,220.77 285.36,221.84 285.69,222.92 286.01,224.00 286.33,225.08 286.65,226.16 286.97,227.24 287.29,228.32 287.62,229.40 287.94,230.48 288.26,231.56 288.58,232.65 288.90,233.73 289.22,234.81 289.55,235.90 289.87,236.99 290.19,238.07 290.51,239.16 290.83,240.25 291.15,241.33 291.48,242.42 291.80,243.51 292.12,244.60 292.44,245.69 292.76,246.78 293.08,247.87 293.41,248.96 293.73,250.05 294.05,251.15 294.37,252.24 294.69,253.33 295.01,254.43 295.34,255.52 295.66,256.61 295.98,257.71 296.30,258.80 296.62,259.90 296.94,261.00 297.27,262.09 297.59,263.19 297.91,264.29 298.23,265.39 298.55,266.48 298.87,267.58 299.20,268.68 299.52,269.78 299.84,270.88 300.16,271.98 300.48,273.08 300.80,274.18 301.13,275.29 301.45,276.39 301.77,277.49 302.09,278.59 302.41,279.70 302.73,280.80 303.06,281.90 303.38,283.01 303.70,284.11 304.02,285.22 304.34,286.32 304.66,287.43 304.99,288.53 305.31,289.64 305.63,290.74 305.95,291.85 306.27,292.96 306.59,294.06 306.92,295.17 307.24,296.28 307.56,297.39 307.88,298.49 308.20,299.60 308.52,300.71 308.85,301.82 309.17,302.93 309.49,304.03 309.81,305.14 310.13,306.25 310.45,307.36 310.78,308.47 311.10,309.58 311.42,310.68 311.74,311.79 312.06,312.90 312.38,314.01 312.71,315.12 313.03,316.22 313.35,317.33 313.67,318.44 313.99,319.54 314.31,320.65 314.64,321.76 314.96,322.86 315.28,323.97 315.60,325.07 315.92,326.18 316.24,327.28 316.57,328.38 316.89,329.49 317.21,330.59 317.53,331.69 317.85,332.79 318.17,333.89 318.50,334.99 318.82,336.09 319.14,337.18 319.46,338.28 319.78,339.37 320.10,340.47 320.43,341.56 320.75,342.65 321.07,343.74 321.39,344.83 321.71,345.92 322.03,347.01 322.36,348.09 322.68,349.17 323.00,350.26 323.32,351.34 323.64,352.41 323.96,353.49 324.29,354.57 324.61,355.64 324.93,356.71 325.25,357.78 325.57,358.85 325.89,359.91 326.22,360.97 326.54,362.03 326.86,363.09 327.18,364.15 327.50,365.20 327.82,366.25 328.15,367.30 328.47,368.34 328.79,369.39 329.11,370.43 329.43,371.46 329.75,372.50 330.08,373.53 330.40,374.55 330.72,375.58 331.04,376.60 331.36,377.62 331.68,378.63 332.01,379.64 332.33,380.65 332.65,381.65 332.97,382.65 333.29,383.64 333.61,384.63 333.93,385.62 334.26,386.60 334.58,387.58 334.90,388.56 335.22,389.53 335.54,390.49 335.86,391.45 336.19,392.41 336.51,393.36 336.83,394.31 337.15,395.25 337.47,396.19 337.79,397.12 338.12,398.04 338.44,398.97 338.76,399.88 339.08,400.79 339.40,401.70 339.72,402.60 340.05,403.49 340.37,404.38 340.69,405.26 341.01,406.14 341.33,407.01 341.65,407.87 341.98,408.73 342.30,409.58 342.62,410.43 342.94,411.27 343.26,412.10 343.58,412.93 343.91,413.74 344.23,414.56 344.55,415.36 344.87,416.16 345.19,416.96 345.51,417.74 345.84,418.52 346.16,419.29 346.48,420.05 346.80,420.81 347.12,421.56 347.44,422.30 347.77,423.04 348.09,423.77 348.41,424.49 348.73,425.20 349.05,425.90 349.37,426.60 349.70,427.29 350.02,427.97 350.34,428.64 350.66,429.31 350.98,429.97 351.30,430.62 351.63,431.26 351.95,431.90 352.27,432.52 352.59,433.14 352.91,433.75 353.23,434.35 353.56,434.95 353.88,435.53 354.20,436.11 354.52,436.68 354.84,437.24 355.16,437.79 355.49,438.34 355.81,438.87 356.13,439.40 356.45,439.92 356.77,440.43 357.09,440.94 357.42,441.43 357.74,441.92 358.06,442.40 358.38,442.87 358.70,443.33 359.02,443.79 359.35,444.24 359.67,444.67 359.99,445.11 360.31,445.53 360.63,445.94 360.95,446.35 361.28,446.75 361.60,447.14 361.92,447.52 362.24,447.90 362.56,448.26 362.88,448.62 363.21,448.98 363.53,449.32 363.85,449.66 364.17,449.99 364.49,450.31 364.81,450.63 365.14,450.93 365.46,451.23 365.78,451.53 366.10,451.81 366.42,452.09 366.74,452.37 367.07,452.63 367.39,452.89 367.71,453.14 368.03,453.39 368.35,453.63 368.67,453.86 369.00,454.09 369.32,454.31 369.64,454.52 369.96,454.73 370.28,454.93 370.60,455.13 370.93,455.32 371.25,455.51 371.57,455.69 371.89,455.86 372.21,456.03 372.53,456.19 372.86,456.35 373.18,456.50 373.50,456.65 373.82,456.79 374.14,456.93 374.46,457.07 374.79,457.20 375.11,457.32 375.43,457.44 375.75,457.56 376.07,457.67 376.39,457.78 376.72,457.88 377.04,457.98 377.36,458.08 377.68,458.17 378.00,458.26 378.32,458.34 378.65,458.43 378.97,458.50 379.29,458.58 379.61,458.65 379.93,458.72 380.25,458.79 380.58,458.85 380.90,458.91 381.22,458.97 381.54,459.03 381.86,459.08 382.18,459.13 382.51,459.18 382.83,459.23 383.15,459.27 383.47,459.31 383.79,459.35 384.11,459.39 384.44,459.43 384.76,459.46 385.08,459.49 385.40,459.52 385.72,459.55 386.04,459.58 386.37,459.61 386.69,459.63 387.01,459.66 387.33,459.68 387.65,459.70 387.97,459.72 388.30,459.74 388.62,459.75 388.94,459.77 389.26,459.79 389.58,459.80 389.90,459.82 390.23,459.83 390.55,459.84 390.87,459.85 391.19,459.86 391.51,459.87 391.83,459.88 392.16,459.89 392.48,459.90 392.80,459.91 393.12,459.91 393.44,459.92 393.76,459.93 394.09,459.93 394.41,459.94 394.73,459.94 395.05,459.95 395.37,459.95 395.69,459.96 396.02,459.96 396.34,459.96 396.66,459.97 396.98,459.97 397.30,459.97 397.62,459.97 397.94,459.98 398.27,459.98 398.59,459.98 398.91,459.98 399.23,459.98 399.55,459.99 399.87,459.99 400.20,459.99 400.52,459.99 400.84,459.99 401.16,459.99 401.48,459.99 401.80,459.99 402.13,459.99 402.45,459.99 402.77,459.99 403.09,460.00 403.41,460.00 403.73,460.00 404.06,460.00 404.38,460.00 404.70,460.00 405.02,460.00 405.34,460.00 405.66,460.00 405.99,460.00 406.31,460.00 406.63,460.00 406.95,460.00 407.27,460.00 407.59,460.00 407.92,460.00 408.24,460.00 408.56,460.00 408.88,460.00 409.20,460.00 409.52,460.00 409.85,460.00 410.17,460.00 410.49,460.00 410.81,460.00 411.13,460.00 411.45,460.00 411.78,460.00 412.10,460.00 412.42,460.00 412.74,460.00 413.06,460.00 413.38,460.00 413.71,460.00 414.03,460.00 414.35,460.00 414.67,460.00 414.99,460.00 415.31,460.00 415.64,460.00 415.96,460.00 416.28,460.00 416.60,460.00 416.92,460.00 417.24,460.00 417.57,460.00 417.89,460.00 418.21,460.00 418.53,460.00 418.85,460.00 419.17,460.00 419.50,460.00 419.82,460.00 420.14,460.00 420.46,460.00 420.78,460.00 421.10,460.00 421.43,460.00 421.75,460.00 422.07,460.00 422.39,460.00 422.71,460.00 423.03,460.00 423.36,460.00 423.68,460.00 424.00,460.00 424.32,460.00 424.64,460.00 424.96,460.00 425.29,460.00 425.61,460.00 425.93,460.00 426.25,460.00 426.57,460.00 426.89,460.00 427.22,460.00 427.54,460.00 427.86,460.00 428.18,460.00 428.50,460.00 428.82,460.00 429.15,460.00 429.47,460.00 429.79,460.00 430.11,460.00 430.43,460.00 430.75,460.00 431.08,460.00 431.40,460.00 431.72,460.00 432.04,460.00 432.36,460.00 432.68,460.00 433.01,460.00 433.33,460.00 433.65,460.00 433.97,460.00 434.29,460.00 434.61,460.00 434.94,460.00 435.26,460.00 435.58,460.00 435.90,460.00 436.22,460.00 436.54,460.00 436.87,460.00 437.19,460.00 437.51,460.00 437.83,460.00 438.15,460.00 438.47,460.00 438.80,460.00 439.12,460.00 439.44,460.00 439.76,460.00 440.08,460.00 440.40,460.00 440.73,460.00 441.05,460.00 441.37,460.00 441.69,460.00 442.01,460.00 442.33,460.00 442.66,460.00 442.98,460.00 443.30,460.00 443.62,460.00 443.94,460.00 444.26,460.00 444.59,460.00 444.91,460.00 445.23,460.00 445.55,460.00 445.87,460.00 446.19,460.00 446.52,460.00 446.84,460.00 447.16,460.00 447.48,460.00 447.80,460.00 448.12,460.00 448.45,460.00 448.77,460.00 449.09,460.00 449.41,460.00 449.73,460.00 450.05,460.00 450.38,460.00 450.70,460.00 451.02,460.00 451.34,460.00 451.66,460.00 451.98,460.00 452.31,460.00 452.63,460.00 452.95,460.00 453.27,460.00 453.59,460.00 453.91,460.00 454.24,460.00 454.56,460.00 454.88,460.00 455.20,460.00 455.52,460.00 455.84,460.00 456.17,460.00 456.49,460.00 456.81,460.00 457.13,460.00 457.45,460.00 457.77,460.00 458.10,460.00 458.42,460.00 458.74,460.00 459.06,460.00 459.38,460.00 459.70,460.00 460.03,460.00 460.35,460.00 460.67,460.00 460.99,460.00 461.31,460.00 461.63,460.00 461.95,460.00 462.28,460.00 462.60,460.00 462.92,460.00 463.24,460.00 463.56,460.00 463.88,460.00 464.21,460.00 464.53,460.00 464.85,460.00 465.17,460.00 465.49,460.00 465.81,460.00 466.14,460.00 466.46,460.00 466.78,460.00 467.10,460.00 467.42,460.00 467.74,460.00 468.07,460.00 468.39,460.00 468.71,460.00 469.03,460.00 469.35,460.00 469.67,460.00 470.00,460.00 470.32,460.00 470.64,460.00 470.96,460.00 471.28,460.00 471.60,460.00 471.93,460.00 472.25,460.00 472.57,460.00 472.89,460.00 473.21,460.00 473.53,460.00 473.86,460.00 474.18,460.00 474.50,460.00 474.82,460.00 475.14,460.00 475.46,460.00 475.79,460.00 476.11,460.00 476.43,460.00 476.75,460.00 477.07,460.00 477.39,460.00 477.72,460.00 478.04,460.00 478.36,460.00 478.68,460.00 479.00,460.00 479.32,460.00 479.65,460.00 479.97,460.00 480.29,460.00 480.61,460.00 480.93,460.00 481.25,460.00 481.58,460.00 481.90,460.00 482.22,460.00 482.54,460.00 482.86,460.00 483.18,460.00 483.51,460.00 483.83,460.00 484.15,460.00 484.47,460.00 484.79,460.00 485.11,460.00 485.44,460.00 485.76,460.00 486.08,460.00 486.40,460.00 486.72,460.00 487.04,460.00 487.37,460.00 487.69,460.00 488.01,460.00 488.33,460.00 488.65,460.00 488.97,460.00 489.30,460.00 489.62,460.00 489.94,460.00 490.26,460.00 490.58,460.00 490.90,460.00 491.23,460.00 491.55,460.00 491.87,460.00 492.19,460.00 492.51,460.00 492.83,460.00 493.16,460.00 493.48,460.00 493.80,460.00 494.12,460.00 494.44,460.00 494.76,460.00 495.09,460.00 495.41,460.00 495.73,460.00 496.05,460.00 496.37,460.00 496.69,460.00 497.02,460.00 497.34,460.00 497.66,460.00 497.98,460.00 498.30,460.00 498.62,460.00 498.95,460.00 499.27,460.00 499.59,460.00 499.91,460.00 500.23,460.00 500.55,460.00 500.88,460.00 501.20,460.00 501.52,460.00 501.84,460.00 502.16,460.00 502.48,460.00 502.81,460.00 503.13,460.00 503.45,460.00 503.77,460.00 504.09,460.00 504.41,460.00 504.74,460.00 505.06,460.00 505.38,460.00 505.70,460.00 506.02,460.00 506.34,460.00 506.67,460.00 506.99,460.00 507.31,460.00 507.63,460.00 507.95,460.00 508.27,460.00 508.60,460.00 508.92,460.00 509.24,460.00 509.56,460.00 509.88,460.00 510.20,460.00 510.53,460.00 510.85,460.00 511.17,460.00 511.49,460.00 511.81,460.00 512.13,460.00 512.46,460.00 512.78,460.00 513.10,460.00 513.42,460.00 513.74,460.00 514.06,460.00 514.39,460.00 514.71,460.00 515.03,460.00 515.35,460.00 515.67,460.00 515.99,460.00 516.32,460.00 516.64,460.00 516.96,460.00 517.28,460.00 517.60,460.00 517.92,460.00 518.25,460.00 518.57,460.00 518.89,460.00 519.21,460.00 519.53,460.00 519.85,460.00 520.18,460.00 520.50,460.00 520.82,460.00 521.14,460.00 521.46,460.00 521.78,460.00 522.11,460.00 522.43,460.00 522.75,460.00 523.07,460.00 523.39,460.00 523.71,460.00 524.04,460.00 524.36,460.00 524.68,460.00 525.00,460.00" fill="none" stroke="#c05621" stroke-width="2.2" stroke-linejoin="round" stroke-linecap="round" />
<text x="93" y="128" font-family="Arial, sans-serif" font-size="12" fill="#c05621">gamma-exchange alpha decay</text>
  <line x1="660" y1="460" x2="1110" y2="460" stroke="#222" />
  <line x1="660" y1="460" x2="660" y2="85" stroke="#222" />
  <text x="660" y="61" font-family="Arial, sans-serif" font-size="17" font-weight="700">P. Enhanced NGP with long-time recovery</text>
  <text x="840.0" y="498" font-family="Arial, sans-serif" font-size="13">log10 time</text>

  <polyline points="660.00,460.00 660.32,460.00 660.64,460.00 660.96,460.00 661.29,460.00 661.61,460.00 661.93,460.00 662.25,460.00 662.57,460.00 662.89,460.00 663.22,460.00 663.54,460.00 663.86,460.00 664.18,460.00 664.50,460.00 664.82,460.00 665.15,460.00 665.47,460.00 665.79,460.00 666.11,460.00 666.43,460.00 666.75,460.00 667.08,460.00 667.40,460.00 667.72,460.00 668.04,460.00 668.36,460.00 668.68,460.00 669.01,460.00 669.33,460.00 669.65,460.00 669.97,460.00 670.29,460.00 670.61,460.00 670.94,460.00 671.26,460.00 671.58,460.00 671.90,460.00 672.22,460.00 672.54,460.00 672.87,460.00 673.19,460.00 673.51,460.00 673.83,460.00 674.15,460.00 674.47,460.00 674.80,460.00 675.12,460.00 675.44,460.00 675.76,460.00 676.08,460.00 676.40,460.00 676.73,460.00 677.05,460.00 677.37,460.00 677.69,460.00 678.01,460.00 678.33,460.00 678.66,460.00 678.98,460.00 679.30,460.00 679.62,460.00 679.94,460.00 680.26,459.99 680.59,459.99 680.91,459.99 681.23,459.99 681.55,459.99 681.87,459.99 682.19,459.99 682.52,459.99 682.84,459.99 683.16,459.99 683.48,459.99 683.80,459.99 684.12,459.99 684.45,459.99 684.77,459.99 685.09,459.99 685.41,459.99 685.73,459.99 686.05,459.99 686.38,459.99 686.70,459.99 687.02,459.99 687.34,459.99 687.66,459.99 687.98,459.99 688.31,459.99 688.63,459.99 688.95,459.99 689.27,459.99 689.59,459.99 689.91,459.99 690.24,459.99 690.56,459.99 690.88,459.99 691.20,459.99 691.52,459.99 691.84,459.99 692.17,459.99 692.49,459.99 692.81,459.99 693.13,459.99 693.45,459.99 693.77,459.99 694.10,459.99 694.42,459.99 694.74,459.99 695.06,459.99 695.38,459.99 695.70,459.99 696.03,459.99 696.35,459.99 696.67,459.99 696.99,459.99 697.31,459.99 697.63,459.99 697.96,459.99 698.28,459.99 698.60,459.99 698.92,459.99 699.24,459.99 699.56,459.99 699.89,459.99 700.21,459.99 700.53,459.98 700.85,459.98 701.17,459.98 701.49,459.98 701.82,459.98 702.14,459.98 702.46,459.98 702.78,459.98 703.10,459.98 703.42,459.98 703.75,459.98 704.07,459.98 704.39,459.98 704.71,459.98 705.03,459.98 705.35,459.98 705.68,459.98 706.00,459.98 706.32,459.98 706.64,459.98 706.96,459.98 707.28,459.98 707.61,459.98 707.93,459.98 708.25,459.98 708.57,459.98 708.89,459.98 709.21,459.98 709.54,459.98 709.86,459.98 710.18,459.98 710.50,459.98 710.82,459.98 711.14,459.98 711.47,459.98 711.79,459.98 712.11,459.97 712.43,459.97 712.75,459.97 713.07,459.97 713.40,459.97 713.72,459.97 714.04,459.97 714.36,459.97 714.68,459.97 715.00,459.97 715.33,459.97 715.65,459.97 715.97,459.97 716.29,459.97 716.61,459.97 716.93,459.97 717.26,459.97 717.58,459.97 717.90,459.97 718.22,459.97 718.54,459.97 718.86,459.97 719.19,459.97 719.51,459.97 719.83,459.96 720.15,459.96 720.47,459.96 720.79,459.96 721.12,459.96 721.44,459.96 721.76,459.96 722.08,459.96 722.40,459.96 722.72,459.96 723.05,459.96 723.37,459.96 723.69,459.96 724.01,459.96 724.33,459.96 724.65,459.96 724.97,459.96 725.30,459.96 725.62,459.96 725.94,459.95 726.26,459.95 726.58,459.95 726.90,459.95 727.23,459.95 727.55,459.95 727.87,459.95 728.19,459.95 728.51,459.95 728.83,459.95 729.16,459.95 729.48,459.95 729.80,459.95 730.12,459.95 730.44,459.95 730.76,459.94 731.09,459.94 731.41,459.94 731.73,459.94 732.05,459.94 732.37,459.94 732.69,459.94 733.02,459.94 733.34,459.94 733.66,459.94 733.98,459.94 734.30,459.94 734.62,459.93 734.95,459.93 735.27,459.93 735.59,459.93 735.91,459.93 736.23,459.93 736.55,459.93 736.88,459.93 737.20,459.93 737.52,459.93 737.84,459.93 738.16,459.92 738.48,459.92 738.81,459.92 739.13,459.92 739.45,459.92 739.77,459.92 740.09,459.92 740.41,459.92 740.74,459.92 741.06,459.91 741.38,459.91 741.70,459.91 742.02,459.91 742.34,459.91 742.67,459.91 742.99,459.91 743.31,459.91 743.63,459.90 743.95,459.90 744.27,459.90 744.60,459.90 744.92,459.90 745.24,459.90 745.56,459.90 745.88,459.89 746.20,459.89 746.53,459.89 746.85,459.89 747.17,459.89 747.49,459.89 747.81,459.88 748.13,459.88 748.46,459.88 748.78,459.88 749.10,459.88 749.42,459.88 749.74,459.87 750.06,459.87 750.39,459.87 750.71,459.87 751.03,459.87 751.35,459.87 751.67,459.86 751.99,459.86 752.32,459.86 752.64,459.86 752.96,459.85 753.28,459.85 753.60,459.85 753.92,459.85 754.25,459.85 754.57,459.84 754.89,459.84 755.21,459.84 755.53,459.84 755.85,459.83 756.18,459.83 756.50,459.83 756.82,459.83 757.14,459.82 757.46,459.82 757.78,459.82 758.11,459.82 758.43,459.81 758.75,459.81 759.07,459.81 759.39,459.80 759.71,459.80 760.04,459.80 760.36,459.79 760.68,459.79 761.00,459.79 761.32,459.78 761.64,459.78 761.97,459.78 762.29,459.77 762.61,459.77 762.93,459.77 763.25,459.76 763.57,459.76 763.90,459.76 764.22,459.75 764.54,459.75 764.86,459.74 765.18,459.74 765.50,459.74 765.83,459.73 766.15,459.73 766.47,459.72 766.79,459.72 767.11,459.71 767.43,459.71 767.76,459.70 768.08,459.70 768.40,459.69 768.72,459.69 769.04,459.68 769.36,459.68 769.69,459.67 770.01,459.67 770.33,459.66 770.65,459.66 770.97,459.65 771.29,459.64 771.62,459.64 771.94,459.63 772.26,459.63 772.58,459.62 772.90,459.61 773.22,459.61 773.55,459.60 773.87,459.59 774.19,459.59 774.51,459.58 774.83,459.57 775.15,459.56 775.48,459.56 775.80,459.55 776.12,459.54 776.44,459.53 776.76,459.52 777.08,459.51 777.41,459.51 777.73,459.50 778.05,459.49 778.37,459.48 778.69,459.47 779.01,459.46 779.34,459.45 779.66,459.44 779.98,459.43 780.30,459.42 780.62,459.41 780.94,459.40 781.27,459.39 781.59,459.37 781.91,459.36 782.23,459.35 782.55,459.34 782.87,459.33 783.20,459.31 783.52,459.30 783.84,459.29 784.16,459.27 784.48,459.26 784.80,459.24 785.13,459.23 785.45,459.22 785.77,459.20 786.09,459.18 786.41,459.17 786.73,459.15 787.06,459.14 787.38,459.12 787.70,459.10 788.02,459.08 788.34,459.07 788.66,459.05 788.98,459.03 789.31,459.01 789.63,458.99 789.95,458.97 790.27,458.95 790.59,458.93 790.91,458.91 791.24,458.88 791.56,458.86 791.88,458.84 792.20,458.82 792.52,458.79 792.84,458.77 793.17,458.74 793.49,458.72 793.81,458.69 794.13,458.66 794.45,458.64 794.77,458.61 795.10,458.58 795.42,458.55 795.74,458.52 796.06,458.49 796.38,458.46 796.70,458.42 797.03,458.39 797.35,458.36 797.67,458.32 797.99,458.29 798.31,458.25 798.63,458.22 798.96,458.18 799.28,458.14 799.60,458.10 799.92,458.06 800.24,458.02 800.56,457.98 800.89,457.93 801.21,457.89 801.53,457.85 801.85,457.80 802.17,457.75 802.49,457.71 802.82,457.66 803.14,457.61 803.46,457.56 803.78,457.50 804.10,457.45 804.42,457.40 804.75,457.34 805.07,457.28 805.39,457.22 805.71,457.17 806.03,457.10 806.35,457.04 806.68,456.98 807.00,456.91 807.32,456.85 807.64,456.78 807.96,456.71 808.28,456.64 808.61,456.57 808.93,456.50 809.25,456.42 809.57,456.35 809.89,456.27 810.21,456.19 810.54,456.11 810.86,456.03 811.18,455.94 811.50,455.86 811.82,455.77 812.14,455.68 812.47,455.59 812.79,455.50 813.11,455.40 813.43,455.31 813.75,455.21 814.07,455.11 814.40,455.01 814.72,454.90 815.04,454.80 815.36,454.69 815.68,454.58 816.00,454.47 816.33,454.36 816.65,454.24 816.97,454.12 817.29,454.00 817.61,453.88 817.93,453.76 818.26,453.64 818.58,453.51 818.90,453.38 819.22,453.25 819.54,453.11 819.86,452.98 820.19,452.84 820.51,452.70 820.83,452.56 821.15,452.42 821.47,452.27 821.79,452.13 822.12,451.98 822.44,451.83 822.76,451.67 823.08,451.52 823.40,451.36 823.72,451.20 824.05,451.04 824.37,450.88 824.69,450.71 825.01,450.55 825.33,450.38 825.65,450.21 825.98,450.03 826.30,449.86 826.62,449.69 826.94,449.51 827.26,449.33 827.58,449.15 827.91,448.97 828.23,448.78 828.55,448.60 828.87,448.41 829.19,448.23 829.51,448.04 829.84,447.85 830.16,447.66 830.48,447.47 830.80,447.27 831.12,447.08 831.44,446.88 831.77,446.69 832.09,446.49 832.41,446.29 832.73,446.09 833.05,445.90 833.37,445.70 833.70,445.50 834.02,445.30 834.34,445.10 834.66,444.90 834.98,444.70 835.30,444.50 835.63,444.30 835.95,444.10 836.27,443.90 836.59,443.70 836.91,443.50 837.23,443.30 837.56,443.10 837.88,442.91 838.20,442.71 838.52,442.51 838.84,442.32 839.16,442.13 839.49,441.93 839.81,441.74 840.13,441.55 840.45,441.36 840.77,441.18 841.09,440.99 841.42,440.81 841.74,440.63 842.06,440.45 842.38,440.27 842.70,440.09 843.02,439.92 843.35,439.74 843.67,439.57 843.99,439.41 844.31,439.24 844.63,439.08 844.95,438.92 845.28,438.76 845.60,438.60 845.92,438.45 846.24,438.30 846.56,438.16 846.88,438.01 847.21,437.87 847.53,437.73 847.85,437.60 848.17,437.47 848.49,437.34 848.81,437.21 849.14,437.09 849.46,436.97 849.78,436.85 850.10,436.74 850.42,436.63 850.74,436.53 851.07,436.42 851.39,436.32 851.71,436.23 852.03,436.14 852.35,436.05 852.67,435.96 852.99,435.88 853.32,435.80 853.64,435.73 853.96,435.66 854.28,435.59 854.60,435.53 854.92,435.47 855.25,435.41 855.57,435.35 855.89,435.30 856.21,435.26 856.53,435.22 856.85,435.18 857.18,435.14 857.50,435.11 857.82,435.08 858.14,435.05 858.46,435.03 858.78,435.01 859.11,434.99 859.43,434.98 859.75,434.97 860.07,434.97 860.39,434.96 860.71,434.96 861.04,434.97 861.36,434.97 861.68,434.98 862.00,434.99 862.32,435.01 862.64,435.03 862.97,435.05 863.29,435.07 863.61,435.10 863.93,435.13 864.25,435.16 864.57,435.20 864.90,435.23 865.22,435.27 865.54,435.32 865.86,435.36 866.18,435.41 866.50,435.46 866.83,435.51 867.15,435.56 867.47,435.62 867.79,435.68 868.11,435.74 868.43,435.80 868.76,435.87 869.08,435.94 869.40,436.00 869.72,436.08 870.04,436.15 870.36,436.22 870.69,436.30 871.01,436.38 871.33,436.46 871.65,436.54 871.97,436.62 872.29,436.71 872.62,436.79 872.94,436.88 873.26,436.97 873.58,437.06 873.90,437.15 874.22,437.24 874.55,437.34 874.87,437.43 875.19,437.53 875.51,437.62 875.83,437.72 876.15,437.82 876.48,437.92 876.80,438.03 877.12,438.13 877.44,438.23 877.76,438.34 878.08,438.44 878.41,438.55 878.73,438.65 879.05,438.76 879.37,438.87 879.69,438.98 880.01,439.09 880.34,439.20 880.66,439.31 880.98,439.42 881.30,439.53 881.62,439.64 881.94,439.75 882.27,439.87 882.59,439.98 882.91,440.09 883.23,440.21 883.55,440.32 883.87,440.44 884.20,440.55 884.52,440.67 884.84,440.78 885.16,440.90 885.48,441.01 885.80,441.13 886.13,441.25 886.45,441.36 886.77,441.48 887.09,441.59 887.41,441.71 887.73,441.83 888.06,441.94 888.38,442.06 888.70,442.18 889.02,442.29 889.34,442.41 889.66,442.52 889.99,442.64 890.31,442.76 890.63,442.87 890.95,442.99 891.27,443.10 891.59,443.22 891.92,443.33 892.24,443.45 892.56,443.56 892.88,443.68 893.20,443.79 893.52,443.91 893.85,444.02 894.17,444.13 894.49,444.25 894.81,444.36 895.13,444.47 895.45,444.58 895.78,444.69 896.10,444.81 896.42,444.92 896.74,445.03 897.06,445.14 897.38,445.25 897.71,445.36 898.03,445.47 898.35,445.58 898.67,445.68 898.99,445.79 899.31,445.90 899.64,446.01 899.96,446.11 900.28,446.22 900.60,446.32 900.92,446.43 901.24,446.53 901.57,446.64 901.89,446.74 902.21,446.85 902.53,446.95 902.85,447.05 903.17,447.15 903.50,447.26 903.82,447.36 904.14,447.46 904.46,447.56 904.78,447.66 905.10,447.75 905.43,447.85 905.75,447.95 906.07,448.05 906.39,448.14 906.71,448.24 907.03,448.34 907.36,448.43 907.68,448.53 908.00,448.62 908.32,448.71 908.64,448.81 908.96,448.90 909.29,448.99 909.61,449.08 909.93,449.17 910.25,449.26 910.57,449.35 910.89,449.44 911.22,449.53 911.54,449.62 911.86,449.71 912.18,449.79 912.50,449.88 912.82,449.97 913.15,450.05 913.47,450.14 913.79,450.22 914.11,450.30 914.43,450.39 914.75,450.47 915.08,450.55 915.40,450.63 915.72,450.71 916.04,450.79 916.36,450.87 916.68,450.95 917.01,451.03 917.33,451.11 917.65,451.19 917.97,451.26 918.29,451.34 918.61,451.41 918.93,451.49 919.26,451.57 919.58,451.64 919.90,451.71 920.22,451.79 920.54,451.86 920.86,451.93 921.19,452.00 921.51,452.07 921.83,452.14 922.15,452.21 922.47,452.28 922.79,452.35 923.12,452.42 923.44,452.49 923.76,452.56 924.08,452.62 924.40,452.69 924.72,452.75 925.05,452.82 925.37,452.88 925.69,452.95 926.01,453.01 926.33,453.08 926.65,453.14 926.98,453.20 927.30,453.26 927.62,453.32 927.94,453.39 928.26,453.45 928.58,453.51 928.91,453.56 929.23,453.62 929.55,453.68 929.87,453.74 930.19,453.80 930.51,453.85 930.84,453.91 931.16,453.97 931.48,454.02 931.80,454.08 932.12,454.13 932.44,454.19 932.77,454.24 933.09,454.29 933.41,454.35 933.73,454.40 934.05,454.45 934.37,454.50 934.70,454.55 935.02,454.61 935.34,454.66 935.66,454.71 935.98,454.75 936.30,454.80 936.63,454.85 936.95,454.90 937.27,454.95 937.59,455.00 937.91,455.04 938.23,455.09 938.56,455.14 938.88,455.18 939.20,455.23 939.52,455.27 939.84,455.32 940.16,455.36 940.49,455.40 940.81,455.45 941.13,455.49 941.45,455.53 941.77,455.58 942.09,455.62 942.42,455.66 942.74,455.70 943.06,455.74 943.38,455.78 943.70,455.82 944.02,455.86 944.35,455.90 944.67,455.94 944.99,455.98 945.31,456.02 945.63,456.06 945.95,456.09 946.28,456.13 946.60,456.17 946.92,456.20 947.24,456.24 947.56,456.28 947.88,456.31 948.21,456.35 948.53,456.38 948.85,456.42 949.17,456.45 949.49,456.49 949.81,456.52 950.14,456.55 950.46,456.59 950.78,456.62 951.10,456.65 951.42,456.68 951.74,456.72 952.07,456.75 952.39,456.78 952.71,456.81 953.03,456.84 953.35,456.87 953.67,456.90 954.00,456.93 954.32,456.96 954.64,456.99 954.96,457.02 955.28,457.05 955.60,457.08 955.93,457.11 956.25,457.14 956.57,457.16 956.89,457.19 957.21,457.22 957.53,457.25 957.86,457.27 958.18,457.30 958.50,457.32 958.82,457.35 959.14,457.38 959.46,457.40 959.79,457.43 960.11,457.45 960.43,457.48 960.75,457.50 961.07,457.53 961.39,457.55 961.72,457.58 962.04,457.60 962.36,457.62 962.68,457.65 963.00,457.67 963.32,457.69 963.65,457.71 963.97,457.74 964.29,457.76 964.61,457.78 964.93,457.80 965.25,457.82 965.58,457.85 965.90,457.87 966.22,457.89 966.54,457.91 966.86,457.93 967.18,457.95 967.51,457.97 967.83,457.99 968.15,458.01 968.47,458.03 968.79,458.05 969.11,458.07 969.44,458.09 969.76,458.11 970.08,458.12 970.40,458.14 970.72,458.16 971.04,458.18 971.37,458.20 971.69,458.22 972.01,458.23 972.33,458.25 972.65,458.27 972.97,458.29 973.30,458.30 973.62,458.32 973.94,458.34 974.26,458.35 974.58,458.37 974.90,458.38 975.23,458.40 975.55,458.42 975.87,458.43 976.19,458.45 976.51,458.46 976.83,458.48 977.16,458.49 977.48,458.51 977.80,458.52 978.12,458.54 978.44,458.55 978.76,458.57 979.09,458.58 979.41,458.60 979.73,458.61 980.05,458.62 980.37,458.64 980.69,458.65 981.02,458.66 981.34,458.68 981.66,458.69 981.98,458.70 982.30,458.72 982.62,458.73 982.94,458.74 983.27,458.75 983.59,458.77 983.91,458.78 984.23,458.79 984.55,458.80 984.87,458.82 985.20,458.83 985.52,458.84 985.84,458.85 986.16,458.86 986.48,458.87 986.80,458.88 987.13,458.90 987.45,458.91 987.77,458.92 988.09,458.93 988.41,458.94 988.73,458.95 989.06,458.96 989.38,458.97 989.70,458.98 990.02,458.99 990.34,459.00 990.66,459.01 990.99,459.02 991.31,459.03 991.63,459.04 991.95,459.05 992.27,459.06 992.59,459.07 992.92,459.08 993.24,459.09 993.56,459.10 993.88,459.11 994.20,459.12 994.52,459.12 994.85,459.13 995.17,459.14 995.49,459.15 995.81,459.16 996.13,459.17 996.45,459.18 996.78,459.18 997.10,459.19 997.42,459.20 997.74,459.21 998.06,459.22 998.38,459.22 998.71,459.23 999.03,459.24 999.35,459.25 999.67,459.26 999.99,459.26 1000.31,459.27 1000.64,459.28 1000.96,459.29 1001.28,459.29 1001.60,459.30 1001.92,459.31 1002.24,459.31 1002.57,459.32 1002.89,459.33 1003.21,459.33 1003.53,459.34 1003.85,459.35 1004.17,459.35 1004.50,459.36 1004.82,459.37 1005.14,459.37 1005.46,459.38 1005.78,459.39 1006.10,459.39 1006.43,459.40 1006.75,459.40 1007.07,459.41 1007.39,459.42 1007.71,459.42 1008.03,459.43 1008.36,459.43 1008.68,459.44 1009.00,459.45 1009.32,459.45 1009.64,459.46 1009.96,459.46 1010.29,459.47 1010.61,459.47 1010.93,459.48 1011.25,459.48 1011.57,459.49 1011.89,459.49 1012.22,459.50 1012.54,459.50 1012.86,459.51 1013.18,459.51 1013.50,459.52 1013.82,459.52 1014.15,459.53 1014.47,459.53 1014.79,459.54 1015.11,459.54 1015.43,459.55 1015.75,459.55 1016.08,459.56 1016.40,459.56 1016.72,459.57 1017.04,459.57 1017.36,459.57 1017.68,459.58 1018.01,459.58 1018.33,459.59 1018.65,459.59 1018.97,459.60 1019.29,459.60 1019.61,459.60 1019.94,459.61 1020.26,459.61 1020.58,459.62 1020.90,459.62 1021.22,459.62 1021.54,459.63 1021.87,459.63 1022.19,459.64 1022.51,459.64 1022.83,459.64 1023.15,459.65 1023.47,459.65 1023.80,459.65 1024.12,459.66 1024.44,459.66 1024.76,459.66 1025.08,459.67 1025.40,459.67 1025.73,459.67 1026.05,459.68 1026.37,459.68 1026.69,459.68 1027.01,459.69 1027.33,459.69 1027.66,459.69 1027.98,459.70 1028.30,459.70 1028.62,459.70 1028.94,459.71 1029.26,459.71 1029.59,459.71 1029.91,459.72 1030.23,459.72 1030.55,459.72 1030.87,459.72 1031.19,459.73 1031.52,459.73 1031.84,459.73 1032.16,459.73 1032.48,459.74 1032.80,459.74 1033.12,459.74 1033.45,459.75 1033.77,459.75 1034.09,459.75 1034.41,459.75 1034.73,459.76 1035.05,459.76 1035.38,459.76 1035.70,459.76 1036.02,459.77 1036.34,459.77 1036.66,459.77 1036.98,459.77 1037.31,459.78 1037.63,459.78 1037.95,459.78 1038.27,459.78 1038.59,459.78 1038.91,459.79 1039.24,459.79 1039.56,459.79 1039.88,459.79 1040.20,459.80 1040.52,459.80 1040.84,459.80 1041.17,459.80 1041.49,459.80 1041.81,459.81 1042.13,459.81 1042.45,459.81 1042.77,459.81 1043.10,459.81 1043.42,459.82 1043.74,459.82 1044.06,459.82 1044.38,459.82 1044.70,459.82 1045.03,459.83 1045.35,459.83 1045.67,459.83 1045.99,459.83 1046.31,459.83 1046.63,459.83 1046.95,459.84 1047.28,459.84 1047.60,459.84 1047.92,459.84 1048.24,459.84 1048.56,459.84 1048.88,459.85 1049.21,459.85 1049.53,459.85 1049.85,459.85 1050.17,459.85 1050.49,459.85 1050.81,459.86 1051.14,459.86 1051.46,459.86 1051.78,459.86 1052.10,459.86 1052.42,459.86 1052.74,459.86 1053.07,459.87 1053.39,459.87 1053.71,459.87 1054.03,459.87 1054.35,459.87 1054.67,459.87 1055.00,459.87 1055.32,459.88 1055.64,459.88 1055.96,459.88 1056.28,459.88 1056.60,459.88 1056.93,459.88 1057.25,459.88 1057.57,459.88 1057.89,459.89 1058.21,459.89 1058.53,459.89 1058.86,459.89 1059.18,459.89 1059.50,459.89 1059.82,459.89 1060.14,459.89 1060.46,459.89 1060.79,459.90 1061.11,459.90 1061.43,459.90 1061.75,459.90 1062.07,459.90 1062.39,459.90 1062.72,459.90 1063.04,459.90 1063.36,459.90 1063.68,459.91 1064.00,459.91 1064.32,459.91 1064.65,459.91 1064.97,459.91 1065.29,459.91 1065.61,459.91 1065.93,459.91 1066.25,459.91 1066.58,459.91 1066.90,459.91 1067.22,459.92 1067.54,459.92 1067.86,459.92 1068.18,459.92 1068.51,459.92 1068.83,459.92 1069.15,459.92 1069.47,459.92 1069.79,459.92 1070.11,459.92 1070.44,459.92 1070.76,459.93 1071.08,459.93 1071.40,459.93 1071.72,459.93 1072.04,459.93 1072.37,459.93 1072.69,459.93 1073.01,459.93 1073.33,459.93 1073.65,459.93 1073.97,459.93 1074.30,459.93 1074.62,459.93 1074.94,459.94 1075.26,459.94 1075.58,459.94 1075.90,459.94 1076.23,459.94 1076.55,459.94 1076.87,459.94 1077.19,459.94 1077.51,459.94 1077.83,459.94 1078.16,459.94 1078.48,459.94 1078.80,459.94 1079.12,459.94 1079.44,459.94 1079.76,459.95 1080.09,459.95 1080.41,459.95 1080.73,459.95 1081.05,459.95 1081.37,459.95 1081.69,459.95 1082.02,459.95 1082.34,459.95 1082.66,459.95 1082.98,459.95 1083.30,459.95 1083.62,459.95 1083.95,459.95 1084.27,459.95 1084.59,459.95 1084.91,459.95 1085.23,459.95 1085.55,459.96 1085.88,459.96 1086.20,459.96 1086.52,459.96 1086.84,459.96 1087.16,459.96 1087.48,459.96 1087.81,459.96 1088.13,459.96 1088.45,459.96 1088.77,459.96 1089.09,459.96 1089.41,459.96 1089.74,459.96 1090.06,459.96 1090.38,459.96 1090.70,459.96 1091.02,459.96 1091.34,459.96 1091.67,459.96 1091.99,459.96 1092.31,459.96 1092.63,459.97 1092.95,459.97 1093.27,459.97 1093.60,459.97 1093.92,459.97 1094.24,459.97 1094.56,459.97 1094.88,459.97 1095.20,459.97 1095.53,459.97 1095.85,459.97 1096.17,459.97 1096.49,459.97 1096.81,459.97 1097.13,459.97 1097.46,459.97 1097.78,459.97 1098.10,459.97 1098.42,459.97 1098.74,459.97 1099.06,459.97 1099.39,459.97 1099.71,459.97 1100.03,459.97 1100.35,459.97 1100.67,459.97 1100.99,459.97 1101.32,459.97 1101.64,459.98 1101.96,459.98 1102.28,459.98 1102.60,459.98 1102.92,459.98 1103.25,459.98 1103.57,459.98 1103.89,459.98 1104.21,459.98 1104.53,459.98 1104.85,459.98 1105.18,459.98 1105.50,459.98 1105.82,459.98 1106.14,459.98 1106.46,459.98 1106.78,459.98 1107.11,459.98 1107.43,459.98 1107.75,459.98 1108.07,459.98 1108.39,459.98 1108.71,459.98 1109.04,459.98 1109.36,459.98 1109.68,459.98 1110.00,459.98" fill="none" stroke="#2b6cb0" stroke-width="2.2" stroke-linejoin="round" stroke-linecap="round" />
<text x="678" y="110" font-family="Arial, sans-serif" font-size="12" fill="#2b6cb0">Poisson NGP</text>
<polyline points="660.00,460.00 660.32,460.00 660.64,460.00 660.96,460.00 661.29,460.00 661.61,460.00 661.93,460.00 662.25,460.00 662.57,460.00 662.89,460.00 663.22,460.00 663.54,460.00 663.86,460.00 664.18,460.00 664.50,460.00 664.82,460.00 665.15,460.00 665.47,460.00 665.79,460.00 666.11,460.00 666.43,460.00 666.75,460.00 667.08,460.00 667.40,460.00 667.72,460.00 668.04,460.00 668.36,460.00 668.68,460.00 669.01,460.00 669.33,460.00 669.65,460.00 669.97,460.00 670.29,460.00 670.61,460.00 670.94,460.00 671.26,460.00 671.58,460.00 671.90,460.00 672.22,460.00 672.54,460.00 672.87,460.00 673.19,460.00 673.51,460.00 673.83,460.00 674.15,460.00 674.47,460.00 674.80,460.00 675.12,460.00 675.44,460.00 675.76,460.00 676.08,460.00 676.40,460.00 676.73,460.00 677.05,460.00 677.37,460.00 677.69,460.00 678.01,460.00 678.33,460.00 678.66,460.00 678.98,460.00 679.30,460.00 679.62,460.00 679.94,460.00 680.26,459.99 680.59,459.99 680.91,459.99 681.23,459.99 681.55,459.99 681.87,459.99 682.19,459.99 682.52,459.99 682.84,459.99 683.16,459.99 683.48,459.99 683.80,459.99 684.12,459.99 684.45,459.99 684.77,459.99 685.09,459.99 685.41,459.99 685.73,459.99 686.05,459.99 686.38,459.99 686.70,459.99 687.02,459.99 687.34,459.99 687.66,459.99 687.98,459.99 688.31,459.99 688.63,459.99 688.95,459.99 689.27,459.99 689.59,459.99 689.91,459.99 690.24,459.99 690.56,459.99 690.88,459.99 691.20,459.99 691.52,459.99 691.84,459.99 692.17,459.99 692.49,459.99 692.81,459.99 693.13,459.99 693.45,459.99 693.77,459.99 694.10,459.99 694.42,459.99 694.74,459.99 695.06,459.99 695.38,459.99 695.70,459.99 696.03,459.99 696.35,459.99 696.67,459.99 696.99,459.99 697.31,459.99 697.63,459.99 697.96,459.99 698.28,459.99 698.60,459.99 698.92,459.99 699.24,459.99 699.56,459.99 699.89,459.99 700.21,459.99 700.53,459.98 700.85,459.98 701.17,459.98 701.49,459.98 701.82,459.98 702.14,459.98 702.46,459.98 702.78,459.98 703.10,459.98 703.42,459.98 703.75,459.98 704.07,459.98 704.39,459.98 704.71,459.98 705.03,459.98 705.35,459.98 705.68,459.98 706.00,459.98 706.32,459.98 706.64,459.98 706.96,459.98 707.28,459.98 707.61,459.98 707.93,459.98 708.25,459.98 708.57,459.98 708.89,459.98 709.21,459.98 709.54,459.98 709.86,459.98 710.18,459.98 710.50,459.98 710.82,459.98 711.14,459.98 711.47,459.98 711.79,459.98 712.11,459.97 712.43,459.97 712.75,459.97 713.07,459.97 713.40,459.97 713.72,459.97 714.04,459.97 714.36,459.97 714.68,459.97 715.00,459.97 715.33,459.97 715.65,459.97 715.97,459.97 716.29,459.97 716.61,459.97 716.93,459.97 717.26,459.97 717.58,459.97 717.90,459.97 718.22,459.97 718.54,459.97 718.86,459.97 719.19,459.97 719.51,459.97 719.83,459.96 720.15,459.96 720.47,459.96 720.79,459.96 721.12,459.96 721.44,459.96 721.76,459.96 722.08,459.96 722.40,459.96 722.72,459.96 723.05,459.96 723.37,459.96 723.69,459.96 724.01,459.96 724.33,459.96 724.65,459.96 724.97,459.96 725.30,459.96 725.62,459.96 725.94,459.95 726.26,459.95 726.58,459.95 726.90,459.95 727.23,459.95 727.55,459.95 727.87,459.95 728.19,459.95 728.51,459.95 728.83,459.95 729.16,459.95 729.48,459.95 729.80,459.95 730.12,459.95 730.44,459.95 730.76,459.94 731.09,459.94 731.41,459.94 731.73,459.94 732.05,459.94 732.37,459.94 732.69,459.94 733.02,459.94 733.34,459.94 733.66,459.94 733.98,459.94 734.30,459.94 734.62,459.93 734.95,459.93 735.27,459.93 735.59,459.93 735.91,459.93 736.23,459.93 736.55,459.93 736.88,459.93 737.20,459.93 737.52,459.93 737.84,459.93 738.16,459.92 738.48,459.92 738.81,459.92 739.13,459.92 739.45,459.92 739.77,459.92 740.09,459.92 740.41,459.92 740.74,459.92 741.06,459.91 741.38,459.91 741.70,459.91 742.02,459.91 742.34,459.91 742.67,459.91 742.99,459.91 743.31,459.91 743.63,459.90 743.95,459.90 744.27,459.90 744.60,459.90 744.92,459.90 745.24,459.90 745.56,459.90 745.88,459.89 746.20,459.89 746.53,459.89 746.85,459.89 747.17,459.89 747.49,459.89 747.81,459.88 748.13,459.88 748.46,459.88 748.78,459.88 749.10,459.88 749.42,459.88 749.74,459.87 750.06,459.87 750.39,459.87 750.71,459.87 751.03,459.87 751.35,459.87 751.67,459.86 751.99,459.86 752.32,459.86 752.64,459.86 752.96,459.85 753.28,459.85 753.60,459.85 753.92,459.85 754.25,459.85 754.57,459.84 754.89,459.84 755.21,459.84 755.53,459.84 755.85,459.83 756.18,459.83 756.50,459.83 756.82,459.83 757.14,459.82 757.46,459.82 757.78,459.82 758.11,459.82 758.43,459.81 758.75,459.81 759.07,459.81 759.39,459.80 759.71,459.80 760.04,459.80 760.36,459.79 760.68,459.79 761.00,459.79 761.32,459.78 761.64,459.78 761.97,459.78 762.29,459.77 762.61,459.77 762.93,459.77 763.25,459.76 763.57,459.76 763.90,459.76 764.22,459.75 764.54,459.75 764.86,459.74 765.18,459.74 765.50,459.74 765.83,459.73 766.15,459.73 766.47,459.72 766.79,459.72 767.11,459.71 767.43,459.71 767.76,459.70 768.08,459.70 768.40,459.69 768.72,459.69 769.04,459.68 769.36,459.68 769.69,459.67 770.01,459.67 770.33,459.66 770.65,459.65 770.97,459.65 771.29,459.64 771.62,459.64 771.94,459.63 772.26,459.62 772.58,459.62 772.90,459.61 773.22,459.60 773.55,459.60 773.87,459.59 774.19,459.58 774.51,459.58 774.83,459.57 775.15,459.56 775.48,459.55 775.80,459.54 776.12,459.54 776.44,459.53 776.76,459.52 777.08,459.51 777.41,459.50 777.73,459.49 778.05,459.48 778.37,459.47 778.69,459.46 779.01,459.45 779.34,459.44 779.66,459.43 779.98,459.42 780.30,459.41 780.62,459.40 780.94,459.39 781.27,459.38 781.59,459.37 781.91,459.35 782.23,459.34 782.55,459.33 782.87,459.32 783.20,459.30 783.52,459.29 783.84,459.28 784.16,459.26 784.48,459.25 784.80,459.23 785.13,459.22 785.45,459.20 785.77,459.19 786.09,459.17 786.41,459.15 786.73,459.14 787.06,459.12 787.38,459.10 787.70,459.09 788.02,459.07 788.34,459.05 788.66,459.03 788.98,459.01 789.31,458.99 789.63,458.97 789.95,458.95 790.27,458.92 790.59,458.90 790.91,458.88 791.24,458.86 791.56,458.83 791.88,458.81 792.20,458.78 792.52,458.76 792.84,458.73 793.17,458.70 793.49,458.68 793.81,458.65 794.13,458.62 794.45,458.59 794.77,458.56 795.10,458.53 795.42,458.50 795.74,458.46 796.06,458.43 796.38,458.40 796.70,458.36 797.03,458.33 797.35,458.29 797.67,458.25 797.99,458.21 798.31,458.17 798.63,458.13 798.96,458.09 799.28,458.05 799.60,458.00 799.92,457.96 800.24,457.91 800.56,457.87 800.89,457.82 801.21,457.77 801.53,457.72 801.85,457.67 802.17,457.61 802.49,457.56 802.82,457.50 803.14,457.45 803.46,457.39 803.78,457.33 804.10,457.26 804.42,457.20 804.75,457.14 805.07,457.07 805.39,457.00 805.71,456.93 806.03,456.86 806.35,456.78 806.68,456.71 807.00,456.63 807.32,456.55 807.64,456.47 807.96,456.39 808.28,456.30 808.61,456.21 808.93,456.12 809.25,456.03 809.57,455.93 809.89,455.84 810.21,455.74 810.54,455.63 810.86,455.53 811.18,455.42 811.50,455.31 811.82,455.20 812.14,455.08 812.47,454.96 812.79,454.84 813.11,454.72 813.43,454.59 813.75,454.46 814.07,454.32 814.40,454.18 814.72,454.04 815.04,453.90 815.36,453.75 815.68,453.60 816.00,453.44 816.33,453.28 816.65,453.12 816.97,452.95 817.29,452.78 817.61,452.60 817.93,452.42 818.26,452.23 818.58,452.04 818.90,451.85 819.22,451.65 819.54,451.45 819.86,451.24 820.19,451.02 820.51,450.81 820.83,450.58 821.15,450.35 821.47,450.12 821.79,449.88 822.12,449.63 822.44,449.38 822.76,449.12 823.08,448.86 823.40,448.59 823.72,448.31 824.05,448.03 824.37,447.74 824.69,447.45 825.01,447.15 825.33,446.84 825.65,446.52 825.98,446.20 826.30,445.87 826.62,445.53 826.94,445.19 827.26,444.84 827.58,444.48 827.91,444.12 828.23,443.74 828.55,443.36 828.87,442.97 829.19,442.57 829.51,442.17 829.84,441.75 830.16,441.33 830.48,440.90 830.80,440.46 831.12,440.01 831.44,439.56 831.77,439.09 832.09,438.62 832.41,438.13 832.73,437.64 833.05,437.14 833.37,436.63 833.70,436.11 834.02,435.58 834.34,435.04 834.66,434.49 834.98,433.94 835.30,433.37 835.63,432.79 835.95,432.21 836.27,431.61 836.59,431.01 836.91,430.39 837.23,429.77 837.56,429.14 837.88,428.49 838.20,427.84 838.52,427.18 838.84,426.50 839.16,425.82 839.49,425.13 839.81,424.43 840.13,423.72 840.45,423.00 840.77,422.27 841.09,421.53 841.42,420.78 841.74,420.02 842.06,419.25 842.38,418.48 842.70,417.69 843.02,416.90 843.35,416.10 843.67,415.29 843.99,414.47 844.31,413.64 844.63,412.80 844.95,411.96 845.28,411.10 845.60,410.24 845.92,409.38 846.24,408.50 846.56,407.62 846.88,406.73 847.21,405.83 847.53,404.92 847.85,404.01 848.17,403.10 848.49,402.17 848.81,401.24 849.14,400.31 849.46,399.37 849.78,398.42 850.10,397.47 850.42,396.52 850.74,395.55 851.07,394.59 851.39,393.62 851.71,392.65 852.03,391.67 852.35,390.69 852.67,389.71 852.99,388.72 853.32,387.73 853.64,386.74 853.96,385.75 854.28,384.75 854.60,383.75 854.92,382.75 855.25,381.76 855.57,380.75 855.89,379.75 856.21,378.75 856.53,377.75 856.85,376.75 857.18,375.75 857.50,374.75 857.82,373.75 858.14,372.76 858.46,371.76 858.78,370.77 859.11,369.78 859.43,368.79 859.75,367.80 860.07,366.82 860.39,365.84 860.71,364.86 861.04,363.89 861.36,362.92 861.68,361.96 862.00,361.00 862.32,360.04 862.64,359.09 862.97,358.14 863.29,357.20 863.61,356.27 863.93,355.34 864.25,354.42 864.57,353.50 864.90,352.59 865.22,351.68 865.54,350.79 865.86,349.90 866.18,349.01 866.50,348.14 866.83,347.27 867.15,346.41 867.47,345.56 867.79,344.71 868.11,343.87 868.43,343.04 868.76,342.22 869.08,341.41 869.40,340.61 869.72,339.82 870.04,339.03 870.36,338.26 870.69,337.49 871.01,336.73 871.33,335.99 871.65,335.25 871.97,334.52 872.29,333.80 872.62,333.09 872.94,332.40 873.26,331.71 873.58,331.03 873.90,330.36 874.22,329.71 874.55,329.06 874.87,328.42 875.19,327.80 875.51,327.18 875.83,326.58 876.15,325.99 876.48,325.40 876.80,324.83 877.12,324.27 877.44,323.72 877.76,323.19 878.08,322.66 878.41,322.14 878.73,321.64 879.05,321.14 879.37,320.66 879.69,320.19 880.01,319.73 880.34,319.28 880.66,318.84 880.98,318.41 881.30,318.00 881.62,317.59 881.94,317.20 882.27,316.82 882.59,316.45 882.91,316.09 883.23,315.74 883.55,315.41 883.87,315.08 884.20,314.77 884.52,314.47 884.84,314.17 885.16,313.89 885.48,313.62 885.80,313.37 886.13,313.12 886.45,312.88 886.77,312.66 887.09,312.45 887.41,312.24 887.73,312.05 888.06,311.87 888.38,311.70 888.70,311.54 889.02,311.39 889.34,311.25 889.66,311.13 889.99,311.01 890.31,310.90 890.63,310.81 890.95,310.72 891.27,310.65 891.59,310.59 891.92,310.53 892.24,310.49 892.56,310.46 892.88,310.43 893.20,310.42 893.52,310.42 893.85,310.42 894.17,310.44 894.49,310.47 894.81,310.50 895.13,310.55 895.45,310.61 895.78,310.67 896.10,310.75 896.42,310.83 896.74,310.92 897.06,311.03 897.38,311.14 897.71,311.26 898.03,311.39 898.35,311.53 898.67,311.68 898.99,311.83 899.31,312.00 899.64,312.17 899.96,312.35 900.28,312.55 900.60,312.75 900.92,312.95 901.24,313.17 901.57,313.39 901.89,313.63 902.21,313.87 902.53,314.11 902.85,314.37 903.17,314.63 903.50,314.90 903.82,315.18 904.14,315.47 904.46,315.76 904.78,316.06 905.10,316.37 905.43,316.68 905.75,317.01 906.07,317.33 906.39,317.67 906.71,318.01 907.03,318.36 907.36,318.72 907.68,319.08 908.00,319.44 908.32,319.82 908.64,320.20 908.96,320.59 909.29,320.98 909.61,321.38 909.93,321.78 910.25,322.19 910.57,322.60 910.89,323.02 911.22,323.45 911.54,323.88 911.86,324.32 912.18,324.76 912.50,325.21 912.82,325.66 913.15,326.11 913.47,326.57 913.79,327.04 914.11,327.51 914.43,327.98 914.75,328.46 915.08,328.95 915.40,329.43 915.72,329.93 916.04,330.42 916.36,330.92 916.68,331.42 917.01,331.93 917.33,332.44 917.65,332.96 917.97,333.47 918.29,333.99 918.61,334.52 918.93,335.05 919.26,335.58 919.58,336.11 919.90,336.65 920.22,337.19 920.54,337.73 920.86,338.27 921.19,338.82 921.51,339.37 921.83,339.92 922.15,340.48 922.47,341.03 922.79,341.59 923.12,342.15 923.44,342.72 923.76,343.28 924.08,343.85 924.40,344.42 924.72,344.99 925.05,345.56 925.37,346.13 925.69,346.71 926.01,347.28 926.33,347.86 926.65,348.44 926.98,349.02 927.30,349.60 927.62,350.18 927.94,350.77 928.26,351.35 928.58,351.94 928.91,352.52 929.23,353.11 929.55,353.70 929.87,354.28 930.19,354.87 930.51,355.46 930.84,356.05 931.16,356.64 931.48,357.23 931.80,357.82 932.12,358.40 932.44,358.99 932.77,359.58 933.09,360.17 933.41,360.76 933.73,361.35 934.05,361.94 934.37,362.53 934.70,363.12 935.02,363.70 935.34,364.29 935.66,364.88 935.98,365.46 936.30,366.05 936.63,366.63 936.95,367.22 937.27,367.80 937.59,368.38 937.91,368.96 938.23,369.54 938.56,370.12 938.88,370.70 939.20,371.28 939.52,371.85 939.84,372.43 940.16,373.00 940.49,373.58 940.81,374.15 941.13,374.72 941.45,375.29 941.77,375.85 942.09,376.42 942.42,376.98 942.74,377.55 943.06,378.11 943.38,378.67 943.70,379.22 944.02,379.78 944.35,380.34 944.67,380.89 944.99,381.44 945.31,381.99 945.63,382.54 945.95,383.08 946.28,383.63 946.60,384.17 946.92,384.71 947.24,385.25 947.56,385.78 947.88,386.32 948.21,386.85 948.53,387.38 948.85,387.91 949.17,388.43 949.49,388.95 949.81,389.48 950.14,390.00 950.46,390.51 950.78,391.03 951.10,391.54 951.42,392.05 951.74,392.56 952.07,393.06 952.39,393.57 952.71,394.07 953.03,394.57 953.35,395.07 953.67,395.56 954.00,396.05 954.32,396.54 954.64,397.03 954.96,397.51 955.28,398.00 955.60,398.48 955.93,398.95 956.25,399.43 956.57,399.90 956.89,400.37 957.21,400.84 957.53,401.30 957.86,401.77 958.18,402.23 958.50,402.68 958.82,403.14 959.14,403.59 959.46,404.04 959.79,404.49 960.11,404.93 960.43,405.38 960.75,405.82 961.07,406.25 961.39,406.69 961.72,407.12 962.04,407.55 962.36,407.98 962.68,408.40 963.00,408.82 963.32,409.24 963.65,409.66 963.97,410.07 964.29,410.48 964.61,410.89 964.93,411.30 965.25,411.70 965.58,412.11 965.90,412.50 966.22,412.90 966.54,413.29 966.86,413.69 967.18,414.07 967.51,414.46 967.83,414.84 968.15,415.23 968.47,415.60 968.79,415.98 969.11,416.35 969.44,416.72 969.76,417.09 970.08,417.46 970.40,417.82 970.72,418.18 971.04,418.54 971.37,418.90 971.69,419.25 972.01,419.60 972.33,419.95 972.65,420.30 972.97,420.64 973.30,420.98 973.62,421.32 973.94,421.66 974.26,421.99 974.58,422.32 974.90,422.65 975.23,422.98 975.55,423.30 975.87,423.62 976.19,423.94 976.51,424.26 976.83,424.58 977.16,424.89 977.48,425.20 977.80,425.51 978.12,425.81 978.44,426.11 978.76,426.42 979.09,426.71 979.41,427.01 979.73,427.30 980.05,427.60 980.37,427.89 980.69,428.17 981.02,428.46 981.34,428.74 981.66,429.02 981.98,429.30 982.30,429.58 982.62,429.85 982.94,430.12 983.27,430.39 983.59,430.66 983.91,430.93 984.23,431.19 984.55,431.45 984.87,431.71 985.20,431.97 985.52,432.22 985.84,432.48 986.16,432.73 986.48,432.98 986.80,433.22 987.13,433.47 987.45,433.71 987.77,433.95 988.09,434.19 988.41,434.43 988.73,434.66 989.06,434.90 989.38,435.13 989.70,435.36 990.02,435.58 990.34,435.81 990.66,436.03 990.99,436.26 991.31,436.48 991.63,436.69 991.95,436.91 992.27,437.12 992.59,437.34 992.92,437.55 993.24,437.76 993.56,437.96 993.88,438.17 994.20,438.37 994.52,438.58 994.85,438.78 995.17,438.97 995.49,439.17 995.81,439.37 996.13,439.56 996.45,439.75 996.78,439.94 997.10,440.13 997.42,440.32 997.74,440.50 998.06,440.69 998.38,440.87 998.71,441.05 999.03,441.23 999.35,441.41 999.67,441.58 999.99,441.76 1000.31,441.93 1000.64,442.10 1000.96,442.27 1001.28,442.44 1001.60,442.60 1001.92,442.77 1002.24,442.93 1002.57,443.10 1002.89,443.26 1003.21,443.42 1003.53,443.57 1003.85,443.73 1004.17,443.89 1004.50,444.04 1004.82,444.19 1005.14,444.34 1005.46,444.49 1005.78,444.64 1006.10,444.79 1006.43,444.93 1006.75,445.08 1007.07,445.22 1007.39,445.36 1007.71,445.50 1008.03,445.64 1008.36,445.78 1008.68,445.92 1009.00,446.05 1009.32,446.19 1009.64,446.32 1009.96,446.45 1010.29,446.58 1010.61,446.71 1010.93,446.84 1011.25,446.97 1011.57,447.09 1011.89,447.22 1012.22,447.34 1012.54,447.46 1012.86,447.58 1013.18,447.70 1013.50,447.82 1013.82,447.94 1014.15,448.06 1014.47,448.17 1014.79,448.29 1015.11,448.40 1015.43,448.52 1015.75,448.63 1016.08,448.74 1016.40,448.85 1016.72,448.96 1017.04,449.06 1017.36,449.17 1017.68,449.27 1018.01,449.38 1018.33,449.48 1018.65,449.59 1018.97,449.69 1019.29,449.79 1019.61,449.89 1019.94,449.99 1020.26,450.08 1020.58,450.18 1020.90,450.28 1021.22,450.37 1021.54,450.47 1021.87,450.56 1022.19,450.65 1022.51,450.74 1022.83,450.83 1023.15,450.92 1023.47,451.01 1023.80,451.10 1024.12,451.19 1024.44,451.27 1024.76,451.36 1025.08,451.44 1025.40,451.53 1025.73,451.61 1026.05,451.69 1026.37,451.78 1026.69,451.86 1027.01,451.94 1027.33,452.02 1027.66,452.09 1027.98,452.17 1028.30,452.25 1028.62,452.33 1028.94,452.40 1029.26,452.48 1029.59,452.55 1029.91,452.62 1030.23,452.70 1030.55,452.77 1030.87,452.84 1031.19,452.91 1031.52,452.98 1031.84,453.05 1032.16,453.12 1032.48,453.19 1032.80,453.25 1033.12,453.32 1033.45,453.39 1033.77,453.45 1034.09,453.52 1034.41,453.58 1034.73,453.64 1035.05,453.71 1035.38,453.77 1035.70,453.83 1036.02,453.89 1036.34,453.95 1036.66,454.01 1036.98,454.07 1037.31,454.13 1037.63,454.19 1037.95,454.25 1038.27,454.30 1038.59,454.36 1038.91,454.42 1039.24,454.47 1039.56,454.53 1039.88,454.58 1040.20,454.64 1040.52,454.69 1040.84,454.74 1041.17,454.79 1041.49,454.85 1041.81,454.90 1042.13,454.95 1042.45,455.00 1042.77,455.05 1043.10,455.10 1043.42,455.15 1043.74,455.19 1044.06,455.24 1044.38,455.29 1044.70,455.34 1045.03,455.38 1045.35,455.43 1045.67,455.47 1045.99,455.52 1046.31,455.56 1046.63,455.61 1046.95,455.65 1047.28,455.70 1047.60,455.74 1047.92,455.78 1048.24,455.82 1048.56,455.86 1048.88,455.91 1049.21,455.95 1049.53,455.99 1049.85,456.03 1050.17,456.07 1050.49,456.11 1050.81,456.14 1051.14,456.18 1051.46,456.22 1051.78,456.26 1052.10,456.30 1052.42,456.33 1052.74,456.37 1053.07,456.41 1053.39,456.44 1053.71,456.48 1054.03,456.51 1054.35,456.55 1054.67,456.58 1055.00,456.62 1055.32,456.65 1055.64,456.68 1055.96,456.72 1056.28,456.75 1056.60,456.78 1056.93,456.82 1057.25,456.85 1057.57,456.88 1057.89,456.91 1058.21,456.94 1058.53,456.97 1058.86,457.00 1059.18,457.03 1059.50,457.06 1059.82,457.09 1060.14,457.12 1060.46,457.15 1060.79,457.18 1061.11,457.21 1061.43,457.23 1061.75,457.26 1062.07,457.29 1062.39,457.32 1062.72,457.34 1063.04,457.37 1063.36,457.40 1063.68,457.42 1064.00,457.45 1064.32,457.47 1064.65,457.50 1064.97,457.53 1065.29,457.55 1065.61,457.57 1065.93,457.60 1066.25,457.62 1066.58,457.65 1066.90,457.67 1067.22,457.69 1067.54,457.72 1067.86,457.74 1068.18,457.76 1068.51,457.79 1068.83,457.81 1069.15,457.83 1069.47,457.85 1069.79,457.87 1070.11,457.89 1070.44,457.92 1070.76,457.94 1071.08,457.96 1071.40,457.98 1071.72,458.00 1072.04,458.02 1072.37,458.04 1072.69,458.06 1073.01,458.08 1073.33,458.10 1073.65,458.12 1073.97,458.14 1074.30,458.15 1074.62,458.17 1074.94,458.19 1075.26,458.21 1075.58,458.23 1075.90,458.25 1076.23,458.26 1076.55,458.28 1076.87,458.30 1077.19,458.32 1077.51,458.33 1077.83,458.35 1078.16,458.37 1078.48,458.38 1078.80,458.40 1079.12,458.41 1079.44,458.43 1079.76,458.45 1080.09,458.46 1080.41,458.48 1080.73,458.49 1081.05,458.51 1081.37,458.52 1081.69,458.54 1082.02,458.55 1082.34,458.57 1082.66,458.58 1082.98,458.60 1083.30,458.61 1083.62,458.62 1083.95,458.64 1084.27,458.65 1084.59,458.67 1084.91,458.68 1085.23,458.69 1085.55,458.71 1085.88,458.72 1086.20,458.73 1086.52,458.74 1086.84,458.76 1087.16,458.77 1087.48,458.78 1087.81,458.79 1088.13,458.81 1088.45,458.82 1088.77,458.83 1089.09,458.84 1089.41,458.85 1089.74,458.87 1090.06,458.88 1090.38,458.89 1090.70,458.90 1091.02,458.91 1091.34,458.92 1091.67,458.93 1091.99,458.94 1092.31,458.95 1092.63,458.97 1092.95,458.98 1093.27,458.99 1093.60,459.00 1093.92,459.01 1094.24,459.02 1094.56,459.03 1094.88,459.04 1095.20,459.05 1095.53,459.06 1095.85,459.07 1096.17,459.08 1096.49,459.08 1096.81,459.09 1097.13,459.10 1097.46,459.11 1097.78,459.12 1098.10,459.13 1098.42,459.14 1098.74,459.15 1099.06,459.16 1099.39,459.16 1099.71,459.17 1100.03,459.18 1100.35,459.19 1100.67,459.20 1100.99,459.21 1101.32,459.21 1101.64,459.22 1101.96,459.23 1102.28,459.24 1102.60,459.25 1102.92,459.25 1103.25,459.26 1103.57,459.27 1103.89,459.28 1104.21,459.28 1104.53,459.29 1104.85,459.30 1105.18,459.30 1105.50,459.31 1105.82,459.32 1106.14,459.33 1106.46,459.33 1106.78,459.34 1107.11,459.35 1107.43,459.35 1107.75,459.36 1108.07,459.37 1108.39,459.37 1108.71,459.38 1109.04,459.39 1109.36,459.39 1109.68,459.40 1110.00,459.40" fill="none" stroke="#c05621" stroke-width="2.2" stroke-linejoin="round" stroke-linecap="round" />
<text x="678" y="128" font-family="Arial, sans-serif" font-size="12" fill="#c05621">gamma-exchange NGP</text>
<polyline points="660.00,85.00 660.32,85.00 660.64,85.01 660.96,85.02 661.29,85.02 661.61,85.03 661.93,85.04 662.25,85.04 662.57,85.05 662.89,85.06 663.22,85.06 663.54,85.07 663.86,85.08 664.18,85.08 664.50,85.09 664.82,85.10 665.15,85.11 665.47,85.11 665.79,85.12 666.11,85.13 666.43,85.14 666.75,85.15 667.08,85.15 667.40,85.16 667.72,85.17 668.04,85.18 668.36,85.19 668.68,85.19 669.01,85.20 669.33,85.21 669.65,85.22 669.97,85.23 670.29,85.24 670.61,85.25 670.94,85.25 671.26,85.26 671.58,85.27 671.90,85.28 672.22,85.29 672.54,85.30 672.87,85.31 673.19,85.32 673.51,85.33 673.83,85.34 674.15,85.35 674.47,85.36 674.80,85.37 675.12,85.38 675.44,85.39 675.76,85.40 676.08,85.41 676.40,85.42 676.73,85.43 677.05,85.44 677.37,85.45 677.69,85.46 678.01,85.48 678.33,85.49 678.66,85.50 678.98,85.51 679.30,85.52 679.62,85.53 679.94,85.54 680.26,85.56 680.59,85.57 680.91,85.58 681.23,85.59 681.55,85.61 681.87,85.62 682.19,85.63 682.52,85.64 682.84,85.66 683.16,85.67 683.48,85.68 683.80,85.70 684.12,85.71 684.45,85.72 684.77,85.74 685.09,85.75 685.41,85.77 685.73,85.78 686.05,85.79 686.38,85.81 686.70,85.82 687.02,85.84 687.34,85.85 687.66,85.87 687.98,85.88 688.31,85.90 688.63,85.91 688.95,85.93 689.27,85.95 689.59,85.96 689.91,85.98 690.24,85.99 690.56,86.01 690.88,86.03 691.20,86.04 691.52,86.06 691.84,86.08 692.17,86.10 692.49,86.11 692.81,86.13 693.13,86.15 693.45,86.17 693.77,86.19 694.10,86.20 694.42,86.22 694.74,86.24 695.06,86.26 695.38,86.28 695.70,86.30 696.03,86.32 696.35,86.34 696.67,86.36 696.99,86.38 697.31,86.40 697.63,86.42 697.96,86.44 698.28,86.46 698.60,86.48 698.92,86.50 699.24,86.53 699.56,86.55 699.89,86.57 700.21,86.59 700.53,86.62 700.85,86.64 701.17,86.66 701.49,86.68 701.82,86.71 702.14,86.73 702.46,86.76 702.78,86.78 703.10,86.80 703.42,86.83 703.75,86.85 704.07,86.88 704.39,86.91 704.71,86.93 705.03,86.96 705.35,86.98 705.68,87.01 706.00,87.04 706.32,87.06 706.64,87.09 706.96,87.12 707.28,87.15 707.61,87.18 707.93,87.20 708.25,87.23 708.57,87.26 708.89,87.29 709.21,87.32 709.54,87.35 709.86,87.38 710.18,87.41 710.50,87.44 710.82,87.47 711.14,87.51 711.47,87.54 711.79,87.57 712.11,87.60 712.43,87.63 712.75,87.67 713.07,87.70 713.40,87.73 713.72,87.77 714.04,87.80 714.36,87.84 714.68,87.87 715.00,87.91 715.33,87.94 715.65,87.98 715.97,88.02 716.29,88.05 716.61,88.09 716.93,88.13 717.26,88.17 717.58,88.21 717.90,88.25 718.22,88.29 718.54,88.32 718.86,88.36 719.19,88.41 719.51,88.45 719.83,88.49 720.15,88.53 720.47,88.57 720.79,88.61 721.12,88.66 721.44,88.70 721.76,88.74 722.08,88.79 722.40,88.83 722.72,88.88 723.05,88.92 723.37,88.97 723.69,89.02 724.01,89.06 724.33,89.11 724.65,89.16 724.97,89.21 725.30,89.26 725.62,89.31 725.94,89.36 726.26,89.41 726.58,89.46 726.90,89.51 727.23,89.56 727.55,89.62 727.87,89.67 728.19,89.72 728.51,89.78 728.83,89.83 729.16,89.89 729.48,89.94 729.80,90.00 730.12,90.06 730.44,90.11 730.76,90.17 731.09,90.23 731.41,90.29 731.73,90.35 732.05,90.41 732.37,90.47 732.69,90.53 733.02,90.60 733.34,90.66 733.66,90.72 733.98,90.79 734.30,90.85 734.62,90.92 734.95,90.98 735.27,91.05 735.59,91.12 735.91,91.19 736.23,91.25 736.55,91.32 736.88,91.39 737.20,91.46 737.52,91.54 737.84,91.61 738.16,91.68 738.48,91.76 738.81,91.83 739.13,91.91 739.45,91.98 739.77,92.06 740.09,92.14 740.41,92.22 740.74,92.29 741.06,92.37 741.38,92.46 741.70,92.54 742.02,92.62 742.34,92.70 742.67,92.79 742.99,92.87 743.31,92.96 743.63,93.04 743.95,93.13 744.27,93.22 744.60,93.31 744.92,93.40 745.24,93.49 745.56,93.58 745.88,93.68 746.20,93.77 746.53,93.86 746.85,93.96 747.17,94.06 747.49,94.15 747.81,94.25 748.13,94.35 748.46,94.45 748.78,94.56 749.10,94.66 749.42,94.76 749.74,94.87 750.06,94.97 750.39,95.08 750.71,95.19 751.03,95.30 751.35,95.41 751.67,95.52 751.99,95.63 752.32,95.74 752.64,95.86 752.96,95.97 753.28,96.09 753.60,96.21 753.92,96.33 754.25,96.45 754.57,96.57 754.89,96.69 755.21,96.82 755.53,96.94 755.85,97.07 756.18,97.20 756.50,97.33 756.82,97.46 757.14,97.59 757.46,97.72 757.78,97.86 758.11,97.99 758.43,98.13 758.75,98.27 759.07,98.41 759.39,98.55 759.71,98.69 760.04,98.83 760.36,98.98 760.68,99.13 761.00,99.28 761.32,99.43 761.64,99.58 761.97,99.73 762.29,99.88 762.61,100.04 762.93,100.20 763.25,100.36 763.57,100.52 763.90,100.68 764.22,100.84 764.54,101.01 764.86,101.18 765.18,101.35 765.50,101.52 765.83,101.69 766.15,101.86 766.47,102.04 766.79,102.22 767.11,102.40 767.43,102.58 767.76,102.76 768.08,102.95 768.40,103.13 768.72,103.32 769.04,103.51 769.36,103.71 769.69,103.90 770.01,104.10 770.33,104.29 770.65,104.49 770.97,104.70 771.29,104.90 771.62,105.11 771.94,105.32 772.26,105.53 772.58,105.74 772.90,105.96 773.22,106.17 773.55,106.39 773.87,106.61 774.19,106.84 774.51,107.06 774.83,107.29 775.15,107.52 775.48,107.75 775.80,107.99 776.12,108.23 776.44,108.47 776.76,108.71 777.08,108.96 777.41,109.20 777.73,109.45 778.05,109.71 778.37,109.96 778.69,110.22 779.01,110.48 779.34,110.74 779.66,111.01 779.98,111.28 780.30,111.55 780.62,111.82 780.94,112.10 781.27,112.38 781.59,112.66 781.91,112.94 782.23,113.23 782.55,113.52 782.87,113.82 783.20,114.11 783.52,114.41 783.84,114.72 784.16,115.02 784.48,115.33 784.80,115.65 785.13,115.96 785.45,116.28 785.77,116.60 786.09,116.93 786.41,117.26 786.73,117.59 787.06,117.92 787.38,118.26 787.70,118.61 788.02,118.95 788.34,119.30 788.66,119.65 788.98,120.01 789.31,120.37 789.63,120.74 789.95,121.10 790.27,121.48 790.59,121.85 790.91,122.23 791.24,122.61 791.56,123.00 791.88,123.39 792.20,123.79 792.52,124.19 792.84,124.59 793.17,125.00 793.49,125.41 793.81,125.83 794.13,126.25 794.45,126.67 794.77,127.10 795.10,127.53 795.42,127.97 795.74,128.41 796.06,128.86 796.38,129.31 796.70,129.77 797.03,130.23 797.35,130.70 797.67,131.17 797.99,131.64 798.31,132.12 798.63,132.61 798.96,133.10 799.28,133.59 799.60,134.09 799.92,134.60 800.24,135.11 800.56,135.63 800.89,136.15 801.21,136.67 801.53,137.21 801.85,137.74 802.17,138.29 802.49,138.83 802.82,139.39 803.14,139.95 803.46,140.51 803.78,141.08 804.10,141.66 804.42,142.24 804.75,142.83 805.07,143.43 805.39,144.03 805.71,144.63 806.03,145.24 806.35,145.86 806.68,146.49 807.00,147.12 807.32,147.75 807.64,148.40 807.96,149.05 808.28,149.70 808.61,150.37 808.93,151.04 809.25,151.71 809.57,152.39 809.89,153.08 810.21,153.78 810.54,154.48 810.86,155.19 811.18,155.90 811.50,156.63 811.82,157.36 812.14,158.09 812.47,158.84 812.79,159.59 813.11,160.34 813.43,161.11 813.75,161.88 814.07,162.66 814.40,163.44 814.72,164.23 815.04,165.03 815.36,165.84 815.68,166.65 816.00,167.47 816.33,168.30 816.65,169.14 816.97,169.98 817.29,170.83 817.61,171.69 817.93,172.55 818.26,173.42 818.58,174.30 818.90,175.19 819.22,176.08 819.54,176.98 819.86,177.89 820.19,178.81 820.51,179.73 820.83,180.66 821.15,181.60 821.47,182.54 821.79,183.49 822.12,184.45 822.44,185.42 822.76,186.39 823.08,187.37 823.40,188.36 823.72,189.35 824.05,190.35 824.37,191.36 824.69,192.37 825.01,193.39 825.33,194.42 825.65,195.45 825.98,196.49 826.30,197.54 826.62,198.59 826.94,199.65 827.26,200.72 827.58,201.79 827.91,202.86 828.23,203.95 828.55,205.04 828.87,206.13 829.19,207.23 829.51,208.34 829.84,209.45 830.16,210.57 830.48,211.69 830.80,212.81 831.12,213.95 831.44,215.08 831.77,216.22 832.09,217.37 832.41,218.52 832.73,219.67 833.05,220.83 833.37,221.99 833.70,223.16 834.02,224.32 834.34,225.50 834.66,226.67 834.98,227.85 835.30,229.03 835.63,230.22 835.95,231.40 836.27,232.59 836.59,233.78 836.91,234.98 837.23,236.17 837.56,237.37 837.88,238.57 838.20,239.77 838.52,240.97 838.84,242.17 839.16,243.37 839.49,244.57 839.81,245.78 840.13,246.98 840.45,248.18 840.77,249.39 841.09,250.59 841.42,251.79 841.74,252.99 842.06,254.19 842.38,255.39 842.70,256.58 843.02,257.78 843.35,258.97 843.67,260.16 843.99,261.35 844.31,262.54 844.63,263.72 844.95,264.90 845.28,266.08 845.60,267.26 845.92,268.43 846.24,269.59 846.56,270.76 846.88,271.92 847.21,273.07 847.53,274.22 847.85,275.37 848.17,276.51 848.49,277.65 848.81,278.78 849.14,279.91 849.46,281.03 849.78,282.15 850.10,283.26 850.42,284.36 850.74,285.46 851.07,286.55 851.39,287.64 851.71,288.72 852.03,289.79 852.35,290.86 852.67,291.92 852.99,292.97 853.32,294.01 853.64,295.05 853.96,296.08 854.28,297.11 854.60,298.12 854.92,299.13 855.25,300.13 855.57,301.12 855.89,302.11 856.21,303.09 856.53,304.05 856.85,305.01 857.18,305.97 857.50,306.91 857.82,307.85 858.14,308.77 858.46,309.69 858.78,310.60 859.11,311.50 859.43,312.39 859.75,313.27 860.07,314.15 860.39,315.01 860.71,315.87 861.04,316.72 861.36,317.56 861.68,318.39 862.00,319.21 862.32,320.02 862.64,320.82 862.97,321.61 863.29,322.40 863.61,323.17 863.93,323.93 864.25,324.69 864.57,325.44 864.90,326.18 865.22,326.90 865.54,327.62 865.86,328.33 866.18,329.03 866.50,329.73 866.83,330.41 867.15,331.08 867.47,331.75 867.79,332.40 868.11,333.05 868.43,333.68 868.76,334.31 869.08,334.93 869.40,335.54 869.72,336.14 870.04,336.74 870.36,337.32 870.69,337.89 871.01,338.46 871.33,339.02 871.65,339.57 871.97,340.11 872.29,340.64 872.62,341.16 872.94,341.68 873.26,342.18 873.58,342.68 873.90,343.17 874.22,343.65 874.55,344.12 874.87,344.59 875.19,345.05 875.51,345.49 875.83,345.94 876.15,346.37 876.48,346.79 876.80,347.21 877.12,347.62 877.44,348.02 877.76,348.42 878.08,348.80 878.41,349.18 878.73,349.56 879.05,349.92 879.37,350.28 879.69,350.63 880.01,350.97 880.34,351.31 880.66,351.64 880.98,351.96 881.30,352.28 881.62,352.59 881.94,352.89 882.27,353.19 882.59,353.47 882.91,353.76 883.23,354.03 883.55,354.30 883.87,354.57 884.20,354.83 884.52,355.08 884.84,355.32 885.16,355.56 885.48,355.80 885.80,356.03 886.13,356.25 886.45,356.47 886.77,356.68 887.09,356.88 887.41,357.08 887.73,357.28 888.06,357.47 888.38,357.65 888.70,357.83 889.02,358.00 889.34,358.17 889.66,358.34 889.99,358.49 890.31,358.65 890.63,358.80 890.95,358.94 891.27,359.08 891.59,359.22 891.92,359.35 892.24,359.47 892.56,359.60 892.88,359.71 893.20,359.83 893.52,359.93 893.85,360.04 894.17,360.14 894.49,360.23 894.81,360.33 895.13,360.42 895.45,360.50 895.78,360.58 896.10,360.66 896.42,360.73 896.74,360.80 897.06,360.86 897.38,360.93 897.71,360.98 898.03,361.04 898.35,361.09 898.67,361.14 898.99,361.18 899.31,361.22 899.64,361.26 899.96,361.30 900.28,361.33 900.60,361.36 900.92,361.38 901.24,361.41 901.57,361.43 901.89,361.44 902.21,361.46 902.53,361.47 902.85,361.48 903.17,361.48 903.50,361.48 903.82,361.48 904.14,361.48 904.46,361.48 904.78,361.47 905.10,361.46 905.43,361.45 905.75,361.43 906.07,361.41 906.39,361.39 906.71,361.37 907.03,361.35 907.36,361.32 907.68,361.29 908.00,361.26 908.32,361.23 908.64,361.19 908.96,361.16 909.29,361.12 909.61,361.08 909.93,361.03 910.25,360.99 910.57,360.94 910.89,360.89 911.22,360.84 911.54,360.79 911.86,360.74 912.18,360.68 912.50,360.62 912.82,360.56 913.15,360.50 913.47,360.44 913.79,360.38 914.11,360.31 914.43,360.25 914.75,360.18 915.08,360.11 915.40,360.04 915.72,359.96 916.04,359.89 916.36,359.82 916.68,359.74 917.01,359.66 917.33,359.58 917.65,359.50 917.97,359.42 918.29,359.34 918.61,359.26 918.93,359.17 919.26,359.09 919.58,359.00 919.90,358.91 920.22,358.82 920.54,358.73 920.86,358.64 921.19,358.55 921.51,358.46 921.83,358.37 922.15,358.27 922.47,358.18 922.79,358.08 923.12,357.99 923.44,357.89 923.76,357.79 924.08,357.69 924.40,357.59 924.72,357.49 925.05,357.39 925.37,357.29 925.69,357.19 926.01,357.09 926.33,356.98 926.65,356.88 926.98,356.78 927.30,356.67 927.62,356.57 927.94,356.46 928.26,356.36 928.58,356.25 928.91,356.14 929.23,356.04 929.55,355.93 929.87,355.82 930.19,355.71 930.51,355.61 930.84,355.50 931.16,355.39 931.48,355.28 931.80,355.17 932.12,355.06 932.44,354.95 932.77,354.84 933.09,354.73 933.41,354.62 933.73,354.51 934.05,354.40 934.37,354.29 934.70,354.18 935.02,354.07 935.34,353.95 935.66,353.84 935.98,353.73 936.30,353.62 936.63,353.51 936.95,353.40 937.27,353.29 937.59,353.18 937.91,353.06 938.23,352.95 938.56,352.84 938.88,352.73 939.20,352.62 939.52,352.51 939.84,352.40 940.16,352.29 940.49,352.18 940.81,352.07 941.13,351.96 941.45,351.85 941.77,351.74 942.09,351.63 942.42,351.52 942.74,351.41 943.06,351.30 943.38,351.19 943.70,351.08 944.02,350.98 944.35,350.87 944.67,350.76 944.99,350.65 945.31,350.54 945.63,350.44 945.95,350.33 946.28,350.22 946.60,350.12 946.92,350.01 947.24,349.91 947.56,349.80 947.88,349.70 948.21,349.59 948.53,349.49 948.85,349.38 949.17,349.28 949.49,349.18 949.81,349.07 950.14,348.97 950.46,348.87 950.78,348.77 951.10,348.67 951.42,348.56 951.74,348.46 952.07,348.36 952.39,348.26 952.71,348.16 953.03,348.07 953.35,347.97 953.67,347.87 954.00,347.77 954.32,347.67 954.64,347.58 954.96,347.48 955.28,347.38 955.60,347.29 955.93,347.19 956.25,347.10 956.57,347.00 956.89,346.91 957.21,346.82 957.53,346.72 957.86,346.63 958.18,346.54 958.50,346.45 958.82,346.36 959.14,346.27 959.46,346.18 959.79,346.09 960.11,346.00 960.43,345.91 960.75,345.82 961.07,345.73 961.39,345.65 961.72,345.56 962.04,345.47 962.36,345.39 962.68,345.30 963.00,345.22 963.32,345.13 963.65,345.05 963.97,344.97 964.29,344.88 964.61,344.80 964.93,344.72 965.25,344.64 965.58,344.56 965.90,344.48 966.22,344.40 966.54,344.32 966.86,344.24 967.18,344.16 967.51,344.08 967.83,344.01 968.15,343.93 968.47,343.85 968.79,343.78 969.11,343.70 969.44,343.63 969.76,343.55 970.08,343.48 970.40,343.41 970.72,343.33 971.04,343.26 971.37,343.19 971.69,343.12 972.01,343.05 972.33,342.98 972.65,342.91 972.97,342.84 973.30,342.77 973.62,342.70 973.94,342.63 974.26,342.56 974.58,342.50 974.90,342.43 975.23,342.36 975.55,342.30 975.87,342.23 976.19,342.17 976.51,342.10 976.83,342.04 977.16,341.98 977.48,341.91 977.80,341.85 978.12,341.79 978.44,341.73 978.76,341.67 979.09,341.60 979.41,341.54 979.73,341.48 980.05,341.43 980.37,341.37 980.69,341.31 981.02,341.25 981.34,341.19 981.66,341.14 981.98,341.08 982.30,341.02 982.62,340.97 982.94,340.91 983.27,340.86 983.59,340.80 983.91,340.75 984.23,340.69 984.55,340.64 984.87,340.59 985.20,340.54 985.52,340.48 985.84,340.43 986.16,340.38 986.48,340.33 986.80,340.28 987.13,340.23 987.45,340.18 987.77,340.13 988.09,340.08 988.41,340.04 988.73,339.99 989.06,339.94 989.38,339.89 989.70,339.85 990.02,339.80 990.34,339.75 990.66,339.71 990.99,339.66 991.31,339.62 991.63,339.57 991.95,339.53 992.27,339.49 992.59,339.44 992.92,339.40 993.24,339.36 993.56,339.31 993.88,339.27 994.20,339.23 994.52,339.19 994.85,339.15 995.17,339.11 995.49,339.07 995.81,339.03 996.13,338.99 996.45,338.95 996.78,338.91 997.10,338.87 997.42,338.83 997.74,338.80 998.06,338.76 998.38,338.72 998.71,338.68 999.03,338.65 999.35,338.61 999.67,338.57 999.99,338.54 1000.31,338.50 1000.64,338.47 1000.96,338.43 1001.28,338.40 1001.60,338.37 1001.92,338.33 1002.24,338.30 1002.57,338.27 1002.89,338.23 1003.21,338.20 1003.53,338.17 1003.85,338.14 1004.17,338.10 1004.50,338.07 1004.82,338.04 1005.14,338.01 1005.46,337.98 1005.78,337.95 1006.10,337.92 1006.43,337.89 1006.75,337.86 1007.07,337.83 1007.39,337.80 1007.71,337.77 1008.03,337.74 1008.36,337.72 1008.68,337.69 1009.00,337.66 1009.32,337.63 1009.64,337.60 1009.96,337.58 1010.29,337.55 1010.61,337.52 1010.93,337.50 1011.25,337.47 1011.57,337.45 1011.89,337.42 1012.22,337.40 1012.54,337.37 1012.86,337.35 1013.18,337.32 1013.50,337.30 1013.82,337.27 1014.15,337.25 1014.47,337.22 1014.79,337.20 1015.11,337.18 1015.43,337.15 1015.75,337.13 1016.08,337.11 1016.40,337.09 1016.72,337.06 1017.04,337.04 1017.36,337.02 1017.68,337.00 1018.01,336.98 1018.33,336.96 1018.65,336.94 1018.97,336.91 1019.29,336.89 1019.61,336.87 1019.94,336.85 1020.26,336.83 1020.58,336.81 1020.90,336.79 1021.22,336.77 1021.54,336.75 1021.87,336.74 1022.19,336.72 1022.51,336.70 1022.83,336.68 1023.15,336.66 1023.47,336.64 1023.80,336.62 1024.12,336.61 1024.44,336.59 1024.76,336.57 1025.08,336.55 1025.40,336.54 1025.73,336.52 1026.05,336.50 1026.37,336.49 1026.69,336.47 1027.01,336.45 1027.33,336.44 1027.66,336.42 1027.98,336.40 1028.30,336.39 1028.62,336.37 1028.94,336.36 1029.26,336.34 1029.59,336.33 1029.91,336.31 1030.23,336.30 1030.55,336.28 1030.87,336.27 1031.19,336.25 1031.52,336.24 1031.84,336.22 1032.16,336.21 1032.48,336.20 1032.80,336.18 1033.12,336.17 1033.45,336.16 1033.77,336.14 1034.09,336.13 1034.41,336.12 1034.73,336.10 1035.05,336.09 1035.38,336.08 1035.70,336.06 1036.02,336.05 1036.34,336.04 1036.66,336.03 1036.98,336.01 1037.31,336.00 1037.63,335.99 1037.95,335.98 1038.27,335.97 1038.59,335.96 1038.91,335.94 1039.24,335.93 1039.56,335.92 1039.88,335.91 1040.20,335.90 1040.52,335.89 1040.84,335.88 1041.17,335.87 1041.49,335.86 1041.81,335.84 1042.13,335.83 1042.45,335.82 1042.77,335.81 1043.10,335.80 1043.42,335.79 1043.74,335.78 1044.06,335.77 1044.38,335.76 1044.70,335.75 1045.03,335.75 1045.35,335.74 1045.67,335.73 1045.99,335.72 1046.31,335.71 1046.63,335.70 1046.95,335.69 1047.28,335.68 1047.60,335.67 1047.92,335.66 1048.24,335.65 1048.56,335.65 1048.88,335.64 1049.21,335.63 1049.53,335.62 1049.85,335.61 1050.17,335.60 1050.49,335.60 1050.81,335.59 1051.14,335.58 1051.46,335.57 1051.78,335.56 1052.10,335.56 1052.42,335.55 1052.74,335.54 1053.07,335.53 1053.39,335.53 1053.71,335.52 1054.03,335.51 1054.35,335.51 1054.67,335.50 1055.00,335.49 1055.32,335.48 1055.64,335.48 1055.96,335.47 1056.28,335.46 1056.60,335.46 1056.93,335.45 1057.25,335.44 1057.57,335.44 1057.89,335.43 1058.21,335.42 1058.53,335.42 1058.86,335.41 1059.18,335.41 1059.50,335.40 1059.82,335.39 1060.14,335.39 1060.46,335.38 1060.79,335.38 1061.11,335.37 1061.43,335.36 1061.75,335.36 1062.07,335.35 1062.39,335.35 1062.72,335.34 1063.04,335.34 1063.36,335.33 1063.68,335.33 1064.00,335.32 1064.32,335.31 1064.65,335.31 1064.97,335.30 1065.29,335.30 1065.61,335.29 1065.93,335.29 1066.25,335.28 1066.58,335.28 1066.90,335.27 1067.22,335.27 1067.54,335.26 1067.86,335.26 1068.18,335.26 1068.51,335.25 1068.83,335.25 1069.15,335.24 1069.47,335.24 1069.79,335.23 1070.11,335.23 1070.44,335.22 1070.76,335.22 1071.08,335.22 1071.40,335.21 1071.72,335.21 1072.04,335.20 1072.37,335.20 1072.69,335.19 1073.01,335.19 1073.33,335.19 1073.65,335.18 1073.97,335.18 1074.30,335.18 1074.62,335.17 1074.94,335.17 1075.26,335.16 1075.58,335.16 1075.90,335.16 1076.23,335.15 1076.55,335.15 1076.87,335.15 1077.19,335.14 1077.51,335.14 1077.83,335.13 1078.16,335.13 1078.48,335.13 1078.80,335.12 1079.12,335.12 1079.44,335.12 1079.76,335.11 1080.09,335.11 1080.41,335.11 1080.73,335.11 1081.05,335.10 1081.37,335.10 1081.69,335.10 1082.02,335.09 1082.34,335.09 1082.66,335.09 1082.98,335.08 1083.30,335.08 1083.62,335.08 1083.95,335.08 1084.27,335.07 1084.59,335.07 1084.91,335.07 1085.23,335.06 1085.55,335.06 1085.88,335.06 1086.20,335.06 1086.52,335.05 1086.84,335.05 1087.16,335.05 1087.48,335.05 1087.81,335.04 1088.13,335.04 1088.45,335.04 1088.77,335.04 1089.09,335.03 1089.41,335.03 1089.74,335.03 1090.06,335.03 1090.38,335.02 1090.70,335.02 1091.02,335.02 1091.34,335.02 1091.67,335.01 1091.99,335.01 1092.31,335.01 1092.63,335.01 1092.95,335.01 1093.27,335.00 1093.60,335.00 1093.92,335.00 1094.24,335.00 1094.56,335.00 1094.88,334.99 1095.20,334.99 1095.53,334.99 1095.85,334.99 1096.17,334.99 1096.49,334.98 1096.81,334.98 1097.13,334.98 1097.46,334.98 1097.78,334.98 1098.10,334.97 1098.42,334.97 1098.74,334.97 1099.06,334.97 1099.39,334.97 1099.71,334.97 1100.03,334.96 1100.35,334.96 1100.67,334.96 1100.99,334.96 1101.32,334.96 1101.64,334.96 1101.96,334.95 1102.28,334.95 1102.60,334.95 1102.92,334.95 1103.25,334.95 1103.57,334.95 1103.89,334.94 1104.21,334.94 1104.53,334.94 1104.85,334.94 1105.18,334.94 1105.50,334.94 1105.82,334.94 1106.14,334.93 1106.46,334.93 1106.78,334.93 1107.11,334.93 1107.43,334.93 1107.75,334.93 1108.07,334.93 1108.39,334.92 1108.71,334.92 1109.04,334.92 1109.36,334.92 1109.68,334.92 1110.00,334.92" fill="none" stroke="#2f855a" stroke-width="2.2" stroke-linejoin="round" stroke-linecap="round" />
<text x="678" y="146" font-family="Arial, sans-serif" font-size="12" fill="#2f855a">local beta</text>
</svg>
