<svg xmlns="http://www.w3.org/2000/svg" width="1120" height="560" viewBox="0 0 1120 560">
  <rect width="100%" height="100%" fill="#ffffff" />
  <text x="75" y="42" font-family="Arial, sans-serif" font-size="24" font-weight="700">SOTA benchmark consistency</text>
  <text x="75" y="66" font-family="Arial, sans-serif" font-size="13" fill="#444">Kob-Andersen beta-window conclusion: late von-Schweidler visible, early critical decay hidden in the observed window.</text>
  <line x1="90" y1="430" x2="520" y2="430" stroke="#222" />
  <line x1="90" y1="430" x2="90" y2="105" stroke="#222" />
  <text x="90" y="81" font-family="Arial, sans-serif" font-size="17" font-weight="700">A. Literature claim vs model visibility</text>
  <rect x="90" y="430.00" width="54" height="0.00" fill="#718096" /><text x="82" y="454" font-family="Arial, sans-serif" font-size="11">obs critical</text><rect x="182" y="430.00" width="54" height="0.00" fill="#2b6cb0" /><text x="174" y="454" font-family="Arial, sans-serif" font-size="11">model critical</text><rect x="274" y="105.00" width="54" height="325.00" fill="#718096" /><text x="266" y="454" font-family="Arial, sans-serif" font-size="11">obs von</text><rect x="366" y="105.00" width="54" height="325.00" fill="#c05621" /><text x="358" y="454" font-family="Arial, sans-serif" font-size="11">model von</text>
  <text x="90" y="486" font-family="Arial, sans-serif" font-size="12">overall consistent = 1</text>
  <line x1="660" y1="430" x2="1040" y2="430" stroke="#222" />
  <line x1="660" y1="430" x2="660" y2="105" stroke="#222" />
  <text x="660" y="81" font-family="Arial, sans-serif" font-size="17" font-weight="700">B. Visible beta-window decades</text>
  <polyline points="660.00,430.00 850.00,105.00 1040.00,353.84" fill="none" stroke="#222222" stroke-width="1.2" stroke-linejoin="round" stroke-linecap="round" />
  <circle cx="660.00" cy="430.00" r="5" fill="#2b6cb0" /><text x="672" y="130" font-family="Arial, sans-serif" font-size="12" fill="#2b6cb0">critical window: 0.07</text><circle cx="850.00" cy="105.00" r="5" fill="#c05621" /><text x="672" y="148" font-family="Arial, sans-serif" font-size="12" fill="#c05621">von window: 1.90</text><circle cx="1040.00" cy="353.84" r="5" fill="#555555" /><text x="672" y="166" font-family="Arial, sans-serif" font-size="12" fill="#555555">required: 0.50</text>
</svg>
