<svg xmlns="http://www.w3.org/2000/svg" width="1120" height="560" viewBox="0 0 1120 560">
  <rect width="100%" height="100%" fill="#ffffff" />
  <text x="75" y="42" font-family="Arial, sans-serif" font-size="24" font-weight="700">Thermodynamic entropy closure</text>
  <text x="75" y="66" font-family="Arial, sans-serif" font-size="13" fill="#444">Kauzmann entropy extrapolation drives Adam-Gibbs renewal slowdown.</text>
  
  <line x1="75" y1="430" x2="520" y2="430" stroke="#222" />
  <line x1="75" y1="430" x2="75" y2="90" stroke="#222" />
  <text x="75" y="66" font-family="Arial, sans-serif" font-size="17" font-weight="700">A. Configurational entropy sector</text>
  <text x="221.5" y="468" font-family="Arial, sans-serif" font-size="13">inverse-temperature shift</text>

  <polyline points="75.00,90.00 180.82,217.50 301.86,316.67 424.09,387.50 520.00,430.00" fill="none" stroke="#2b6cb0" stroke-width="2.2" stroke-linejoin="round" stroke-linecap="round" />
<text x="93" y="115" font-family="Arial, sans-serif" font-size="12" fill="#2b6cb0">s_c</text>
<polyline points="75.00,90.00 180.82,160.13 301.86,214.67 424.09,253.63 520.00,277.00" fill="none" stroke="#2f855a" stroke-width="2.2" stroke-linejoin="round" stroke-linecap="round" />
<text x="93" y="133" font-family="Arial, sans-serif" font-size="12" fill="#2f855a">Delta c_p</text>
  
  <line x1="660" y1="430" x2="1040" y2="430" stroke="#222" />
  <line x1="660" y1="430" x2="660" y2="90" stroke="#222" />
  <text x="660" y="66" font-family="Arial, sans-serif" font-size="17" font-weight="700">B. Adam-Gibbs kinetic coupling</text>
  <text x="774.0" y="468" font-family="Arial, sans-serif" font-size="13">inverse-temperature shift</text>

  <polyline points="660.00,430.00 750.37,430.00 853.73,430.00 958.10,429.99 1040.00,90.00" fill="none" stroke="#c05621" stroke-width="2.2" stroke-linejoin="round" stroke-linecap="round" />
<text x="678" y="115" font-family="Arial, sans-serif" font-size="12" fill="#c05621">tau_AG / hot</text>
<polyline points="660.00,430.00 750.37,430.00 853.73,430.00 958.10,430.00 1040.00,429.75" fill="none" stroke="#805ad5" stroke-width="2.2" stroke-linejoin="round" stroke-linecap="round" />
<text x="678" y="133" font-family="Arial, sans-serif" font-size="12" fill="#805ad5">tau_alpha / hot</text>
</svg>
