<svg xmlns="http://www.w3.org/2000/svg" width="1120" height="650" viewBox="0 0 1120 650">
<rect x="0" y="0" width="1120" height="650" fill="#f5f5f1"/>
<style>text{font-family:Arial,sans-serif;fill:#202020;font-size:14px;letter-spacing:0}</style>
<text x="560" y="35" text-anchor="middle" font-size="23" font-weight="bold">Segment-splice paired-excess baseline</text>
<text x="560" y="58" text-anchor="middle" font-size="13">Paired excess over replicate full-path baseline</text>
<text x="28" y="308" text-anchor="middle" font-size="12" transform="rotate(-90 28 308)">higher-order score excess (tolerance units; mean +/- t95)</text>
<rect x="90.0" y="105.0" width="410.0" height="405.0" fill="#ffffff" stroke="#c9c9c3"/><line x1="90.0" y1="424.7" x2="500.0" y2="424.7" stroke="#333333" stroke-width="1.5" stroke-dasharray="7 5"/><text x="97.0" y="417.7" font-size="10">zero excess</text><text x="295.0" y="82" text-anchor="middle" font-size="18" font-weight="bold">within-particle segment shuffle</text><line x1="90.00" y1="156.82" x2="90.00" y2="264.63" stroke="#176b87" stroke-width="1.6"/><line x1="86.00" y1="156.82" x2="94.00" y2="156.82" stroke="#176b87"/><line x1="86.00" y1="264.63" x2="94.00" y2="264.63" stroke="#176b87"/><circle data-identified="true" cx="90.00" cy="210.73" r="5" fill="#176b87" stroke="#176b87" stroke-width="2"/><line x1="148.86" y1="181.25" x2="148.86" y2="305.87" stroke="#176b87" stroke-width="1.6"/><line x1="144.86" y1="181.25" x2="152.86" y2="181.25" stroke="#176b87"/><line x1="144.86" y1="305.87" x2="152.86" y2="305.87" stroke="#176b87"/><circle data-identified="true" cx="148.86" cy="243.56" r="5" fill="#176b87" stroke="#176b87" stroke-width="2"/><line x1="226.67" y1="239.42" x2="226.67" y2="374.86" stroke="#176b87" stroke-width="1.6"/><line x1="222.67" y1="239.42" x2="230.67" y2="239.42" stroke="#176b87"/><line x1="222.67" y1="374.86" x2="230.67" y2="374.86" stroke="#176b87"/><circle data-identified="true" cx="226.67" cy="307.14" r="5" fill="#176b87" stroke="#176b87" stroke-width="2"/><line x1="285.53" y1="261.29" x2="285.53" y2="413.60" stroke="#176b87" stroke-width="1.6"/><line x1="281.53" y1="261.29" x2="289.53" y2="261.29" stroke="#176b87"/><line x1="281.53" y1="413.60" x2="289.53" y2="413.60" stroke="#176b87"/><circle data-identified="true" cx="285.53" cy="337.45" r="5" fill="#176b87" stroke="#176b87" stroke-width="2"/><line x1="363.33" y1="306.65" x2="363.33" y2="461.29" stroke="#176b87" stroke-width="1.6"/><line x1="359.33" y1="306.65" x2="367.33" y2="306.65" stroke="#176b87"/><line x1="359.33" y1="461.29" x2="367.33" y2="461.29" stroke="#176b87"/><circle data-identified="false" cx="363.33" cy="383.97" r="4" fill="#ffffff" stroke="#176b87" stroke-width="2"/><line x1="422.19" y1="324.99" x2="422.19" y2="496.81" stroke="#176b87" stroke-width="1.6"/><line x1="418.19" y1="324.99" x2="426.19" y2="324.99" stroke="#176b87"/><line x1="418.19" y1="496.81" x2="426.19" y2="496.81" stroke="#176b87"/><circle data-identified="false" cx="422.19" cy="410.90" r="4" fill="#ffffff" stroke="#176b87" stroke-width="2"/><line x1="500.00" y1="351.71" x2="500.00" y2="479.88" stroke="#176b87" stroke-width="1.6"/><line x1="496.00" y1="351.71" x2="504.00" y2="351.71" stroke="#176b87"/><line x1="496.00" y1="479.88" x2="504.00" y2="479.88" stroke="#176b87"/><circle data-identified="false" cx="500.00" cy="415.79" r="4" fill="#ffffff" stroke="#176b87" stroke-width="2"/><polyline points="90.00,210.73 148.86,243.56 226.67,307.14 285.53,337.45 363.33,383.97 422.19,410.90 500.00,415.79" fill="none" stroke="#176b87" stroke-width="2"/><line x1="85.0" y1="478.0" x2="90.0" y2="478.0" stroke="#555555"/><text x="81.0" y="482.0" text-anchor="end" font-size="10">-5</text><line x1="85.0" y1="424.7" x2="90.0" y2="424.7" stroke="#555555"/><text x="81.0" y="428.7" text-anchor="end" font-size="10">0</text><line x1="85.0" y1="318.2" x2="90.0" y2="318.2" stroke="#555555"/><text x="81.0" y="322.2" text-anchor="end" font-size="10">10</text><line x1="85.0" y1="211.6" x2="90.0" y2="211.6" stroke="#555555"/><text x="81.0" y="215.6" text-anchor="end" font-size="10">20</text><line x1="85.0" y1="105.0" x2="90.0" y2="105.0" stroke="#555555"/><text x="81.0" y="109.0" text-anchor="end" font-size="10">30</text><text x="90.00" y="532.0" text-anchor="middle" font-size="10">20</text><text x="148.86" y="532.0" text-anchor="middle" font-size="10">40</text><text x="226.67" y="532.0" text-anchor="middle" font-size="10">100</text><text x="285.53" y="532.0" text-anchor="middle" font-size="10">200</text><text x="363.33" y="532.0" text-anchor="middle" font-size="10">500</text><text x="422.19" y="532.0" text-anchor="middle" font-size="10">1000</text><text x="500.00" y="532.0" text-anchor="middle" font-size="10">2500</text><text x="295.0" y="560.0" text-anchor="middle">retained horizon tau_L</text><rect x="620.0" y="105.0" width="410.0" height="405.0" fill="#ffffff" stroke="#c9c9c3"/><line x1="620.0" y1="424.7" x2="1030.0" y2="424.7" stroke="#333333" stroke-width="1.5" stroke-dasharray="7 5"/><text x="627.0" y="417.7" font-size="10">zero excess</text><text x="825.0" y="82" text-anchor="middle" font-size="18" font-weight="bold">cross-particle segment splice</text><line x1="620.00" y1="130.93" x2="620.00" y2="243.53" stroke="#c64b2c" stroke-width="1.6"/><line x1="616.00" y1="130.93" x2="624.00" y2="130.93" stroke="#c64b2c"/><line x1="616.00" y1="243.53" x2="624.00" y2="243.53" stroke="#c64b2c"/><circle data-identified="true" cx="620.00" cy="187.23" r="5" fill="#c64b2c" stroke="#c64b2c" stroke-width="2"/><line x1="678.86" y1="155.34" x2="678.86" y2="289.97" stroke="#c64b2c" stroke-width="1.6"/><line x1="674.86" y1="155.34" x2="682.86" y2="155.34" stroke="#c64b2c"/><line x1="674.86" y1="289.97" x2="682.86" y2="289.97" stroke="#c64b2c"/><circle data-identified="true" cx="678.86" cy="222.66" r="5" fill="#c64b2c" stroke="#c64b2c" stroke-width="2"/><line x1="756.67" y1="189.26" x2="756.67" y2="361.67" stroke="#c64b2c" stroke-width="1.6"/><line x1="752.67" y1="189.26" x2="760.67" y2="189.26" stroke="#c64b2c"/><line x1="752.67" y1="361.67" x2="760.67" y2="361.67" stroke="#c64b2c"/><circle data-identified="true" cx="756.67" cy="275.47" r="5" fill="#c64b2c" stroke="#c64b2c" stroke-width="2"/><line x1="815.53" y1="219.94" x2="815.53" y2="403.77" stroke="#c64b2c" stroke-width="1.6"/><line x1="811.53" y1="219.94" x2="819.53" y2="219.94" stroke="#c64b2c"/><line x1="811.53" y1="403.77" x2="819.53" y2="403.77" stroke="#c64b2c"/><circle data-identified="true" cx="815.53" cy="311.85" r="5" fill="#c64b2c" stroke="#c64b2c" stroke-width="2"/><line x1="893.33" y1="255.95" x2="893.33" y2="462.11" stroke="#c64b2c" stroke-width="1.6"/><line x1="889.33" y1="255.95" x2="897.33" y2="255.95" stroke="#c64b2c"/><line x1="889.33" y1="462.11" x2="897.33" y2="462.11" stroke="#c64b2c"/><circle data-identified="false" cx="893.33" cy="359.03" r="4" fill="#ffffff" stroke="#c64b2c" stroke-width="2"/><line x1="952.19" y1="289.91" x2="952.19" y2="486.71" stroke="#c64b2c" stroke-width="1.6"/><line x1="948.19" y1="289.91" x2="956.19" y2="289.91" stroke="#c64b2c"/><line x1="948.19" y1="486.71" x2="956.19" y2="486.71" stroke="#c64b2c"/><circle data-identified="false" cx="952.19" cy="388.31" r="4" fill="#ffffff" stroke="#c64b2c" stroke-width="2"/><line x1="1030.00" y1="338.65" x2="1030.00" y2="482.18" stroke="#c64b2c" stroke-width="1.6"/><line x1="1026.00" y1="338.65" x2="1034.00" y2="338.65" stroke="#c64b2c"/><line x1="1026.00" y1="482.18" x2="1034.00" y2="482.18" stroke="#c64b2c"/><circle data-identified="false" cx="1030.00" cy="410.41" r="4" fill="#ffffff" stroke="#c64b2c" stroke-width="2"/><polyline points="620.00,187.23 678.86,222.66 756.67,275.47 815.53,311.85 893.33,359.03 952.19,388.31 1030.00,410.41" fill="none" stroke="#c64b2c" stroke-width="2"/><line x1="615.0" y1="478.0" x2="620.0" y2="478.0" stroke="#555555"/><text x="611.0" y="482.0" text-anchor="end" font-size="10">-5</text><line x1="615.0" y1="424.7" x2="620.0" y2="424.7" stroke="#555555"/><text x="611.0" y="428.7" text-anchor="end" font-size="10">0</text><line x1="615.0" y1="318.2" x2="620.0" y2="318.2" stroke="#555555"/><text x="611.0" y="322.2" text-anchor="end" font-size="10">10</text><line x1="615.0" y1="211.6" x2="620.0" y2="211.6" stroke="#555555"/><text x="611.0" y="215.6" text-anchor="end" font-size="10">20</text><line x1="615.0" y1="105.0" x2="620.0" y2="105.0" stroke="#555555"/><text x="611.0" y="109.0" text-anchor="end" font-size="10">30</text><text x="620.00" y="532.0" text-anchor="middle" font-size="10">20</text><text x="678.86" y="532.0" text-anchor="middle" font-size="10">40</text><text x="756.67" y="532.0" text-anchor="middle" font-size="10">100</text><text x="815.53" y="532.0" text-anchor="middle" font-size="10">200</text><text x="893.33" y="532.0" text-anchor="middle" font-size="10">500</text><text x="952.19" y="532.0" text-anchor="middle" font-size="10">1000</text><text x="1030.00" y="532.0" text-anchor="middle" font-size="10">2500</text><text x="825.0" y="560.0" text-anchor="middle">retained horizon tau_L</text>
<circle cx="90" cy="590" r="5" fill="#176b87"/><text x="104" y="595">CI above zero: identified short-horizon degradation</text>
<circle cx="510" cy="590" r="4" fill="#ffffff" stroke="#176b87" stroke-width="2"/><text x="524" y="595">CI crosses zero: unresolved</text>
<text x="560" y="622" text-anchor="middle" font-size="13" font-weight="bold">post-run exploratory; mechanism_unresolved (mechanism unresolved)</text>
<text x="560" y="642" text-anchor="middle" font-size="11">Conditional on the preserved global source-segment schedule; no sufficiency, microscopic, spatial, or thermodynamic claim.</text>
</svg>