<svg xmlns="http://www.w3.org/2000/svg" width="1120" height="580" viewBox="0 0 1120 580">
  <rect width="100%" height="100%" fill="#ffffff" />
  <text x="75" y="42" font-family="Arial, sans-serif" font-size="24" font-weight="700">Joint persistence/exchange inversion protocol</text>
  <text x="75" y="66" font-family="Arial, sans-serif" font-size="13" fill="#444">One anchor alpha time plus D infer clocks; multi-k alpha, late NGP, and chi4 proxy are held out.</text>
  <line x1="75" y1="435" x2="520" y2="435" stroke="#222" />
  <line x1="75" y1="435" x2="75" y2="98" stroke="#222" />
  <text x="75" y="74" font-family="Arial, sans-serif" font-size="17" font-weight="700">A. Joint protocol pass/fail</text>
  <circle cx="165.0" cy="168.0" r="12" fill="#2b6cb0" /><text x="131.0" y="198.0" font-family="Arial, sans-serif" font-size="11">multi-k alpha</text><circle cx="165.0" cy="246.0" r="12" fill="#2f855a" /><text x="131.0" y="276.0" font-family="Arial, sans-serif" font-size="11">late NGP</text><circle cx="165.0" cy="324.0" r="12" fill="#805ad5" /><text x="131.0" y="354.0" font-family="Arial, sans-serif" font-size="11">chi4 proxy</text><text x="110.0" y="470" font-family="Arial, sans-serif" font-size="12">consistent</text><circle cx="430.0" cy="168.0" r="12" fill="#c05621" /><text x="396.0" y="198.0" font-family="Arial, sans-serif" font-size="11">multi-k alpha</text><circle cx="430.0" cy="246.0" r="12" fill="#2f855a" /><text x="396.0" y="276.0" font-family="Arial, sans-serif" font-size="11">late NGP</text><circle cx="430.0" cy="324.0" r="12" fill="#805ad5" /><text x="396.0" y="354.0" font-family="Arial, sans-serif" font-size="11">chi4 proxy</text><text x="375.0" y="470" font-family="Arial, sans-serif" font-size="12">multik alpha mismatch</text>
  <text x="87" y="401" font-family="Arial, sans-serif" font-size="12">consistent case: tau_p/tau_x=8.0, SE growth=3.56, chi4 growth=2.58</text>
  <line x1="660" y1="435" x2="1040" y2="435" stroke="#222" />
  <line x1="660" y1="435" x2="660" y2="98" stroke="#222" />
  <text x="660" y="74" font-family="Arial, sans-serif" font-size="17" font-weight="700">B. Held-out multi-k alpha residual</text>
  <line x1="660" y1="404.8" x2="1040" y2="404.8" stroke="#718096" stroke-dasharray="5 4" />
  <text x="672" y="396.8" font-family="Arial, sans-serif" font-size="12" fill="#718096">|log residual|=0.02</text>
  <circle cx="727.0" cy="435.0" r="7" fill="#2b6cb0" /><text x="715.0" y="485" font-family="Arial, sans-serif" font-size="10">k=0.7</text><circle cx="755.0" cy="435.0" r="7" fill="#2b6cb0" /><text x="743.0" y="501" font-family="Arial, sans-serif" font-size="10">k=1.1</text><circle cx="783.0" cy="435.0" r="7" fill="#2b6cb0" /><text x="771.0" y="517" font-family="Arial, sans-serif" font-size="10">k=1.6</text><text x="700.0" y="470" font-family="Arial, sans-serif" font-size="12">consistent</text><circle cx="917.0" cy="435.0" r="7" fill="#2b6cb0" /><text x="905.0" y="485" font-family="Arial, sans-serif" font-size="10">k=0.7</text><circle cx="945.0" cy="435.0" r="7" fill="#2b6cb0" /><text x="933.0" y="501" font-family="Arial, sans-serif" font-size="10">k=1.1</text><circle cx="973.0" cy="98.0" r="7" fill="#c05621" /><text x="961.0" y="517" font-family="Arial, sans-serif" font-size="10">k=1.6</text><text x="890.0" y="470" font-family="Arial, sans-serif" font-size="12">multik alpha mismatch</text>
</svg>
