<svg xmlns="http://www.w3.org/2000/svg" width="1180" height="620" viewBox="0 0 1180 620">
  <rect width="100%" height="100%" fill="#ffffff" />
  <text x="80" y="42" font-family="Arial, sans-serif" font-size="24" font-weight="700">Barrier-facilitation signature phase diagram</text>
  <text x="80" y="66" font-family="Arial, sans-serif" font-size="13" fill="#444">Cells show supported dynamic signatures. Full closure needs delay-barrier growth and finite-exchange growth.</text>
  <line x1="95" y1="500" x2="690" y2="500" stroke="#222" />
  <line x1="95" y1="500" x2="95" y2="95" stroke="#222" />
  <text x="95" y="71" font-family="Arial, sans-serif" font-size="17" font-weight="700">A. Dynamic-signature closure grid</text>
  <text x="35" y="436.50" font-family="Arial, sans-serif" font-size="12">gap=0</text><rect x="95.00" y="365.00" width="195.33" height="132.00" fill="rgb(220,106,130)" stroke="#ffffff" /><text x="109.00" y="436.50" font-family="Arial, sans-serif" font-size="12" fill="#111">7/9</text><rect x="293.33" y="365.00" width="195.33" height="132.00" fill="#2f855a" stroke="#ffffff" /><text x="307.33" y="436.50" font-family="Arial, sans-serif" font-size="12" fill="#111">9/9</text><rect x="491.67" y="365.00" width="195.33" height="132.00" fill="#2f855a" stroke="#ffffff" /><text x="505.67" y="436.50" font-family="Arial, sans-serif" font-size="12" fill="#111">9/9</text><text x="35" y="301.50" font-family="Arial, sans-serif" font-size="12">gap=1.5</text><rect x="95.00" y="230.00" width="195.33" height="132.00" fill="rgb(220,106,130)" stroke="#ffffff" /><text x="109.00" y="301.50" font-family="Arial, sans-serif" font-size="12" fill="#111">7/9</text><rect x="293.33" y="230.00" width="195.33" height="132.00" fill="#2f855a" stroke="#ffffff" /><text x="307.33" y="301.50" font-family="Arial, sans-serif" font-size="12" fill="#111">9/9</text><rect x="491.67" y="230.00" width="195.33" height="132.00" fill="#2f855a" stroke="#ffffff" /><text x="505.67" y="301.50" font-family="Arial, sans-serif" font-size="12" fill="#111">9/9</text><text x="35" y="166.50" font-family="Arial, sans-serif" font-size="12">gap=3</text><rect x="95.00" y="95.00" width="195.33" height="132.00" fill="rgb(220,95,130)" stroke="#ffffff" /><text x="109.00" y="166.50" font-family="Arial, sans-serif" font-size="12" fill="#111">8/9</text><rect x="293.33" y="95.00" width="195.33" height="132.00" fill="#2f855a" stroke="#ffffff" /><text x="307.33" y="166.50" font-family="Arial, sans-serif" font-size="12" fill="#111">9/9</text><rect x="491.67" y="95.00" width="195.33" height="132.00" fill="#2f855a" stroke="#ffffff" /><text x="505.67" y="166.50" font-family="Arial, sans-serif" font-size="12" fill="#111">9/9</text>
  <text x="107.00" y="528" font-family="Arial, sans-serif" font-size="12">0</text><text x="305.33" y="528" font-family="Arial, sans-serif" font-size="12">2</text><text x="503.67" y="528" font-family="Arial, sans-serif" font-size="12">4</text>
  <text x="280" y="555" font-family="Arial, sans-serif" font-size="13">exchange barrier sum</text>
  <text x="18" y="315" font-family="Arial, sans-serif" font-size="13" transform="rotate(-90 18 315)">delay barrier gap</text>
  <text x="780" y="122" font-family="Arial, sans-serif" font-size="15" font-weight="700">B. Cold SE product at largest delay gap</text>
<line x1="780" y1="265" x2="1110" y2="265" stroke="#222" />
<line x1="780" y1="265" x2="780" y2="140" stroke="#222" />
<rect x="786.00" y="227.31" width="100.00" height="37.69" fill="#2b6cb0" opacity="0.85" />
<text x="786.00" y="285" font-family="Arial, sans-serif" font-size="10">0</text>
<rect x="896.00" y="206.81" width="100.00" height="58.19" fill="#2b6cb0" opacity="0.85" />
<text x="896.00" y="285" font-family="Arial, sans-serif" font-size="10">2</text>
<rect x="1006.00" y="145.00" width="100.00" height="120.00" fill="#2b6cb0" opacity="0.85" />
<text x="1006.00" y="285" font-family="Arial, sans-serif" font-size="10">4</text>
  <text x="780" y="342" font-family="Arial, sans-serif" font-size="15" font-weight="700">C. Heterogeneity growth at largest delay gap</text>
<line x1="780" y1="485" x2="1110" y2="485" stroke="#222" />
<line x1="780" y1="485" x2="780" y2="360" stroke="#222" />
<rect x="786.00" y="474.66" width="100.00" height="10.34" fill="#c05621" opacity="0.85" />
<text x="786.00" y="505" font-family="Arial, sans-serif" font-size="10">0</text>
<rect x="896.00" y="449.78" width="100.00" height="35.22" fill="#c05621" opacity="0.85" />
<text x="896.00" y="505" font-family="Arial, sans-serif" font-size="10">2</text>
<rect x="1006.00" y="365.00" width="100.00" height="120.00" fill="#c05621" opacity="0.85" />
<text x="1006.00" y="505" font-family="Arial, sans-serif" font-size="10">4</text>
</svg>
