<svg xmlns="http://www.w3.org/2000/svg" width="1120" height="560" viewBox="0 0 1120 560">
  <rect width="100%" height="100%" fill="#ffffff" />
  <text x="80" y="42" font-family="Arial, sans-serif" font-size="24" font-weight="700">Closed barrier requirements</text>
  <text x="80" y="66" font-family="Arial, sans-serif" font-size="13" fill="#444">Amplification over the cooling interval is exp(E Delta(1/T)); target growth inverts to E=log(target)/Delta(1/T).</text>
  <line x1="80" y1="430" x2="520" y2="430" stroke="#222" />
  <line x1="80" y1="430" x2="80" y2="90" stroke="#222" />
  <text x="80" y="68" font-family="Arial, sans-serif" font-size="17" font-weight="700">A. Combined slowing amplification</text>
  <text x="24" y="377.33" font-family="Arial, sans-serif" font-size="12">gap=0</text><rect x="80.00" y="316.67" width="143.67" height="110.33" fill="rgb(235,210,150)" stroke="#fff" /><text x="90.00" y="377.33" font-family="Arial, sans-serif" font-size="11">1.0x</text><rect x="226.67" y="316.67" width="143.67" height="110.33" fill="rgb(200,210,150)" stroke="#fff" /><text x="236.67" y="377.33" font-family="Arial, sans-serif" font-size="11">3.4x</text><rect x="373.33" y="316.67" width="143.67" height="110.33" fill="rgb(166,210,150)" stroke="#fff" /><text x="383.33" y="377.33" font-family="Arial, sans-serif" font-size="11">11.6x</text><text x="24" y="264.00" font-family="Arial, sans-serif" font-size="12">gap=1.5</text><rect x="80.00" y="203.33" width="143.67" height="110.33" fill="rgb(209,210,150)" stroke="#fff" /><text x="90.00" y="264.00" font-family="Arial, sans-serif" font-size="11">2.5x</text><rect x="226.67" y="203.33" width="143.67" height="110.33" fill="rgb(175,210,150)" stroke="#fff" /><text x="236.67" y="264.00" font-family="Arial, sans-serif" font-size="11">8.5x</text><rect x="373.33" y="203.33" width="143.67" height="110.33" fill="rgb(140,210,150)" stroke="#fff" /><text x="383.33" y="264.00" font-family="Arial, sans-serif" font-size="11">29.1x</text><text x="24" y="150.67" font-family="Arial, sans-serif" font-size="12">gap=3</text><rect x="80.00" y="90.00" width="143.67" height="110.33" fill="rgb(183,210,150)" stroke="#fff" /><text x="90.00" y="150.67" font-family="Arial, sans-serif" font-size="11">6.3x</text><rect x="226.67" y="90.00" width="143.67" height="110.33" fill="rgb(149,210,150)" stroke="#fff" /><text x="236.67" y="150.67" font-family="Arial, sans-serif" font-size="11">21.4x</text><rect x="373.33" y="90.00" width="143.67" height="110.33" fill="rgb(115,210,150)" stroke="#fff" /><text x="383.33" y="150.67" font-family="Arial, sans-serif" font-size="11">73.0x</text>
  <text x="92.00" y="458" font-family="Arial, sans-serif" font-size="12">0</text><text x="238.67" y="458" font-family="Arial, sans-serif" font-size="12">2</text><text x="385.33" y="458" font-family="Arial, sans-serif" font-size="12">4</text>
  <text x="200" y="485" font-family="Arial, sans-serif" font-size="13">exchange barrier sum</text>
  <text x="18" y="280" font-family="Arial, sans-serif" font-size="13" transform="rotate(-90 18 280)">delay barrier gap</text>
  <line x1="670" y1="430" x2="1040" y2="430" stroke="#222" />
  <line x1="670" y1="430" x2="670" y2="90" stroke="#222" />
  <text x="670" y="68" font-family="Arial, sans-serif" font-size="17" font-weight="700">B. Minimum barriers for target growth</text>
  <rect x="670" y="318.57" width="70" height="111.43" fill="#2b6cb0" opacity="0.88" /><text x="670" y="452" font-family="Arial, sans-serif" font-size="11">lambda tau_d</text><text x="670" y="310.57" font-family="Arial, sans-serif" font-size="11" fill="#2b6cb0">E=3.00</text><text x="670" y="469" font-family="Arial, sans-serif" font-size="10" fill="#555">target 6.3x</text><rect x="775" y="281.43" width="70" height="148.57" fill="#c05621" opacity="0.88" /><text x="775" y="452" font-family="Arial, sans-serif" font-size="11">heterogeneity c</text><text x="775" y="273.43" font-family="Arial, sans-serif" font-size="11" fill="#c05621">E=4.00</text><text x="775" y="469" font-family="Arial, sans-serif" font-size="10" fill="#555">target 11.6x</text><rect x="880" y="170.00" width="70" height="260.00" fill="#805ad5" opacity="0.88" /><text x="880" y="452" font-family="Arial, sans-serif" font-size="11">combined</text><text x="880" y="162.00" font-family="Arial, sans-serif" font-size="11" fill="#805ad5">E=7.00</text><text x="880" y="469" font-family="Arial, sans-serif" font-size="10" fill="#555">target 73.0x</text>
</svg>
