<svg xmlns="http://www.w3.org/2000/svg" width="1180" height="560" viewBox="0 0 1180 560">
  <rect width="100%" height="100%" fill="#ffffff" />
  <text x="75" y="42" font-family="Arial, sans-serif" font-size="23" font-weight="700">Activated barrier and renewal susceptibility diagnostics</text>
  <line x1="75" y1="460" x2="525" y2="460" stroke="#222" />
  <line x1="75" y1="460" x2="75" y2="85" stroke="#222" />
  <text x="75" y="61" font-family="Arial, sans-serif" font-size="17" font-weight="700">K. Renewal-count scattering susceptibility</text>
  <text x="238.0" y="498" font-family="Arial, sans-serif" font-size="13">time</text>

  <polyline points="75.00,460.00 75.38,459.99 75.75,459.96 76.13,459.87 76.50,459.71 76.88,459.46 77.25,459.13 77.63,458.69 78.00,458.14 78.38,457.48 78.75,456.70 79.13,455.79 79.50,454.76 79.88,453.60 80.25,452.31 80.63,450.89 81.01,449.35 81.38,447.69 81.76,445.91 82.13,444.00 82.51,441.99 82.88,439.86 83.26,437.63 83.63,435.30 84.01,432.88 84.38,430.36 84.76,427.76 85.13,425.08 85.51,422.33 85.88,419.51 86.26,416.62 86.63,413.68 87.01,410.68 87.39,407.63 87.76,404.54 88.14,401.40 88.51,398.24 88.89,395.04 89.26,391.82 89.64,388.57 90.01,385.30 90.39,382.02 90.76,378.73 91.14,375.43 91.51,372.13 91.89,368.82 92.26,365.52 92.64,362.21 93.02,358.92 93.39,355.63 93.77,352.36 94.14,349.09 94.52,345.84 94.89,342.61 95.27,339.40 95.64,336.21 96.02,333.04 96.39,329.90 96.77,326.77 97.14,323.68 97.52,320.61 97.89,317.57 98.27,314.56 98.64,311.58 99.02,308.63 99.40,305.71 99.77,302.83 100.15,299.98 100.52,297.16 100.90,294.37 101.27,291.62 101.65,288.90 102.02,286.22 102.40,283.58 102.77,280.97 103.15,278.40 103.52,275.86 103.90,273.36 104.27,270.89 104.65,268.46 105.03,266.07 105.40,263.72 105.78,261.40 106.15,259.11 106.53,256.87 106.90,254.66 107.28,252.48 107.65,250.35 108.03,248.25 108.40,246.18 108.78,244.15 109.15,242.15 109.53,240.19 109.90,238.27 110.28,236.38 110.65,234.52 111.03,232.70 111.41,230.92 111.78,229.16 112.16,227.44 112.53,225.76 112.91,224.11 113.28,222.49 113.66,220.90 114.03,219.34 114.41,217.82 114.78,216.33 115.16,214.87 115.53,213.44 115.91,212.04 116.28,210.68 116.66,209.34 117.04,208.03 117.41,206.76 117.79,205.51 118.16,204.29 118.54,203.10 118.91,201.94 119.29,200.80 119.66,199.70 120.04,198.62 120.41,197.57 120.79,196.54 121.16,195.55 121.54,194.58 121.91,193.63 122.29,192.71 122.66,191.82 123.04,190.95 123.42,190.11 123.79,189.29 124.17,188.49 124.54,187.72 124.92,186.98 125.29,186.25 125.67,185.55 126.04,184.88 126.42,184.22 126.79,183.59 127.17,182.98 127.54,182.39 127.92,181.83 128.29,181.28 128.67,180.76 129.05,180.25 129.42,179.77 129.80,179.31 130.17,178.87 130.55,178.44 130.92,178.04 131.30,177.66 131.67,177.29 132.05,176.94 132.42,176.62 132.80,176.31 133.17,176.02 133.55,175.74 133.92,175.49 134.30,175.25 134.67,175.03 135.05,174.82 135.43,174.64 135.80,174.47 136.18,174.31 136.55,174.17 136.93,174.05 137.30,173.94 137.68,173.85 138.05,173.77 138.43,173.71 138.80,173.66 139.18,173.63 139.55,173.61 139.93,173.61 140.30,173.62 140.68,173.64 141.06,173.68 141.43,173.73 141.81,173.79 142.18,173.87 142.56,173.96 142.93,174.06 143.31,174.18 143.68,174.31 144.06,174.45 144.43,174.60 144.81,174.76 145.18,174.94 145.56,175.12 145.93,175.32 146.31,175.53 146.68,175.75 147.06,175.98 147.44,176.22 147.81,176.47 148.19,176.73 148.56,177.01 148.94,177.29 149.31,177.58 149.69,177.88 150.06,178.19 150.44,178.51 150.81,178.84 151.19,179.18 151.56,179.53 151.94,179.88 152.31,180.25 152.69,180.62 153.07,181.00 153.44,181.40 153.82,181.79 154.19,182.20 154.57,182.61 154.94,183.04 155.32,183.47 155.69,183.90 156.07,184.35 156.44,184.80 156.82,185.26 157.19,185.72 157.57,186.20 157.94,186.68 158.32,187.16 158.69,187.66 159.07,188.15 159.45,188.66 159.82,189.17 160.20,189.69 160.57,190.21 160.95,190.74 161.32,191.28 161.70,191.82 162.07,192.36 162.45,192.91 162.82,193.47 163.20,194.03 163.57,194.60 163.95,195.17 164.32,195.75 164.70,196.33 165.08,196.92 165.45,197.51 165.83,198.11 166.20,198.71 166.58,199.31 166.95,199.92 167.33,200.54 167.70,201.15 168.08,201.77 168.45,202.40 168.83,203.03 169.20,203.66 169.58,204.30 169.95,204.94 170.33,205.58 170.70,206.23 171.08,206.88 171.46,207.53 171.83,208.19 172.21,208.85 172.58,209.51 172.96,210.18 173.33,210.85 173.71,211.52 174.08,212.19 174.46,212.87 174.83,213.55 175.21,214.23 175.58,214.92 175.96,215.61 176.33,216.30 176.71,216.99 177.09,217.68 177.46,218.38 177.84,219.08 178.21,219.78 178.59,220.48 178.96,221.18 179.34,221.89 179.71,222.60 180.09,223.31 180.46,224.02 180.84,224.73 181.21,225.44 181.59,226.16 181.96,226.88 182.34,227.59 182.71,228.31 183.09,229.04 183.47,229.76 183.84,230.48 184.22,231.21 184.59,231.93 184.97,232.66 185.34,233.38 185.72,234.11 186.09,234.84 186.47,235.57 186.84,236.30 187.22,237.04 187.59,237.77 187.97,238.50 188.34,239.23 188.72,239.97 189.10,240.70 189.47,241.44 189.85,242.17 190.22,242.91 190.60,243.64 190.97,244.38 191.35,245.12 191.72,245.85 192.10,246.59 192.47,247.33 192.85,248.07 193.22,248.80 193.60,249.54 193.97,250.28 194.35,251.01 194.72,251.75 195.10,252.49 195.48,253.23 195.85,253.96 196.23,254.70 196.60,255.43 196.98,256.17 197.35,256.91 197.73,257.64 198.10,258.38 198.48,259.11 198.85,259.85 199.23,260.58 199.60,261.31 199.98,262.04 200.35,262.78 200.73,263.51 201.11,264.24 201.48,264.97 201.86,265.70 202.23,266.43 202.61,267.15 202.98,267.88 203.36,268.61 203.73,269.33 204.11,270.06 204.48,270.78 204.86,271.51 205.23,272.23 205.61,272.95 205.98,273.67 206.36,274.39 206.73,275.11 207.11,275.83 207.49,276.54 207.86,277.26 208.24,277.97 208.61,278.69 208.99,279.40 209.36,280.11 209.74,280.82 210.11,281.53 210.49,282.24 210.86,282.94 211.24,283.65 211.61,284.35 211.99,285.06 212.36,285.76 212.74,286.46 213.12,287.16 213.49,287.85 213.87,288.55 214.24,289.24 214.62,289.94 214.99,290.63 215.37,291.32 215.74,292.01 216.12,292.70 216.49,293.39 216.87,294.07 217.24,294.75 217.62,295.44 217.99,296.12 218.37,296.80 218.74,297.47 219.12,298.15 219.50,298.83 219.87,299.50 220.25,300.17 220.62,300.84 221.00,301.51 221.37,302.18 221.75,302.84 222.12,303.50 222.50,304.17 222.87,304.83 223.25,305.49 223.62,306.14 224.00,306.80 224.37,307.45 224.75,308.10 225.13,308.75 225.50,309.40 225.88,310.05 226.25,310.70 226.63,311.34 227.00,311.98 227.38,312.62 227.75,313.26 228.13,313.90 228.50,314.53 228.88,315.17 229.25,315.80 229.63,316.43 230.00,317.05 230.38,317.68 230.75,318.31 231.13,318.93 231.51,319.55 231.88,320.17 232.26,320.78 232.63,321.40 233.01,322.01 233.38,322.63 233.76,323.24 234.13,323.84 234.51,324.45 234.88,325.05 235.26,325.66 235.63,326.26 236.01,326.86 236.38,327.45 236.76,328.05 237.14,328.64 237.51,329.23 237.89,329.82 238.26,330.41 238.64,331.00 239.01,331.58 239.39,332.16 239.76,332.74 240.14,333.32 240.51,333.90 240.89,334.47 241.26,335.05 241.64,335.62 242.01,336.19 242.39,336.75 242.76,337.32 243.14,337.88 243.52,338.44 243.89,339.00 244.27,339.56 244.64,340.11 245.02,340.67 245.39,341.22 245.77,341.77 246.14,342.32 246.52,342.86 246.89,343.41 247.27,343.95 247.64,344.49 248.02,345.03 248.39,345.57 248.77,346.10 249.15,346.63 249.52,347.17 249.90,347.70 250.27,348.22 250.65,348.75 251.02,349.27 251.40,349.79 251.77,350.31 252.15,350.83 252.52,351.35 252.90,351.86 253.27,352.37 253.65,352.88 254.02,353.39 254.40,353.90 254.77,354.40 255.15,354.90 255.53,355.40 255.90,355.90 256.28,356.40 256.65,356.90 257.03,357.39 257.40,357.88 257.78,358.37 258.15,358.86 258.53,359.34 258.90,359.83 259.28,360.31 259.65,360.79 260.03,361.27 260.40,361.75 260.78,362.22 261.16,362.69 261.53,363.16 261.91,363.63 262.28,364.10 262.66,364.57 263.03,365.03 263.41,365.49 263.78,365.95 264.16,366.41 264.53,366.87 264.91,367.32 265.28,367.77 265.66,368.22 266.03,368.67 266.41,369.12 266.78,369.57 267.16,370.01 267.54,370.45 267.91,370.89 268.29,371.33 268.66,371.77 269.04,372.20 269.41,372.64 269.79,373.07 270.16,373.50 270.54,373.92 270.91,374.35 271.29,374.77 271.66,375.20 272.04,375.62 272.41,376.04 272.79,376.45 273.17,376.87 273.54,377.28 273.92,377.69 274.29,378.10 274.67,378.51 275.04,378.92 275.42,379.33 275.79,379.73 276.17,380.13 276.54,380.53 276.92,380.93 277.29,381.33 277.67,381.72 278.04,382.11 278.42,382.50 278.79,382.89 279.17,383.28 279.55,383.67 279.92,384.05 280.30,384.44 280.67,384.82 281.05,385.20 281.42,385.58 281.80,385.95 282.17,386.33 282.55,386.70 282.92,387.07 283.30,387.44 283.67,387.81 284.05,388.18 284.42,388.55 284.80,388.91 285.18,389.27 285.55,389.63 285.93,389.99 286.30,390.35 286.68,390.70 287.05,391.06 287.43,391.41 287.80,391.76 288.18,392.11 288.55,392.46 288.93,392.80 289.30,393.15 289.68,393.49 290.05,393.83 290.43,394.17 290.80,394.51 291.18,394.85 291.56,395.19 291.93,395.52 292.31,395.85 292.68,396.18 293.06,396.51 293.43,396.84 293.81,397.17 294.18,397.49 294.56,397.82 294.93,398.14 295.31,398.46 295.68,398.78 296.06,399.10 296.43,399.41 296.81,399.73 297.19,400.04 297.56,400.35 297.94,400.66 298.31,400.97 298.69,401.28 299.06,401.59 299.44,401.89 299.81,402.19 300.19,402.50 300.56,402.80 300.94,403.10 301.31,403.39 301.69,403.69 302.06,403.99 302.44,404.28 302.81,404.57 303.19,404.86 303.57,405.15 303.94,405.44 304.32,405.73 304.69,406.01 305.07,406.30 305.44,406.58 305.82,406.86 306.19,407.14 306.57,407.42 306.94,407.70 307.32,407.97 307.69,408.25 308.07,408.52 308.44,408.79 308.82,409.07 309.20,409.33 309.57,409.60 309.95,409.87 310.32,410.14 310.70,410.40 311.07,410.66 311.45,410.93 311.82,411.19 312.20,411.45 312.57,411.70 312.95,411.96 313.32,412.22 313.70,412.47 314.07,412.73 314.45,412.98 314.82,413.23 315.20,413.48 315.58,413.73 315.95,413.97 316.33,414.22 316.70,414.46 317.08,414.71 317.45,414.95 317.83,415.19 318.20,415.43 318.58,415.67 318.95,415.91 319.33,416.15 319.70,416.38 320.08,416.62 320.45,416.85 320.83,417.08 321.21,417.31 321.58,417.54 321.96,417.77 322.33,418.00 322.71,418.22 323.08,418.45 323.46,418.67 323.83,418.90 324.21,419.12 324.58,419.34 324.96,419.56 325.33,419.78 325.71,420.00 326.08,420.21 326.46,420.43 326.83,420.64 327.21,420.85 327.59,421.07 327.96,421.28 328.34,421.49 328.71,421.70 329.09,421.91 329.46,422.11 329.84,422.32 330.21,422.52 330.59,422.73 330.96,422.93 331.34,423.13 331.71,423.33 332.09,423.53 332.46,423.73 332.84,423.93 333.22,424.13 333.59,424.32 333.97,424.52 334.34,424.71 334.72,424.90 335.09,425.10 335.47,425.29 335.84,425.48 336.22,425.66 336.59,425.85 336.97,426.04 337.34,426.23 337.72,426.41 338.09,426.60 338.47,426.78 338.84,426.96 339.22,427.14 339.60,427.32 339.97,427.50 340.35,427.68 340.72,427.86 341.10,428.04 341.47,428.21 341.85,428.39 342.22,428.56 342.60,428.73 342.97,428.91 343.35,429.08 343.72,429.25 344.10,429.42 344.47,429.59 344.85,429.76 345.23,429.92 345.60,430.09 345.98,430.25 346.35,430.42 346.73,430.58 347.10,430.75 347.48,430.91 347.85,431.07 348.23,431.23 348.60,431.39 348.98,431.55 349.35,431.71 349.73,431.86 350.10,432.02 350.48,432.17 350.85,432.33 351.23,432.48 351.61,432.64 351.98,432.79 352.36,432.94 352.73,433.09 353.11,433.24 353.48,433.39 353.86,433.54 354.23,433.68 354.61,433.83 354.98,433.98 355.36,434.12 355.73,434.27 356.11,434.41 356.48,434.55 356.86,434.70 357.24,434.84 357.61,434.98 357.99,435.12 358.36,435.26 358.74,435.40 359.11,435.53 359.49,435.67 359.86,435.81 360.24,435.94 360.61,436.08 360.99,436.21 361.36,436.34 361.74,436.48 362.11,436.61 362.49,436.74 362.86,436.87 363.24,437.00 363.62,437.13 363.99,437.26 364.37,437.39 364.74,437.51 365.12,437.64 365.49,437.77 365.87,437.89 366.24,438.02 366.62,438.14 366.99,438.26 367.37,438.39 367.74,438.51 368.12,438.63 368.49,438.75 368.87,438.87 369.25,438.99 369.62,439.11 370.00,439.23 370.37,439.34 370.75,439.46 371.12,439.58 371.50,439.69 371.87,439.81 372.25,439.92 372.62,440.03 373.00,440.15 373.37,440.26 373.75,440.37 374.12,440.48 374.50,440.59 374.87,440.70 375.25,440.81 375.63,440.92 376.00,441.03 376.38,441.14 376.75,441.25 377.13,441.35 377.50,441.46 377.88,441.56 378.25,441.67 378.63,441.77 379.00,441.88 379.38,441.98 379.75,442.08 380.13,442.18 380.50,442.29 380.88,442.39 381.26,442.49 381.63,442.59 382.01,442.69 382.38,442.79 382.76,442.88 383.13,442.98 383.51,443.08 383.88,443.17 384.26,443.27 384.63,443.37 385.01,443.46 385.38,443.56 385.76,443.65 386.13,443.74 386.51,443.84 386.88,443.93 387.26,444.02 387.64,444.11 388.01,444.20 388.39,444.29 388.76,444.38 389.14,444.47 389.51,444.56 389.89,444.65 390.26,444.74 390.64,444.83 391.01,444.91 391.39,445.00 391.76,445.09 392.14,445.17 392.51,445.26 392.89,445.34 393.27,445.43 393.64,445.51 394.02,445.59 394.39,445.68 394.77,445.76 395.14,445.84 395.52,445.92 395.89,446.00 396.27,446.08 396.64,446.16 397.02,446.24 397.39,446.32 397.77,446.40 398.14,446.48 398.52,446.56 398.89,446.64 399.27,446.71 399.65,446.79 400.02,446.87 400.40,446.94 400.77,447.02 401.15,447.09 401.52,447.17 401.90,447.24 402.27,447.32 402.65,447.39 403.02,447.46 403.40,447.53 403.77,447.61 404.15,447.68 404.52,447.75 404.90,447.82 405.28,447.89 405.65,447.96 406.03,448.03 406.40,448.10 406.78,448.17 407.15,448.24 407.53,448.31 407.90,448.37 408.28,448.44 408.65,448.51 409.03,448.58 409.40,448.64 409.78,448.71 410.15,448.77 410.53,448.84 410.90,448.90 411.28,448.97 411.66,449.03 412.03,449.10 412.41,449.16 412.78,449.22 413.16,449.29 413.53,449.35 413.91,449.41 414.28,449.47 414.66,449.53 415.03,449.59 415.41,449.66 415.78,449.72 416.16,449.78 416.53,449.83 416.91,449.89 417.29,449.95 417.66,450.01 418.04,450.07 418.41,450.13 418.79,450.19 419.16,450.24 419.54,450.30 419.91,450.36 420.29,450.41 420.66,450.47 421.04,450.53 421.41,450.58 421.79,450.64 422.16,450.69 422.54,450.74 422.91,450.80 423.29,450.85 423.67,450.91 424.04,450.96 424.42,451.01 424.79,451.07 425.17,451.12 425.54,451.17 425.92,451.22 426.29,451.27 426.67,451.32 427.04,451.38 427.42,451.43 427.79,451.48 428.17,451.53 428.54,451.58 428.92,451.63 429.30,451.67 429.67,451.72 430.05,451.77 430.42,451.82 430.80,451.87 431.17,451.92 431.55,451.96 431.92,452.01 432.30,452.06 432.67,452.11 433.05,452.15 433.42,452.20 433.80,452.24 434.17,452.29 434.55,452.33 434.92,452.38 435.30,452.43 435.68,452.47 436.05,452.51 436.43,452.56 436.80,452.60 437.18,452.65 437.55,452.69 437.93,452.73 438.30,452.78 438.68,452.82 439.05,452.86 439.43,452.90 439.80,452.94 440.18,452.99 440.55,453.03 440.93,453.07 441.31,453.11 441.68,453.15 442.06,453.19 442.43,453.23 442.81,453.27 443.18,453.31 443.56,453.35 443.93,453.39 444.31,453.43 444.68,453.47 445.06,453.51 445.43,453.55 445.81,453.58 446.18,453.62 446.56,453.66 446.93,453.70 447.31,453.73 447.69,453.77 448.06,453.81 448.44,453.85 448.81,453.88 449.19,453.92 449.56,453.95 449.94,453.99 450.31,454.03 450.69,454.06 451.06,454.10 451.44,454.13 451.81,454.17 452.19,454.20 452.56,454.24 452.94,454.27 453.32,454.30 453.69,454.34 454.07,454.37 454.44,454.40 454.82,454.44 455.19,454.47 455.57,454.50 455.94,454.54 456.32,454.57 456.69,454.60 457.07,454.63 457.44,454.67 457.82,454.70 458.19,454.73 458.57,454.76 458.94,454.79 459.32,454.82 459.70,454.85 460.07,454.88 460.45,454.91 460.82,454.95 461.20,454.98 461.57,455.01 461.95,455.04 462.32,455.06 462.70,455.09 463.07,455.12 463.45,455.15 463.82,455.18 464.20,455.21 464.57,455.24 464.95,455.27 465.33,455.30 465.70,455.32 466.08,455.35 466.45,455.38 466.83,455.41 467.20,455.43 467.58,455.46 467.95,455.49 468.33,455.52 468.70,455.54 469.08,455.57 469.45,455.60 469.83,455.62 470.20,455.65 470.58,455.67 470.95,455.70 471.33,455.73 471.71,455.75 472.08,455.78 472.46,455.80 472.83,455.83 473.21,455.85 473.58,455.88 473.96,455.90 474.33,455.93 474.71,455.95 475.08,455.98 475.46,456.00 475.83,456.02 476.21,456.05 476.58,456.07 476.96,456.10 477.34,456.12 477.71,456.14 478.09,456.17 478.46,456.19 478.84,456.21 479.21,456.23 479.59,456.26 479.96,456.28 480.34,456.30 480.71,456.32 481.09,456.35 481.46,456.37 481.84,456.39 482.21,456.41 482.59,456.43 482.96,456.45 483.34,456.48 483.72,456.50 484.09,456.52 484.47,456.54 484.84,456.56 485.22,456.58 485.59,456.60 485.97,456.62 486.34,456.64 486.72,456.66 487.09,456.68 487.47,456.70 487.84,456.72 488.22,456.74 488.59,456.76 488.97,456.78 489.35,456.80 489.72,456.82 490.10,456.84 490.47,456.86 490.85,456.88 491.22,456.90 491.60,456.91 491.97,456.93 492.35,456.95 492.72,456.97 493.10,456.99 493.47,457.01 493.85,457.03 494.22,457.04 494.60,457.06 494.97,457.08 495.35,457.10 495.73,457.11 496.10,457.13 496.48,457.15 496.85,457.17 497.23,457.18 497.60,457.20 497.98,457.22 498.35,457.23 498.73,457.25 499.10,457.27 499.48,457.28 499.85,457.30 500.23,457.32 500.60,457.33 500.98,457.35 501.36,457.37 501.73,457.38 502.11,457.40 502.48,457.41 502.86,457.43 503.23,457.44 503.61,457.46 503.98,457.48 504.36,457.49 504.73,457.51 505.11,457.52 505.48,457.54 505.86,457.55 506.23,457.57 506.61,457.58 506.98,457.60 507.36,457.61 507.74,457.62 508.11,457.64 508.49,457.65 508.86,457.67 509.24,457.68 509.61,457.70 509.99,457.71 510.36,457.72 510.74,457.74 511.11,457.75 511.49,457.76 511.86,457.78 512.24,457.79 512.61,457.81 512.99,457.82 513.37,457.83 513.74,457.85 514.12,457.86 514.49,457.87 514.87,457.88 515.24,457.90 515.62,457.91 515.99,457.92 516.37,457.94 516.74,457.95 517.12,457.96 517.49,457.97 517.87,457.99 518.24,458.00 518.62,458.01 518.99,458.02 519.37,458.03 519.75,458.05 520.12,458.06 520.50,458.07 520.87,458.08 521.25,458.09 521.62,458.10 522.00,458.12 522.37,458.13 522.75,458.14 523.12,458.15 523.50,458.16 523.87,458.17 524.25,458.18 524.62,458.20 525.00,458.21" fill="none" stroke="#2b6cb0" stroke-width="2.2" stroke-linejoin="round" stroke-linecap="round" />
<text x="93" y="110" font-family="Arial, sans-serif" font-size="12" fill="#2b6cb0">k=0.6</text>
<polyline points="75.00,460.00 75.38,459.96 75.75,459.74 76.13,459.27 76.50,458.53 76.88,457.50 77.25,456.15 77.63,454.48 78.00,452.46 78.38,450.08 78.75,447.32 79.13,444.18 79.50,440.64 79.88,436.71 80.25,432.39 80.63,427.68 81.01,422.59 81.38,417.13 81.76,411.32 82.13,405.17 82.51,398.72 82.88,391.97 83.26,384.96 83.63,377.71 84.01,370.24 84.38,362.58 84.76,354.76 85.13,346.80 85.51,338.73 85.88,330.58 86.26,322.36 86.63,314.11 87.01,305.84 87.39,297.57 87.76,289.33 88.14,281.14 88.51,273.01 88.89,264.96 89.26,257.00 89.64,249.16 90.01,241.44 90.39,233.86 90.76,226.42 91.14,219.14 91.51,212.03 91.89,205.09 92.26,198.33 92.64,191.76 93.02,185.38 93.39,179.20 93.77,173.22 94.14,167.44 94.52,161.87 94.89,156.51 95.27,151.36 95.64,146.41 96.02,141.68 96.39,137.15 96.77,132.84 97.14,128.73 97.52,124.82 97.89,121.12 98.27,117.63 98.64,114.33 99.02,111.22 99.40,108.31 99.77,105.60 100.15,103.06 100.52,100.72 100.90,98.55 101.27,96.56 101.65,94.74 102.02,93.09 102.40,91.61 102.77,90.29 103.15,89.12 103.52,88.11 103.90,87.25 104.27,86.54 104.65,85.96 105.03,85.52 105.40,85.22 105.78,85.05 106.15,85.00 106.53,85.07 106.90,85.27 107.28,85.57 107.65,85.99 108.03,86.51 108.40,87.14 108.78,87.87 109.15,88.69 109.53,89.60 109.90,90.61 110.28,91.70 110.65,92.87 111.03,94.12 111.41,95.45 111.78,96.86 112.16,98.33 112.53,99.87 112.91,101.48 113.28,103.14 113.66,104.87 114.03,106.65 114.41,108.49 114.78,110.38 115.16,112.32 115.53,114.30 115.91,116.33 116.28,118.40 116.66,120.51 117.04,122.66 117.41,124.84 117.79,127.06 118.16,129.31 118.54,131.59 118.91,133.89 119.29,136.23 119.66,138.59 120.04,140.97 120.41,143.37 120.79,145.79 121.16,148.23 121.54,150.68 121.91,153.15 122.29,155.64 122.66,158.14 123.04,160.64 123.42,163.16 123.79,165.69 124.17,168.22 124.54,170.76 124.92,173.31 125.29,175.86 125.67,178.41 126.04,180.97 126.42,183.52 126.79,186.08 127.17,188.64 127.54,191.19 127.92,193.74 128.29,196.29 128.67,198.84 129.05,201.38 129.42,203.91 129.80,206.44 130.17,208.97 130.55,211.48 130.92,213.99 131.30,216.49 131.67,218.98 132.05,221.46 132.42,223.94 132.80,226.40 133.17,228.85 133.55,231.29 133.92,233.71 134.30,236.13 134.67,238.53 135.05,240.92 135.43,243.30 135.80,245.66 136.18,248.01 136.55,250.35 136.93,252.67 137.30,254.97 137.68,257.27 138.05,259.54 138.43,261.80 138.80,264.05 139.18,266.28 139.55,268.49 139.93,270.69 140.30,272.87 140.68,275.03 141.06,277.18 141.43,279.31 141.81,281.43 142.18,283.53 142.56,285.61 142.93,287.67 143.31,289.72 143.68,291.75 144.06,293.76 144.43,295.75 144.81,297.73 145.18,299.69 145.56,301.63 145.93,303.56 146.31,305.46 146.68,307.35 147.06,309.23 147.44,311.08 147.81,312.92 148.19,314.74 148.56,316.54 148.94,318.33 149.31,320.10 149.69,321.85 150.06,323.58 150.44,325.30 150.81,326.99 151.19,328.68 151.56,330.34 151.94,331.99 152.31,333.62 152.69,335.23 153.07,336.83 153.44,338.41 153.82,339.97 154.19,341.52 154.57,343.05 154.94,344.56 155.32,346.06 155.69,347.54 156.07,349.01 156.44,350.46 156.82,351.89 157.19,353.31 157.57,354.71 157.94,356.09 158.32,357.46 158.69,358.82 159.07,360.16 159.45,361.48 159.82,362.79 160.20,364.09 160.57,365.37 160.95,366.63 161.32,367.88 161.70,369.12 162.07,370.34 162.45,371.54 162.82,372.73 163.20,373.91 163.57,375.08 163.95,376.23 164.32,377.36 164.70,378.49 165.08,379.59 165.45,380.69 165.83,381.77 166.20,382.84 166.58,383.90 166.95,384.94 167.33,385.97 167.70,386.99 168.08,388.00 168.45,388.99 168.83,389.97 169.20,390.94 169.58,391.89 169.95,392.84 170.33,393.77 170.70,394.69 171.08,395.60 171.46,396.50 171.83,397.39 172.21,398.26 172.58,399.12 172.96,399.98 173.33,400.82 173.71,401.65 174.08,402.47 174.46,403.28 174.83,404.08 175.21,404.87 175.58,405.65 175.96,406.42 176.33,407.18 176.71,407.92 177.09,408.66 177.46,409.39 177.84,410.11 178.21,410.82 178.59,411.52 178.96,412.22 179.34,412.90 179.71,413.57 180.09,414.24 180.46,414.89 180.84,415.54 181.21,416.18 181.59,416.81 181.96,417.43 182.34,418.04 182.71,418.65 183.09,419.24 183.47,419.83 183.84,420.41 184.22,420.98 184.59,421.55 184.97,422.11 185.34,422.66 185.72,423.20 186.09,423.73 186.47,424.26 186.84,424.78 187.22,425.29 187.59,425.80 187.97,426.30 188.34,426.79 188.72,427.28 189.10,427.75 189.47,428.23 189.85,428.69 190.22,429.15 190.60,429.60 190.97,430.05 191.35,430.49 191.72,430.93 192.10,431.35 192.47,431.78 192.85,432.19 193.22,432.60 193.60,433.01 193.97,433.41 194.35,433.80 194.72,434.19 195.10,434.57 195.48,434.95 195.85,435.32 196.23,435.68 196.60,436.04 196.98,436.40 197.35,436.75 197.73,437.10 198.10,437.44 198.48,437.77 198.85,438.11 199.23,438.43 199.60,438.75 199.98,439.07 200.35,439.38 200.73,439.69 201.11,440.00 201.48,440.30 201.86,440.59 202.23,440.88 202.61,441.17 202.98,441.45 203.36,441.73 203.73,442.01 204.11,442.28 204.48,442.54 204.86,442.81 205.23,443.07 205.61,443.32 205.98,443.57 206.36,443.82 206.73,444.06 207.11,444.31 207.49,444.54 207.86,444.78 208.24,445.01 208.61,445.23 208.99,445.46 209.36,445.68 209.74,445.89 210.11,446.11 210.49,446.32 210.86,446.53 211.24,446.73 211.61,446.93 211.99,447.13 212.36,447.33 212.74,447.52 213.12,447.71 213.49,447.90 213.87,448.08 214.24,448.27 214.62,448.44 214.99,448.62 215.37,448.79 215.74,448.97 216.12,449.13 216.49,449.30 216.87,449.46 217.24,449.63 217.62,449.79 217.99,449.94 218.37,450.10 218.74,450.25 219.12,450.40 219.50,450.55 219.87,450.69 220.25,450.83 220.62,450.97 221.00,451.11 221.37,451.25 221.75,451.38 222.12,451.52 222.50,451.65 222.87,451.78 223.25,451.90 223.62,452.03 224.00,452.15 224.37,452.27 224.75,452.39 225.13,452.51 225.50,452.63 225.88,452.74 226.25,452.85 226.63,452.96 227.00,453.07 227.38,453.18 227.75,453.28 228.13,453.39 228.50,453.49 228.88,453.59 229.25,453.69 229.63,453.79 230.00,453.89 230.38,453.98 230.75,454.07 231.13,454.17 231.51,454.26 231.88,454.35 232.26,454.43 232.63,454.52 233.01,454.61 233.38,454.69 233.76,454.77 234.13,454.85 234.51,454.93 234.88,455.01 235.26,455.09 235.63,455.17 236.01,455.24 236.38,455.32 236.76,455.39 237.14,455.46 237.51,455.53 237.89,455.60 238.26,455.67 238.64,455.74 239.01,455.81 239.39,455.87 239.76,455.94 240.14,456.00 240.51,456.06 240.89,456.12 241.26,456.19 241.64,456.25 242.01,456.30 242.39,456.36 242.76,456.42 243.14,456.48 243.52,456.53 243.89,456.59 244.27,456.64 244.64,456.69 245.02,456.74 245.39,456.80 245.77,456.85 246.14,456.90 246.52,456.94 246.89,456.99 247.27,457.04 247.64,457.09 248.02,457.13 248.39,457.18 248.77,457.22 249.15,457.27 249.52,457.31 249.90,457.35 250.27,457.39 250.65,457.43 251.02,457.47 251.40,457.51 251.77,457.55 252.15,457.59 252.52,457.63 252.90,457.67 253.27,457.70 253.65,457.74 254.02,457.78 254.40,457.81 254.77,457.85 255.15,457.88 255.53,457.91 255.90,457.95 256.28,457.98 256.65,458.01 257.03,458.04 257.40,458.07 257.78,458.11 258.15,458.14 258.53,458.16 258.90,458.19 259.28,458.22 259.65,458.25 260.03,458.28 260.40,458.31 260.78,458.33 261.16,458.36 261.53,458.39 261.91,458.41 262.28,458.44 262.66,458.46 263.03,458.49 263.41,458.51 263.78,458.53 264.16,458.56 264.53,458.58 264.91,458.60 265.28,458.62 265.66,458.65 266.03,458.67 266.41,458.69 266.78,458.71 267.16,458.73 267.54,458.75 267.91,458.77 268.29,458.79 268.66,458.81 269.04,458.83 269.41,458.85 269.79,458.87 270.16,458.88 270.54,458.90 270.91,458.92 271.29,458.94 271.66,458.95 272.04,458.97 272.41,458.99 272.79,459.00 273.17,459.02 273.54,459.03 273.92,459.05 274.29,459.07 274.67,459.08 275.04,459.09 275.42,459.11 275.79,459.12 276.17,459.14 276.54,459.15 276.92,459.17 277.29,459.18 277.67,459.19 278.04,459.20 278.42,459.22 278.79,459.23 279.17,459.24 279.55,459.25 279.92,459.27 280.30,459.28 280.67,459.29 281.05,459.30 281.42,459.31 281.80,459.32 282.17,459.33 282.55,459.34 282.92,459.36 283.30,459.37 283.67,459.38 284.05,459.39 284.42,459.40 284.80,459.41 285.18,459.42 285.55,459.42 285.93,459.43 286.30,459.44 286.68,459.45 287.05,459.46 287.43,459.47 287.80,459.48 288.18,459.49 288.55,459.49 288.93,459.50 289.30,459.51 289.68,459.52 290.05,459.53 290.43,459.53 290.80,459.54 291.18,459.55 291.56,459.56 291.93,459.56 292.31,459.57 292.68,459.58 293.06,459.58 293.43,459.59 293.81,459.60 294.18,459.60 294.56,459.61 294.93,459.62 295.31,459.62 295.68,459.63 296.06,459.63 296.43,459.64 296.81,459.65 297.19,459.65 297.56,459.66 297.94,459.66 298.31,459.67 298.69,459.67 299.06,459.68 299.44,459.68 299.81,459.69 300.19,459.69 300.56,459.70 300.94,459.70 301.31,459.71 301.69,459.71 302.06,459.72 302.44,459.72 302.81,459.73 303.19,459.73 303.57,459.74 303.94,459.74 304.32,459.74 304.69,459.75 305.07,459.75 305.44,459.76 305.82,459.76 306.19,459.76 306.57,459.77 306.94,459.77 307.32,459.78 307.69,459.78 308.07,459.78 308.44,459.79 308.82,459.79 309.20,459.79 309.57,459.80 309.95,459.80 310.32,459.80 310.70,459.81 311.07,459.81 311.45,459.81 311.82,459.82 312.20,459.82 312.57,459.82 312.95,459.82 313.32,459.83 313.70,459.83 314.07,459.83 314.45,459.84 314.82,459.84 315.20,459.84 315.58,459.84 315.95,459.85 316.33,459.85 316.70,459.85 317.08,459.85 317.45,459.86 317.83,459.86 318.20,459.86 318.58,459.86 318.95,459.87 319.33,459.87 319.70,459.87 320.08,459.87 320.45,459.87 320.83,459.88 321.21,459.88 321.58,459.88 321.96,459.88 322.33,459.88 322.71,459.89 323.08,459.89 323.46,459.89 323.83,459.89 324.21,459.89 324.58,459.89 324.96,459.90 325.33,459.90 325.71,459.90 326.08,459.90 326.46,459.90 326.83,459.90 327.21,459.91 327.59,459.91 327.96,459.91 328.34,459.91 328.71,459.91 329.09,459.91 329.46,459.91 329.84,459.92 330.21,459.92 330.59,459.92 330.96,459.92 331.34,459.92 331.71,459.92 332.09,459.92 332.46,459.93 332.84,459.93 333.22,459.93 333.59,459.93 333.97,459.93 334.34,459.93 334.72,459.93 335.09,459.93 335.47,459.93 335.84,459.94 336.22,459.94 336.59,459.94 336.97,459.94 337.34,459.94 337.72,459.94 338.09,459.94 338.47,459.94 338.84,459.94 339.22,459.94 339.60,459.95 339.97,459.95 340.35,459.95 340.72,459.95 341.10,459.95 341.47,459.95 341.85,459.95 342.22,459.95 342.60,459.95 342.97,459.95 343.35,459.95 343.72,459.95 344.10,459.96 344.47,459.96 344.85,459.96 345.23,459.96 345.60,459.96 345.98,459.96 346.35,459.96 346.73,459.96 347.10,459.96 347.48,459.96 347.85,459.96 348.23,459.96 348.60,459.96 348.98,459.96 349.35,459.96 349.73,459.97 350.10,459.97 350.48,459.97 350.85,459.97 351.23,459.97 351.61,459.97 351.98,459.97 352.36,459.97 352.73,459.97 353.11,459.97 353.48,459.97 353.86,459.97 354.23,459.97 354.61,459.97 354.98,459.97 355.36,459.97 355.73,459.97 356.11,459.97 356.48,459.97 356.86,459.97 357.24,459.97 357.61,459.98 357.99,459.98 358.36,459.98 358.74,459.98 359.11,459.98 359.49,459.98 359.86,459.98 360.24,459.98 360.61,459.98 360.99,459.98 361.36,459.98 361.74,459.98 362.11,459.98 362.49,459.98 362.86,459.98 363.24,459.98 363.62,459.98 363.99,459.98 364.37,459.98 364.74,459.98 365.12,459.98 365.49,459.98 365.87,459.98 366.24,459.98 366.62,459.98 366.99,459.98 367.37,459.98 367.74,459.98 368.12,459.98 368.49,459.98 368.87,459.98 369.25,459.99 369.62,459.99 370.00,459.99 370.37,459.99 370.75,459.99 371.12,459.99 371.50,459.99 371.87,459.99 372.25,459.99 372.62,459.99 373.00,459.99 373.37,459.99 373.75,459.99 374.12,459.99 374.50,459.99 374.87,459.99 375.25,459.99 375.63,459.99 376.00,459.99 376.38,459.99 376.75,459.99 377.13,459.99 377.50,459.99 377.88,459.99 378.25,459.99 378.63,459.99 379.00,459.99 379.38,459.99 379.75,459.99 380.13,459.99 380.50,459.99 380.88,459.99 381.26,459.99 381.63,459.99 382.01,459.99 382.38,459.99 382.76,459.99 383.13,459.99 383.51,459.99 383.88,459.99 384.26,459.99 384.63,459.99 385.01,459.99 385.38,459.99 385.76,459.99 386.13,459.99 386.51,459.99 386.88,459.99 387.26,459.99 387.64,459.99 388.01,459.99 388.39,459.99 388.76,459.99 389.14,459.99 389.51,459.99 389.89,459.99 390.26,459.99 390.64,459.99 391.01,459.99 391.39,459.99 391.76,459.99 392.14,459.99 392.51,459.99 392.89,459.99 393.27,459.99 393.64,459.99 394.02,460.00 394.39,460.00 394.77,460.00 395.14,460.00 395.52,460.00 395.89,460.00 396.27,460.00 396.64,460.00 397.02,460.00 397.39,460.00 397.77,460.00 398.14,460.00 398.52,460.00 398.89,460.00 399.27,460.00 399.65,460.00 400.02,460.00 400.40,460.00 400.77,460.00 401.15,460.00 401.52,460.00 401.90,460.00 402.27,460.00 402.65,460.00 403.02,460.00 403.40,460.00 403.77,460.00 404.15,460.00 404.52,460.00 404.90,460.00 405.28,460.00 405.65,460.00 406.03,460.00 406.40,460.00 406.78,460.00 407.15,460.00 407.53,460.00 407.90,460.00 408.28,460.00 408.65,460.00 409.03,460.00 409.40,460.00 409.78,460.00 410.15,460.00 410.53,460.00 410.90,460.00 411.28,460.00 411.66,460.00 412.03,460.00 412.41,460.00 412.78,460.00 413.16,460.00 413.53,460.00 413.91,460.00 414.28,460.00 414.66,460.00 415.03,460.00 415.41,460.00 415.78,460.00 416.16,460.00 416.53,460.00 416.91,460.00 417.29,460.00 417.66,460.00 418.04,460.00 418.41,460.00 418.79,460.00 419.16,460.00 419.54,460.00 419.91,460.00 420.29,460.00 420.66,460.00 421.04,460.00 421.41,460.00 421.79,460.00 422.16,460.00 422.54,460.00 422.91,460.00 423.29,460.00 423.67,460.00 424.04,460.00 424.42,460.00 424.79,460.00 425.17,460.00 425.54,460.00 425.92,460.00 426.29,460.00 426.67,460.00 427.04,460.00 427.42,460.00 427.79,460.00 428.17,460.00 428.54,460.00 428.92,460.00 429.30,460.00 429.67,460.00 430.05,460.00 430.42,460.00 430.80,460.00 431.17,460.00 431.55,460.00 431.92,460.00 432.30,460.00 432.67,460.00 433.05,460.00 433.42,460.00 433.80,460.00 434.17,460.00 434.55,460.00 434.92,460.00 435.30,460.00 435.68,460.00 436.05,460.00 436.43,460.00 436.80,460.00 437.18,460.00 437.55,460.00 437.93,460.00 438.30,460.00 438.68,460.00 439.05,460.00 439.43,460.00 439.80,460.00 440.18,460.00 440.55,460.00 440.93,460.00 441.31,460.00 441.68,460.00 442.06,460.00 442.43,460.00 442.81,460.00 443.18,460.00 443.56,460.00 443.93,460.00 444.31,460.00 444.68,460.00 445.06,460.00 445.43,460.00 445.81,460.00 446.18,460.00 446.56,460.00 446.93,460.00 447.31,460.00 447.69,460.00 448.06,460.00 448.44,460.00 448.81,460.00 449.19,460.00 449.56,460.00 449.94,460.00 450.31,460.00 450.69,460.00 451.06,460.00 451.44,460.00 451.81,460.00 452.19,460.00 452.56,460.00 452.94,460.00 453.32,460.00 453.69,460.00 454.07,460.00 454.44,460.00 454.82,460.00 455.19,460.00 455.57,460.00 455.94,460.00 456.32,460.00 456.69,460.00 457.07,460.00 457.44,460.00 457.82,460.00 458.19,460.00 458.57,460.00 458.94,460.00 459.32,460.00 459.70,460.00 460.07,460.00 460.45,460.00 460.82,460.00 461.20,460.00 461.57,460.00 461.95,460.00 462.32,460.00 462.70,460.00 463.07,460.00 463.45,460.00 463.82,460.00 464.20,460.00 464.57,460.00 464.95,460.00 465.33,460.00 465.70,460.00 466.08,460.00 466.45,460.00 466.83,460.00 467.20,460.00 467.58,460.00 467.95,460.00 468.33,460.00 468.70,460.00 469.08,460.00 469.45,460.00 469.83,460.00 470.20,460.00 470.58,460.00 470.95,460.00 471.33,460.00 471.71,460.00 472.08,460.00 472.46,460.00 472.83,460.00 473.21,460.00 473.58,460.00 473.96,460.00 474.33,460.00 474.71,460.00 475.08,460.00 475.46,460.00 475.83,460.00 476.21,460.00 476.58,460.00 476.96,460.00 477.34,460.00 477.71,460.00 478.09,460.00 478.46,460.00 478.84,460.00 479.21,460.00 479.59,460.00 479.96,460.00 480.34,460.00 480.71,460.00 481.09,460.00 481.46,460.00 481.84,460.00 482.21,460.00 482.59,460.00 482.96,460.00 483.34,460.00 483.72,460.00 484.09,460.00 484.47,460.00 484.84,460.00 485.22,460.00 485.59,460.00 485.97,460.00 486.34,460.00 486.72,460.00 487.09,460.00 487.47,460.00 487.84,460.00 488.22,460.00 488.59,460.00 488.97,460.00 489.35,460.00 489.72,460.00 490.10,460.00 490.47,460.00 490.85,460.00 491.22,460.00 491.60,460.00 491.97,460.00 492.35,460.00 492.72,460.00 493.10,460.00 493.47,460.00 493.85,460.00 494.22,460.00 494.60,460.00 494.97,460.00 495.35,460.00 495.73,460.00 496.10,460.00 496.48,460.00 496.85,460.00 497.23,460.00 497.60,460.00 497.98,460.00 498.35,460.00 498.73,460.00 499.10,460.00 499.48,460.00 499.85,460.00 500.23,460.00 500.60,460.00 500.98,460.00 501.36,460.00 501.73,460.00 502.11,460.00 502.48,460.00 502.86,460.00 503.23,460.00 503.61,460.00 503.98,460.00 504.36,460.00 504.73,460.00 505.11,460.00 505.48,460.00 505.86,460.00 506.23,460.00 506.61,460.00 506.98,460.00 507.36,460.00 507.74,460.00 508.11,460.00 508.49,460.00 508.86,460.00 509.24,460.00 509.61,460.00 509.99,460.00 510.36,460.00 510.74,460.00 511.11,460.00 511.49,460.00 511.86,460.00 512.24,460.00 512.61,460.00 512.99,460.00 513.37,460.00 513.74,460.00 514.12,460.00 514.49,460.00 514.87,460.00 515.24,460.00 515.62,460.00 515.99,460.00 516.37,460.00 516.74,460.00 517.12,460.00 517.49,460.00 517.87,460.00 518.24,460.00 518.62,460.00 518.99,460.00 519.37,460.00 519.75,460.00 520.12,460.00 520.50,460.00 520.87,460.00 521.25,460.00 521.62,460.00 522.00,460.00 522.37,460.00 522.75,460.00 523.12,460.00 523.50,460.00 523.87,460.00 524.25,460.00 524.62,460.00 525.00,460.00" fill="none" stroke="#c05621" stroke-width="2.2" stroke-linejoin="round" stroke-linecap="round" />
<text x="93" y="128" font-family="Arial, sans-serif" font-size="12" fill="#c05621">k=1.1</text>
<polyline points="75.00,460.00 75.38,459.90 75.75,459.54 76.13,459.01 76.50,458.37 76.88,457.64 77.25,456.83 77.63,455.93 78.00,454.91 78.38,453.77 78.75,452.49 79.13,451.07 79.50,449.50 79.88,447.77 80.25,445.89 80.63,443.86 81.01,441.68 81.38,439.36 81.76,436.90 82.13,434.33 82.51,431.64 82.88,428.86 83.26,426.00 83.63,423.07 84.01,420.08 84.38,417.06 84.76,414.02 85.13,410.97 85.51,407.92 85.88,404.90 86.26,401.91 86.63,398.96 87.01,396.07 87.39,393.24 87.76,390.48 88.14,387.81 88.51,385.23 88.89,382.75 89.26,380.36 89.64,378.09 90.01,375.92 90.39,373.87 90.76,371.93 91.14,370.11 91.51,368.40 91.89,366.82 92.26,365.35 92.64,364.00 93.02,362.77 93.39,361.66 93.77,360.66 94.14,359.77 94.52,358.99 94.89,358.31 95.27,357.74 95.64,357.27 96.02,356.90 96.39,356.63 96.77,356.45 97.14,356.35 97.52,356.34 97.89,356.41 98.27,356.56 98.64,356.78 99.02,357.07 99.40,357.44 99.77,357.86 100.15,358.35 100.52,358.89 100.90,359.49 101.27,360.14 101.65,360.84 102.02,361.58 102.40,362.36 102.77,363.19 103.15,364.05 103.52,364.94 103.90,365.87 104.27,366.82 104.65,367.81 105.03,368.81 105.40,369.84 105.78,370.89 106.15,371.95 106.53,373.03 106.90,374.13 107.28,375.24 107.65,376.36 108.03,377.48 108.40,378.62 108.78,379.76 109.15,380.91 109.53,382.06 109.90,383.21 110.28,384.36 110.65,385.51 111.03,386.66 111.41,387.81 111.78,388.96 112.16,390.10 112.53,391.24 112.91,392.37 113.28,393.50 113.66,394.62 114.03,395.73 114.41,396.83 114.78,397.93 115.16,399.01 115.53,400.09 115.91,401.16 116.28,402.21 116.66,403.26 117.04,404.29 117.41,405.31 117.79,406.32 118.16,407.32 118.54,408.31 118.91,409.29 119.29,410.25 119.66,411.20 120.04,412.14 120.41,413.06 120.79,413.97 121.16,414.87 121.54,415.76 121.91,416.63 122.29,417.49 122.66,418.34 123.04,419.17 123.42,419.99 123.79,420.80 124.17,421.59 124.54,422.37 124.92,423.14 125.29,423.90 125.67,424.64 126.04,425.37 126.42,426.09 126.79,426.80 127.17,427.49 127.54,428.17 127.92,428.84 128.29,429.50 128.67,430.14 129.05,430.78 129.42,431.40 129.80,432.01 130.17,432.61 130.55,433.20 130.92,433.77 131.30,434.34 131.67,434.89 132.05,435.44 132.42,435.97 132.80,436.49 133.17,437.01 133.55,437.51 133.92,438.00 134.30,438.49 134.67,438.96 135.05,439.42 135.43,439.88 135.80,440.33 136.18,440.76 136.55,441.19 136.93,441.61 137.30,442.02 137.68,442.42 138.05,442.82 138.43,443.20 138.80,443.58 139.18,443.95 139.55,444.31 139.93,444.66 140.30,445.01 140.68,445.35 141.06,445.68 141.43,446.01 141.81,446.33 142.18,446.64 142.56,446.94 142.93,447.24 143.31,447.53 143.68,447.82 144.06,448.10 144.43,448.37 144.81,448.64 145.18,448.90 145.56,449.16 145.93,449.41 146.31,449.65 146.68,449.89 147.06,450.12 147.44,450.35 147.81,450.58 148.19,450.79 148.56,451.01 148.94,451.22 149.31,451.42 149.69,451.62 150.06,451.82 150.44,452.01 150.81,452.20 151.19,452.38 151.56,452.56 151.94,452.73 152.31,452.90 152.69,453.07 153.07,453.23 153.44,453.39 153.82,453.54 154.19,453.70 154.57,453.85 154.94,453.99 155.32,454.13 155.69,454.27 156.07,454.41 156.44,454.54 156.82,454.67 157.19,454.79 157.57,454.92 157.94,455.04 158.32,455.16 158.69,455.27 159.07,455.38 159.45,455.49 159.82,455.60 160.20,455.70 160.57,455.81 160.95,455.91 161.32,456.00 161.70,456.10 162.07,456.19 162.45,456.28 162.82,456.37 163.20,456.46 163.57,456.54 163.95,456.63 164.32,456.71 164.70,456.79 165.08,456.86 165.45,456.94 165.83,457.01 166.20,457.08 166.58,457.15 166.95,457.22 167.33,457.29 167.70,457.35 168.08,457.42 168.45,457.48 168.83,457.54 169.20,457.60 169.58,457.66 169.95,457.71 170.33,457.77 170.70,457.82 171.08,457.87 171.46,457.93 171.83,457.98 172.21,458.02 172.58,458.07 172.96,458.12 173.33,458.16 173.71,458.21 174.08,458.25 174.46,458.29 174.83,458.34 175.21,458.38 175.58,458.41 175.96,458.45 176.33,458.49 176.71,458.53 177.09,458.56 177.46,458.60 177.84,458.63 178.21,458.66 178.59,458.70 178.96,458.73 179.34,458.76 179.71,458.79 180.09,458.82 180.46,458.85 180.84,458.88 181.21,458.90 181.59,458.93 181.96,458.96 182.34,458.98 182.71,459.01 183.09,459.03 183.47,459.05 183.84,459.08 184.22,459.10 184.59,459.12 184.97,459.14 185.34,459.16 185.72,459.18 186.09,459.20 186.47,459.22 186.84,459.24 187.22,459.26 187.59,459.28 187.97,459.30 188.34,459.31 188.72,459.33 189.10,459.35 189.47,459.36 189.85,459.38 190.22,459.39 190.60,459.41 190.97,459.42 191.35,459.44 191.72,459.45 192.10,459.46 192.47,459.48 192.85,459.49 193.22,459.50 193.60,459.51 193.97,459.53 194.35,459.54 194.72,459.55 195.10,459.56 195.48,459.57 195.85,459.58 196.23,459.59 196.60,459.60 196.98,459.61 197.35,459.62 197.73,459.63 198.10,459.64 198.48,459.65 198.85,459.66 199.23,459.67 199.60,459.67 199.98,459.68 200.35,459.69 200.73,459.70 201.11,459.70 201.48,459.71 201.86,459.72 202.23,459.73 202.61,459.73 202.98,459.74 203.36,459.75 203.73,459.75 204.11,459.76 204.48,459.76 204.86,459.77 205.23,459.77 205.61,459.78 205.98,459.79 206.36,459.79 206.73,459.80 207.11,459.80 207.49,459.81 207.86,459.81 208.24,459.82 208.61,459.82 208.99,459.82 209.36,459.83 209.74,459.83 210.11,459.84 210.49,459.84 210.86,459.84 211.24,459.85 211.61,459.85 211.99,459.86 212.36,459.86 212.74,459.86 213.12,459.87 213.49,459.87 213.87,459.87 214.24,459.88 214.62,459.88 214.99,459.88 215.37,459.88 215.74,459.89 216.12,459.89 216.49,459.89 216.87,459.90 217.24,459.90 217.62,459.90 217.99,459.90 218.37,459.91 218.74,459.91 219.12,459.91 219.50,459.91 219.87,459.91 220.25,459.92 220.62,459.92 221.00,459.92 221.37,459.92 221.75,459.92 222.12,459.93 222.50,459.93 222.87,459.93 223.25,459.93 223.62,459.93 224.00,459.94 224.37,459.94 224.75,459.94 225.13,459.94 225.50,459.94 225.88,459.94 226.25,459.94 226.63,459.95 227.00,459.95 227.38,459.95 227.75,459.95 228.13,459.95 228.50,459.95 228.88,459.95 229.25,459.95 229.63,459.96 230.00,459.96 230.38,459.96 230.75,459.96 231.13,459.96 231.51,459.96 231.88,459.96 232.26,459.96 232.63,459.96 233.01,459.96 233.38,459.97 233.76,459.97 234.13,459.97 234.51,459.97 234.88,459.97 235.26,459.97 235.63,459.97 236.01,459.97 236.38,459.97 236.76,459.97 237.14,459.97 237.51,459.97 237.89,459.97 238.26,459.97 238.64,459.98 239.01,459.98 239.39,459.98 239.76,459.98 240.14,459.98 240.51,459.98 240.89,459.98 241.26,459.98 241.64,459.98 242.01,459.98 242.39,459.98 242.76,459.98 243.14,459.98 243.52,459.98 243.89,459.98 244.27,459.98 244.64,459.98 245.02,459.98 245.39,459.98 245.77,459.98 246.14,459.99 246.52,459.99 246.89,459.99 247.27,459.99 247.64,459.99 248.02,459.99 248.39,459.99 248.77,459.99 249.15,459.99 249.52,459.99 249.90,459.99 250.27,459.99 250.65,459.99 251.02,459.99 251.40,459.99 251.77,459.99 252.15,459.99 252.52,459.99 252.90,459.99 253.27,459.99 253.65,459.99 254.02,459.99 254.40,459.99 254.77,459.99 255.15,459.99 255.53,459.99 255.90,459.99 256.28,459.99 256.65,459.99 257.03,459.99 257.40,459.99 257.78,459.99 258.15,459.99 258.53,459.99 258.90,459.99 259.28,459.99 259.65,459.99 260.03,459.99 260.40,459.99 260.78,459.99 261.16,459.99 261.53,459.99 261.91,459.99 262.28,459.99 262.66,460.00 263.03,460.00 263.41,460.00 263.78,460.00 264.16,460.00 264.53,460.00 264.91,460.00 265.28,460.00 265.66,460.00 266.03,460.00 266.41,460.00 266.78,460.00 267.16,460.00 267.54,460.00 267.91,460.00 268.29,460.00 268.66,460.00 269.04,460.00 269.41,460.00 269.79,460.00 270.16,460.00 270.54,460.00 270.91,460.00 271.29,460.00 271.66,460.00 272.04,460.00 272.41,460.00 272.79,460.00 273.17,460.00 273.54,460.00 273.92,460.00 274.29,460.00 274.67,460.00 275.04,460.00 275.42,460.00 275.79,460.00 276.17,460.00 276.54,460.00 276.92,460.00 277.29,460.00 277.67,460.00 278.04,460.00 278.42,460.00 278.79,460.00 279.17,460.00 279.55,460.00 279.92,460.00 280.30,460.00 280.67,460.00 281.05,460.00 281.42,460.00 281.80,460.00 282.17,460.00 282.55,460.00 282.92,460.00 283.30,460.00 283.67,460.00 284.05,460.00 284.42,460.00 284.80,460.00 285.18,460.00 285.55,460.00 285.93,460.00 286.30,460.00 286.68,460.00 287.05,460.00 287.43,460.00 287.80,460.00 288.18,460.00 288.55,460.00 288.93,460.00 289.30,460.00 289.68,460.00 290.05,460.00 290.43,460.00 290.80,460.00 291.18,460.00 291.56,460.00 291.93,460.00 292.31,460.00 292.68,460.00 293.06,460.00 293.43,460.00 293.81,460.00 294.18,460.00 294.56,460.00 294.93,460.00 295.31,460.00 295.68,460.00 296.06,460.00 296.43,460.00 296.81,460.00 297.19,460.00 297.56,460.00 297.94,460.00 298.31,460.00 298.69,460.00 299.06,460.00 299.44,460.00 299.81,460.00 300.19,460.00 300.56,460.00 300.94,460.00 301.31,460.00 301.69,460.00 302.06,460.00 302.44,460.00 302.81,460.00 303.19,460.00 303.57,460.00 303.94,460.00 304.32,460.00 304.69,460.00 305.07,460.00 305.44,460.00 305.82,460.00 306.19,460.00 306.57,460.00 306.94,460.00 307.32,460.00 307.69,460.00 308.07,460.00 308.44,460.00 308.82,460.00 309.20,460.00 309.57,460.00 309.95,460.00 310.32,460.00 310.70,460.00 311.07,460.00 311.45,460.00 311.82,460.00 312.20,460.00 312.57,460.00 312.95,460.00 313.32,460.00 313.70,460.00 314.07,460.00 314.45,460.00 314.82,460.00 315.20,460.00 315.58,460.00 315.95,460.00 316.33,460.00 316.70,460.00 317.08,460.00 317.45,460.00 317.83,460.00 318.20,460.00 318.58,460.00 318.95,460.00 319.33,460.00 319.70,460.00 320.08,460.00 320.45,460.00 320.83,460.00 321.21,460.00 321.58,460.00 321.96,460.00 322.33,460.00 322.71,460.00 323.08,460.00 323.46,460.00 323.83,460.00 324.21,460.00 324.58,460.00 324.96,460.00 325.33,460.00 325.71,460.00 326.08,460.00 326.46,460.00 326.83,460.00 327.21,460.00 327.59,460.00 327.96,460.00 328.34,460.00 328.71,460.00 329.09,460.00 329.46,460.00 329.84,460.00 330.21,460.00 330.59,460.00 330.96,460.00 331.34,460.00 331.71,460.00 332.09,460.00 332.46,460.00 332.84,460.00 333.22,460.00 333.59,460.00 333.97,460.00 334.34,460.00 334.72,460.00 335.09,460.00 335.47,460.00 335.84,460.00 336.22,460.00 336.59,460.00 336.97,460.00 337.34,460.00 337.72,460.00 338.09,460.00 338.47,460.00 338.84,460.00 339.22,460.00 339.60,460.00 339.97,460.00 340.35,460.00 340.72,460.00 341.10,460.00 341.47,460.00 341.85,460.00 342.22,460.00 342.60,460.00 342.97,460.00 343.35,460.00 343.72,460.00 344.10,460.00 344.47,460.00 344.85,460.00 345.23,460.00 345.60,460.00 345.98,460.00 346.35,460.00 346.73,460.00 347.10,460.00 347.48,460.00 347.85,460.00 348.23,460.00 348.60,460.00 348.98,460.00 349.35,460.00 349.73,460.00 350.10,460.00 350.48,460.00 350.85,460.00 351.23,460.00 351.61,460.00 351.98,460.00 352.36,460.00 352.73,460.00 353.11,460.00 353.48,460.00 353.86,460.00 354.23,460.00 354.61,460.00 354.98,460.00 355.36,460.00 355.73,460.00 356.11,460.00 356.48,460.00 356.86,460.00 357.24,460.00 357.61,460.00 357.99,460.00 358.36,460.00 358.74,460.00 359.11,460.00 359.49,460.00 359.86,460.00 360.24,460.00 360.61,460.00 360.99,460.00 361.36,460.00 361.74,460.00 362.11,460.00 362.49,460.00 362.86,460.00 363.24,460.00 363.62,460.00 363.99,460.00 364.37,460.00 364.74,460.00 365.12,460.00 365.49,460.00 365.87,460.00 366.24,460.00 366.62,460.00 366.99,460.00 367.37,460.00 367.74,460.00 368.12,460.00 368.49,460.00 368.87,460.00 369.25,460.00 369.62,460.00 370.00,460.00 370.37,460.00 370.75,460.00 371.12,460.00 371.50,460.00 371.87,460.00 372.25,460.00 372.62,460.00 373.00,460.00 373.37,460.00 373.75,460.00 374.12,460.00 374.50,460.00 374.87,460.00 375.25,460.00 375.63,460.00 376.00,460.00 376.38,460.00 376.75,460.00 377.13,460.00 377.50,460.00 377.88,460.00 378.25,460.00 378.63,460.00 379.00,460.00 379.38,460.00 379.75,460.00 380.13,460.00 380.50,460.00 380.88,460.00 381.26,460.00 381.63,460.00 382.01,460.00 382.38,460.00 382.76,460.00 383.13,460.00 383.51,460.00 383.88,460.00 384.26,460.00 384.63,460.00 385.01,460.00 385.38,460.00 385.76,460.00 386.13,460.00 386.51,460.00 386.88,460.00 387.26,460.00 387.64,460.00 388.01,460.00 388.39,460.00 388.76,460.00 389.14,460.00 389.51,460.00 389.89,460.00 390.26,460.00 390.64,460.00 391.01,460.00 391.39,460.00 391.76,460.00 392.14,460.00 392.51,460.00 392.89,460.00 393.27,460.00 393.64,460.00 394.02,460.00 394.39,460.00 394.77,460.00 395.14,460.00 395.52,460.00 395.89,460.00 396.27,460.00 396.64,460.00 397.02,460.00 397.39,460.00 397.77,460.00 398.14,460.00 398.52,460.00 398.89,460.00 399.27,460.00 399.65,460.00 400.02,460.00 400.40,460.00 400.77,460.00 401.15,460.00 401.52,460.00 401.90,460.00 402.27,460.00 402.65,460.00 403.02,460.00 403.40,460.00 403.77,460.00 404.15,460.00 404.52,460.00 404.90,460.00 405.28,460.00 405.65,460.00 406.03,460.00 406.40,460.00 406.78,460.00 407.15,460.00 407.53,460.00 407.90,460.00 408.28,460.00 408.65,460.00 409.03,460.00 409.40,460.00 409.78,460.00 410.15,460.00 410.53,460.00 410.90,460.00 411.28,460.00 411.66,460.00 412.03,460.00 412.41,460.00 412.78,460.00 413.16,460.00 413.53,460.00 413.91,460.00 414.28,460.00 414.66,460.00 415.03,460.00 415.41,460.00 415.78,460.00 416.16,460.00 416.53,460.00 416.91,460.00 417.29,460.00 417.66,460.00 418.04,460.00 418.41,460.00 418.79,460.00 419.16,460.00 419.54,460.00 419.91,460.00 420.29,460.00 420.66,460.00 421.04,460.00 421.41,460.00 421.79,460.00 422.16,460.00 422.54,460.00 422.91,460.00 423.29,460.00 423.67,460.00 424.04,460.00 424.42,460.00 424.79,460.00 425.17,460.00 425.54,460.00 425.92,460.00 426.29,460.00 426.67,460.00 427.04,460.00 427.42,460.00 427.79,460.00 428.17,460.00 428.54,460.00 428.92,460.00 429.30,460.00 429.67,460.00 430.05,460.00 430.42,460.00 430.80,460.00 431.17,460.00 431.55,460.00 431.92,460.00 432.30,460.00 432.67,460.00 433.05,460.00 433.42,460.00 433.80,460.00 434.17,460.00 434.55,460.00 434.92,460.00 435.30,460.00 435.68,460.00 436.05,460.00 436.43,460.00 436.80,460.00 437.18,460.00 437.55,460.00 437.93,460.00 438.30,460.00 438.68,460.00 439.05,460.00 439.43,460.00 439.80,460.00 440.18,460.00 440.55,460.00 440.93,460.00 441.31,460.00 441.68,460.00 442.06,460.00 442.43,460.00 442.81,460.00 443.18,460.00 443.56,460.00 443.93,460.00 444.31,460.00 444.68,460.00 445.06,460.00 445.43,460.00 445.81,460.00 446.18,460.00 446.56,460.00 446.93,460.00 447.31,460.00 447.69,460.00 448.06,460.00 448.44,460.00 448.81,460.00 449.19,460.00 449.56,460.00 449.94,460.00 450.31,460.00 450.69,460.00 451.06,460.00 451.44,460.00 451.81,460.00 452.19,460.00 452.56,460.00 452.94,460.00 453.32,460.00 453.69,460.00 454.07,460.00 454.44,460.00 454.82,460.00 455.19,460.00 455.57,460.00 455.94,460.00 456.32,460.00 456.69,460.00 457.07,460.00 457.44,460.00 457.82,460.00 458.19,460.00 458.57,460.00 458.94,460.00 459.32,460.00 459.70,460.00 460.07,460.00 460.45,460.00 460.82,460.00 461.20,460.00 461.57,460.00 461.95,460.00 462.32,460.00 462.70,460.00 463.07,460.00 463.45,460.00 463.82,460.00 464.20,460.00 464.57,460.00 464.95,460.00 465.33,460.00 465.70,460.00 466.08,460.00 466.45,460.00 466.83,460.00 467.20,460.00 467.58,460.00 467.95,460.00 468.33,460.00 468.70,460.00 469.08,460.00 469.45,460.00 469.83,460.00 470.20,460.00 470.58,460.00 470.95,460.00 471.33,460.00 471.71,460.00 472.08,460.00 472.46,460.00 472.83,460.00 473.21,460.00 473.58,460.00 473.96,460.00 474.33,460.00 474.71,460.00 475.08,460.00 475.46,460.00 475.83,460.00 476.21,460.00 476.58,460.00 476.96,460.00 477.34,460.00 477.71,460.00 478.09,460.00 478.46,460.00 478.84,460.00 479.21,460.00 479.59,460.00 479.96,460.00 480.34,460.00 480.71,460.00 481.09,460.00 481.46,460.00 481.84,460.00 482.21,460.00 482.59,460.00 482.96,460.00 483.34,460.00 483.72,460.00 484.09,460.00 484.47,460.00 484.84,460.00 485.22,460.00 485.59,460.00 485.97,460.00 486.34,460.00 486.72,460.00 487.09,460.00 487.47,460.00 487.84,460.00 488.22,460.00 488.59,460.00 488.97,460.00 489.35,460.00 489.72,460.00 490.10,460.00 490.47,460.00 490.85,460.00 491.22,460.00 491.60,460.00 491.97,460.00 492.35,460.00 492.72,460.00 493.10,460.00 493.47,460.00 493.85,460.00 494.22,460.00 494.60,460.00 494.97,460.00 495.35,460.00 495.73,460.00 496.10,460.00 496.48,460.00 496.85,460.00 497.23,460.00 497.60,460.00 497.98,460.00 498.35,460.00 498.73,460.00 499.10,460.00 499.48,460.00 499.85,460.00 500.23,460.00 500.60,460.00 500.98,460.00 501.36,460.00 501.73,460.00 502.11,460.00 502.48,460.00 502.86,460.00 503.23,460.00 503.61,460.00 503.98,460.00 504.36,460.00 504.73,460.00 505.11,460.00 505.48,460.00 505.86,460.00 506.23,460.00 506.61,460.00 506.98,460.00 507.36,460.00 507.74,460.00 508.11,460.00 508.49,460.00 508.86,460.00 509.24,460.00 509.61,460.00 509.99,460.00 510.36,460.00 510.74,460.00 511.11,460.00 511.49,460.00 511.86,460.00 512.24,460.00 512.61,460.00 512.99,460.00 513.37,460.00 513.74,460.00 514.12,460.00 514.49,460.00 514.87,460.00 515.24,460.00 515.62,460.00 515.99,460.00 516.37,460.00 516.74,460.00 517.12,460.00 517.49,460.00 517.87,460.00 518.24,460.00 518.62,460.00 518.99,460.00 519.37,460.00 519.75,460.00 520.12,460.00 520.50,460.00 520.87,460.00 521.25,460.00 521.62,460.00 522.00,460.00 522.37,460.00 522.75,460.00 523.12,460.00 523.50,460.00 523.87,460.00 524.25,460.00 524.62,460.00 525.00,460.00" fill="none" stroke="#2f855a" stroke-width="2.2" stroke-linejoin="round" stroke-linecap="round" />
<text x="93" y="146" font-family="Arial, sans-serif" font-size="12" fill="#2f855a">k=1.8</text>
  <line x1="660" y1="460" x2="1110" y2="460" stroke="#222" />
  <line x1="660" y1="460" x2="660" y2="85" stroke="#222" />
  <text x="660" y="61" font-family="Arial, sans-serif" font-size="17" font-weight="700">L. Barrier gap amplifies SE violation</text>
  <text x="823.0" y="498" font-family="Arial, sans-serif" font-size="13">E_d - E_lambda</text>

  <polyline points="660.00,459.68 810.00,451.05 960.00,433.73 1110.00,401.63" fill="none" stroke="#2b6cb0" stroke-width="2.2" stroke-linejoin="round" stroke-linecap="round" />
<text x="678" y="110" font-family="Arial, sans-serif" font-size="12" fill="#2b6cb0">cold D tau_alpha / hot</text>
<polyline points="660.00,460.00 810.00,421.72 960.00,325.72 1110.00,85.00" fill="none" stroke="#c05621" stroke-width="2.2" stroke-linejoin="round" stroke-linecap="round" />
<text x="678" y="128" font-family="Arial, sans-serif" font-size="12" fill="#c05621">cold lambda tau_d</text>
</svg>
