<svg xmlns="http://www.w3.org/2000/svg" width="1120" height="560" viewBox="0 0 1120 560">
  <rect width="100%" height="100%" fill="#ffffff" />
  <text x="90" y="42" font-family="Arial, sans-serif" font-size="24" font-weight="700">Trajectory member-ensemble uncertainty</text>
  <text x="90" y="66" font-family="Arial, sans-serif" font-size="13" fill="#444">Independent trajectory members supply standard-error columns before uncertainty-weighted persistence/exchange inversion.</text>
  <line x1="90" y1="420" x2="1035" y2="420" stroke="#222" />
  <line x1="90" y1="420" x2="90" y2="95" stroke="#222" />
  <text x="520.5" y="458" font-family="Arial, sans-serif" font-size="13">lag time</text>
  <text x="38" y="300" font-family="Arial, sans-serif" font-size="13" transform="rotate(-90 38 300)">scaled member uncertainty</text>
  <polyline points="90.00,420.00 405.00,297.03 1035.00,95.00" fill="none" stroke="#2b6cb0" stroke-width="2.5" stroke-linejoin="round" stroke-linecap="round" /><text x="108" y="476" font-family="Arial, sans-serif" font-size="12" fill="#2b6cb0">member sigma MSD</text><circle cx="90.0" cy="420.0" r="4" fill="#2b6cb0" /><circle cx="405.0" cy="297.0" r="4" fill="#2b6cb0" /><circle cx="1035.0" cy="95.0" r="4" fill="#2b6cb0" /><polyline points="90.00,95.00 405.00,292.55 1035.00,420.00" fill="none" stroke="#c05621" stroke-width="2.5" stroke-linejoin="round" stroke-linecap="round" /><text x="318" y="476" font-family="Arial, sans-serif" font-size="12" fill="#c05621">member sigma NGP</text><circle cx="90.0" cy="95.0" r="4" fill="#c05621" /><circle cx="405.0" cy="292.5" r="4" fill="#c05621" /><circle cx="1035.0" cy="420.0" r="4" fill="#c05621" /><polyline points="90.00,95.00 405.00,294.19 1035.00,420.00" fill="none" stroke="#2f855a" stroke-width="2.5" stroke-linejoin="round" stroke-linecap="round" /><text x="528" y="476" font-family="Arial, sans-serif" font-size="12" fill="#2f855a">member sigma F_s</text><circle cx="90.0" cy="95.0" r="4" fill="#2f855a" /><circle cx="405.0" cy="294.2" r="4" fill="#2f855a" /><circle cx="1035.0" cy="420.0" r="4" fill="#2f855a" /><polyline points="90.00,420.00 405.00,95.00 1035.00,331.36" fill="none" stroke="#805ad5" stroke-width="2.5" stroke-linejoin="round" stroke-linecap="round" /><text x="738" y="476" font-family="Arial, sans-serif" font-size="12" fill="#805ad5">member sigma chi4</text><circle cx="90.0" cy="420.0" r="4" fill="#805ad5" /><circle cx="405.0" cy="95.0" r="4" fill="#805ad5" /><circle cx="1035.0" cy="331.4" r="4" fill="#805ad5" />
  <text x="90" y="510" font-family="Arial, sans-serif" font-size="11">method: member_ensemble_standard_error; members = 4; blocker = none</text>
  <text x="90" y="528" font-family="Arial, sans-serif" font-size="11">stage: member_ensemble_uncertainty_ready; threshold = 4; target = member_ensemble_uncertainty_to_raw_curve_bridge</text>
</svg>
