<svg xmlns="http://www.w3.org/2000/svg" width="1080" height="560" viewBox="0 0 1080 560">
  <rect width="100%" height="100%" fill="#ffffff" />
  <text x="90" y="42" font-family="Arial, sans-serif" font-size="23" font-weight="700">Late-time mechanism selection</text>
  <text x="90" y="68" font-family="Arial, sans-serif" font-size="13" fill="#444">Lower score means the candidate matches two late NGP points and the alpha slope.</text>
  <line x1="90" y1="455" x2="1010" y2="455" stroke="#222" />
  <line x1="90" y1="455" x2="90" y2="95" stroke="#222" />
  <text x="34" y="275" font-family="Arial, sans-serif" font-size="13" transform="rotate(-90 34 275)">joint log-residual score</text>
  <line x1="90" y1="450.18" x2="1010" y2="450.18" stroke="#999" stroke-dasharray="5 4" />
  <text x="932" y="443.18" font-family="Arial, sans-serif" font-size="11" fill="#555">pass threshold</text>
  <rect x="180.33" y="454.96" width="36" height="0.04" fill="#2b6cb0" opacity="1.0" /><text x="178.33" y="447.96" font-family="Arial, sans-serif" font-size="10" fill="#2b6cb0">0.00</text><rect x="222.33" y="95.00" width="36" height="360.00" fill="#805ad5" opacity="0.45" /><text x="220.33" y="88.00" font-family="Arial, sans-serif" font-size="10" fill="#805ad5">invalid</text><rect x="264.33" y="95.00" width="36" height="360.00" fill="#c05621" opacity="0.45" /><text x="262.33" y="88.00" font-family="Arial, sans-serif" font-size="10" fill="#c05621">invalid</text><rect x="487.00" y="112.14" width="36" height="342.86" fill="#2b6cb0" opacity="0.45" /><text x="485.00" y="105.14" font-family="Arial, sans-serif" font-size="10" fill="#2b6cb0">14.22</text><rect x="529.00" y="454.98" width="36" height="0.02" fill="#805ad5" opacity="1.0" /><text x="527.00" y="447.98" font-family="Arial, sans-serif" font-size="10" fill="#805ad5">0.00</text><rect x="571.00" y="428.49" width="36" height="26.51" fill="#c05621" opacity="0.45" /><text x="569.00" y="421.49" font-family="Arial, sans-serif" font-size="10" fill="#c05621">1.10</text><rect x="793.67" y="339.02" width="36" height="115.98" fill="#2b6cb0" opacity="0.45" /><text x="791.67" y="332.02" font-family="Arial, sans-serif" font-size="10" fill="#2b6cb0">4.81</text><rect x="835.67" y="430.40" width="36" height="24.60" fill="#805ad5" opacity="0.45" /><text x="833.67" y="423.40" font-family="Arial, sans-serif" font-size="10" fill="#805ad5">1.02</text><rect x="877.67" y="454.89" width="36" height="0.11" fill="#c05621" opacity="1.0" /><text x="875.67" y="447.89" font-family="Arial, sans-serif" font-size="10" fill="#c05621">0.00</text>
  <text x="203.33333333333334" y="489" font-family="Arial, sans-serif" font-size="13">poisson</text><text x="510.0" y="489" font-family="Arial, sans-serif" font-size="13">static_gamma</text><text x="816.6666666666667" y="489" font-family="Arial, sans-serif" font-size="13">finite_exchange</text>
  <rect x="90" y="505" width="14" height="14" fill="#2b6cb0" /><text x="110" y="517" font-family="Arial, sans-serif" font-size="13">poisson</text><rect x="310" y="505" width="14" height="14" fill="#805ad5" /><text x="330" y="517" font-family="Arial, sans-serif" font-size="13">static_gamma</text><rect x="530" y="505" width="14" height="14" fill="#c05621" /><text x="550" y="517" font-family="Arial, sans-serif" font-size="13">finite_exchange</text>
</svg>
