<svg xmlns="http://www.w3.org/2000/svg" width="1200" height="650" viewBox="0 0 1200 650">
  <rect width="100%" height="100%" fill="#ffffff" />
  <text x="80" y="42" font-family="Arial, sans-serif" font-size="24" font-weight="700">Glass-dynamics phenomenon audit</text>
  <text x="80" y="66" font-family="Arial, sans-serif" font-size="13" fill="#444">One delayed-renewal cage law is tested against dynamical signatures; no thermodynamic transition is claimed.</text>
  <line x1="80" y1="330" x2="540" y2="330" stroke="#222" />
  <line x1="80" y1="330" x2="80" y2="90" stroke="#222" />
  <text x="80" y="66" font-family="Arial, sans-serif" font-size="17" font-weight="700">A. Transport and relaxation under cooling</text>
  <text x="240.0" y="366" font-family="Arial, sans-serif" font-size="13">inverse-temperature shift</text>

  <polyline points="80.00,330.00 97.16,328.60 115.12,326.97 133.95,325.05 153.70,322.79 174.44,320.09 196.25,316.84 219.22,312.88 243.44,308.01 269.01,301.93 296.06,294.26 324.71,284.43 355.11,271.63 387.43,254.64 421.85,231.68 458.58,199.96 497.88,155.10 540.00,90.00" fill="none" stroke="#2b6cb0" stroke-width="2.2" stroke-linejoin="round" stroke-linecap="round" />
<text x="96" y="112" font-family="Arial, sans-serif" font-size="12" fill="#2b6cb0">tau_alpha exchange</text>
<polyline points="80.00,330.00 97.16,329.31 115.12,328.56 133.95,327.73 153.70,326.81 174.44,325.80 196.25,324.67 219.22,323.41 243.44,322.01 269.01,320.42 296.06,318.62 324.71,316.57 355.11,314.23 387.43,311.52 421.85,308.38 458.58,304.70 497.88,300.36 540.00,295.18" fill="none" stroke="#c05621" stroke-width="2.2" stroke-linejoin="round" stroke-linecap="round" />
<text x="96" y="129" font-family="Arial, sans-serif" font-size="12" fill="#c05621">1 / diffusion</text>
<polyline points="80.00,330.00 97.16,329.32 115.12,328.55 133.95,327.68 153.70,326.68 174.44,325.53 196.25,324.21 219.22,322.66 243.44,320.84 269.01,318.69 296.06,316.11 324.71,312.98 355.11,309.15 387.43,304.41 421.85,298.44 458.58,290.83 497.88,280.95 540.00,267.90" fill="none" stroke="#805ad5" stroke-width="2.2" stroke-linejoin="round" stroke-linecap="round" />
<text x="96" y="146" font-family="Arial, sans-serif" font-size="12" fill="#805ad5">D tau_alpha</text>
  <line x1="690" y1="330" x2="1130" y2="330" stroke="#222" />
  <line x1="690" y1="330" x2="690" y2="90" stroke="#222" />
  <text x="690" y="66" font-family="Arial, sans-serif" font-size="17" font-weight="700">B. Heterogeneity signatures</text>
  <text x="840.0" y="366" font-family="Arial, sans-serif" font-size="13">inverse-temperature shift</text>

  <polyline points="690.00,322.89 706.41,320.79 723.60,318.37 741.60,315.58 760.49,312.33 780.33,308.53 801.20,304.05 823.17,298.74 846.33,292.38 870.80,284.72 896.67,275.40 924.07,263.94 953.15,249.71 984.06,231.83 1016.99,209.08 1052.12,179.71 1089.71,141.25 1130.00,90.00" fill="none" stroke="#2b6cb0" stroke-width="2.2" stroke-linejoin="round" stroke-linecap="round" />
<text x="706" y="112" font-family="Arial, sans-serif" font-size="12" fill="#2b6cb0">exchange ratio</text>
<polyline points="690.00,322.89 706.41,322.49 723.60,322.07 741.60,321.62 760.49,321.16 780.33,320.67 801.20,320.16 823.17,319.62 846.33,319.05 870.80,318.46 896.67,317.83 924.07,317.17 953.15,316.49 984.06,315.76 1016.99,315.01 1052.12,314.21 1089.71,313.38 1130.00,312.52" fill="none" stroke="#c05621" stroke-width="2.2" stroke-linejoin="round" stroke-linecap="round" />
<text x="706" y="129" font-family="Arial, sans-serif" font-size="12" fill="#c05621">chi4 peak</text>
<polyline points="690.00,326.95 706.41,327.09 723.60,327.24 741.60,327.41 760.49,327.56 780.33,327.71 801.20,327.89 823.17,328.07 846.33,328.23 870.80,328.43 896.67,328.60 924.07,328.80 953.15,328.97 984.06,329.19 1016.99,329.37 1052.12,329.56 1089.71,329.78 1130.00,330.00" fill="none" stroke="#805ad5" stroke-width="2.2" stroke-linejoin="round" stroke-linecap="round" />
<text x="706" y="146" font-family="Arial, sans-serif" font-size="12" fill="#805ad5">alpha-window beta</text>
  <line x1="80" y1="590" x2="1130" y2="590" stroke="#222" />
  <line x1="80" y1="590" x2="80" y2="410" stroke="#222" />
  <text x="80" y="386" font-family="Arial, sans-serif" font-size="17" font-weight="700">C. Supported signatures from the effective dynamics</text>
  <rect x="85.00" y="450.00" width="95.00" height="140.00" fill="#2f855a" /><text x="88.00" y="606" font-family="Arial, sans-serif" font-size="10" transform="rotate(35 88.00 606)">diffusion slowdown</text><rect x="190.00" y="450.00" width="95.00" height="140.00" fill="#2f855a" /><text x="193.00" y="606" font-family="Arial, sans-serif" font-size="10" transform="rotate(35 193.00 606)">alpha slowdown</text><rect x="295.00" y="450.00" width="95.00" height="140.00" fill="#2f855a" /><text x="298.00" y="606" font-family="Arial, sans-serif" font-size="10" transform="rotate(35 298.00 606)">ngp peak shift</text><rect x="400.00" y="450.00" width="95.00" height="140.00" fill="#2f855a" /><text x="403.00" y="606" font-family="Arial, sans-serif" font-size="10" transform="rotate(35 403.00 606)">stokes einstein violation</text><rect x="505.00" y="450.00" width="95.00" height="140.00" fill="#2f855a" /><text x="508.00" y="606" font-family="Arial, sans-serif" font-size="10" transform="rotate(35 508.00 606)">fragility growth</text><rect x="610.00" y="450.00" width="95.00" height="140.00" fill="#2f855a" /><text x="613.00" y="606" font-family="Arial, sans-serif" font-size="10" transform="rotate(35 613.00 606)">heterogeneity growth</text><rect x="715.00" y="450.00" width="95.00" height="140.00" fill="#2f855a" /><text x="718.00" y="606" font-family="Arial, sans-serif" font-size="10" transform="rotate(35 718.00 606)">stretched alpha window</text><rect x="820.00" y="450.00" width="95.00" height="140.00" fill="#2f855a" /><text x="823.00" y="606" font-family="Arial, sans-serif" font-size="10" transform="rotate(35 823.00 606)">chi4 peak growth</text><rect x="925.00" y="450.00" width="95.00" height="140.00" fill="#2f855a" /><text x="928.00" y="606" font-family="Arial, sans-serif" font-size="10" transform="rotate(35 928.00 606)">gaussian recovery</text><rect x="1030.00" y="590.00" width="95.00" height="0.00" fill="#a0aec0" /><text x="1033.00" y="606" font-family="Arial, sans-serif" font-size="10" transform="rotate(35 1033.00 606)">thermodynamic transition</text>
</svg>
