<svg xmlns="http://www.w3.org/2000/svg" width="1120" height="560" viewBox="0 0 1120 560">
  <rect width="100%" height="100%" fill="#ffffff" />
  <text x="90" y="42" font-family="Arial, sans-serif" font-size="24" font-weight="700">Raw-curve persistence/exchange inversion</text>
  <text x="90" y="66" font-family="Arial, sans-serif" font-size="13" fill="#444">Machine-readable F_s(k,t), late NGP, D, and chi4 curves are reduced to observables, then scored as held-out z tests.</text>
  <line x1="90" y1="415" x2="1035" y2="415" stroke="#222" />
  <line x1="90" y1="415" x2="90" y2="98" stroke="#222" />
  <text x="38" y="285" font-family="Arial, sans-serif" font-size="13" transform="rotate(-90 38 285)">absolute z score</text>
  <line x1="90" y1="346.4" x2="1035" y2="346.4" stroke="#718096" stroke-dasharray="5 4" />
  <text x="957" y="338.4" font-family="Arial, sans-serif" font-size="12" fill="#718096">z=3</text>
  <rect x="225.0" y="415.0" width="26" height="0.0" fill="#2b6cb0" /><text x="208.0" y="467" font-family="Arial, sans-serif" font-size="10" fill="#2b6cb0">multi-k alpha</text><rect x="267.0" y="415.0" width="26" height="0.0" fill="#2f855a" /><text x="250.0" y="483" font-family="Arial, sans-serif" font-size="10" fill="#2f855a">late NGP</text><rect x="309.0" y="415.0" width="26" height="0.0" fill="#805ad5" /><text x="292.0" y="499" font-family="Arial, sans-serif" font-size="10" fill="#805ad5">chi4 peak</text><text x="208.0" y="450" font-family="Arial, sans-serif" font-size="12">consistent raw curves</text><text x="192.0" y="130" font-family="Arial, sans-serif" font-size="12">tau_p/tau_x=7.00</text><text x="192.0" y="148" font-family="Arial, sans-serif" font-size="12">SE growth=3.22</text><rect x="790.0" y="415.0" width="26" height="0.0" fill="#2b6cb0" /><text x="773.0" y="467" font-family="Arial, sans-serif" font-size="10" fill="#2b6cb0">multi-k alpha</text><rect x="832.0" y="139.3" width="26" height="275.7" fill="#c05621" /><text x="815.0" y="483" font-family="Arial, sans-serif" font-size="10" fill="#c05621">late NGP</text><rect x="874.0" y="415.0" width="26" height="0.0" fill="#805ad5" /><text x="857.0" y="499" font-family="Arial, sans-serif" font-size="10" fill="#805ad5">chi4 peak</text><text x="773.0" y="450" font-family="Arial, sans-serif" font-size="12">late ngp mismatch</text><text x="757.0" y="130" font-family="Arial, sans-serif" font-size="12">tau_p/tau_x=7.00</text><text x="757.0" y="148" font-family="Arial, sans-serif" font-size="12">SE growth=3.22</text>
</svg>
