<svg xmlns="http://www.w3.org/2000/svg" width="1180" height="660" viewBox="0 0 1180 660">
  <rect width="100%" height="100%" fill="#ffffff" />
  <text x="75" y="42" font-family="Arial, sans-serif" font-size="24" font-weight="700">Observable falsification matrix</text>
  <text x="75" y="66" font-family="Arial, sans-serif" font-size="13" fill="#444">Rows show which literature benchmarks contain the observables needed to falsify each diagnostic protocol.</text>
  <text x="274" y="88" font-family="Arial, sans-serif" font-size="11">van hove gaussian </text><text x="409" y="88" font-family="Arial, sans-serif" font-size="11">multi k alpha shap</text><text x="544" y="88" font-family="Arial, sans-serif" font-size="11">joint persistence </text><text x="679" y="88" font-family="Arial, sans-serif" font-size="11">stokes einstein de</text><text x="814" y="88" font-family="Arial, sans-serif" font-size="11">four point facilit</text>
  <text x="34" y="138" font-family="Arial, sans-serif" font-size="11">kob andersen van hove 1995</text><rect x="270" y="105" width="127" height="48" fill="#2b6cb0" opacity="0.88" /><text x="281" y="127" font-family="Arial, sans-serif" font-size="12" fill="#fff">cov 1.00</text><text x="281" y="144" font-family="Arial, sans-serif" font-size="10" fill="#fff">block none</text><rect x="405" y="105" width="127" height="48" fill="#c05621" opacity="0.88" /><text x="416" y="127" font-family="Arial, sans-serif" font-size="12" fill="#fff">cov 0.25</text><text x="416" y="144" font-family="Arial, sans-serif" font-size="10" fill="#fff">block self_intermed</text><rect x="540" y="105" width="127" height="48" fill="#c05621" opacity="0.88" /><text x="551" y="127" font-family="Arial, sans-serif" font-size="12" fill="#fff">cov 0.17</text><text x="551" y="144" font-family="Arial, sans-serif" font-size="10" fill="#fff">block tau_alpha</text><rect x="675" y="105" width="127" height="48" fill="#c05621" opacity="0.88" /><text x="686" y="127" font-family="Arial, sans-serif" font-size="12" fill="#fff">cov 0.33</text><text x="686" y="144" font-family="Arial, sans-serif" font-size="10" fill="#fff">block temperature_g</text><rect x="810" y="105" width="127" height="48" fill="#c05621" opacity="0.88" /><text x="821" y="127" font-family="Arial, sans-serif" font-size="12" fill="#fff">cov 0.25</text><text x="821" y="144" font-family="Arial, sans-serif" font-size="10" fill="#fff">block tau_alpha</text><text x="34" y="194" font-family="Arial, sans-serif" font-size="11">kob andersen intermediate scattering</text><rect x="270" y="161" width="127" height="48" fill="#c05621" opacity="0.88" /><text x="281" y="183" font-family="Arial, sans-serif" font-size="12" fill="#fff">cov 0.25</text><text x="281" y="200" font-family="Arial, sans-serif" font-size="10" fill="#fff">block van_hove_tail</text><rect x="405" y="161" width="127" height="48" fill="#2b6cb0" opacity="0.88" /><text x="416" y="183" font-family="Arial, sans-serif" font-size="12" fill="#fff">cov 1.00</text><text x="416" y="200" font-family="Arial, sans-serif" font-size="10" fill="#fff">block none</text><rect x="540" y="161" width="127" height="48" fill="#c05621" opacity="0.88" /><text x="551" y="183" font-family="Arial, sans-serif" font-size="12" fill="#fff">cov 0.17</text><text x="551" y="200" font-family="Arial, sans-serif" font-size="10" fill="#fff">block diffusion</text><rect x="675" y="161" width="127" height="48" fill="#c05621" opacity="0.88" /><text x="686" y="183" font-family="Arial, sans-serif" font-size="12" fill="#fff">cov 0.33</text><text x="686" y="200" font-family="Arial, sans-serif" font-size="10" fill="#fff">block temperature_g</text><rect x="810" y="161" width="127" height="48" fill="#c05621" opacity="0.88" /><text x="821" y="183" font-family="Arial, sans-serif" font-size="12" fill="#fff">cov 0.25</text><text x="821" y="200" font-family="Arial, sans-serif" font-size="10" fill="#fff">block chi4_peak</text><text x="34" y="250" font-family="Arial, sans-serif" font-size="11">hedges persistence exchange 2007</text><rect x="270" y="217" width="127" height="48" fill="#c05621" opacity="0.88" /><text x="281" y="239" font-family="Arial, sans-serif" font-size="12" fill="#fff">cov 0.00</text><text x="281" y="256" font-family="Arial, sans-serif" font-size="10" fill="#fff">block time_grid</text><rect x="405" y="217" width="127" height="48" fill="#c05621" opacity="0.88" /><text x="416" y="239" font-family="Arial, sans-serif" font-size="12" fill="#fff">cov 0.25</text><text x="416" y="256" font-family="Arial, sans-serif" font-size="10" fill="#fff">block time_grid</text><rect x="540" y="217" width="127" height="48" fill="#d69e2e" opacity="0.88" /><text x="551" y="239" font-family="Arial, sans-serif" font-size="12" fill="#fff">cov 0.50</text><text x="551" y="256" font-family="Arial, sans-serif" font-size="10" fill="#fff">block diffusion</text><rect x="675" y="217" width="127" height="48" fill="#c05621" opacity="0.88" /><text x="686" y="239" font-family="Arial, sans-serif" font-size="12" fill="#fff">cov 0.33</text><text x="686" y="256" font-family="Arial, sans-serif" font-size="10" fill="#fff">block temperature_g</text><rect x="810" y="217" width="127" height="48" fill="#c05621" opacity="0.88" /><text x="821" y="239" font-family="Arial, sans-serif" font-size="12" fill="#fff">cov 0.25</text><text x="821" y="256" font-family="Arial, sans-serif" font-size="10" fill="#fff">block chi4_peak</text><text x="34" y="306" font-family="Arial, sans-serif" font-size="11">weeks weitz cage 2002</text><rect x="270" y="273" width="127" height="48" fill="#c05621" opacity="0.88" /><text x="281" y="295" font-family="Arial, sans-serif" font-size="12" fill="#fff">cov 0.00</text><text x="281" y="312" font-family="Arial, sans-serif" font-size="10" fill="#fff">block time_grid</text><rect x="405" y="273" width="127" height="48" fill="#c05621" opacity="0.88" /><text x="416" y="295" font-family="Arial, sans-serif" font-size="12" fill="#fff">cov 0.00</text><text x="416" y="312" font-family="Arial, sans-serif" font-size="10" fill="#fff">block time_grid</text><rect x="540" y="273" width="127" height="48" fill="#c05621" opacity="0.88" /><text x="551" y="295" font-family="Arial, sans-serif" font-size="12" fill="#fff">cov 0.00</text><text x="551" y="312" font-family="Arial, sans-serif" font-size="10" fill="#fff">block diffusion</text><rect x="675" y="273" width="127" height="48" fill="#c05621" opacity="0.88" /><text x="686" y="295" font-family="Arial, sans-serif" font-size="12" fill="#fff">cov 0.00</text><text x="686" y="312" font-family="Arial, sans-serif" font-size="10" fill="#fff">block temperature_g</text><rect x="810" y="273" width="127" height="48" fill="#c05621" opacity="0.88" /><text x="821" y="295" font-family="Arial, sans-serif" font-size="12" fill="#fff">cov 0.00</text><text x="821" y="312" font-family="Arial, sans-serif" font-size="10" fill="#fff">block tau_alpha</text><text x="34" y="362" font-family="Arial, sans-serif" font-size="11">lacevic four point 2003</text><rect x="270" y="329" width="127" height="48" fill="#c05621" opacity="0.88" /><text x="281" y="351" font-family="Arial, sans-serif" font-size="12" fill="#fff">cov 0.00</text><text x="281" y="368" font-family="Arial, sans-serif" font-size="10" fill="#fff">block time_grid</text><rect x="405" y="329" width="127" height="48" fill="#c05621" opacity="0.88" /><text x="416" y="351" font-family="Arial, sans-serif" font-size="12" fill="#fff">cov 0.25</text><text x="416" y="368" font-family="Arial, sans-serif" font-size="10" fill="#fff">block time_grid</text><rect x="540" y="329" width="127" height="48" fill="#c05621" opacity="0.88" /><text x="551" y="351" font-family="Arial, sans-serif" font-size="12" fill="#fff">cov 0.33</text><text x="551" y="368" font-family="Arial, sans-serif" font-size="10" fill="#fff">block diffusion</text><rect x="675" y="329" width="127" height="48" fill="#c05621" opacity="0.88" /><text x="686" y="351" font-family="Arial, sans-serif" font-size="12" fill="#fff">cov 0.33</text><text x="686" y="368" font-family="Arial, sans-serif" font-size="10" fill="#fff">block temperature_g</text><rect x="810" y="329" width="127" height="48" fill="#d69e2e" opacity="0.88" /><text x="821" y="351" font-family="Arial, sans-serif" font-size="12" fill="#fff">cov 0.75</text><text x="821" y="368" font-family="Arial, sans-serif" font-size="10" fill="#fff">block diffusion</text><text x="34" y="418" font-family="Arial, sans-serif" font-size="11">guan granick fickian ngp 2014</text><rect x="270" y="385" width="127" height="48" fill="#d69e2e" opacity="0.88" /><text x="281" y="407" font-family="Arial, sans-serif" font-size="12" fill="#fff">cov 0.75</text><text x="281" y="424" font-family="Arial, sans-serif" font-size="10" fill="#fff">block diffusion</text><rect x="405" y="385" width="127" height="48" fill="#c05621" opacity="0.88" /><text x="416" y="407" font-family="Arial, sans-serif" font-size="12" fill="#fff">cov 0.25</text><text x="416" y="424" font-family="Arial, sans-serif" font-size="10" fill="#fff">block self_intermed</text><rect x="540" y="385" width="127" height="48" fill="#c05621" opacity="0.88" /><text x="551" y="407" font-family="Arial, sans-serif" font-size="12" fill="#fff">cov 0.00</text><text x="551" y="424" font-family="Arial, sans-serif" font-size="10" fill="#fff">block diffusion</text><rect x="675" y="385" width="127" height="48" fill="#c05621" opacity="0.88" /><text x="686" y="407" font-family="Arial, sans-serif" font-size="12" fill="#fff">cov 0.00</text><text x="686" y="424" font-family="Arial, sans-serif" font-size="10" fill="#fff">block temperature_g</text><rect x="810" y="385" width="127" height="48" fill="#c05621" opacity="0.88" /><text x="821" y="407" font-family="Arial, sans-serif" font-size="12" fill="#fff">cov 0.00</text><text x="821" y="424" font-family="Arial, sans-serif" font-size="10" fill="#fff">block tau_alpha</text>
  <rect x="75" y="585" width="14" height="14" fill="#2f855a" /><text x="96" y="597" font-family="Arial, sans-serif" font-size="12">quantitative ready</text>
  <rect x="235" y="585" width="14" height="14" fill="#2b6cb0" /><text x="256" y="597" font-family="Arial, sans-serif" font-size="12">all observables, no machine-readable uncertainty</text>
  <rect x="548" y="585" width="14" height="14" fill="#d69e2e" /><text x="569" y="597" font-family="Arial, sans-serif" font-size="12">partial observable coverage</text>
  <rect x="760" y="585" width="14" height="14" fill="#c05621" /><text x="781" y="597" font-family="Arial, sans-serif" font-size="12">underconstrained</text>
</svg>
