<svg xmlns="http://www.w3.org/2000/svg" width="1120" height="560" viewBox="0 0 1120 560">
  <rect width="100%" height="100%" fill="#ffffff" />
  <text x="75" y="42" font-family="Arial, sans-serif" font-size="24" font-weight="700">Persistence/exchange renewal diagnostic</text>
  <text x="75" y="66" font-family="Arial, sans-serif" font-size="13" fill="#444">First cage persistence slows alpha relaxation while the exchange clock fixes long-time diffusion.</text>
  
  <line x1="75" y1="430" x2="520" y2="430" stroke="#222" />
  <line x1="75" y1="430" x2="75" y2="90" stroke="#222" />
  <text x="75" y="66" font-family="Arial, sans-serif" font-size="17" font-weight="700">A. SE decoupling at fixed diffusion</text>
  <text x="217.5" y="468" font-family="Arial, sans-serif" font-size="13">persistence / exchange mean</text>

  <polyline points="75.00,430.00 115.45,393.25 196.36,327.96 358.18,207.71 520.00,90.00" fill="none" stroke="#805ad5" stroke-width="2.2" stroke-linejoin="round" stroke-linecap="round" />
  <polyline points="75.00,90.00 115.45,252.62 196.36,337.73 358.18,381.27 520.00,430.00" fill="none" stroke="#a0aec0" stroke-width="2.2" stroke-linejoin="round" stroke-linecap="round" />
  <text x="95" y="118" font-family="Arial, sans-serif" font-size="12" fill="#805ad5">D tau_alpha / Poisson limit</text>
  <text x="95" y="136" font-family="Arial, sans-serif" font-size="12" fill="#a0aec0">late NGP / Poisson limit</text>
  
  <line x1="660" y1="430" x2="1040" y2="430" stroke="#222" />
  <line x1="660" y1="430" x2="660" y2="90" stroke="#222" />
  <text x="660" y="66" font-family="Arial, sans-serif" font-size="17" font-weight="700">B. NGP recovery despite delayed persistence</text>
  <text x="770.0" y="468" font-family="Arial, sans-serif" font-size="13">log10 time</text>

  <polyline points="660.00,90.00 661.47,101.25 662.93,112.07 664.40,122.47 665.87,132.47 667.34,142.09 668.80,151.33 670.27,160.22 671.74,168.77 673.20,176.98 674.67,184.87 676.14,192.46 677.61,199.75 679.07,206.76 680.54,213.49 682.01,219.96 683.47,226.17 684.94,232.14 686.41,237.87 687.88,243.37 689.34,248.65 690.81,253.72 692.28,258.58 693.75,263.24 695.21,267.72 696.68,272.01 698.15,276.12 699.61,280.06 701.08,283.83 702.55,287.44 704.02,290.90 705.48,294.21 706.95,297.37 708.42,300.39 709.88,303.27 711.35,306.03 712.82,308.65 714.29,311.15 715.75,313.53 717.22,315.80 718.69,317.95 720.15,319.99 721.62,321.92 723.09,323.75 724.56,325.48 726.02,327.11 727.49,328.64 728.96,330.07 730.42,331.42 731.89,332.67 733.36,333.84 734.83,334.92 736.29,335.92 737.76,336.83 739.23,337.66 740.69,338.41 742.16,339.09 743.63,339.69 745.10,340.21 746.56,340.66 748.03,341.04 749.50,341.34 750.97,341.58 752.43,341.75 753.90,341.85 755.37,341.89 756.83,341.86 758.30,341.77 759.77,341.62 761.24,341.42 762.70,341.16 764.17,340.84 765.64,340.48 767.10,340.07 768.57,339.61 770.04,339.11 771.51,338.57 772.97,338.00 774.44,337.40 775.91,336.77 777.37,336.12 778.84,335.46 780.31,334.78 781.78,334.10 783.24,333.41 784.71,332.73 786.18,332.06 787.64,331.40 789.11,330.76 790.58,330.15 792.05,329.57 793.51,329.03 794.98,328.53 796.45,328.08 797.92,327.67 799.38,327.32 800.85,327.03 802.32,326.81 803.78,326.64 805.25,326.55 806.72,326.52 808.19,326.56 809.65,326.68 811.12,326.87 812.59,327.13 814.05,327.47 815.52,327.88 816.99,328.36 818.46,328.91 819.92,329.53 821.39,330.22 822.86,330.98 824.32,331.80 825.79,332.68 827.26,333.63 828.73,334.63 830.19,335.68 831.66,336.79 833.13,337.95 834.59,339.15 836.06,340.40 837.53,341.69 839.00,343.01 840.46,344.37 841.93,345.77 843.40,347.19 844.86,348.63 846.33,350.10 847.80,351.59 849.27,353.09 850.73,354.61 852.20,356.14 853.67,357.67 855.14,359.21 856.60,360.76 858.07,362.31 859.54,363.85 861.00,365.39 862.47,366.93 863.94,368.46 865.41,369.98 866.87,371.49 868.34,372.98 869.81,374.46 871.27,375.93 872.74,377.38 874.21,378.80 875.68,380.21 877.14,381.60 878.61,382.97 880.08,384.32 881.54,385.64 883.01,386.94 884.48,388.22 885.95,389.47 887.41,390.70 888.88,391.90 890.35,393.07 891.81,394.22 893.28,395.35 894.75,396.45 896.22,397.52 897.68,398.57 899.15,399.59 900.62,400.59 902.08,401.56 903.55,402.50 905.02,403.42 906.49,404.32 907.95,405.19 909.42,406.04 910.89,406.86 912.36,407.66 913.82,408.44 915.29,409.19 916.76,409.93 918.22,410.64 919.69,411.33 921.16,412.00 922.63,412.64 924.09,413.27 925.56,413.88 927.03,414.47 928.49,415.04 929.96,415.59 931.43,416.13 932.90,416.65 934.36,417.15 935.83,417.63 937.30,418.10 938.76,418.56 940.23,418.99 941.70,419.42 943.17,419.83 944.63,420.22 946.10,420.61 947.57,420.97 949.03,421.33 950.50,421.68 951.97,422.01 953.44,422.33 954.90,422.64 956.37,422.94 957.84,423.23 959.31,423.51 960.77,423.77 962.24,424.03 963.71,424.28 965.17,424.53 966.64,424.76 968.11,424.98 969.58,425.20 971.04,425.41 972.51,425.61 973.98,425.80 975.44,425.99 976.91,426.17 978.38,426.34 979.85,426.51 981.31,426.67 982.78,426.83 984.25,426.98 985.71,427.12 987.18,427.26 988.65,427.40 990.12,427.53 991.58,427.65 993.05,427.77 994.52,427.89 995.98,428.00 997.45,428.10 998.92,428.21 1000.39,428.31 1001.85,428.40 1003.32,428.49 1004.79,428.58 1006.25,428.67 1007.72,428.75 1009.19,428.83 1010.66,428.91 1012.12,428.98 1013.59,429.05 1015.06,429.12 1016.53,429.19 1017.99,429.25 1019.46,429.31 1020.93,429.37 1022.39,429.42 1023.86,429.48 1025.33,429.53 1026.80,429.58 1028.26,429.63 1029.73,429.68 1031.20,429.72 1032.66,429.76 1034.13,429.81 1035.60,429.85 1037.07,429.88 1038.53,429.93 1040.00,430.00" fill="none" stroke="#2b6cb0" stroke-width="2.2" stroke-linejoin="round" stroke-linecap="round" /><text x="680" y="118" font-family="Arial, sans-serif" font-size="12" fill="#2b6cb0">tau_p/tau_x=1</text><polyline points="660.00,400.91 661.47,401.84 662.93,402.73 664.40,403.58 665.87,404.40 667.34,405.18 668.80,405.94 670.27,406.66 671.74,407.36 673.20,408.03 674.67,408.67 676.14,409.28 677.61,409.87 679.07,410.44 680.54,410.98 682.01,411.49 683.47,411.99 684.94,412.47 686.41,412.92 687.88,413.35 689.34,413.77 690.81,414.16 692.28,414.54 693.75,414.90 695.21,415.25 696.68,415.57 698.15,415.88 699.61,416.18 701.08,416.45 702.55,416.72 704.02,416.97 705.48,417.20 706.95,417.42 708.42,417.62 709.88,417.82 711.35,417.99 712.82,418.16 714.29,418.31 715.75,418.45 717.22,418.57 718.69,418.69 720.15,418.79 721.62,418.87 723.09,418.94 724.56,419.00 726.02,419.05 727.49,419.08 728.96,419.10 730.42,419.11 731.89,419.10 733.36,419.07 734.83,419.03 736.29,418.98 737.76,418.91 739.23,418.82 740.69,418.72 742.16,418.59 743.63,418.45 745.10,418.29 746.56,418.11 748.03,417.91 749.50,417.68 750.97,417.43 752.43,417.16 753.90,416.86 755.37,416.53 756.83,416.17 758.30,415.77 759.77,415.35 761.24,414.89 762.70,414.38 764.17,413.84 765.64,413.26 767.10,412.62 768.57,411.94 770.04,411.20 771.51,410.41 772.97,409.56 774.44,408.64 775.91,407.65 777.37,406.59 778.84,405.45 780.31,404.23 781.78,402.92 783.24,401.52 784.71,400.02 786.18,398.41 787.64,396.69 789.11,394.85 790.58,392.89 792.05,390.79 793.51,388.56 794.98,386.18 796.45,383.64 797.92,380.95 799.38,378.08 800.85,375.04 802.32,371.81 803.78,368.38 805.25,364.76 806.72,360.93 808.19,356.88 809.65,352.60 811.12,348.09 812.59,343.34 814.05,338.35 815.52,333.11 816.99,327.61 818.46,321.86 819.92,315.84 821.39,309.56 822.86,303.03 824.32,296.23 825.79,289.18 827.26,281.88 828.73,274.35 830.19,266.59 831.66,258.62 833.13,250.46 834.59,242.12 836.06,233.65 837.53,225.05 839.00,216.37 840.46,207.63 841.93,198.88 843.40,190.16 844.86,181.50 846.33,172.96 847.80,164.58 849.27,156.41 850.73,148.50 852.20,140.90 853.67,133.67 855.14,126.84 856.60,120.48 858.07,114.61 859.54,109.29 861.00,104.56 862.47,100.44 863.94,96.97 865.41,94.18 866.87,92.08 868.34,90.68 869.81,90.00 871.27,90.04 872.74,90.78 874.21,92.24 875.68,94.38 877.14,97.19 878.61,100.64 880.08,104.70 881.54,109.35 883.01,114.55 884.48,120.25 885.95,126.43 887.41,133.02 888.88,140.00 890.35,147.32 891.81,154.93 893.28,162.80 894.75,170.87 896.22,179.12 897.68,187.49 899.15,195.95 900.62,204.47 902.08,213.00 903.55,221.53 905.02,230.01 906.49,238.42 907.95,246.73 909.42,254.93 910.89,262.99 912.36,270.89 913.82,278.61 915.29,286.15 916.76,293.48 918.22,300.60 919.69,307.50 921.16,314.18 922.63,320.61 924.09,326.81 925.56,332.77 927.03,338.49 928.49,343.96 929.96,349.19 931.43,354.18 932.90,358.93 934.36,363.44 935.83,367.73 937.30,371.79 938.76,375.63 940.23,379.25 941.70,382.67 943.17,385.89 944.63,388.91 946.10,391.74 947.57,394.40 949.03,396.89 950.50,399.21 951.97,401.38 953.44,403.41 954.90,405.29 956.37,407.05 957.84,408.68 959.31,410.19 960.77,411.60 962.24,412.90 963.71,414.11 965.17,415.24 966.64,416.28 968.11,417.24 969.58,418.14 971.04,418.97 972.51,419.74 973.98,420.45 975.44,421.11 976.91,421.73 978.38,422.30 979.85,422.83 981.31,423.32 982.78,423.78 984.25,424.21 985.71,424.60 987.18,424.97 988.65,425.32 990.12,425.64 991.58,425.94 993.05,426.22 994.52,426.49 995.98,426.73 997.45,426.96 998.92,427.18 1000.39,427.38 1001.85,427.57 1003.32,427.75 1004.79,427.91 1006.25,428.07 1007.72,428.22 1009.19,428.36 1010.66,428.49 1012.12,428.61 1013.59,428.72 1015.06,428.83 1016.53,428.93 1017.99,429.03 1019.46,429.12 1020.93,429.21 1022.39,429.29 1023.86,429.37 1025.33,429.44 1026.80,429.51 1028.26,429.57 1029.73,429.63 1031.20,429.69 1032.66,429.75 1034.13,429.80 1035.60,429.85 1037.07,429.89 1038.53,429.94 1040.00,430.00" fill="none" stroke="#c05621" stroke-width="2.2" stroke-linejoin="round" stroke-linecap="round" /><text x="680" y="136" font-family="Arial, sans-serif" font-size="12" fill="#c05621">tau_p/tau_x=12</text>
</svg>
