<svg xmlns="http://www.w3.org/2000/svg" width="1120" height="480" viewBox="0 0 1120 480">
  <rect width="100%" height="100%" fill="#ffffff" />
  <text x="75" y="42" font-family="Arial, sans-serif" font-size="24" font-weight="700">Cross-benchmark fusion readiness</text>
  <text x="75" y="66" font-family="Arial, sans-serif" font-size="13" fill="#444">Multi-paper validation must preserve system, temperature-grid, and ensemble identity before shared diagnostics are claimed.</text>
  <text x="95" y="118.00" font-family="Arial, sans-serif" font-size="12">kob andersen i ii dynamic closure</text><rect x="455" y="105.00" width="270" height="15" fill="#edf2f7" stroke="#cbd5e0" /><rect x="455" y="105.00" width="270.00" height="15" fill="#2b6cb0" /><text x="740" y="118.00" font-family="Arial, sans-serif" font-size="12">cov=1.00</text><text x="815" y="118.00" font-family="Arial, sans-serif" font-size="12">sys/grid/ens=1/1/1</text><text x="965" y="118.00" font-family="Arial, sans-serif" font-size="12">block: machine_readable_data</text><text x="95" y="194.67" font-family="Arial, sans-serif" font-size="12">ka lacevic four point splice</text><rect x="455" y="181.67" width="270" height="15" fill="#edf2f7" stroke="#cbd5e0" /><rect x="455" y="181.67" width="270.00" height="15" fill="#c05621" /><text x="740" y="194.67" font-family="Arial, sans-serif" font-size="12">cov=1.00</text><text x="815" y="194.67" font-family="Arial, sans-serif" font-size="12">sys/grid/ens=1/0/0</text><text x="965" y="194.67" font-family="Arial, sans-serif" font-size="12">block: temperature_grid_mismatc</text><text x="95" y="271.33" font-family="Arial, sans-serif" font-size="12">hedges lacevic exchange chi4 splice</text><rect x="455" y="258.33" width="270" height="15" fill="#edf2f7" stroke="#cbd5e0" /><rect x="455" y="258.33" width="225.00" height="15" fill="#c05621" /><text x="740" y="271.33" font-family="Arial, sans-serif" font-size="12">cov=0.83</text><text x="815" y="271.33" font-family="Arial, sans-serif" font-size="12">sys/grid/ens=0/0/0</text><text x="965" y="271.33" font-family="Arial, sans-serif" font-size="12">block: late_ngp</text>
  <rect x="95" y="390" width="14" height="14" fill="#2f855a" /><text x="116" y="402" font-family="Arial, sans-serif" font-size="12">quantitative fusion ready</text>
  <rect x="280" y="390" width="14" height="14" fill="#2b6cb0" /><text x="301" y="402" font-family="Arial, sans-serif" font-size="12">structural fusion only</text>
  <rect x="455" y="390" width="14" height="14" fill="#c05621" /><text x="476" y="402" font-family="Arial, sans-serif" font-size="12">invalid splice or missing observables</text>
</svg>
